<svg width="23" height="30" viewBox="0 0 23 30" fill="none" xmlns="http://www.w3.org/2000/svg">
<path fill-rule="evenodd" clip-rule="evenodd" d="M0 8.46712L0.0143155 8.5282C0.0161688 8.53064 0.0186135 8.53353 0.0204988 8.53625L0.0484588 8.59169C0.168607 8.86007 0.480816 9.4183 0.631161 9.69438C0.952366 10.2842 1.2617 10.8855 1.57976 11.4779C1.65801 11.6202 1.82443 11.9633 1.89601 12.0776C2.01326 12.2648 2.15966 12.565 2.2499 12.7575C2.89977 13.9685 3.54552 15.1796 4.19306 16.3918C4.47065 16.8827 4.75248 17.4385 5.02563 17.953L5.03833 17.9725C5.03908 17.9742 5.0405 17.9775 5.04106 17.9791C5.04642 17.9952 5.04375 17.9928 5.04298 18.0126L3.02305 18.0135C2.83492 18.0136 2.83511 17.9858 2.83254 18.1371C2.82431 18.6213 2.83177 19.1354 2.83951 19.6204C2.84099 19.7146 2.82425 19.7382 2.73208 19.7375L1.19923 19.7371C1.12919 19.7371 1.14136 19.728 1.15119 19.8C1.29532 20.8562 1.51542 21.9672 1.70254 23.0202C1.71839 23.1094 1.73285 23.093 1.8113 23.093L6.28161 23.0911C6.43679 23.0911 6.41537 23.1204 6.39144 22.9637C6.346 22.6663 6.22034 21.9405 6.18482 21.7464C6.17448 21.6899 6.15812 21.6591 6.1594 21.5991L6.9584 21.6014L7.00823 21.7163C7.0094 21.7184 7.01146 21.7211 7.01267 21.7232C7.57804 22.7545 8.12491 23.7886 8.67946 24.8264C8.70264 24.8656 8.72701 24.9146 8.7497 24.9548L9.30048 25.9854C9.34321 26.0765 9.39343 26.1633 9.43726 26.2494C9.92141 27.1767 10.5037 28.1609 10.9474 29.0892C11.0368 29.2762 11.1306 29.4189 11.221 29.6008C11.2458 29.6509 11.3072 29.7726 11.3404 29.8332C11.3705 29.8881 11.4096 29.8661 11.4358 29.8198C12.0595 28.7153 12.6604 27.6092 13.2692 26.4969C13.3059 26.4151 13.3658 26.3083 13.4078 26.2355C14.2899 24.7079 15.0543 23.1359 15.9436 21.5856L16.879 21.5852C16.8782 21.6399 16.6752 22.7593 16.6261 23.016C16.6209 23.0433 16.6209 23.0686 16.6359 23.083C16.6643 23.1104 17.6749 23.093 17.7949 23.093C18.9294 23.093 20.0687 23.1108 21.2028 23.0936C21.3085 23.092 21.3046 23.1165 21.3218 23.0208C21.8727 19.9651 21.779 20.4963 21.8742 19.9569C21.9111 19.7474 21.9471 19.7342 21.7664 19.7336L19.8251 19.7278C19.7959 19.4385 19.8242 18.7757 19.8223 18.4175C19.8204 18.0664 19.8444 17.9816 19.565 17.9982C19.0117 17.9995 18.4493 18.0223 17.8981 17.9976C17.9047 17.8994 18.134 17.5291 18.1936 17.4207C19.532 14.9592 20.8527 12.5182 22.1858 10.1001C22.2982 9.90162 23.0333 8.38737 22.9988 8.36243C22.9613 8.33534 21.8146 9.796 21.6295 10.0365C21.5658 10.1353 21.482 10.2163 21.4136 10.312C19.8023 12.3795 18.1935 14.4465 16.5877 16.5178C16.2359 16.9715 15.8874 17.4236 15.5316 17.8753L15.4329 18.0007C15.4265 18.0045 15.3583 18.0076 15.244 18.01C14.488 18.026 11.7165 18.0127 11.5116 18.0127C10.191 18.0127 8.86956 18.0005 7.54903 18.0129C7.48244 18.0135 7.45598 18.0201 7.41926 17.9847C7.3937 17.9601 7.36767 17.925 7.34823 17.8936C7.25754 17.747 7.03936 17.4957 6.9194 17.3352C5.58264 15.6115 4.2308 13.8965 2.89835 12.1704C2.70327 11.9177 2.50907 11.6645 2.31621 11.4107C1.62018 10.4941 0.899642 9.58946 0.191007 8.68198C0.177251 8.66742 0.166099 8.65223 0.154307 8.63588C0.116442 8.58336 0.0546419 8.48789 0 8.46712Z" fill="#2B4388"/>
<path fill-rule="evenodd" clip-rule="evenodd" d="M8.49853 9.25959C8.37475 9.24895 8.22401 9.22318 8.09373 9.20594C7.15046 9.08117 6.20704 8.95466 5.26306 8.83364C4.7949 8.77573 4.32736 8.70655 3.8561 8.64888C3.39677 8.60267 2.90295 8.52125 2.44148 8.46003C2.36822 8.44125 2.10222 8.4136 2.01872 8.41801C2.02562 8.47875 2.42004 8.96105 2.51534 9.08935C3.01792 9.75205 3.54499 10.4172 4.03168 11.0895L4.46751 11.6769C4.50354 11.733 4.80956 12.1152 4.91127 12.2638C5.04002 12.428 5.16485 12.5952 5.29289 12.76C5.37736 12.8688 5.46241 12.984 5.54437 13.0952C5.91512 13.5983 6.30563 14.095 6.68327 14.5939C6.82374 14.7797 7.12066 14.7771 7.34542 14.8111C7.49503 14.8338 7.46912 14.9459 7.57661 15.1675C7.63897 15.2961 7.70239 15.4307 7.78138 15.5477C8.08764 16.0011 8.2875 16.2456 8.63075 16.5633C8.9596 16.8677 9.39197 17.1689 9.80811 17.3286C10.8592 17.7316 11.5065 17.7219 12.5755 17.5218C13.3207 17.3825 14.2214 16.7343 14.7326 16.1641C14.991 15.8758 15.2669 15.4544 15.4186 15.0919C15.5014 14.8938 15.5077 14.8288 15.5466 14.8038C15.5748 14.7856 15.8939 14.7556 15.9539 14.7482C16.3598 14.7256 16.2626 14.7189 16.4921 14.4063L16.7468 14.0752C16.9069 13.8547 17.093 13.6346 17.2526 13.4095C18.1689 12.1976 19.1577 10.9725 20.0263 9.73285C20.2754 9.37739 20.5861 9.00769 20.8477 8.65627L20.9751 8.48968C21.0409 8.41259 21.0565 8.39029 20.9433 8.41301C20.7084 8.43863 20.4657 8.47433 20.2309 8.50709C19.956 8.54121 19.6854 8.57802 19.4123 8.61707C18.6685 8.71194 17.9234 8.80694 17.1803 8.90627C17.0521 8.93515 16.6074 8.99914 16.1819 9.05423C15.7969 9.10408 14.8175 9.27759 14.526 9.25826C14.3947 9.00737 14.2877 8.75051 14.1548 8.50372C14.0561 8.3204 13.9708 8.12089 13.8754 7.93893C13.8096 7.81341 13.7481 7.68264 13.6846 7.5558C13.3898 6.95057 13.0063 6.26336 12.749 5.65441C12.4756 5.00738 12.0228 4.18619 11.7234 3.56017C11.69 3.49243 11.5758 3.20739 11.523 3.18677C11.5042 3.19226 11.4584 3.26891 11.4085 3.36392C10.734 4.64852 10.0953 6.04565 9.44747 7.36172L8.88374 8.51037C8.85292 8.57859 8.55231 9.20627 8.49853 9.25959Z" fill="#2B4388"/>
<path fill-rule="evenodd" clip-rule="evenodd" d="M2.55428 8.78171C2.68935 8.96631 2.84302 9.15163 2.98299 9.3372C3.09479 9.48541 3.22835 9.64346 3.33615 9.80554C3.76736 10.3748 4.19592 10.9469 4.62894 11.5144C5.00123 12.0498 5.53061 12.7085 5.93305 13.2341L6.64336 14.1644C6.7798 14.3458 6.84523 14.516 7.09123 14.547L7.32657 14.5801C7.58269 14.6156 7.5976 14.6351 7.66726 14.7918C7.92113 15.3628 8.18091 15.8494 8.64686 16.288C9.23875 16.8004 9.61909 17.0562 10.4039 17.2879C11.0753 17.486 11.8708 17.4792 12.5358 17.2957L12.9485 17.1589C13.2726 17.0402 13.5564 16.8637 13.8409 16.6773C14.2212 16.4281 14.5397 16.0763 14.8096 15.7128C14.8849 15.6113 14.9557 15.4843 15.0211 15.3729C15.0914 15.2531 15.1416 15.127 15.2045 15.0046C15.2507 14.9148 15.3259 14.6842 15.3735 14.6249C15.389 14.6057 15.3836 14.6101 15.4075 14.5975C15.4284 14.5864 15.4369 14.5855 15.459 14.5785C15.5806 14.5399 15.7079 14.5467 15.8341 14.5322C16.2071 14.4896 16.1208 14.5474 16.4703 14.0662C17.0827 13.223 17.7457 12.383 18.3724 11.5491C19.0699 10.6933 19.719 9.75948 20.3923 8.8792C20.4305 8.82932 20.4969 8.76126 20.5034 8.70764C20.2328 8.69723 18.1451 9.00172 17.8151 9.05494C16.8089 9.16986 15.8238 9.33692 14.8062 9.44937C14.7276 9.45804 14.6637 9.47888 14.5947 9.55264C14.5606 9.58909 14.5303 9.64823 14.4777 9.6574C14.2292 9.16387 13.9839 8.66688 13.737 8.17174C13.7155 8.12176 13.6758 8.04298 13.6473 7.99233C13.1519 6.98331 12.5683 5.53677 11.9872 4.62233C11.9859 4.62024 11.9839 4.61739 11.9826 4.6153L11.6145 3.86786C11.582 3.81263 11.549 3.7272 11.5119 3.6897C11.4788 3.71223 11.3025 4.08192 11.2597 4.17555C11.1344 4.44949 10.9889 4.74002 10.8514 5.0104C10.6323 5.4561 10.4162 5.90487 10.1957 6.34956C9.94833 6.8482 9.70191 7.34733 9.45483 7.84612C9.42858 7.90412 9.40137 7.95649 9.37433 8.01268C9.21272 8.34878 9.04393 8.68447 8.88056 9.01984L8.63534 9.51142C8.54672 9.70249 8.56031 9.70545 8.46527 9.58054C8.39874 9.49316 8.38944 9.47646 8.35974 9.47304C8.28957 9.46504 8.2154 9.44705 8.14821 9.44222C7.75147 9.39321 7.32765 9.34275 6.93691 9.2751C6.35235 9.1956 5.76386 9.11856 5.17853 9.04156C4.4214 8.92488 3.56528 8.81204 2.80208 8.73079C2.73565 8.72371 2.66438 8.71718 2.60835 8.71371C2.50844 8.70755 2.51748 8.69662 2.55428 8.78171Z" fill="#FEFEFE"/>
<path fill-rule="evenodd" clip-rule="evenodd" d="M2.97287 18.9573L2.97456 21.2015C2.9748 21.5071 2.96721 21.4302 3.30238 21.4303L15.4506 21.4323C15.8148 21.4323 18.6251 21.447 19.4471 21.4314C19.6881 21.4269 19.6777 21.4774 19.6843 21.2719C19.7033 20.6869 19.6684 18.5732 19.6647 18.2832C19.663 18.145 19.6777 18.1522 19.5493 18.152C18.3726 18.1502 5.09502 18.1468 3.24248 18.1454C3.0072 18.1453 2.99305 18.1172 2.98437 18.3004L2.97287 18.9573Z" fill="#902647"/>
<path fill-rule="evenodd" clip-rule="evenodd" d="M9.0159 16.0954C9.2182 16.2655 9.38473 16.4013 9.6158 16.5396C10.4754 17.0541 11.4445 17.1751 12.4198 16.9465C12.5549 16.9148 12.6449 16.8831 12.7724 16.8423C13.631 16.5678 14.456 15.8159 14.854 15.0063C15.3524 13.8984 15.3546 13.1907 15.0416 12.1442C14.9552 11.8587 14.7613 11.4394 14.581 11.2083C13.9655 10.4198 13.1092 9.77373 12.0898 9.64757C11.6061 9.58769 11.302 9.60012 10.7457 9.68106C10.2848 9.78351 9.62039 10.0834 9.2664 10.3919C9.12515 10.515 9.05255 10.5541 8.88884 10.7173C8.65724 10.9482 8.45198 11.1969 8.28369 11.4972C8.168 11.7036 8.06492 11.9005 7.9826 12.1222C7.9048 12.3318 7.84822 12.5353 7.81115 12.7554C7.61192 13.9388 8.09198 15.3189 9.0159 16.0954Z" fill="#2B4388"/>
<path fill-rule="evenodd" clip-rule="evenodd" d="M9.08514 9.92577L9.16289 9.89935C9.16487 9.89802 9.16757 9.89588 9.1695 9.89449L9.44049 9.72159C9.77108 9.53643 9.79461 9.54162 10.105 9.41268C10.1505 9.39374 10.1946 9.38423 10.2424 9.36362C11.2446 8.93161 12.7198 9.19351 13.6758 9.76902C13.7399 9.80761 13.8594 9.90687 13.9266 9.91021C13.9813 9.85313 13.9835 9.82178 14.024 9.75562C14.0865 9.65373 14.0664 9.60016 14.0182 9.50971C13.9701 9.41939 13.9217 9.3026 13.8735 9.20835L11.5517 4.49704C11.5235 4.45202 11.5576 4.47763 11.5117 4.46069C11.4744 4.48781 11.4461 4.5652 11.4204 4.61997C10.6584 6.24448 9.8015 7.91013 8.99377 9.53099C8.93462 9.63926 9.03256 9.84149 9.08514 9.92577Z" fill="#902647"/>
<path fill-rule="evenodd" clip-rule="evenodd" d="M7.40503 14.2168C7.40805 14.1764 7.34481 13.7869 7.33539 13.6343C7.26871 12.5555 7.61711 11.4935 8.30804 10.6644L8.54299 10.4066C8.59263 10.3539 8.56612 10.3241 8.46952 10.1921L8.27198 9.89744C8.20092 9.79635 8.226 9.77988 8.07837 9.7629C6.48561 9.55334 4.87454 9.36995 3.28845 9.12498C3.21516 9.11366 3.14188 9.11141 3.18752 9.16479C3.29329 9.28845 3.37722 9.40819 3.48185 9.52973C4.566 10.8747 5.6419 12.2325 6.73242 13.5719C6.82614 13.6885 6.9256 13.8271 7.02343 13.9369C7.14042 14.0681 7.20305 14.2236 7.40503 14.2168Z" fill="#902647"/>
<path fill-rule="evenodd" clip-rule="evenodd" d="M15.636 14.2215C15.7289 14.221 15.7908 14.1852 15.8367 14.1371C16.1083 13.8282 16.3615 13.4938 16.6189 13.1726C16.6627 13.118 16.7089 13.0626 16.7492 13.0094L18.6911 10.5911C18.7845 10.4946 19.8384 9.18708 19.8619 9.12774C19.7921 9.12624 19.6545 9.15438 19.463 9.17368C18.3839 9.2825 15.6999 9.65298 15.1366 9.74325C14.9348 9.77656 14.8608 9.74093 14.7457 9.91465C14.7169 9.9582 14.466 10.3405 14.467 10.362C14.4745 10.5328 15.9871 11.8076 15.6578 14.0556C15.648 14.1221 15.629 14.124 15.636 14.2215Z" fill="#902647"/>
<path fill-rule="evenodd" clip-rule="evenodd" d="M14.8921 8.027C15.1253 8.03368 15.662 8.02321 15.8603 8.02321C16.7395 8.02321 17.6187 8.02321 18.4979 8.02321C18.9936 8.02321 19.0552 8.03452 18.7897 7.7686C18.5561 7.53464 18.2256 7.17561 18.1395 7.08553C17.9013 6.83628 17.6164 6.51804 17.3826 6.28347C17.2525 6.15308 17.2524 6.17187 17.379 6.06133L18.1711 5.36953C18.3425 5.23521 18.5107 5.07872 18.676 4.93553C18.7287 4.89164 18.8491 4.8115 18.8602 4.74828L14.8112 4.74756C14.812 4.80241 14.9497 5.02935 14.984 5.09516L15.2653 5.61002C15.3281 5.72069 15.3103 6.73627 15.3025 6.90273C15.2879 7.2117 15.1046 7.3835 14.9817 7.65348L14.8496 7.92077C14.8029 8.00987 14.7967 8.02426 14.8921 8.027Z" fill="#2B4388"/>
<path fill-rule="evenodd" clip-rule="evenodd" d="M19.6055 21.579C19.5005 21.5859 19.3573 21.5777 19.2951 21.5777C19.0369 21.5778 19.295 21.6125 17.1799 21.5855C16.9899 21.5831 16.9684 21.6406 16.9321 21.9499C16.8958 22.0699 16.85 22.4867 16.8163 22.6076C16.8089 22.6344 16.8055 22.702 16.7873 22.7682C16.727 22.9871 16.8139 22.9595 17.1466 22.9656C17.9729 22.981 19.8834 22.9729 20.0805 22.9729L20.9363 22.9724C21.1761 22.9681 21.2472 22.9491 21.2838 22.6889C21.4112 21.7804 21.6001 20.8887 21.7435 19.9838C21.7639 19.8553 21.7581 19.8577 21.6134 19.8575L20 19.8555C19.8346 19.8553 19.8278 19.8428 19.8275 20.0116C19.8273 20.1715 19.81 20.9995 19.8034 21.2923C19.7985 21.5078 19.8149 21.5653 19.6055 21.579Z" fill="#902647"/>
<path fill-rule="evenodd" clip-rule="evenodd" d="M11.5583 29.3405C11.5916 29.327 11.9013 28.696 11.9496 28.6243C13.0894 26.5228 14.2334 24.422 15.3816 22.3251C15.4259 22.2473 15.4682 22.1585 15.5117 22.0786C15.5565 21.9964 15.7633 21.6426 15.7658 21.5854L14.6296 21.5858C13.8078 22.7292 12.503 24.9178 11.7333 26.1438C11.5876 26.3766 11.6399 26.3218 11.6118 26.6987C11.5794 27.1333 11.5339 29.2815 11.5583 29.3405Z" fill="#FEFEFE"/>
<path fill-rule="evenodd" clip-rule="evenodd" d="M2.02062 22.9773C3.38267 22.9708 4.74527 22.9652 6.10742 22.9733C6.25156 22.9741 6.27105 22.9759 6.24196 22.8046C6.06832 21.7824 6.12592 22.1091 6.0656 21.767C6.03889 21.6156 6.07417 21.589 5.92628 21.5887C5.43685 21.5875 3.65817 21.6026 3.10323 21.5823C2.84669 21.5729 2.80363 21.5646 2.80888 21.3088C2.81553 20.9846 2.82755 20.3848 2.8225 20.0741C2.81873 19.8416 2.85022 19.8607 2.63745 19.8609C2.41382 19.8611 1.81622 19.8509 1.4948 19.8554C1.29818 19.8582 1.30031 19.8362 1.3093 19.9896C1.76989 22.6305 1.64335 21.9241 1.77163 22.6434C1.82282 22.9304 1.76283 22.9786 2.02062 22.9773Z" fill="#902647"/>
<path fill-rule="evenodd" clip-rule="evenodd" d="M15.1611 7.89248L18.5253 7.89299C18.7875 7.91594 18.7065 7.83514 18.5107 7.66386L18.3092 7.44477C18.1688 7.28303 18.0353 7.17089 17.9032 7.01799C17.7719 6.86595 17.6403 6.74641 17.4976 6.59148C17.4686 6.56002 17.2855 6.37187 17.1773 6.2481C17.0711 6.12656 17.0872 6.15808 17.2085 6.04642C17.2875 5.97372 17.3681 5.90171 17.4535 5.83454L18.3413 5.05791C18.4212 4.97616 18.5037 4.9555 18.5135 4.88341L16.9586 4.88096C16.9429 5.01163 16.9436 5.1401 16.9447 5.2744C16.9455 5.37503 16.947 5.36085 16.8866 5.40863C16.8126 5.46721 16.5557 5.68014 16.4024 5.76734C16.2899 5.8313 16.2864 5.8078 16.304 5.68088C16.3218 5.55301 16.3945 5.46292 16.4734 5.31289L16.6968 4.90597C16.699 4.88004 16.6999 4.89247 16.6892 4.8783C16.663 4.86222 15.4656 4.85911 15.109 4.86682C15.0763 4.86753 15.024 4.86401 15.0217 4.88705C15.0166 4.93995 15.3001 5.41105 15.3426 5.48682C15.437 5.66124 15.4189 5.65308 15.4231 5.8836L15.423 6.8451C15.4208 7.18267 15.3872 7.14224 15.2647 7.39761L15.0985 7.7143C15.0049 7.88916 14.9837 7.89245 15.1611 7.89248Z" fill="#EFF2F7"/>
<path fill-rule="evenodd" clip-rule="evenodd" d="M6.09178 4.957C6.12065 5.03535 6.45548 5.28967 6.49728 5.38049C6.26404 5.38597 5.84255 5.35759 5.55853 5.38918C5.09293 5.44096 4.81463 5.84218 4.75959 6.28392C4.72022 6.59996 4.89479 7.01893 5.21097 7.1531C5.37391 7.22227 5.6232 7.20196 5.82649 7.20196C6.04733 7.20196 6.26908 7.19862 6.48979 7.20247C6.47822 7.27725 6.14081 7.59006 6.05835 7.68578C6.03492 7.71299 6.01355 7.72408 6.01926 7.77631L7.2938 7.77617C7.29478 7.73015 7.24806 7.69213 7.18903 7.64033C7.13311 7.58217 6.81887 7.27792 6.8096 7.22005C6.82205 7.21232 6.81399 7.2145 6.83657 7.20976L7.44421 7.21628C7.86344 7.21625 8.17089 7.23235 8.40046 6.83944C8.4964 6.67524 8.5255 6.53567 8.5194 6.29365C8.51423 6.08882 8.46819 5.96356 8.36039 5.79895C8.13013 5.44737 7.82963 5.38033 7.44421 5.37923C7.21925 5.37857 6.99501 5.38927 6.76959 5.38384C6.77154 5.38074 6.77419 5.3724 6.77528 5.37443C6.77633 5.37641 6.77942 5.3674 6.78089 5.36526C6.80893 5.32486 6.83916 5.30249 6.87503 5.2683C6.91751 5.2235 7.08495 5.07203 7.15167 5.00117C7.18891 4.96165 7.18679 4.96104 7.14028 4.95943L6.12078 4.94385C6.09509 4.95083 6.10804 4.94521 6.09178 4.957Z" fill="#2B4388"/>
<path fill-rule="evenodd" clip-rule="evenodd" d="M11.341 26.1514C11.3599 25.981 11.3439 23.6719 11.3456 23.3661C11.3465 23.2244 11.3288 23.2102 11.2427 23.1165C11.227 23.0995 11.2091 23.0798 11.1885 23.0562C10.8197 22.5703 10.4414 22.0925 10.0658 21.6116C10.0247 21.5699 9.93315 21.5855 9.85873 21.5855C9.48592 21.5856 8.74875 21.5663 8.45509 21.5878C8.45726 21.6566 8.5796 21.8032 8.61765 21.8764C9.18994 22.9768 10.2842 24.5224 10.9739 25.5919L11.2463 26.0244C11.2649 26.0574 11.3129 26.1442 11.341 26.1514Z" fill="#FEFEFE"/>
<path fill-rule="evenodd" clip-rule="evenodd" d="M15.2465 5.065L15.4607 5.45006C15.5195 5.56005 15.5414 5.60413 15.5417 5.70719L15.5432 6.90343C15.5426 7.10076 15.5326 7.1662 15.4163 7.37418C15.385 7.43019 15.2838 7.59642 15.2376 7.70094C15.1938 7.79997 15.2334 7.77226 15.3419 7.77487C15.6394 7.78201 16.0778 7.77461 16.3951 7.7718C16.5094 7.77078 16.5308 7.79292 16.4682 7.67167C16.3896 7.51949 16.2081 7.26983 16.1871 7.13763L16.1862 6.52788C16.3876 6.5143 16.4533 6.5137 16.5789 6.61811C16.6501 6.67722 16.7185 6.74667 16.7789 6.80563C16.8993 6.92327 17.0194 7.04019 17.1374 7.15444C17.1687 7.18475 17.1746 7.17852 17.1605 7.22156C17.1239 7.33347 16.9788 7.56073 16.9362 7.69936C16.9132 7.77429 16.9141 7.77161 16.9781 7.77162L18.3811 7.77209C18.4255 7.7721 18.4273 7.77669 18.397 7.73312C18.2813 7.56664 17.7507 7.02819 17.6818 6.95767C17.5741 6.84747 16.9669 6.21928 16.9365 6.14127C16.95 6.09188 17.0422 6.02941 17.0844 5.99353L17.5672 5.5847C17.5909 5.56505 17.6105 5.53572 17.6362 5.51442C17.6661 5.48958 17.6855 5.47608 17.7195 5.4442C17.7492 5.41634 17.7721 5.39437 17.7975 5.37061C17.8665 5.30627 17.9249 5.27055 18.0342 5.16139C18.0677 5.128 18.0827 5.11542 18.1132 5.08837C18.131 5.0726 18.1793 5.03985 18.1728 5.01277C18.1701 5.01124 18.1664 5.00534 18.1648 5.00802L18.1227 5.00066C17.802 5.00066 17.3764 4.99256 17.0681 5.00254L17.0603 5.33302C17.0577 5.44232 17.0762 5.4331 16.9428 5.52474L16.4273 5.90072C16.3864 5.91957 16.3127 5.9127 16.2581 5.91284C16.159 5.9131 16.1645 5.90765 16.1647 5.81295C16.1652 5.61575 16.2926 5.35818 16.3951 5.19745C16.4286 5.14482 16.4877 5.07657 16.493 5.00397L15.286 5.00595C15.234 5.00604 15.2144 5.00234 15.2465 5.065Z" fill="#2B4388"/>
<path fill-rule="evenodd" clip-rule="evenodd" d="M12.4967 20.9265C12.8849 20.9265 13.1319 20.8181 13.3799 20.603C13.4088 20.578 13.4284 20.5584 13.4521 20.5344C13.4977 20.488 13.5915 20.3311 13.623 20.272C13.8735 19.8026 13.6132 19.1593 13.1965 18.8673C12.9816 18.7167 12.7686 18.6466 12.5448 18.6485C12.2212 18.6511 11.9743 18.7656 11.7444 18.9787C11.6272 19.0873 11.5167 19.2491 11.453 19.4034C11.3497 19.6538 11.3167 19.9974 11.4505 20.2506C11.5218 20.3855 11.6011 20.4815 11.6942 20.5808C11.8582 20.7559 12.1917 20.9265 12.4967 20.9265ZM12.9614 19.9938C12.7878 19.981 12.3111 19.9618 12.1558 19.9795C12.0956 19.9863 12.111 20.0175 12.1222 20.06C12.1448 20.1461 12.2054 20.2878 12.2515 20.3513C12.4375 20.6078 12.6984 20.5264 12.7998 20.3868C12.8466 20.3224 12.98 20.1068 12.9614 19.9938ZM12.1143 19.6563L12.9637 19.659C13.0109 19.3843 12.6107 18.6366 12.2311 19.2426C12.1848 19.3166 12.0987 19.5531 12.1143 19.6563Z" fill="#FEFEFE"/>
<path fill-rule="evenodd" clip-rule="evenodd" d="M9.99244 15.21C10.0427 15.1022 10.1568 14.9397 10.2275 14.8355C10.3744 14.6191 10.5313 14.4266 10.6967 14.2255C10.724 14.187 10.7098 14.1546 10.6926 14.1135C10.6733 14.0672 10.6765 14.0511 10.6596 13.9926L10.4223 13.1499C10.3638 12.9188 10.4063 12.9741 10.0932 12.8615C9.83141 12.7674 9.58617 12.6626 9.32958 12.5601C9.31736 12.5552 9.31657 12.5556 9.30319 12.5496C9.24929 12.5254 9.2653 12.5215 9.20205 12.5256C9.02549 12.7326 8.82585 12.93 8.63545 13.1256C8.5609 13.2021 8.58389 13.2288 8.58413 13.3644C8.58504 13.8589 8.64112 14.4099 8.86313 14.8513C8.9102 14.9449 8.90582 14.9629 9.02344 14.9865C9.22125 15.0263 9.83388 15.2238 9.99244 15.21Z" fill="#FEFEFE"/>
<path fill-rule="evenodd" clip-rule="evenodd" d="M6.16591 17.9952L7.19463 17.9996C7.23243 17.9997 7.24181 18.0094 7.23295 17.9679C7.21791 17.8975 6.6253 17.1787 6.53655 17.0629C6.52 17.0413 4.80809 14.8303 3.38948 13.007C2.39318 11.7264 1.54152 10.637 1.52341 10.6313C1.52803 10.6839 1.82067 11.1229 1.87763 11.2176C3.09426 13.1402 4.32151 15.2014 5.58203 17.0672C5.67404 17.2034 5.84456 17.499 5.90919 17.5853L6.16591 17.9952Z" fill="#FEFEFE"/>
<path fill-rule="evenodd" clip-rule="evenodd" d="M11.459 0.139502C11.3492 0.483474 11.2277 0.825912 11.1165 1.16987C11.0894 1.25378 11.1083 1.24391 11.0196 1.24563C10.7169 1.25151 9.83956 1.21775 9.78161 1.25549C9.75929 1.27605 9.78298 1.28478 9.81134 1.31036C9.90626 1.39602 10.6567 1.92373 10.8046 2.05759C10.8207 2.0721 10.8296 2.08197 10.8299 2.08617C10.8303 2.09256 10.8307 2.09896 10.8311 2.10535C10.831 2.10845 10.823 2.14406 10.8202 2.15329C10.7939 2.23173 10.7675 2.31016 10.7411 2.38859C10.6452 2.67496 10.7411 2.38859 10.4527 3.27417C10.4132 3.37192 10.4388 3.36649 10.5111 3.3325C10.624 3.27161 10.723 3.17614 10.8258 3.09941C10.8525 3.07946 10.8732 3.06711 10.8953 3.05148C11.095 2.90603 11.2948 2.76057 11.4946 2.61511C11.5386 2.60033 11.5623 2.61465 11.5861 2.63617C11.8384 2.86356 12.2207 3.11092 12.5113 3.30125C12.544 3.32269 12.553 3.33332 12.5956 3.34383C12.594 3.2925 12.5669 3.22082 12.5504 3.18178C12.4638 2.92264 12.3865 2.67269 12.3098 2.41019C12.3015 2.38181 12.2126 2.10464 12.2191 2.08419C12.2212 2.08156 12.224 2.074 12.225 2.07604C12.2261 2.07804 12.2294 2.0698 12.2309 2.06804C12.4036 1.935 12.5764 1.80194 12.7491 1.66888C12.7573 1.66227 13.2429 1.31526 13.2577 1.26848C13.266 1.2424 13.2687 1.27219 13.2568 1.25215C13.1954 1.22315 12.476 1.25452 12.1195 1.25038C11.9575 1.24851 11.9657 1.27639 11.9079 1.13708C11.7849 0.840515 11.639 0.372608 11.5658 0.10694C11.5211 -0.0550042 11.5114 -0.0247914 11.459 0.139502Z" fill="#DCC693"/>
<path fill-rule="evenodd" clip-rule="evenodd" d="M12.8126 15.2275L13.7748 14.9912C13.8916 14.9629 14.1936 14.5034 14.2364 14.4048C14.3311 14.187 14.4544 13.8166 14.4632 13.5761C14.4731 13.3045 14.4738 13.3904 14.3544 13.2406C14.3305 13.2106 14.3113 13.1914 14.2836 13.1593L13.8633 12.665C13.7967 12.6103 13.4909 12.727 13.3927 12.7605C13.321 12.785 13.2398 12.8052 13.1703 12.8326C13.1 12.8603 13.0285 12.8939 12.9524 12.9175C12.8656 12.9444 12.8335 12.9753 12.7464 13.0047C12.618 13.048 12.6478 13.0432 12.605 13.1675L12.3682 13.8349C12.3171 13.9981 12.3019 14.0027 12.2494 14.1736C12.2052 14.3175 12.2084 14.2607 12.3495 14.4844L12.7487 15.1409C12.773 15.1773 12.7837 15.1996 12.8126 15.2275Z" fill="#FEFEFE"/>
<path fill-rule="evenodd" clip-rule="evenodd" d="M11.4988 10.9116L11.5982 11.9727C11.6408 12.1592 11.6003 12.1116 11.7358 12.2252C11.9856 12.4346 12.3483 12.7383 12.6135 12.9078C12.6468 12.9027 12.8532 12.8091 12.8863 12.7925C13.0691 12.7009 13.4845 12.5832 13.6867 12.5272C13.7965 12.4968 13.7663 12.4819 13.7681 12.3643C13.7704 12.2088 13.7706 12.0273 13.756 11.9085C13.7124 11.5543 13.8118 11.5061 13.6511 11.3063C13.4337 11.0361 13.0032 10.6766 12.7188 10.5383C12.4427 10.404 12.4426 10.4357 12.3043 10.5109C12.1418 10.5993 11.6923 10.8033 11.5987 10.86C11.5602 10.8833 11.5413 10.8963 11.4988 10.9116Z" fill="#FEFEFE"/>
<path fill-rule="evenodd" clip-rule="evenodd" d="M13.8361 20.8296C14.4779 20.8486 15.1702 20.8287 15.8136 20.8162C16.0118 20.8124 16.1574 20.7704 16.2757 20.6162C16.4466 20.3935 16.4722 19.8977 16.0876 19.693C15.6911 19.482 15.1653 19.5784 14.9033 19.5401C14.8941 19.4649 14.889 19.1732 14.9103 19.1216C14.9361 19.0925 15.6791 19.1093 15.7136 19.117C15.7952 19.1353 16.0229 19.2915 16.0968 19.354C16.1373 19.3883 16.1687 19.4219 16.2363 19.4293L16.2377 18.8162C16.2377 18.8053 16.2377 18.7799 16.2362 18.77L16.2278 18.7401C16.227 18.7377 16.2255 18.7338 16.2238 18.7309C16.1894 18.7143 13.9941 18.7022 13.8222 18.7248C13.834 18.7605 13.8742 18.7928 13.9002 18.8194C13.9896 18.9107 14.0856 19.0297 14.1736 19.1081C14.2828 19.2054 14.258 19.2132 14.2583 19.3913L14.2576 20.3182C14.2478 20.3828 13.9682 20.657 13.9076 20.7214C13.877 20.7538 13.8329 20.7798 13.8361 20.8296ZM14.9045 20.4381C15.0543 20.4418 15.2482 20.4488 15.3925 20.4388C15.5336 20.4289 15.6605 20.3734 15.6644 20.2125C15.6693 20.01 15.5815 19.9749 15.4033 19.9714C15.2414 19.9682 15.0675 19.9661 14.9061 19.9715L14.9045 20.4381Z" fill="#FEFEFE"/>
<path fill-rule="evenodd" clip-rule="evenodd" d="M10.8029 14.3254L10.5438 14.6239C10.4661 14.7186 10.1024 15.2264 10.1104 15.3207L10.344 15.6575C10.4023 15.7386 10.6384 16.0804 10.7049 16.1402C10.7434 16.1749 10.7769 16.1872 10.8167 16.1986C11.1338 16.2893 11.3213 16.3083 11.659 16.2845C11.8839 16.2687 12.084 16.2307 12.159 16.1798C12.288 16.0923 12.4907 15.6463 12.5962 15.4804C12.7173 15.29 12.7083 15.329 12.5696 15.1199L12.2485 14.585C12.063 14.2755 12.1388 14.3548 11.9216 14.338C11.6423 14.3248 11.3687 14.312 11.0891 14.3092C11.0173 14.3085 10.8495 14.2808 10.8029 14.3254Z" fill="#FEFEFE"/>
<path fill-rule="evenodd" clip-rule="evenodd" d="M9.28531 12.4026C9.63018 12.5494 9.96867 12.6719 10.3232 12.7941C10.5165 12.8645 11.3116 12.2074 11.4521 12.1098C11.4194 11.7195 11.3986 11.3245 11.3662 10.9372C11.1876 10.8187 10.3978 10.5369 10.1778 10.6245C9.95341 10.7138 9.52247 10.983 9.36791 11.1497C9.29068 11.233 9.29507 11.1942 9.29448 11.3476C9.29315 11.6947 9.26382 12.0533 9.28531 12.4026Z" fill="#FEFEFE"/>
<path fill-rule="evenodd" clip-rule="evenodd" d="M16.9268 17.9969L17.7255 17.9983L17.9515 17.576C17.9706 17.539 17.9634 17.5447 17.9872 17.5081L18.3389 16.8745C18.548 16.498 18.7399 16.1257 18.9521 15.7537C18.9808 15.7034 18.9982 15.6685 19.0251 15.6148L19.1769 15.3323C19.2051 15.2823 19.2259 15.2341 19.2571 15.1897C19.8075 14.1735 20.3486 13.1652 20.911 12.1551C21.4708 11.1496 22.4861 9.34409 22.5968 9.04317C22.6062 9.01267 22.6009 9.00713 22.5956 9.00537C22.5892 9.00326 20.8802 11.7392 20.815 11.846L20.4811 12.3805C20.4219 12.4778 20.3574 12.567 20.3024 12.6577C20.2417 12.7578 20.1867 12.8448 20.1253 12.9392L19.4103 14.0652C19.3035 14.2276 19.1574 14.4846 19.0505 14.6198C18.356 15.7185 17.6606 16.8156 16.9615 17.9114C16.9402 17.9444 16.9304 17.9524 16.9268 17.9969Z" fill="#FEFEFE"/>
<path fill-rule="evenodd" clip-rule="evenodd" d="M6.41951 20.8273L7.61647 20.8217C7.61005 20.7191 7.33364 20.4965 7.32485 20.2005C7.3219 20.1012 7.32447 19.9942 7.32669 19.8946L7.67795 19.888L8.06932 20.4112C8.07434 20.4356 8.07188 20.4677 8.0711 20.4931C8.06829 20.5848 8.05761 20.7316 8.06825 20.8175C8.17163 20.8311 8.44674 20.8188 8.5815 20.8213L8.62499 20.8248C8.70975 20.8434 8.64226 21.0278 8.66828 21.1441C8.77085 21.1524 9.45327 21.1539 9.50179 21.1337C9.49024 21.0997 9.22529 20.7956 9.17951 20.738L8.93851 20.4403C8.8059 20.3085 8.5753 19.9871 8.44019 19.8478C8.38924 19.7952 8.21727 19.5924 8.20564 19.5551C8.24733 19.4874 8.35626 19.397 8.4166 19.3438L8.52538 19.2424C8.56839 19.2009 8.59406 19.1774 8.63498 19.1405C8.68825 19.0925 9.04374 18.7958 9.06028 18.7248C9.03435 18.7243 8.08211 18.7094 8.05463 18.7362C8.02866 18.7616 8.04205 18.8588 8.04306 18.8985C8.04454 18.956 8.04777 19.0153 8.04069 19.0723C8.02551 19.1943 8.0196 19.1718 7.87369 19.2702C7.81267 19.3113 7.70155 19.3694 7.63743 19.3954C7.59281 19.4135 7.38109 19.4668 7.33481 19.4188C7.23067 19.3227 7.46855 18.9852 7.54483 18.8946C7.58295 18.8494 7.63955 18.7863 7.64107 18.7254L6.39105 18.723C6.40545 18.8404 6.70397 19.1088 6.70777 19.2376L6.70767 19.7545C6.70801 19.911 6.73298 20.2852 6.66806 20.386C6.59882 20.4935 6.42369 20.7128 6.41951 20.8273Z" fill="#FEFEFE"/>
<path fill-rule="evenodd" clip-rule="evenodd" d="M16.5045 20.8216C16.7175 20.8345 18.8893 20.8303 18.9319 20.8122C18.96 20.7881 18.9444 19.8584 18.9435 19.8374C18.8567 19.8819 18.6521 20.1766 18.6046 20.224C18.3833 20.4448 18.5755 20.4018 18.0527 20.4018C18.0284 20.4018 17.5926 20.4122 17.5701 20.3889C17.5416 20.3344 17.558 20.0402 17.5623 19.9544L17.9592 19.947C18.0978 19.9461 18.1374 20.0196 18.2998 20.1516C18.3292 20.1756 18.3372 20.2005 18.3881 20.1957L18.394 19.3076C18.3373 19.3083 18.3374 19.3222 18.3031 19.348C18.2794 19.3658 18.2526 19.3839 18.226 19.4003C17.9834 19.5498 18.1462 19.5341 17.83 19.5341L17.6299 19.5347C17.5223 19.5287 17.5642 19.4826 17.5587 19.2029C17.5584 19.1894 17.557 19.1557 17.5583 19.1441C17.5594 19.1339 17.5599 19.1092 17.5734 19.0977C17.6531 19.0546 18.3834 19.0506 18.4508 19.11C18.4998 19.1531 18.5313 19.1814 18.571 19.2242C18.6376 19.296 18.8443 19.5908 18.8946 19.6106C18.917 19.5637 18.9196 18.7945 18.8965 18.737C18.8713 18.7014 18.3474 18.7199 18.3106 18.7199C17.9081 18.7199 17.5056 18.7199 17.1032 18.7199C16.9091 18.7199 16.6826 18.7092 16.4925 18.7228C16.5093 18.7744 16.7023 18.9674 16.7531 19.0134C16.7882 19.0451 16.8103 19.0725 16.842 19.1126C16.9263 19.2196 16.9386 19.2141 16.9393 19.3908C16.9399 19.5158 16.9413 19.641 16.9414 19.766C16.9416 19.8871 16.9401 20.0084 16.9395 20.1295C16.9385 20.3146 16.9375 20.2952 16.8527 20.4175C16.8078 20.4822 16.722 20.564 16.6727 20.6135C16.6281 20.6581 16.5079 20.7602 16.5045 20.8216Z" fill="#FEFEFE"/>
<path fill-rule="evenodd" clip-rule="evenodd" d="M4.77115 20.824L4.83912 20.8212C4.83204 20.7507 4.67705 20.6273 4.62298 20.5713C4.55223 20.4981 4.50802 20.4226 4.51878 20.3159C4.52569 20.2473 4.53461 20.2534 4.61876 20.2538L5.2049 20.2548C5.29722 20.2548 5.31241 20.3388 5.28061 20.4054C5.25609 20.4569 5.19796 20.5135 5.16206 20.5566C5.12995 20.5951 4.90878 20.7669 4.90408 20.8181C5.08239 20.8385 5.8124 20.8232 6.08409 20.8231C6.21793 20.823 6.24292 20.841 6.34607 20.7915C6.389 20.771 6.38102 20.7654 6.41375 20.7534L6.39932 20.741C6.18382 20.5733 6.29705 20.668 6.09018 20.4749C6.01542 20.4051 5.8993 20.1848 5.86469 20.0915C5.7711 19.8391 5.62401 19.4844 5.5035 19.2324C5.44983 19.1201 5.44365 19.1279 5.51187 19.0287C5.52211 19.0138 5.52002 19.0163 5.53112 19.0006L5.64373 18.8569C5.66999 18.8177 5.7147 18.7679 5.72058 18.7237L4.30064 18.7214C4.31107 18.7673 4.46289 18.9485 4.51735 19.0354C4.57605 19.1291 4.55846 19.142 4.52245 19.234C4.39385 19.5487 4.27129 19.865 4.1404 20.1801C4.09541 20.2967 4.00979 20.4234 3.94245 20.5086C3.90306 20.5584 3.71931 20.7926 3.72562 20.8067C3.73502 20.8278 4.66733 20.8296 4.77115 20.824ZM4.66559 19.9079L5.10419 19.9132C5.10066 19.8676 5.02423 19.7036 5.00231 19.6426C4.96158 19.5354 4.93968 19.4683 4.88838 19.3834C4.85275 19.396 4.81797 19.4698 4.78775 19.5521C4.76927 19.6024 4.67008 19.8672 4.66559 19.9079Z" fill="#FEFEFE"/>
<path fill-rule="evenodd" clip-rule="evenodd" d="M9.10216 19.6809C9.1055 19.6788 9.11041 19.6721 9.11221 19.6748C9.11398 19.6774 9.11958 19.6704 9.12191 19.6687C9.21384 19.6027 9.42969 19.2752 9.5187 19.1566C9.56975 19.0867 9.60568 19.0979 9.7768 19.1029L9.83844 19.1065L9.83954 20.2941C9.83954 20.3814 9.79049 20.4001 9.75088 20.4442C9.71321 20.486 9.67205 20.528 9.63681 20.5644C9.59196 20.6107 9.56655 20.6394 9.52303 20.6851C9.46328 20.7478 9.42613 20.7717 9.42373 20.8222C9.70375 20.8295 10.6782 20.8331 10.9335 20.8197C10.9268 20.7565 10.6792 20.5604 10.5961 20.4597C10.4294 20.2576 10.4831 20.049 10.4835 19.7312L10.4862 19.1055C10.5663 19.0831 10.6844 19.0933 10.7772 19.0954C10.9027 19.2516 11.0438 19.4516 11.157 19.6167C11.2106 19.6948 11.1993 19.6708 11.2358 19.6785L11.225 18.7385C11.1093 18.6955 10.8346 18.7213 10.6912 18.7213L9.2024 18.7203C9.11004 18.7203 9.13079 18.7063 9.12798 18.9109C9.12453 19.1617 9.09941 19.4022 9.10216 19.6809Z" fill="#FEFEFE"/>
<path fill-rule="evenodd" clip-rule="evenodd" d="M5.80574 5.14651C5.71101 5.15026 5.57089 5.14991 5.45415 5.16394C5.20415 5.19396 4.94713 5.37307 4.79122 5.56337C4.61683 5.77622 4.46494 6.09058 4.50777 6.48004C4.555 6.9096 4.8567 7.39405 5.33397 7.43107C5.52809 7.44613 5.73798 7.43872 5.91713 7.45743C5.9109 7.51912 5.60246 7.82267 5.55025 7.87098L5.45108 7.97215C5.42403 8.01019 5.43299 7.99011 5.4444 8.0016C5.47039 8.02452 7.64166 8.0219 7.8391 8.0126C7.84664 7.92634 7.38796 7.54735 7.38361 7.47381C7.38329 7.46834 7.38304 7.46169 7.38283 7.45353C7.85489 7.44628 8.12043 7.46847 8.41404 7.21726C8.98345 6.73009 8.8963 5.54429 7.9752 5.20205C7.80964 5.14052 7.595 5.12663 7.41341 5.12734C7.42293 5.09786 7.42061 5.1062 7.43245 5.08815C7.47059 5.03 7.82201 4.77279 7.84032 4.69108L5.46151 4.68677C5.47236 4.74975 5.71839 4.96058 5.77756 5.01783C5.80298 5.04229 5.83912 5.06245 5.86203 5.08886C5.91084 5.14523 5.85386 5.14459 5.80574 5.14651ZM5.79109 5.27482C5.92565 5.27672 6.06315 5.26998 6.19844 5.26905C6.19306 5.17159 5.81331 4.927 5.79965 4.8251C6.26773 4.80682 6.88215 4.83133 7.3855 4.82444C7.44051 4.82364 7.44346 4.82396 7.49512 4.84013C7.47492 4.88559 7.15803 5.15667 7.10406 5.20505C7.07504 5.22882 7.056 5.24696 7.07078 5.2611C7.12131 5.30948 7.64294 5.2256 7.9554 5.33619C8.02524 5.36091 8.1141 5.40638 8.17327 5.44706C8.39936 5.60256 8.49885 5.77363 8.57966 6.01618C8.66174 6.26255 8.6491 6.63392 8.53398 6.84624C8.20445 7.45407 7.65474 7.30953 7.08962 7.32412C7.09153 7.38198 7.09735 7.37382 7.1328 7.404C7.19548 7.45738 7.52429 7.83583 7.5306 7.88149C7.2407 7.88761 6.93721 7.88456 6.64686 7.88034C6.59025 7.87953 5.81863 7.89504 5.76423 7.8694L6.11963 7.46724C6.14894 7.43536 6.23086 7.36949 6.23188 7.31947C5.81219 7.30333 5.35793 7.39311 5.05494 7.1842C5.05283 7.18277 5.04997 7.18082 5.04786 7.17938C4.939 7.10446 4.95361 7.12562 4.85823 7.01592C4.49927 6.6031 4.60566 5.96486 4.95593 5.5763C5.02388 5.50092 5.1899 5.38804 5.29083 5.3479C5.36733 5.31745 5.49978 5.28834 5.58478 5.28093C5.65316 5.27495 5.70667 5.27361 5.79109 5.27482Z" fill="#2B4388"/>
<path fill-rule="evenodd" clip-rule="evenodd" d="M11.4414 23.1252C11.4893 23.0992 12.4003 21.9073 12.4922 21.7903C12.5526 21.7131 12.6257 21.6429 12.6257 21.5851L10.2457 21.5842C10.2484 21.6565 11.1746 22.8085 11.2737 22.9363C11.3085 22.984 11.3939 23.1075 11.4414 23.1252Z" fill="#FEFEFE"/>
<path fill-rule="evenodd" clip-rule="evenodd" d="M14.1612 15.7343C14.2457 15.7096 14.4731 15.3851 14.5346 15.2977C14.7444 14.9996 14.9415 14.5081 15.0195 14.1419C15.0887 13.8168 15.1694 13.1804 15.0735 12.8855C15.0165 12.902 14.7557 13.2109 14.6926 13.2738C14.6506 13.3156 14.5909 13.3641 14.5874 13.434C14.5652 13.8766 14.5277 14.1873 14.2934 14.5864C14.2217 14.7087 14.1038 14.8657 14.002 14.9636C13.8841 15.0771 13.9415 15.0804 14.0266 15.3379C14.0505 15.4102 14.1273 15.6965 14.1612 15.7343Z" fill="#FEFEFE"/>
<path fill-rule="evenodd" clip-rule="evenodd" d="M8.73342 15.5936L8.80158 15.2028C8.81486 15.113 8.44978 13.9858 8.46137 13.4845C8.46371 13.3831 8.46494 13.2789 8.45678 13.2223C8.44545 13.1436 8.27929 13.0292 8.22557 12.9812C8.16989 12.9314 8.03965 12.7784 7.97146 12.7605L7.90875 13.1646C7.90025 13.7204 7.9439 13.749 8.02329 14.2179C8.04163 14.3263 8.21551 14.7665 8.27378 14.8927C8.28228 14.9111 8.28742 14.9224 8.29253 14.9335C8.29765 14.9445 8.30273 14.9552 8.3111 14.9722C8.36705 15.0858 8.65162 15.5679 8.73342 15.5936Z" fill="#FEFEFE"/>
<path fill-rule="evenodd" clip-rule="evenodd" d="M10.1061 16.6355C10.4683 16.8258 11.0371 16.9121 11.4411 16.9121C11.5844 16.9121 11.8245 16.9173 11.9472 16.8964C12.0374 16.881 12.15 16.8617 12.2392 16.8495C12.3081 16.8401 12.5754 16.7695 12.7101 16.7216C12.8502 16.6719 12.7163 16.6457 12.6479 16.612L12.2329 16.3958C12.0636 16.303 11.9454 16.3957 11.8049 16.4125C11.4804 16.4514 11.0204 16.4403 10.7131 16.3174C10.5774 16.2632 10.6532 16.2371 10.4891 16.3399C10.44 16.3707 10.4072 16.3962 10.3568 16.4303C10.2888 16.4764 10.1462 16.5669 10.1061 16.6355Z" fill="#FEFEFE"/>
<path fill-rule="evenodd" clip-rule="evenodd" d="M13.8339 11.3334L14.4839 11.3311C14.4834 11.2822 14.3348 11.0816 14.2952 11.0364L14.0705 10.8042C13.6623 10.4082 12.738 9.79957 12.1941 9.80275C12.1957 9.8489 12.2329 9.89356 12.2528 9.92603L12.4816 10.2949C12.4856 10.2994 12.5522 10.3367 12.6519 10.394C13.0752 10.6376 13.5666 10.9084 13.8339 11.3334Z" fill="#FEFEFE"/>
<path fill-rule="evenodd" clip-rule="evenodd" d="M5.83814 6.86477H6.28359C6.37338 6.86477 6.35024 6.81657 6.3504 6.6569L6.35004 5.82439C6.3498 5.75005 6.34679 5.73541 6.31061 5.7338C6.13877 5.72616 5.85559 5.70777 5.69918 5.73431C5.49254 5.76936 5.34271 5.89466 5.33049 6.28167C5.32248 6.53523 5.36636 6.73883 5.58935 6.83506C5.60654 6.84249 5.66209 6.85032 5.71737 6.85607C5.75952 6.86044 5.80154 6.86364 5.82631 6.86453C5.83088 6.86469 5.83485 6.86477 5.83814 6.86477Z" fill="#EFF2F7"/>
<path fill-rule="evenodd" clip-rule="evenodd" d="M7.00881 6.85424C7.22888 6.87263 7.65842 6.87064 7.76327 6.7903C7.98402 6.62115 7.99601 6.29447 7.92082 6.04521C7.8707 5.87901 7.79862 5.7755 7.62395 5.75315C7.46625 5.73298 7.17801 5.72969 7.00712 5.7342C6.9232 5.7364 6.93934 5.73281 6.93913 5.81613L6.9367 6.76726C6.93648 6.85685 6.91975 6.8468 7.00881 6.85424Z" fill="#EFF2F7"/>
<path fill-rule="evenodd" clip-rule="evenodd" d="M8.61862 11.2396C8.68916 11.2425 8.88563 11.2024 8.96576 11.1898C9.21856 11.1502 9.24247 11.0541 9.45864 10.8888C9.69112 10.711 9.95091 10.5699 10.2185 10.4543C10.282 10.4301 10.3279 10.4355 10.3507 10.3844C10.3811 10.3163 10.4782 9.97272 10.4837 9.91436C10.2586 9.90875 9.51925 10.3637 9.41553 10.4467C9.25175 10.5778 9.13296 10.6724 8.98669 10.8149C8.91112 10.8885 8.6485 11.1638 8.61862 11.2396Z" fill="#FEFEFE"/>
<path fill-rule="evenodd" clip-rule="evenodd" d="M7.05798 5.90015C7.04897 6.06938 7.05024 6.57656 7.05609 6.68166C7.05884 6.7312 7.08118 6.74096 7.11773 6.74101C7.27325 6.74122 7.43692 6.73189 7.59419 6.72732C7.892 6.7189 7.87196 6.12049 7.76738 5.96887C7.76607 5.96697 7.76391 5.96419 7.76252 5.96232C7.69382 5.86979 7.59441 5.85139 7.47905 5.84814C7.38298 5.84546 7.24486 5.8457 7.13411 5.85059C7.06573 5.85361 7.06074 5.84822 7.05798 5.90015Z" fill="#2B4388"/>
<path fill-rule="evenodd" clip-rule="evenodd" d="M5.82607 6.74718C5.93101 6.74718 6.06354 6.74168 6.17124 6.73742C6.24209 6.7346 6.22448 6.68453 6.22414 6.50469L6.22325 5.91841C6.22301 5.8593 6.21969 5.85112 6.17648 5.85153C6.04325 5.85284 5.89706 5.83803 5.76939 5.84789C5.65978 5.85634 5.56352 5.88813 5.51485 5.98221C5.41599 6.17329 5.42837 6.42938 5.50145 6.5949C5.55288 6.71134 5.67312 6.74718 5.82607 6.74718Z" fill="#2B4388"/>
<path fill-rule="evenodd" clip-rule="evenodd" d="M16.7461 7.82367L16.994 7.29335C17.0256 7.22569 17.037 7.21518 16.9989 7.18575C16.9905 7.17924 16.9831 7.16939 16.9737 7.15996C16.888 7.07392 16.7291 6.92538 16.7047 6.90365C16.6031 6.81322 16.4793 6.63268 16.3075 6.64623C16.2954 6.7546 16.2965 6.9454 16.303 7.05619C16.3122 7.21548 16.4902 7.4669 16.5699 7.61318C16.5939 7.65707 16.6639 7.77468 16.7066 7.83257C16.7338 7.86958 16.7277 7.86308 16.7461 7.82367Z" fill="#2B4388"/>
<path fill-rule="evenodd" clip-rule="evenodd" d="M7.18363 6.04745L7.18323 6.55374C7.18316 6.61739 7.19574 6.60526 7.25672 6.61135C7.35957 6.62161 7.47836 6.61659 7.58077 6.61093C7.60854 6.6094 7.62907 6.61333 7.65011 6.55661C7.68906 6.45148 7.71158 6.31282 7.69704 6.1889C7.68031 6.04656 7.63364 5.99952 7.54561 5.98401C7.47112 5.97091 7.35554 5.97393 7.27596 5.97317C7.20302 5.9725 7.18153 5.98249 7.18363 6.04745Z" fill="#FEFEFE"/>
<path fill-rule="evenodd" clip-rule="evenodd" d="M6.09399 6.55552C6.09873 6.41403 6.0945 6.15758 6.08684 6.03663C6.08303 5.97638 6.08243 5.98102 6.03128 5.97704C5.94984 5.9707 5.83663 5.9725 5.78189 5.97956C5.75076 5.98357 5.72594 5.98672 5.70574 5.99105C5.57412 6.01928 5.56233 6.26948 5.57439 6.37447C5.59365 6.53651 5.64041 6.59462 5.72103 6.61253C5.7991 6.62987 5.91014 6.62111 6.05773 6.6226C6.1057 6.62304 6.09213 6.61101 6.09399 6.55552Z" fill="#FEFEFE"/>
<path fill-rule="evenodd" clip-rule="evenodd" d="M16.7165 7.5798C16.7645 7.54856 16.8657 7.256 16.8574 7.23185L16.4941 6.88014C16.4313 6.82098 16.4191 6.82766 16.4196 6.90644C16.4204 7.05738 16.4584 7.15594 16.513 7.25509C16.5421 7.30799 16.6796 7.56849 16.7165 7.5798Z" fill="#FEFEFE"/>
<path fill-rule="evenodd" clip-rule="evenodd" d="M16.5185 5.52941C16.5716 5.50714 16.7228 5.39153 16.7669 5.34793C16.8257 5.28993 16.8278 5.07639 16.8199 4.96997C16.7862 4.9875 16.7576 5.04759 16.7361 5.09351C16.6966 5.17756 16.5205 5.45222 16.5185 5.52941Z" fill="#EFF2F7"/>
</svg>
