<svg width="95" height="113" viewBox="0 0 95 113" fill="none" xmlns="http://www.w3.org/2000/svg">
<path d="M24.4832 84.7501H28.2499C29.2899 84.7501 30.1332 83.9068 30.1332 82.8667C30.1332 81.8267 29.2899 80.9834 28.2499 80.9834H24.4832C23.4431 80.9834 22.5999 81.8267 22.5999 82.8667C22.5999 83.9068 23.4431 84.7501 24.4832 84.7501Z" fill="url(#paint0_linear)"/>
<path d="M80.9832 80.9834H35.7832C34.7431 80.9834 33.8998 81.8267 33.8998 82.8667C33.8998 83.9068 34.7431 84.7501 35.7832 84.7501H80.9832C82.0233 84.7501 82.8665 83.9068 82.8665 82.8667C82.8665 81.8267 82.0233 80.9834 80.9832 80.9834Z" fill="url(#paint1_linear)"/>
<path d="M24.4834 73.4503H28.25C29.2901 73.4503 30.1334 72.607 30.1334 71.5669C30.1334 70.5269 29.2901 69.6836 28.25 69.6836H24.4834C23.4433 69.6836 22.6 70.5269 22.6 71.5669C22.6 72.607 23.4433 73.4503 24.4834 73.4503Z" fill="url(#paint2_linear)"/>
<path d="M80.9833 69.6836H35.7833C34.7432 69.6836 33.9 70.5269 33.9 71.5669C33.9 72.607 34.7432 73.4503 35.7833 73.4503H80.9833C82.0234 73.4503 82.8666 72.607 82.8666 71.5669C82.8666 70.5269 82.0234 69.6836 80.9833 69.6836Z" fill="url(#paint3_linear)"/>
<path d="M24.4834 62.1505H28.25C29.2901 62.1505 30.1334 61.3072 30.1334 60.2671C30.1334 59.2271 29.2901 58.3838 28.25 58.3838H24.4834C23.4433 58.3838 22.6 59.2271 22.6 60.2671C22.6 61.3072 23.4433 62.1505 24.4834 62.1505Z" fill="url(#paint4_linear)"/>
<path d="M80.9833 58.3838H35.7833C34.7432 58.3838 33.9 59.2271 33.9 60.2671C33.9 61.3072 34.7432 62.1505 35.7833 62.1505H80.9833C82.0234 62.1505 82.8666 61.3072 82.8666 60.2671C82.8666 59.2271 82.0234 58.3838 80.9833 58.3838Z" fill="url(#paint5_linear)"/>
<path d="M24.4834 50.8497H28.25C29.2901 50.8497 30.1334 50.0064 30.1334 48.9663C30.1334 47.9263 29.2901 47.083 28.25 47.083H24.4834C23.4433 47.083 22.6 47.9263 22.6 48.9663C22.6 50.0064 23.4433 50.8497 24.4834 50.8497Z" fill="url(#paint6_linear)"/>
<path d="M80.9833 47.083H35.7833C34.7432 47.083 33.9 47.9263 33.9 48.9663C33.9 50.0064 34.7432 50.8497 35.7833 50.8497H80.9833C82.0234 50.8497 82.8666 50.0064 82.8666 48.9663C82.8666 47.9263 82.0234 47.083 80.9833 47.083Z" fill="url(#paint7_linear)"/>
<path d="M24.4834 39.5499H28.25C29.2901 39.5499 30.1334 38.7066 30.1334 37.6665C30.1334 36.6265 29.2901 35.7832 28.25 35.7832H24.4834C23.4433 35.7832 22.6 36.6265 22.6 37.6665C22.6 38.7066 23.4433 39.5499 24.4834 39.5499Z" fill="url(#paint8_linear)"/>
<path d="M33.9 37.6665C33.9 38.7066 34.7432 39.5499 35.7833 39.5499H80.9833C82.0234 39.5499 82.8666 38.7066 82.8666 37.6665C82.8666 36.6265 82.0234 35.7832 80.9833 35.7832H35.7833C34.7432 35.7832 33.9 36.6265 33.9 37.6665Z" fill="url(#paint9_linear)"/>
<path d="M1.88333 113H80.9833C82.0234 113 82.8667 112.157 82.8667 111.117V101.7H92.2833C93.3234 101.7 94.1667 100.857 94.1667 99.8167V28.25C94.1667 28.2086 94.146 28.1728 94.1422 28.1313C94.1328 27.9663 94.1005 27.8034 94.0462 27.6473C94.0254 27.5871 94.0104 27.5287 93.984 27.4703C93.8924 27.2655 93.7648 27.0786 93.6073 26.9185L67.2407 0.551817C67.0806 0.394323 66.8937 0.266727 66.6888 0.17515C66.6305 0.148783 66.5721 0.133717 66.5137 0.113C66.3562 0.0588542 66.1921 0.0258958 66.0259 0.0150667C65.9939 0.0207167 65.9581 0 65.9167 0H13.1833C12.1433 0 11.3 0.843262 11.3 1.88333V7.53333H1.88333C0.843263 7.53333 0 8.3766 0 9.41667V111.117C0 112.157 0.843263 113 1.88333 113ZM87.737 26.3667H67.8V6.4297L87.737 26.3667ZM15.0667 3.76667H64.0333V28.25C64.0333 29.2901 64.8766 30.1333 65.9167 30.1333H90.4V97.9333H15.0667V3.76667ZM3.76667 11.3H11.3V99.8167C11.3 100.857 12.1433 101.7 13.1833 101.7H79.1V109.233H3.76667V11.3Z" fill="url(#paint10_linear)"/>
<path d="M24.4834 32.0169H35.7834C36.8234 32.0169 37.6667 31.1736 37.6667 30.1335V18.8335C37.6667 17.7935 36.8234 16.9502 35.7834 16.9502H24.4834C23.4433 16.9502 22.6 17.7935 22.6 18.8335V30.1335C22.6 31.1736 23.4433 32.0169 24.4834 32.0169ZM26.3667 20.7169H33.9V28.2502H26.3667V20.7169Z" fill="url(#paint11_linear)"/>
<defs>
<linearGradient id="paint0_linear" x1="-7.1982" y1="82.8667" x2="103.979" y2="82.8667" gradientUnits="userSpaceOnUse">
<stop stop-color="#4761AC"/>
<stop offset="1" stop-color="#54C2EF"/>
</linearGradient>
<linearGradient id="paint1_linear" x1="-7.19822" y1="82.8667" x2="103.979" y2="82.8667" gradientUnits="userSpaceOnUse">
<stop stop-color="#4761AC"/>
<stop offset="1" stop-color="#54C2EF"/>
</linearGradient>
<linearGradient id="paint2_linear" x1="-7.19802" y1="71.5669" x2="103.979" y2="71.5669" gradientUnits="userSpaceOnUse">
<stop stop-color="#4761AC"/>
<stop offset="1" stop-color="#54C2EF"/>
</linearGradient>
<linearGradient id="paint3_linear" x1="-7.1981" y1="71.5669" x2="103.979" y2="71.5669" gradientUnits="userSpaceOnUse">
<stop stop-color="#4761AC"/>
<stop offset="1" stop-color="#54C2EF"/>
</linearGradient>
<linearGradient id="paint4_linear" x1="-7.19802" y1="60.2671" x2="103.979" y2="60.2671" gradientUnits="userSpaceOnUse">
<stop stop-color="#4761AC"/>
<stop offset="1" stop-color="#54C2EF"/>
</linearGradient>
<linearGradient id="paint5_linear" x1="-7.1981" y1="60.2671" x2="103.979" y2="60.2671" gradientUnits="userSpaceOnUse">
<stop stop-color="#4761AC"/>
<stop offset="1" stop-color="#54C2EF"/>
</linearGradient>
<linearGradient id="paint6_linear" x1="-7.19802" y1="48.9663" x2="103.979" y2="48.9663" gradientUnits="userSpaceOnUse">
<stop stop-color="#4761AC"/>
<stop offset="1" stop-color="#54C2EF"/>
</linearGradient>
<linearGradient id="paint7_linear" x1="-7.1981" y1="48.9663" x2="103.979" y2="48.9663" gradientUnits="userSpaceOnUse">
<stop stop-color="#4761AC"/>
<stop offset="1" stop-color="#54C2EF"/>
</linearGradient>
<linearGradient id="paint8_linear" x1="-7.19802" y1="37.6665" x2="103.979" y2="37.6665" gradientUnits="userSpaceOnUse">
<stop stop-color="#4761AC"/>
<stop offset="1" stop-color="#54C2EF"/>
</linearGradient>
<linearGradient id="paint9_linear" x1="-7.1981" y1="37.6665" x2="103.979" y2="37.6665" gradientUnits="userSpaceOnUse">
<stop stop-color="#4761AC"/>
<stop offset="1" stop-color="#54C2EF"/>
</linearGradient>
<linearGradient id="paint10_linear" x1="-7.19805" y1="56.5" x2="103.979" y2="56.5" gradientUnits="userSpaceOnUse">
<stop stop-color="#4761AC"/>
<stop offset="1" stop-color="#54C2EF"/>
</linearGradient>
<linearGradient id="paint11_linear" x1="-7.19802" y1="24.4835" x2="103.979" y2="24.4835" gradientUnits="userSpaceOnUse">
<stop stop-color="#4761AC"/>
<stop offset="1" stop-color="#54C2EF"/>
</linearGradient>
</defs>
</svg>
