<svg width="25" height="24" viewBox="0 0 25 24" fill="none" xmlns="http://www.w3.org/2000/svg">
<g clip-path="url(#clip0)">
<path d="M24.9755 7.05607C24.9169 5.78085 24.7021 4.90416 24.3944 4.14449C24.077 3.33812 23.5886 2.61617 22.9487 2.01602C22.3236 1.40652 21.5666 0.932921 20.7364 0.632936C19.9405 0.337529 19.032 0.131312 17.7037 0.0750879C16.3654 0.0141019 15.9405 0 12.5463 0C9.15211 0 8.72726 0.0141019 7.39395 0.0703262C6.06561 0.126551 5.15238 0.332951 4.36125 0.628174C3.52109 0.932922 2.76906 1.40176 2.1439 2.01602C1.50901 2.61617 1.01587 3.34288 0.703193 4.13991C0.395477 4.90416 0.180668 5.77609 0.122101 7.0513C0.0585737 8.33604 0.0438843 8.7439 0.0438843 12.0023C0.0438843 15.2608 0.0585737 15.6686 0.117141 16.9486C0.175708 18.2238 0.390708 19.1005 0.698423 19.8602C1.01587 20.6666 1.50901 21.3885 2.1439 21.9887C2.76906 22.5982 3.52605 23.0718 4.35629 23.3718C5.15238 23.6672 6.06065 23.8734 7.38918 23.9296C8.7223 23.986 9.14734 23.9999 12.5416 23.9999C15.9358 23.9999 16.3606 23.986 17.6939 23.9296C19.0223 23.8734 19.9355 23.6672 20.7266 23.3718C22.4068 22.7482 23.7351 21.4729 24.3847 19.8602C24.6922 19.096 24.9072 18.2238 24.9658 16.9486C25.0243 15.6686 25.039 15.2608 25.039 12.0023C25.039 8.7439 25.0341 8.33604 24.9755 7.05607ZM22.7242 16.8549C22.6704 18.027 22.4653 18.6599 22.2944 19.0819C21.8743 20.1274 21.0099 20.9572 19.9208 21.3605C19.4813 21.5246 18.8172 21.7215 17.601 21.7729C16.2824 21.8293 15.8869 21.8433 12.5513 21.8433C9.21563 21.8433 8.8152 21.8293 7.50136 21.7729C6.28042 21.7215 5.62111 21.5246 5.18157 21.3605C4.63958 21.1682 4.14625 20.8634 3.74582 20.4649C3.3307 20.0758 3.01325 19.6069 2.81294 19.0866C2.64201 18.6647 2.43693 18.027 2.38332 16.8596C2.32456 15.5937 2.31007 15.2139 2.31007 12.0117C2.31007 8.80946 2.32456 8.42505 2.38332 7.16394C2.43693 5.99183 2.64201 5.3589 2.81294 4.93694C3.01325 4.41645 3.3307 3.94303 3.75078 3.55843C4.15598 3.15992 4.64435 2.85517 5.18653 2.66306C5.62607 2.49896 6.29034 2.30209 7.50632 2.25044C8.82493 2.19422 9.22059 2.18011 12.5561 2.18011C15.8967 2.18011 16.2921 2.19422 17.606 2.25044C18.8269 2.30209 19.4862 2.49896 19.9258 2.66306C20.4678 2.85517 20.9611 3.15992 21.3615 3.55843C21.7766 3.94761 22.0941 4.41645 22.2944 4.93694C22.4653 5.3589 22.6704 5.99641 22.7242 7.16394C22.7828 8.42981 22.7975 8.80946 22.7975 12.0117C22.7975 15.2139 22.7828 15.589 22.7242 16.8549Z" fill="white"/>
<path d="M12.5465 5.83789C9.00098 5.83789 6.12433 8.59929 6.12433 12.0032C6.12433 15.407 9.00098 18.1684 12.5465 18.1684C16.0922 18.1684 18.9686 15.407 18.9686 12.0032C18.9686 8.59929 16.0922 5.83789 12.5465 5.83789ZM12.5465 16.0024C10.2463 16.0024 8.38059 14.2115 8.38059 12.0032C8.38059 9.79484 10.2463 8.0039 12.5465 8.0039C14.8468 8.0039 16.7124 9.79484 16.7124 12.0032C16.7124 14.2115 14.8468 16.0024 12.5465 16.0024Z" fill="white"/>
<path d="M20.7219 5.59361C20.7219 6.38844 20.0506 7.03291 19.2224 7.03291C18.3945 7.03291 17.7231 6.38844 17.7231 5.59361C17.7231 4.79859 18.3945 4.1543 19.2224 4.1543C20.0506 4.1543 20.7219 4.79859 20.7219 5.59361Z" fill="white"/>
</g>
<defs>
<clipPath id="clip0">
<rect width="25" height="24" fill="white"/>
</clipPath>
</defs>
</svg>
