<svg width="30" height="30" viewBox="0 0 30 30" fill="none" xmlns="http://www.w3.org/2000/svg">
<path d="M6.42857 6.67857H6.67857V6.42857V2.14283V1.89283H6.42857H2.14283H1.89283V2.14283V6.42857V6.67857H2.14283H6.42857ZM1.07145 0.25H7.50002C7.95361 0.25 8.3214 0.617742 8.32146 1.07145C8.32146 1.07146 8.32146 1.07147 8.32146 1.07147V7.50002C8.32146 7.9537 7.9537 8.32146 7.50002 8.32146H1.07145C0.617765 8.32146 0.25 7.9537 0.25 7.50002V1.07145C0.25 0.617765 0.617765 0.25 1.07145 0.25Z" fill="#1F3E7D" stroke="#F4EAF2" stroke-width="0.5"/>
<path d="M6.42857 17.3934H6.67857V17.1434V12.8577V12.6077H6.42857H2.14283H1.89283V12.8577V17.1434V17.3934H2.14283H6.42857ZM1.07145 10.9648H7.50002C7.95362 10.9648 8.3214 11.3326 8.32146 11.7862C8.32146 11.7862 8.32146 11.7862 8.32146 11.7863V18.2148C8.32146 18.6685 7.9537 19.0363 7.50002 19.0363H1.07145C0.617766 19.0363 0.25 18.6685 0.25 18.2148V11.7862C0.25 11.3326 0.617756 10.9648 1.07145 10.9648Z" fill="#1F3E7D" stroke="#F4EAF2" stroke-width="0.5"/>
<path d="M6.42857 28.1073H6.67857V27.8573V23.5715V23.3215H6.42857H2.14283H1.89283V23.5715V27.8573V28.1073H2.14283H6.42857ZM1.07145 21.6787H7.50002C7.95361 21.6787 8.3214 22.0465 8.32146 22.5002C8.32146 22.5002 8.32146 22.5002 8.32146 22.5002V28.9287C8.32146 29.3824 7.9537 29.7502 7.50002 29.7502H1.07145C0.617765 29.7502 0.25 29.3824 0.25 28.9287V22.5002C0.25 22.0465 0.617765 21.6787 1.07145 21.6787Z" fill="#1F3E7D" stroke="#F4EAF2" stroke-width="0.5"/>
<path d="M11.7856 3.46387H28.9284C29.3821 3.46387 29.7499 3.83163 29.7499 4.28532C29.7499 4.739 29.3821 5.10677 28.9284 5.10677H11.7856C11.3319 5.10677 10.9641 4.739 10.9641 4.28532C10.9641 3.83163 11.3319 3.46387 11.7856 3.46387Z" fill="#1F3E7D" stroke="#F4EAF2" stroke-width="0.5"/>
<path d="M11.7856 14.1787H28.9284C29.3821 14.1787 29.7499 14.5464 29.7499 15.0001C29.7499 15.4538 29.3821 15.8215 28.9284 15.8215H11.7856C11.3319 15.8215 10.9641 15.4538 10.9641 15.0002C10.9641 14.5465 11.3319 14.1787 11.7856 14.1787Z" fill="#1F3E7D" stroke="#F4EAF2" stroke-width="0.5"/>
<path d="M11.7856 24.8926H28.9284C29.3821 24.8926 29.7499 25.2603 29.7499 25.714C29.7499 26.1677 29.3821 26.5355 28.9284 26.5355H11.7856C11.3319 26.5355 10.9641 26.1677 10.9641 25.714C10.9641 25.2603 11.3319 24.8926 11.7856 24.8926Z" fill="#1F3E7D" stroke="#F4EAF2" stroke-width="0.5"/>
</svg>
