<svg width="30" height="30" viewBox="0 0 30 30" fill="none" xmlns="http://www.w3.org/2000/svg">
<g opacity="0.2">
<path d="M6.42857 6.67857H6.67857V6.42857V2.14283V1.89283H6.42857H2.14283H1.89283V2.14283V6.42857V6.67857H2.14283H6.42857ZM1.07145 0.25H7.50002C7.95361 0.25 8.3214 0.617742 8.32146 1.07145C8.32146 1.07146 8.32146 1.07147 8.32146 1.07147V7.50002C8.32146 7.9537 7.9537 8.32146 7.50002 8.32146H1.07145C0.617765 8.32146 0.25 7.9537 0.25 7.50002V1.07145C0.25 0.617765 0.617765 0.25 1.07145 0.25Z" fill="#1F3E7D" stroke="#F4EAF2" stroke-width="0.5"/>
<path d="M6.42857 17.3934H6.67857V17.1434V12.8577V12.6077H6.42857H2.14283H1.89283V12.8577V17.1434V17.3934H2.14283H6.42857ZM1.07145 10.9648H7.50002C7.95362 10.9648 8.3214 11.3326 8.32146 11.7862C8.32146 11.7862 8.32146 11.7862 8.32146 11.7863V18.2148C8.32146 18.6685 7.9537 19.0363 7.50002 19.0363H1.07145C0.617766 19.0363 0.25 18.6685 0.25 18.2148V11.7862C0.25 11.3326 0.617756 10.9648 1.07145 10.9648Z" fill="#1F3E7D" stroke="#F4EAF2" stroke-width="0.5"/>
<path d="M6.42857 28.1063H6.67857V27.8563V23.5706V23.3206H6.42857H2.14283H1.89283V23.5706V27.8563V28.1063H2.14283H6.42857ZM1.07145 21.6777H7.50002C7.95361 21.6777 8.3214 22.0455 8.32146 22.4992C8.32146 22.4992 8.32146 22.4992 8.32146 22.4992V28.9277C8.32146 29.3814 7.9537 29.7492 7.50002 29.7492H1.07145C0.617765 29.7492 0.25 29.3814 0.25 28.9277V22.4992C0.25 22.0455 0.617765 21.6777 1.07145 21.6777Z" fill="#1F3E7D" stroke="#F4EAF2" stroke-width="0.5"/>
<path d="M11.7856 3.46484H28.9284C29.3821 3.46484 29.7499 3.83261 29.7499 4.2863C29.7499 4.73998 29.3821 5.10775 28.9284 5.10775H11.7856C11.3319 5.10775 10.9641 4.73998 10.9641 4.2863C10.9641 3.83261 11.3319 3.46484 11.7856 3.46484Z" fill="#1F3E7D" stroke="#F4EAF2" stroke-width="0.5"/>
<path d="M11.7856 14.1777H28.9284C29.3821 14.1777 29.7499 14.5455 29.7499 14.9991C29.7499 15.4528 29.3821 15.8206 28.9284 15.8206H11.7856C11.3319 15.8206 10.9641 15.4528 10.9641 14.9992C10.9641 14.5455 11.3319 14.1777 11.7856 14.1777Z" fill="#1F3E7D" stroke="#F4EAF2" stroke-width="0.5"/>
<path d="M11.7856 24.8926H28.9284C29.3821 24.8926 29.7499 25.2603 29.7499 25.714C29.7499 26.1677 29.3821 26.5355 28.9284 26.5355H11.7856C11.3319 26.5355 10.9641 26.1677 10.9641 25.714C10.9641 25.2603 11.3319 24.8926 11.7856 24.8926Z" fill="#1F3E7D" stroke="#F4EAF2" stroke-width="0.5"/>
</g>
</svg>
