<svg width="23" height="30" viewBox="0 0 23 30" fill="none" xmlns="http://www.w3.org/2000/svg">
<path fill-rule="evenodd" clip-rule="evenodd" d="M0 8.46834L0.0143155 8.52942C0.0161688 8.53186 0.0186135 8.53475 0.0204988 8.53747L0.0484588 8.59291C0.168607 8.86129 0.480816 9.41952 0.631161 9.69561C0.952366 10.2855 1.2617 10.8867 1.57976 11.4791C1.65801 11.6214 1.82443 11.9645 1.89601 12.0788C2.01326 12.266 2.15966 12.5662 2.2499 12.7587C2.89977 13.9697 3.54552 15.1808 4.19306 16.393C4.47065 16.8839 4.75248 17.4397 5.02563 17.9542L5.03833 17.9737C5.03908 17.9754 5.0405 17.9787 5.04106 17.9804C5.04642 17.9964 5.04375 17.994 5.04298 18.0138L3.02305 18.0147C2.83492 18.0148 2.83511 17.9871 2.83254 18.1383C2.82431 18.6225 2.83177 19.1367 2.83951 19.6216C2.84099 19.7159 2.82425 19.7394 2.73208 19.7387L1.19923 19.7384C1.12919 19.7383 1.14136 19.7292 1.15119 19.8013C1.29532 20.8574 1.51542 21.9684 1.70254 23.0214C1.71839 23.1106 1.73285 23.0942 1.8113 23.0942L6.28161 23.0923C6.43679 23.0923 6.41537 23.1217 6.39144 22.9649C6.346 22.6676 6.22034 21.9417 6.18482 21.7476C6.17448 21.6911 6.15812 21.6603 6.1594 21.6004L6.9584 21.6026L7.00823 21.7175C7.0094 21.7196 7.01146 21.7223 7.01267 21.7244C7.57804 22.7558 8.12491 23.7898 8.67946 24.8277C8.70264 24.8668 8.72701 24.9158 8.7497 24.9561L9.30048 25.9866C9.34321 26.0777 9.39343 26.1645 9.43726 26.2507C9.92141 27.1779 10.5037 28.1621 10.9474 29.0904C11.0368 29.2774 11.1306 29.4201 11.221 29.6021C11.2458 29.6521 11.3072 29.7738 11.3404 29.8344C11.3705 29.8893 11.4096 29.8673 11.4358 29.821C12.0595 28.7165 12.6604 27.6104 13.2692 26.4981C13.3059 26.4163 13.3658 26.3095 13.4078 26.2368C14.2899 24.7091 15.0543 23.1372 15.9436 21.5868L16.879 21.5864C16.8782 21.6411 16.6752 22.7606 16.6261 23.0172C16.6209 23.0445 16.6209 23.0698 16.6359 23.0842C16.6643 23.1116 17.6749 23.0943 17.7949 23.0943C18.9294 23.0943 20.0687 23.112 21.2028 23.0948C21.3085 23.0932 21.3046 23.1177 21.3218 23.0221C21.8727 19.9664 21.779 20.4975 21.8742 19.9581C21.9111 19.7486 21.9471 19.7354 21.7664 19.7348L19.8251 19.729C19.7959 19.4397 19.8242 18.7769 19.8223 18.4187C19.8204 18.0677 19.8444 17.9828 19.565 17.9995C19.0117 18.0007 18.4493 18.0236 17.8981 17.9989C17.9047 17.9006 18.134 17.5304 18.1936 17.4219C19.532 14.9604 20.8527 12.5195 22.1858 10.1014C22.2982 9.90284 23.0333 8.38859 22.9988 8.36365C22.9613 8.33656 21.8146 9.79722 21.6295 10.0378C21.5658 10.1365 21.482 10.2175 21.4136 10.3132C19.8023 12.3807 18.1935 14.4478 16.5877 16.519C16.2359 16.9727 15.8874 17.4249 15.5316 17.8765L15.4329 18.0019C15.4265 18.0058 15.3583 18.0089 15.244 18.0113C14.488 18.0272 11.7165 18.014 11.5116 18.014C10.191 18.014 8.86956 18.0017 7.54903 18.0142C7.48244 18.0148 7.45598 18.0213 7.41926 17.9859C7.3937 17.9613 7.36767 17.9262 7.34823 17.8948C7.25754 17.7482 7.03936 17.4969 6.9194 17.3364C5.58264 15.6127 4.2308 13.8977 2.89835 12.1716C2.70327 11.9189 2.50907 11.6657 2.31621 11.4119C1.62018 10.4953 0.899642 9.59068 0.191007 8.6832C0.177251 8.66864 0.166099 8.65345 0.154307 8.6371C0.116442 8.58459 0.0546419 8.48911 0 8.46834Z" fill="#2B4388"/>
<path fill-rule="evenodd" clip-rule="evenodd" d="M8.49853 9.26032C8.37475 9.24968 8.22401 9.22391 8.09373 9.20667C7.15046 9.0819 6.20704 8.9554 5.26306 8.83437C4.7949 8.77647 4.32736 8.70729 3.8561 8.64961C3.39677 8.6034 2.90295 8.52198 2.44148 8.46076C2.36822 8.44199 2.10222 8.41433 2.01872 8.41874C2.02562 8.47948 2.42004 8.96179 2.51534 9.09008C3.01792 9.75278 3.54499 10.418 4.03168 11.0902L4.46751 11.6776C4.50354 11.7337 4.80956 12.1159 4.91127 12.2645C5.04002 12.4287 5.16485 12.5959 5.29289 12.7608C5.37736 12.8695 5.46241 12.9847 5.54437 13.0959C5.91512 13.599 6.30563 14.0957 6.68327 14.5946C6.82374 14.7804 7.12066 14.7778 7.34542 14.8118C7.49503 14.8345 7.46912 14.9466 7.57661 15.1683C7.63897 15.2968 7.70239 15.4314 7.78138 15.5484C8.08764 16.0018 8.2875 16.2463 8.63075 16.564C8.9596 16.8684 9.39197 17.1697 9.80811 17.3293C10.8592 17.7324 11.5065 17.7226 12.5755 17.5225C13.3207 17.3833 14.2214 16.735 14.7326 16.1648C14.991 15.8765 15.2669 15.4552 15.4186 15.0926C15.5014 14.8946 15.5077 14.8295 15.5466 14.8045C15.5748 14.7864 15.8939 14.7563 15.9539 14.749C16.3598 14.7264 16.2626 14.7196 16.4921 14.4071L16.7468 14.0759C16.9069 13.8554 17.093 13.6353 17.2526 13.4102C18.1689 12.1984 19.1577 10.9732 20.0263 9.73358C20.2754 9.37812 20.5861 9.00842 20.8477 8.65701L20.9751 8.49041C21.0409 8.41332 21.0565 8.39102 20.9433 8.41374C20.7084 8.43937 20.4657 8.47506 20.2309 8.50783C19.956 8.54194 19.6854 8.57875 19.4123 8.6178C18.6685 8.71267 17.9234 8.80767 17.1803 8.907C17.0521 8.93589 16.6074 8.99988 16.1819 9.05496C15.7969 9.10481 14.8175 9.27833 14.526 9.25899C14.3947 9.0081 14.2877 8.75124 14.1548 8.50446C14.0561 8.32113 13.9708 8.12163 13.8754 7.93966C13.8096 7.81415 13.7481 7.68337 13.6846 7.55653C13.3898 6.9513 13.0063 6.26409 12.749 5.65514C12.4756 5.00811 12.0228 4.18692 11.7234 3.5609C11.69 3.49316 11.5758 3.20813 11.523 3.1875C11.5042 3.193 11.4584 3.26964 11.4085 3.36465C10.734 4.64925 10.0953 6.04639 9.44747 7.36246L8.88374 8.5111C8.85292 8.57933 8.55231 9.207 8.49853 9.26032Z" fill="#2B4388"/>
<path fill-rule="evenodd" clip-rule="evenodd" d="M2.55428 8.78147C2.68935 8.96607 2.84302 9.15139 2.98299 9.33696C3.09479 9.48517 3.22835 9.64321 3.33615 9.8053C3.76736 10.3746 4.19592 10.9466 4.62894 11.5141C5.00123 12.0496 5.53061 12.7082 5.93305 13.2338L6.64336 14.1641C6.7798 14.3455 6.84523 14.5157 7.09123 14.5468L7.32657 14.5799C7.58269 14.6153 7.5976 14.6348 7.66726 14.7915C7.92113 15.3626 8.18091 15.8492 8.64686 16.2878C9.23875 16.8002 9.61909 17.056 10.4039 17.2876C11.0753 17.4857 11.8708 17.479 12.5358 17.2954L12.9485 17.1587C13.2726 17.0399 13.5564 16.8635 13.8409 16.6771C14.2212 16.4279 14.5397 16.0761 14.8096 15.7125C14.8849 15.611 14.9557 15.484 15.0211 15.3727C15.0914 15.2528 15.1416 15.1268 15.2045 15.0044C15.2507 14.9146 15.3259 14.684 15.3735 14.6246C15.389 14.6054 15.3836 14.6099 15.4075 14.5972C15.4284 14.5862 15.4369 14.5853 15.459 14.5782C15.5806 14.5396 15.7079 14.5464 15.8341 14.532C16.2071 14.4894 16.1208 14.5472 16.4703 14.066C17.0827 13.2227 17.7457 12.3827 18.3724 11.5489C19.0699 10.6931 19.719 9.75924 20.3923 8.87896C20.4305 8.82908 20.4969 8.76102 20.5034 8.7074C20.2328 8.69698 18.1451 9.00147 17.8151 9.05469C16.8089 9.16962 15.8238 9.33667 14.8062 9.44912C14.7276 9.4578 14.6637 9.47863 14.5947 9.5524C14.5606 9.58884 14.5303 9.64799 14.4777 9.65716C14.2292 9.16363 13.9839 8.66664 13.737 8.17149C13.7155 8.12152 13.6758 8.04273 13.6473 7.99208C13.1519 6.98306 12.5683 5.53652 11.9872 4.62209C11.9859 4.61999 11.9839 4.61715 11.9826 4.61506L11.6145 3.86761C11.582 3.81238 11.549 3.72695 11.5119 3.68945C11.4788 3.71198 11.3025 4.08168 11.2597 4.1753C11.1344 4.44925 10.9889 4.73978 10.8514 5.01016C10.6323 5.45586 10.4162 5.90462 10.1957 6.34931C9.94833 6.84796 9.70191 7.34709 9.45483 7.84588C9.42858 7.90387 9.40137 7.95625 9.37433 8.01244C9.21272 8.34853 9.04393 8.68423 8.88056 9.01959L8.63534 9.51118C8.54672 9.70225 8.56031 9.7052 8.46527 9.58029C8.39874 9.49291 8.38944 9.47622 8.35974 9.4728C8.28957 9.46479 8.2154 9.4468 8.14821 9.44198C7.75147 9.39296 7.32765 9.34251 6.93691 9.27486C6.35235 9.19536 5.76386 9.11831 5.17853 9.04132C4.4214 8.92464 3.56528 8.81179 2.80208 8.73055C2.73565 8.72347 2.66438 8.71694 2.60835 8.71347C2.50844 8.7073 2.51748 8.69637 2.55428 8.78147Z" fill="#FEFEFE"/>
<path fill-rule="evenodd" clip-rule="evenodd" d="M2.97287 18.958L2.97456 21.2023C2.9748 21.5078 2.96721 21.431 3.30238 21.431L15.4506 21.433C15.8148 21.433 18.6251 21.4477 19.4471 21.4321C19.6881 21.4276 19.6777 21.4781 19.6843 21.2726C19.7033 20.6877 19.6684 18.5739 19.6647 18.2839C19.663 18.1458 19.6777 18.1529 19.5493 18.1527C18.3726 18.151 5.09502 18.1475 3.24248 18.1462C3.0072 18.146 2.99305 18.1179 2.98437 18.3011L2.97287 18.958Z" fill="#902647"/>
<path fill-rule="evenodd" clip-rule="evenodd" d="M9.0159 16.0947C9.2182 16.2648 9.38473 16.4005 9.6158 16.5388C10.4754 17.0533 11.4445 17.1744 12.4198 16.9457C12.5549 16.9141 12.6449 16.8823 12.7724 16.8416C13.631 16.5671 14.456 15.8152 14.854 15.0055C15.3524 13.8976 15.3546 13.1899 15.0416 12.1435C14.9552 11.8579 14.7613 11.4387 14.581 11.2076C13.9655 10.4191 13.1092 9.773 12.0898 9.64684C11.6061 9.58696 11.302 9.59939 10.7457 9.68033C10.2848 9.78278 9.62039 10.0826 9.2664 10.3911C9.12515 10.5143 9.05255 10.5534 8.88884 10.7166C8.65724 10.9474 8.45198 11.1962 8.28369 11.4965C8.168 11.7029 8.06492 11.8997 7.9826 12.1215C7.9048 12.3311 7.84822 12.5346 7.81115 12.7547C7.61192 13.9381 8.09198 15.3182 9.0159 16.0947Z" fill="#2B4388"/>
<path fill-rule="evenodd" clip-rule="evenodd" d="M9.08514 9.92602L9.16289 9.89959C9.16487 9.89827 9.16757 9.89612 9.1695 9.89473L9.44049 9.72183C9.77108 9.53667 9.79461 9.54186 10.105 9.41293C10.1505 9.39398 10.1946 9.38447 10.2424 9.36386C11.2446 8.93186 12.7198 9.19375 13.6758 9.76927C13.7399 9.80785 13.8594 9.90712 13.9266 9.91046C13.9813 9.85337 13.9835 9.82202 14.024 9.75586C14.0865 9.65398 14.0664 9.6004 14.0182 9.50996C13.9701 9.41964 13.9217 9.30285 13.8735 9.2086L11.5517 4.49729C11.5235 4.45226 11.5576 4.47787 11.5117 4.46094C11.4744 4.48805 11.4461 4.56544 11.4204 4.62021C10.6584 6.24472 9.8015 7.91037 8.99377 9.53124C8.93462 9.6395 9.03256 9.84174 9.08514 9.92602Z" fill="#902647"/>
<path fill-rule="evenodd" clip-rule="evenodd" d="M7.40502 14.2175C7.40804 14.1771 7.3448 13.7876 7.33538 13.6351C7.2687 12.5562 7.6171 11.4942 8.30803 10.6651L8.54298 10.4073C8.59262 10.3547 8.56611 10.3249 8.46952 10.1928L8.27197 9.89817C8.20091 9.79708 8.22599 9.78061 8.07836 9.76363C6.4856 9.55407 4.87453 9.37069 3.28844 9.12571C3.21516 9.1144 3.14187 9.11214 3.18752 9.16552C3.29329 9.28919 3.37721 9.40892 3.48185 9.53046C4.56599 10.8755 5.64189 12.2332 6.73241 13.5726C6.82614 13.6892 6.9256 13.8278 7.02342 13.9376C7.14041 14.0689 7.20304 14.2243 7.40502 14.2175Z" fill="#902647"/>
<path fill-rule="evenodd" clip-rule="evenodd" d="M15.636 14.2227C15.7289 14.2222 15.7908 14.1864 15.8367 14.1384C16.1083 13.8294 16.3615 13.495 16.6189 13.1739C16.6627 13.1192 16.7089 13.0639 16.7492 13.0106L18.6911 10.5923C18.7845 10.4958 19.8384 9.1883 19.8619 9.12896C19.7921 9.12746 19.6545 9.1556 19.463 9.1749C18.3839 9.28372 15.6999 9.6542 15.1366 9.74447C14.9348 9.77778 14.8608 9.74215 14.7457 9.91587C14.7169 9.95942 14.466 10.3417 14.467 10.3632C14.4745 10.534 15.9871 11.8088 15.6578 14.0568C15.648 14.1233 15.629 14.1252 15.636 14.2227Z" fill="#902647"/>
<path fill-rule="evenodd" clip-rule="evenodd" d="M14.8921 8.02748C15.1253 8.03416 15.662 8.0237 15.8603 8.0237C16.7395 8.0237 17.6187 8.0237 18.4979 8.0237C18.9937 8.0237 19.0552 8.03501 18.7897 7.76909C18.5561 7.53513 18.2256 7.1761 18.1395 7.08602C17.9013 6.83677 17.6164 6.51852 17.3826 6.28396C17.2526 6.15357 17.2524 6.17236 17.379 6.06182L18.1711 5.37002C18.3425 5.2357 18.5107 5.07921 18.676 4.93602C18.7287 4.89213 18.8491 4.81199 18.8602 4.74877L14.8112 4.74805C14.812 4.8029 14.9497 5.02984 14.984 5.09565L15.2653 5.61051C15.3282 5.72118 15.3103 6.73676 15.3025 6.90322C15.2879 7.21219 15.1046 7.38399 14.9817 7.65397L14.8496 7.92125C14.8029 8.01036 14.7967 8.02475 14.8921 8.02748Z" fill="#2B4388"/>
<path fill-rule="evenodd" clip-rule="evenodd" d="M19.6055 21.5793C19.5005 21.5862 19.3573 21.5779 19.2951 21.578C19.0369 21.5781 19.295 21.6128 17.1799 21.5857C16.9899 21.5833 16.9684 21.6408 16.9321 21.9502C16.8958 22.0702 16.85 22.4869 16.8163 22.6079C16.8089 22.6346 16.8055 22.7022 16.7873 22.7685C16.727 22.9873 16.8139 22.9597 17.1466 22.9659C17.9729 22.9813 19.8834 22.9732 20.0805 22.9732L20.9363 22.9727C21.1761 22.9683 21.2472 22.9494 21.2838 22.6891C21.4112 21.7807 21.6001 20.889 21.7435 19.9841C21.7639 19.8556 21.7581 19.858 21.6134 19.8578L20 19.8557C19.8346 19.8555 19.8278 19.843 19.8275 20.0118C19.8273 20.1717 19.81 20.9998 19.8034 21.2925C19.7985 21.508 19.8149 21.5655 19.6055 21.5793Z" fill="#902647"/>
<path fill-rule="evenodd" clip-rule="evenodd" d="M11.5583 29.341C11.5916 29.3275 11.9013 28.6965 11.9496 28.6248C13.0894 26.5233 14.2334 24.4225 15.3816 22.3256C15.4259 22.2478 15.4682 22.159 15.5117 22.0791C15.5565 21.9969 15.7633 21.6431 15.7658 21.5859L14.6296 21.5863C13.8078 22.7297 12.503 24.9183 11.7333 26.1443C11.5876 26.3771 11.6399 26.3223 11.6118 26.6992C11.5794 27.1338 11.5339 29.282 11.5583 29.341Z" fill="#FEFEFE"/>
<path fill-rule="evenodd" clip-rule="evenodd" d="M2.02062 22.9766C3.38267 22.9701 4.74527 22.9645 6.10742 22.9726C6.25156 22.9734 6.27105 22.9752 6.24196 22.8039C6.06832 21.7816 6.12592 22.1083 6.0656 21.7663C6.03889 21.6148 6.07417 21.5883 5.92628 21.588C5.43685 21.5867 3.65817 21.6019 3.10323 21.5815C2.84669 21.5722 2.80363 21.5638 2.80888 21.308C2.81553 20.9839 2.82755 20.3841 2.8225 20.0734C2.81873 19.8408 2.85022 19.86 2.63745 19.8602C2.41382 19.8603 1.81622 19.8502 1.4948 19.8547C1.29818 19.8574 1.30031 19.8355 1.3093 19.9888C1.76989 22.6298 1.64335 21.9234 1.77163 22.6426C1.82282 22.9297 1.76283 22.9779 2.02062 22.9766Z" fill="#902647"/>
<path fill-rule="evenodd" clip-rule="evenodd" d="M15.1611 7.89297L18.5253 7.89348C18.7875 7.91642 18.7065 7.83563 18.5107 7.66435L18.3092 7.44526C18.1688 7.28352 18.0353 7.17138 17.9032 7.01848C17.7719 6.86644 17.6403 6.7469 17.4976 6.59197C17.4686 6.56051 17.2855 6.37236 17.1773 6.24859C17.0711 6.12705 17.0872 6.15857 17.2085 6.04691C17.2875 5.97421 17.3681 5.9022 17.4535 5.83503L18.3413 5.0584C18.4212 4.97664 18.5037 4.95599 18.5135 4.8839L16.9586 4.88145C16.9429 5.01211 16.9436 5.14059 16.9447 5.27489C16.9455 5.37551 16.947 5.36134 16.8866 5.40911C16.8126 5.4677 16.5557 5.68063 16.4024 5.76783C16.2899 5.83179 16.2864 5.80829 16.304 5.68136C16.3218 5.5535 16.3945 5.4634 16.4734 5.31338L16.6968 4.90646C16.699 4.88053 16.6999 4.89296 16.6892 4.87878C16.663 4.86271 15.4656 4.8596 15.109 4.86731C15.0763 4.86802 15.024 4.8645 15.0217 4.88754C15.0166 4.94044 15.3001 5.41154 15.3426 5.48731C15.437 5.66173 15.4189 5.65357 15.4231 5.88408L15.423 6.84559C15.4208 7.18315 15.3872 7.14273 15.2647 7.39809L15.0985 7.71479C15.0049 7.88965 14.9837 7.89294 15.1611 7.89297Z" fill="#EFF2F7"/>
<path fill-rule="evenodd" clip-rule="evenodd" d="M6.09179 4.95651C6.12066 5.03486 6.45549 5.28918 6.49729 5.38C6.26405 5.38548 5.84256 5.3571 5.55853 5.38869C5.09294 5.44047 4.81464 5.84169 4.7596 6.28343C4.72023 6.59947 4.89479 7.01844 5.21098 7.15262C5.37392 7.22178 5.62321 7.20147 5.8265 7.20147C6.04734 7.20147 6.26908 7.19814 6.48979 7.20199C6.47823 7.27676 6.14082 7.58958 6.05836 7.68529C6.03492 7.7125 6.01356 7.72359 6.01927 7.77582L7.29381 7.77568C7.29479 7.72966 7.24807 7.69164 7.18903 7.63984C7.13311 7.58168 6.81887 7.27743 6.80961 7.21956C6.82205 7.21183 6.814 7.21402 6.83658 7.20927L7.44422 7.21579C7.86344 7.21576 8.17089 7.23186 8.40047 6.83895C8.49641 6.67476 8.52551 6.53518 8.5194 6.29316C8.51424 6.08833 8.4682 5.96307 8.3604 5.79846C8.13013 5.44688 7.82964 5.37984 7.44422 5.37874C7.21926 5.37808 6.99502 5.38879 6.7696 5.38335C6.77155 5.38025 6.7742 5.37191 6.77529 5.37394C6.77634 5.37592 6.77943 5.36691 6.7809 5.36477C6.80894 5.32437 6.83917 5.302 6.87503 5.26781C6.91752 5.22301 7.08496 5.07154 7.15168 5.00069C7.18892 4.96116 7.1868 4.96055 7.14029 4.95894L6.12078 4.94336C6.09509 4.95034 6.10805 4.94472 6.09179 4.95651Z" fill="#2B4388"/>
<path fill-rule="evenodd" clip-rule="evenodd" d="M11.341 26.1519C11.3599 25.9815 11.3439 23.6724 11.3456 23.3666C11.3465 23.2249 11.3288 23.2107 11.2427 23.117C11.227 23.0999 11.2091 23.0803 11.1885 23.0567C10.8196 22.5708 10.4414 22.093 10.0658 21.612C10.0247 21.5704 9.93314 21.586 9.85872 21.586C9.48591 21.5861 8.74874 21.5668 8.45508 21.5883C8.45725 21.6571 8.57959 21.8037 8.61765 21.8769C9.18993 22.9772 10.2842 24.5229 10.9739 25.5924L11.2463 26.0249C11.2649 26.0579 11.3129 26.1447 11.341 26.1519Z" fill="#FEFEFE"/>
<path fill-rule="evenodd" clip-rule="evenodd" d="M15.2465 5.06549L15.4607 5.45055C15.5195 5.56054 15.5414 5.60462 15.5417 5.70767L15.5432 6.90391C15.5426 7.10125 15.5326 7.16669 15.4163 7.37467C15.385 7.43068 15.2838 7.59691 15.2376 7.70143C15.1938 7.80046 15.2334 7.77275 15.3419 7.77536C15.6394 7.7825 16.0778 7.7751 16.3951 7.77229C16.5094 7.77127 16.5308 7.79341 16.4682 7.67216C16.3896 7.51998 16.2081 7.27032 16.1871 7.13812L16.1862 6.52837C16.3876 6.51479 16.4533 6.51418 16.5789 6.61859C16.6501 6.67771 16.7185 6.74716 16.7789 6.80612C16.8993 6.92376 17.0194 7.04068 17.1374 7.15493C17.1687 7.18524 17.1746 7.17901 17.1605 7.22205C17.1239 7.33396 16.9788 7.56121 16.9362 7.69985C16.9132 7.77478 16.9141 7.7721 16.9781 7.77211L18.3811 7.77258C18.4255 7.77259 18.4273 7.77718 18.397 7.73361C18.2813 7.56713 17.7507 7.02868 17.6818 6.95816C17.5741 6.84796 16.9669 6.21977 16.9365 6.14176C16.95 6.09237 17.0422 6.0299 17.0844 5.99402L17.5672 5.58519C17.5909 5.56554 17.6105 5.53621 17.6362 5.51491C17.6661 5.49006 17.6855 5.47656 17.7195 5.44469C17.7492 5.41683 17.7721 5.39486 17.7975 5.3711C17.8665 5.30676 17.9249 5.27103 18.0342 5.16188C18.0677 5.12849 18.0827 5.11591 18.1132 5.08886C18.131 5.07309 18.1793 5.04034 18.1728 5.01326C18.1701 5.01172 18.1664 5.00583 18.1648 5.00851L18.1227 5.00115C17.802 5.00115 17.3764 4.99305 17.0681 5.00303L17.0603 5.3335C17.0577 5.4428 17.0762 5.43358 16.9428 5.52523L16.4273 5.9012C16.3864 5.92006 16.3127 5.91319 16.2581 5.91333C16.159 5.91359 16.1645 5.90814 16.1647 5.81344C16.1652 5.61624 16.2926 5.35867 16.3951 5.19794C16.4286 5.14531 16.4877 5.07706 16.493 5.00445L15.286 5.00644C15.234 5.00653 15.2144 5.00282 15.2465 5.06549Z" fill="#2B4388"/>
<path fill-rule="evenodd" clip-rule="evenodd" d="M12.4967 20.9265C12.8849 20.9265 13.1319 20.8181 13.3799 20.603C13.4088 20.578 13.4284 20.5584 13.4521 20.5344C13.4977 20.488 13.5915 20.3311 13.623 20.272C13.8735 19.8026 13.6132 19.1593 13.1965 18.8673C12.9816 18.7167 12.7686 18.6466 12.5448 18.6485C12.2212 18.6511 11.9743 18.7656 11.7444 18.9787C11.6272 19.0873 11.5167 19.2491 11.453 19.4034C11.3497 19.6538 11.3167 19.9974 11.4505 20.2506C11.5218 20.3855 11.6011 20.4815 11.6942 20.5808C11.8582 20.7559 12.1917 20.9265 12.4967 20.9265ZM12.9614 19.9938C12.7878 19.981 12.3111 19.9618 12.1558 19.9795C12.0956 19.9863 12.111 20.0175 12.1222 20.06C12.1448 20.1461 12.2054 20.2878 12.2515 20.3513C12.4375 20.6078 12.6984 20.5264 12.7998 20.3868C12.8466 20.3224 12.98 20.1068 12.9614 19.9938ZM12.1143 19.6563L12.9637 19.659C13.0109 19.3843 12.6107 18.6366 12.2311 19.2426C12.1848 19.3166 12.0987 19.5531 12.1143 19.6563Z" fill="#FEFEFE"/>
<path fill-rule="evenodd" clip-rule="evenodd" d="M9.99243 15.2093C10.0427 15.1014 10.1568 14.939 10.2275 14.8347C10.3744 14.6184 10.5313 14.4259 10.6967 14.2248C10.724 14.1862 10.7097 14.1539 10.6926 14.1128C10.6733 14.0665 10.6765 14.0504 10.6596 13.9919L10.4223 13.1491C10.3638 12.918 10.4063 12.9734 10.0932 12.8608C9.8314 12.7666 9.58617 12.6619 9.32957 12.5593C9.31735 12.5544 9.31657 12.5549 9.30318 12.5489C9.24929 12.5246 9.2653 12.5208 9.20204 12.5248C9.02548 12.7318 8.82584 12.9293 8.63544 13.1248C8.5609 13.2014 8.58389 13.228 8.58413 13.3636C8.58504 13.8582 8.64112 14.4092 8.86312 14.8506C8.91019 14.9441 8.90581 14.9622 9.02343 14.9858C9.22125 15.0256 9.83388 15.2231 9.99243 15.2093Z" fill="#FEFEFE"/>
<path fill-rule="evenodd" clip-rule="evenodd" d="M6.16592 17.9947L7.19464 17.9991C7.23244 17.9992 7.24182 18.0089 7.23295 17.9674C7.21792 17.897 6.62531 17.1782 6.53656 17.0624C6.52 17.0408 4.8081 14.8298 3.38949 13.0065C2.39319 11.7259 1.54152 10.6365 1.52342 10.6309C1.52804 10.6834 1.82068 11.1224 1.87764 11.2171C3.09426 13.1397 4.32152 15.2009 5.58203 17.0667C5.67405 17.2029 5.84457 17.4985 5.9092 17.5848L6.16592 17.9947Z" fill="#FEFEFE"/>
<path fill-rule="evenodd" clip-rule="evenodd" d="M11.459 0.139746C11.3492 0.483718 11.2277 0.826156 11.1165 1.17011C11.0894 1.25402 11.1083 1.24415 11.0196 1.24588C10.7169 1.25176 9.83955 1.218 9.7816 1.25573C9.75928 1.2763 9.78298 1.28502 9.81133 1.3106C9.90626 1.39627 10.6567 1.92398 10.8046 2.05783C10.8206 2.07234 10.8296 2.08222 10.8299 2.08642C10.8303 2.09281 10.8307 2.0992 10.8311 2.10559C10.831 2.10869 10.823 2.1443 10.8202 2.15354C10.7938 2.23197 10.7675 2.3104 10.7411 2.38883C10.6452 2.67521 10.7411 2.38883 10.4527 3.27441C10.4132 3.37216 10.4388 3.36673 10.5111 3.33275C10.624 3.27186 10.723 3.17638 10.8258 3.09966C10.8525 3.0797 10.8732 3.06735 10.8953 3.05173C11.095 2.90627 11.2948 2.76081 11.4946 2.61536C11.5386 2.60058 11.5623 2.61489 11.5861 2.63642C11.8384 2.8638 12.2207 3.11116 12.5113 3.3015C12.544 3.32294 12.553 3.33356 12.5956 3.34408C12.5939 3.29274 12.5669 3.22107 12.5504 3.18202C12.4638 2.92289 12.3865 2.67294 12.3098 2.41043C12.3015 2.38206 12.2126 2.10489 12.2191 2.08444C12.2212 2.0818 12.2239 2.07424 12.225 2.07629C12.2261 2.07829 12.2294 2.07004 12.2309 2.06828C12.4036 1.93524 12.5764 1.80218 12.7491 1.66913C12.7573 1.66251 13.2428 1.3155 13.2577 1.26872C13.266 1.24265 13.2687 1.27243 13.2567 1.25239C13.1954 1.2234 12.476 1.25476 12.1195 1.25062C11.9574 1.24875 11.9657 1.27663 11.9079 1.13733C11.7849 0.840759 11.639 0.372852 11.5658 0.107184C11.5211 -0.0547601 11.5114 -0.0245473 11.459 0.139746Z" fill="#DCC693"/>
<path fill-rule="evenodd" clip-rule="evenodd" d="M12.8126 15.2272L13.7748 14.991C13.8916 14.9627 14.1936 14.5032 14.2364 14.4046C14.3311 14.1868 14.4544 13.8163 14.4632 13.5759C14.4731 13.3043 14.4738 13.3902 14.3544 13.2404C14.3305 13.2104 14.3113 13.1911 14.2836 13.1591L13.8633 12.6647C13.7967 12.6101 13.4909 12.7267 13.3927 12.7603C13.321 12.7847 13.2398 12.805 13.1703 12.8324C13.1 12.86 13.0285 12.8936 12.9524 12.9172C12.8656 12.9441 12.8335 12.9751 12.7464 13.0044C12.618 13.0478 12.6478 13.043 12.605 13.1672L12.3682 13.8347C12.3171 13.9978 12.3019 14.0025 12.2494 14.1733C12.2052 14.3172 12.2084 14.2605 12.3495 14.4841L12.7487 15.1406C12.773 15.1771 12.7837 15.1994 12.8126 15.2272Z" fill="#FEFEFE"/>
<path fill-rule="evenodd" clip-rule="evenodd" d="M11.4988 10.9108L11.5982 11.9719C11.6408 12.1584 11.6003 12.1108 11.7358 12.2245C11.9856 12.4339 12.3483 12.7375 12.6135 12.9071C12.6468 12.902 12.8532 12.8084 12.8863 12.7918C13.0691 12.7002 13.4845 12.5825 13.6867 12.5264C13.7965 12.4961 13.7663 12.4812 13.7681 12.3636C13.7704 12.2081 13.7706 12.0266 13.756 11.9078C13.7124 11.5535 13.8118 11.5054 13.6511 11.3055C13.4337 11.0353 13.0032 10.6758 12.7188 10.5375C12.4427 10.4033 12.4426 10.435 12.3043 10.5102C12.1418 10.5986 11.6923 10.8026 11.5987 10.8593C11.5602 10.8826 11.5413 10.8956 11.4988 10.9108Z" fill="#FEFEFE"/>
<path fill-rule="evenodd" clip-rule="evenodd" d="M13.8361 20.8301C14.4779 20.8491 15.1702 20.8291 15.8136 20.8167C16.0118 20.8129 16.1573 20.7709 16.2757 20.6167C16.4466 20.394 16.4722 19.8982 16.0876 19.6935C15.6911 19.4825 15.1653 19.5789 14.9033 19.5405C14.894 19.4654 14.889 19.1737 14.9103 19.1221C14.9361 19.093 15.6791 19.1097 15.7136 19.1175C15.7952 19.1357 16.0229 19.292 16.0968 19.3545C16.1373 19.3888 16.1687 19.4224 16.2363 19.4298L16.2377 18.8167C16.2377 18.8058 16.2377 18.7804 16.2362 18.7705L16.2278 18.7406C16.227 18.7382 16.2255 18.7343 16.2238 18.7314C16.1894 18.7148 13.9941 18.7027 13.8222 18.7253C13.834 18.761 13.8742 18.7933 13.9002 18.8198C13.9896 18.9112 14.0856 19.0302 14.1736 19.1086C14.2828 19.2059 14.258 19.2137 14.2583 19.3918L14.2576 20.3187C14.2478 20.3832 13.9682 20.6575 13.9076 20.7219C13.877 20.7543 13.8329 20.7803 13.8361 20.8301ZM14.9045 20.4386C15.0543 20.4423 15.2482 20.4493 15.3925 20.4392C15.5336 20.4294 15.6605 20.3739 15.6644 20.213C15.6693 20.0105 15.5815 19.9754 15.4033 19.9718C15.2414 19.9686 15.0675 19.9666 14.9061 19.972L14.9045 20.4386Z" fill="#FEFEFE"/>
<path fill-rule="evenodd" clip-rule="evenodd" d="M10.8029 14.3261L10.5438 14.6247C10.4661 14.7194 10.1024 15.2271 10.1104 15.3215L10.344 15.6582C10.4023 15.7393 10.6384 16.0811 10.7049 16.141C10.7434 16.1757 10.7769 16.1879 10.8167 16.1993C11.1338 16.29 11.3213 16.3091 11.6591 16.2853C11.8839 16.2694 12.084 16.2314 12.159 16.1805C12.288 16.093 12.4907 15.6471 12.5962 15.4812C12.7173 15.2907 12.7083 15.3297 12.5696 15.1206L12.2485 14.5858C12.063 14.2762 12.1388 14.3555 11.9216 14.3387C11.6423 14.3255 11.3687 14.3127 11.0891 14.31C11.0173 14.3092 10.8495 14.2815 10.8029 14.3261Z" fill="#FEFEFE"/>
<path fill-rule="evenodd" clip-rule="evenodd" d="M9.28531 12.4021C9.63018 12.5489 9.96867 12.6714 10.3232 12.7936C10.5165 12.864 11.3116 12.2069 11.4521 12.1093C11.4194 11.719 11.3986 11.324 11.3662 10.9367C11.1876 10.8182 10.3978 10.5364 10.1778 10.624C9.95341 10.7134 9.52247 10.9825 9.36791 11.1492C9.29068 11.2326 9.29507 11.1937 9.29448 11.3471C9.29315 11.6942 9.26382 12.0528 9.28531 12.4021Z" fill="#FEFEFE"/>
<path fill-rule="evenodd" clip-rule="evenodd" d="M16.9268 17.9974L17.7255 17.9988L17.9515 17.5765C17.9706 17.5395 17.9634 17.5452 17.9872 17.5086L18.3389 16.875C18.548 16.4985 18.7399 16.1261 18.9521 15.7542C18.9808 15.7039 18.9982 15.669 19.0251 15.6153L19.1769 15.3328C19.2051 15.2828 19.2259 15.2346 19.2571 15.1902C19.8075 14.1739 20.3486 13.1657 20.911 12.1556C21.4708 11.15 22.4861 9.34458 22.5968 9.04366C22.6062 9.01316 22.6009 9.00762 22.5956 9.00586C22.5892 9.00375 20.8802 11.7397 20.815 11.8465L20.4811 12.381C20.4219 12.4783 20.3574 12.5674 20.3024 12.6582C20.2417 12.7583 20.1867 12.8453 20.1253 12.9397L19.4103 14.0657C19.3035 14.2281 19.1574 14.4851 19.0505 14.6202C18.356 15.7189 17.6606 16.8161 16.9615 17.9118C16.9402 17.9449 16.9304 17.9529 16.9268 17.9974Z" fill="#FEFEFE"/>
<path fill-rule="evenodd" clip-rule="evenodd" d="M6.41951 20.8278L7.61647 20.8222C7.61005 20.7196 7.33364 20.497 7.32485 20.201C7.3219 20.1017 7.32447 19.9947 7.32669 19.8951L7.67795 19.8885L8.06932 20.4116C8.07434 20.4361 8.07188 20.4682 8.0711 20.4936C8.06829 20.5852 8.05761 20.732 8.06825 20.818C8.17163 20.8316 8.44674 20.8193 8.5815 20.8217L8.62499 20.8253C8.70975 20.8439 8.64226 21.0283 8.66828 21.1446C8.77085 21.1529 9.45327 21.1544 9.50179 21.1341C9.49024 21.1001 9.22529 20.7961 9.17951 20.7385L8.93851 20.4408C8.8059 20.309 8.5753 19.9876 8.44019 19.8483C8.38924 19.7957 8.21727 19.5929 8.20564 19.5556C8.24733 19.4879 8.35626 19.3974 8.4166 19.3443L8.52538 19.2429C8.56839 19.2014 8.59406 19.1779 8.63498 19.141C8.68825 19.093 9.04374 18.7963 9.06028 18.7253C9.03435 18.7248 8.08211 18.7099 8.05463 18.7367C8.02866 18.7621 8.04205 18.8593 8.04306 18.899C8.04454 18.9565 8.04777 19.0158 8.04069 19.0728C8.02551 19.1948 8.0196 19.1723 7.87369 19.2707C7.81267 19.3118 7.70155 19.3699 7.63743 19.3959C7.59281 19.414 7.38109 19.4673 7.33481 19.4193C7.23067 19.3232 7.46855 18.9857 7.54483 18.8951C7.58295 18.8498 7.63955 18.7867 7.64107 18.7259L6.39105 18.7235C6.40545 18.8408 6.70397 19.1093 6.70777 19.2381L6.70767 19.755C6.70801 19.9114 6.73298 20.2857 6.66806 20.3865C6.59882 20.494 6.42369 20.7133 6.41951 20.8278Z" fill="#FEFEFE"/>
<path fill-rule="evenodd" clip-rule="evenodd" d="M16.5045 20.8214C16.7175 20.8342 18.8893 20.8301 18.9319 20.812C18.96 20.7878 18.9444 19.8582 18.9435 19.8371C18.8567 19.8816 18.652 20.1764 18.6046 20.2237C18.3833 20.4446 18.5755 20.4016 18.0527 20.4016C18.0283 20.4016 17.5926 20.412 17.5701 20.3886C17.5416 20.3342 17.558 20.04 17.5623 19.9541L17.9592 19.9467C18.0978 19.9458 18.1374 20.0193 18.2998 20.1514C18.3292 20.1753 18.3372 20.2002 18.3881 20.1955L18.394 19.3074C18.3373 19.308 18.3374 19.322 18.3031 19.3478C18.2794 19.3656 18.2526 19.3837 18.226 19.4C17.9834 19.5495 18.1462 19.5338 17.83 19.5338L17.6299 19.5345C17.5223 19.5285 17.5642 19.4824 17.5586 19.2027C17.5584 19.1892 17.557 19.1555 17.5582 19.1439C17.5594 19.1336 17.5599 19.109 17.5733 19.0974C17.6531 19.0544 18.3834 19.0503 18.4508 19.1097C18.4998 19.1529 18.5313 19.1812 18.5709 19.2239C18.6376 19.2957 18.8443 19.5905 18.8946 19.6104C18.917 19.5635 18.9196 18.7943 18.8964 18.7368C18.8713 18.7011 18.3474 18.7196 18.3106 18.7196C17.9081 18.7196 17.5056 18.7196 17.1032 18.7196C16.9091 18.7196 16.6826 18.709 16.4925 18.7226C16.5093 18.7742 16.7023 18.9672 16.7531 19.0131C16.7882 19.0448 16.8103 19.0722 16.842 19.1124C16.9263 19.2193 16.9386 19.2139 16.9393 19.3905C16.9399 19.5156 16.9413 19.6407 16.9414 19.7658C16.9415 19.8869 16.9401 20.0081 16.9395 20.1293C16.9385 20.3143 16.9375 20.295 16.8527 20.4172C16.8078 20.482 16.722 20.5637 16.6727 20.6132C16.6281 20.6579 16.5079 20.7599 16.5045 20.8214Z" fill="#FEFEFE"/>
<path fill-rule="evenodd" clip-rule="evenodd" d="M4.77115 20.8233L4.83912 20.8204C4.83204 20.7499 4.67705 20.6265 4.62298 20.5706C4.55223 20.4974 4.50802 20.4219 4.51878 20.3152C4.52569 20.2466 4.53461 20.2527 4.61876 20.2531L5.2049 20.2541C5.29722 20.2541 5.31241 20.338 5.28061 20.4047C5.25609 20.4561 5.19796 20.5128 5.16206 20.5559C5.12995 20.5944 4.90878 20.7662 4.90408 20.8173C5.08239 20.8378 5.8124 20.8224 6.08409 20.8223C6.21793 20.8223 6.24292 20.8403 6.34607 20.7908C6.389 20.7702 6.38102 20.7647 6.41375 20.7527L6.39932 20.7403C6.18382 20.5725 6.29705 20.6672 6.09018 20.4742C6.01542 20.4044 5.8993 20.1841 5.86469 20.0908C5.7711 19.8384 5.62401 19.4837 5.5035 19.2317C5.44983 19.1194 5.44365 19.1272 5.51187 19.0279C5.52211 19.013 5.52002 19.0156 5.53112 18.9998L5.64373 18.8561C5.66999 18.817 5.7147 18.7672 5.72058 18.723L4.30064 18.7207C4.31107 18.7666 4.46289 18.9477 4.51735 19.0347C4.57605 19.1284 4.55846 19.1412 4.52245 19.2333C4.39385 19.548 4.27129 19.8643 4.1404 20.1794C4.09541 20.296 4.00979 20.4226 3.94245 20.5078C3.90306 20.5577 3.71931 20.7919 3.72562 20.806C3.73502 20.8271 4.66733 20.8289 4.77115 20.8233ZM4.66559 19.9072L5.10419 19.9124C5.10066 19.8668 5.02423 19.7028 5.00231 19.6418C4.96158 19.5347 4.93968 19.4676 4.88838 19.3826C4.85275 19.3953 4.81797 19.4691 4.78775 19.5514C4.76927 19.6017 4.67008 19.8665 4.66559 19.9072Z" fill="#FEFEFE"/>
<path fill-rule="evenodd" clip-rule="evenodd" d="M9.10215 19.6802C9.10549 19.6781 9.1104 19.6714 9.1122 19.674C9.11398 19.6766 9.11957 19.6697 9.1219 19.668C9.21383 19.602 9.42969 19.2745 9.5187 19.1559C9.56974 19.086 9.60567 19.0972 9.77679 19.1022L9.83843 19.1058L9.83953 20.2933C9.83953 20.3806 9.79048 20.3994 9.75087 20.4434C9.7132 20.4853 9.67204 20.5272 9.6368 20.5636C9.59195 20.61 9.56655 20.6387 9.52303 20.6844C9.46327 20.7471 9.42612 20.771 9.42373 20.8214C9.70374 20.8287 10.6782 20.8324 10.9335 20.8189C10.9268 20.7558 10.6792 20.5597 10.5961 20.459C10.4294 20.2569 10.4831 20.0483 10.4835 19.7305L10.4862 19.1048C10.5663 19.0824 10.6844 19.0925 10.7772 19.0947C10.9027 19.2509 11.0438 19.4509 11.157 19.616C11.2106 19.6941 11.1993 19.67 11.2358 19.6777L11.225 18.7378C11.1093 18.6947 10.8346 18.7206 10.6912 18.7206L9.20239 18.7196C9.11003 18.7196 9.13078 18.7056 9.12797 18.9101C9.12452 19.161 9.09941 19.4015 9.10215 19.6802Z" fill="#FEFEFE"/>
<path fill-rule="evenodd" clip-rule="evenodd" d="M5.80574 5.14724C5.71101 5.151 5.57089 5.15065 5.45415 5.16467C5.20415 5.19469 4.94713 5.3738 4.79122 5.5641C4.61683 5.77695 4.46494 6.09132 4.50777 6.48078C4.555 6.91034 4.8567 7.39478 5.33397 7.4318C5.52809 7.44687 5.73798 7.43945 5.91713 7.45816C5.9109 7.51985 5.60246 7.8234 5.55025 7.87171L5.45108 7.97288C5.42403 8.01092 5.43299 7.99084 5.4444 8.00233C5.47039 8.02525 7.64166 8.02263 7.8391 8.01334C7.84664 7.92708 7.38796 7.54808 7.38361 7.47454C7.38329 7.46907 7.38304 7.46243 7.38283 7.45426C7.85489 7.44701 8.12043 7.4692 8.41404 7.21799C8.98345 6.73082 8.8963 5.54503 7.9752 5.20278C7.80964 5.14125 7.595 5.12737 7.41341 5.12807C7.42293 5.09859 7.42061 5.10693 7.43245 5.08888C7.47059 5.03074 7.82201 4.77352 7.84032 4.69181L5.46151 4.6875C5.47236 4.75048 5.71839 4.96132 5.77756 5.01856C5.80298 5.04302 5.83912 5.06319 5.86203 5.0896C5.91084 5.14596 5.85386 5.14533 5.80574 5.14724ZM5.79109 5.27556C5.92565 5.27746 6.06315 5.27071 6.19844 5.26979C6.19306 5.17233 5.81331 4.92773 5.79965 4.82583C6.26773 4.80755 6.88215 4.83206 7.3855 4.82517C7.44051 4.82438 7.44346 4.8247 7.49512 4.84086C7.47492 4.88632 7.15803 5.1574 7.10406 5.20578C7.07504 5.22956 7.056 5.24769 7.07078 5.26183C7.12131 5.31021 7.64294 5.22633 7.9554 5.33692C8.02524 5.36164 8.1141 5.40711 8.17327 5.44779C8.39936 5.60329 8.49885 5.77436 8.57966 6.01691C8.66174 6.26328 8.6491 6.63465 8.53398 6.84697C8.20445 7.45481 7.65474 7.31026 7.08962 7.32485C7.09153 7.38272 7.09735 7.37455 7.1328 7.40473C7.19548 7.45811 7.52429 7.83656 7.5306 7.88223C7.2407 7.88835 6.93721 7.88529 6.64686 7.88108C6.59025 7.88026 5.81863 7.89578 5.76423 7.87013L6.11963 7.46797C6.14894 7.4361 6.23086 7.37022 6.23188 7.3202C5.81219 7.30406 5.35793 7.39384 5.05494 7.18494C5.05283 7.1835 5.04997 7.18155 5.04786 7.18011C4.939 7.10519 4.95361 7.12635 4.85823 7.01665C4.49927 6.60383 4.60566 5.96559 4.95593 5.57703C5.02388 5.50165 5.1899 5.38877 5.29083 5.34863C5.36733 5.31818 5.49978 5.28907 5.58478 5.28166C5.65316 5.27568 5.70667 5.27434 5.79109 5.27556Z" fill="#2B4388"/>
<path fill-rule="evenodd" clip-rule="evenodd" d="M11.4414 23.125C11.4893 23.099 12.4003 21.9071 12.4922 21.79C12.5526 21.7128 12.6257 21.6427 12.6257 21.5849L10.2457 21.584C10.2484 21.6563 11.1746 22.8082 11.2737 22.9361C11.3085 22.9837 11.3939 23.1073 11.4414 23.125Z" fill="#FEFEFE"/>
<path fill-rule="evenodd" clip-rule="evenodd" d="M14.1612 15.7355C14.2457 15.7108 14.4731 15.3864 14.5346 15.2989C14.7444 15.0008 14.9415 14.5093 15.0195 14.1431C15.0887 13.818 15.1694 13.1816 15.0735 12.8867C15.0165 12.9032 14.7557 13.2121 14.6926 13.275C14.6506 13.3168 14.5909 13.3653 14.5874 13.4352C14.5652 13.8778 14.5277 14.1885 14.2934 14.5876C14.2217 14.7099 14.1038 14.8669 14.002 14.9649C13.8841 15.0783 13.9415 15.0816 14.0266 15.3391C14.0505 15.4114 14.1273 15.6977 14.1612 15.7355Z" fill="#FEFEFE"/>
<path fill-rule="evenodd" clip-rule="evenodd" d="M8.73342 15.5948L8.80158 15.204C8.81486 15.1142 8.44978 13.9871 8.46137 13.4857C8.46371 13.3843 8.46494 13.2802 8.45678 13.2235C8.44545 13.1449 8.27929 13.0304 8.22557 12.9824C8.16989 12.9326 8.03965 12.7796 7.97146 12.7617L7.90875 13.1658C7.90025 13.7216 7.9439 13.7502 8.02329 14.2191C8.04163 14.3275 8.21551 14.7677 8.27378 14.8939C8.28228 14.9123 8.28742 14.9237 8.29253 14.9347C8.29765 14.9457 8.30273 14.9564 8.3111 14.9734C8.36705 15.087 8.65162 15.5691 8.73342 15.5948Z" fill="#FEFEFE"/>
<path fill-rule="evenodd" clip-rule="evenodd" d="M10.1061 16.6352C10.4683 16.8256 11.0371 16.9118 11.4411 16.9118C11.5844 16.9118 11.8245 16.917 11.9472 16.8961C12.0374 16.8807 12.15 16.8615 12.2392 16.8493C12.3081 16.8398 12.5754 16.7693 12.7101 16.7214C12.8502 16.6716 12.7163 16.6455 12.6479 16.6117L12.2329 16.3955C12.0636 16.3028 11.9454 16.3954 11.8049 16.4123C11.4804 16.4512 11.0205 16.44 10.7131 16.3172C10.5774 16.2629 10.6532 16.2369 10.4891 16.3397C10.44 16.3705 10.4072 16.3959 10.3568 16.4301C10.2888 16.4761 10.1462 16.5666 10.1061 16.6352Z" fill="#FEFEFE"/>
<path fill-rule="evenodd" clip-rule="evenodd" d="M13.8339 11.3334L14.4839 11.3311C14.4834 11.2822 14.3348 11.0816 14.2952 11.0364L14.0705 10.8042C13.6623 10.4082 12.738 9.79957 12.1941 9.80275C12.1957 9.8489 12.2329 9.89356 12.2528 9.92603L12.4816 10.2949C12.4856 10.2994 12.5522 10.3367 12.6519 10.394C13.0752 10.6376 13.5666 10.9084 13.8339 11.3334Z" fill="#FEFEFE"/>
<path fill-rule="evenodd" clip-rule="evenodd" d="M5.83814 6.86502H6.28358C6.37337 6.86502 6.35024 6.81682 6.3504 6.65714L6.35003 5.82463C6.34979 5.75029 6.34679 5.73566 6.3106 5.73404C6.13876 5.72641 5.85558 5.70802 5.69917 5.73455C5.49254 5.76961 5.3427 5.8949 5.33048 6.28192C5.32248 6.53547 5.36635 6.73907 5.58934 6.8353C5.60653 6.84273 5.66208 6.85056 5.71737 6.85631C5.75951 6.86069 5.80153 6.86388 5.8263 6.86478C5.83087 6.86494 5.83485 6.86502 5.83814 6.86502Z" fill="#EFF2F7"/>
<path fill-rule="evenodd" clip-rule="evenodd" d="M7.00881 6.85424C7.22888 6.87263 7.65842 6.87064 7.76327 6.7903C7.98402 6.62115 7.99601 6.29447 7.92082 6.04521C7.8707 5.87901 7.79862 5.7755 7.62395 5.75315C7.46625 5.73298 7.17801 5.72969 7.00712 5.7342C6.9232 5.7364 6.93934 5.73281 6.93913 5.81613L6.9367 6.76726C6.93648 6.85685 6.91975 6.8468 7.00881 6.85424Z" fill="#EFF2F7"/>
<path fill-rule="evenodd" clip-rule="evenodd" d="M8.61862 11.2394C8.68916 11.2423 8.88563 11.2021 8.96576 11.1896C9.21856 11.1499 9.24247 11.0539 9.45864 10.8886C9.69112 10.7107 9.95091 10.5697 10.2185 10.4541C10.282 10.4299 10.3279 10.4353 10.3507 10.3841C10.3811 10.3161 10.4782 9.97248 10.4837 9.91411C10.2586 9.90851 9.51925 10.3634 9.41553 10.4465C9.25175 10.5775 9.13296 10.6721 8.98669 10.8147C8.91112 10.8883 8.6485 11.1636 8.61862 11.2394Z" fill="#FEFEFE"/>
<path fill-rule="evenodd" clip-rule="evenodd" d="M7.05797 5.90137C7.04896 6.0706 7.05024 6.57778 7.05608 6.68288C7.05883 6.73242 7.08117 6.74218 7.11772 6.74223C7.27325 6.74244 7.43692 6.73311 7.59418 6.72854C7.89199 6.72012 7.87196 6.12171 7.76737 5.97009C7.76606 5.96819 7.7639 5.96541 7.76251 5.96354C7.69381 5.87101 7.5944 5.85261 7.47905 5.84936C7.38298 5.84668 7.24485 5.84692 7.1341 5.85181C7.06572 5.85483 7.06073 5.84944 7.05797 5.90137Z" fill="#2B4388"/>
<path fill-rule="evenodd" clip-rule="evenodd" d="M5.82607 6.74645C5.931 6.74645 6.06353 6.74095 6.17124 6.73668C6.24208 6.73387 6.22447 6.6838 6.22414 6.50396L6.22324 5.91768C6.223 5.85856 6.21968 5.85038 6.17648 5.8508C6.04324 5.85211 5.89705 5.8373 5.76938 5.84716C5.65978 5.85561 5.56351 5.8874 5.51485 5.98148C5.41598 6.17256 5.42836 6.42864 5.50144 6.59417C5.55287 6.71061 5.67312 6.74645 5.82607 6.74645Z" fill="#2B4388"/>
<path fill-rule="evenodd" clip-rule="evenodd" d="M16.7461 7.82464L16.994 7.29433C17.0256 7.22667 17.037 7.21615 16.9989 7.18672C16.9905 7.18022 16.9831 7.17036 16.9737 7.16094C16.888 7.0749 16.7291 6.92636 16.7047 6.90463C16.6031 6.8142 16.4793 6.63366 16.3075 6.64721C16.2954 6.75558 16.2965 6.94638 16.303 7.05716C16.3122 7.21646 16.4902 7.46787 16.5699 7.61416C16.5939 7.65805 16.6639 7.77566 16.7066 7.83354C16.7338 7.87056 16.7277 7.86406 16.7461 7.82464Z" fill="#2B4388"/>
<path fill-rule="evenodd" clip-rule="evenodd" d="M7.18363 6.04696L7.18323 6.55325C7.18316 6.6169 7.19574 6.60477 7.25672 6.61086C7.35957 6.62112 7.47836 6.6161 7.58077 6.61045C7.60854 6.60891 7.62907 6.61284 7.65011 6.55612C7.68906 6.45099 7.71158 6.31233 7.69704 6.18841C7.68031 6.04607 7.63364 5.99903 7.54561 5.98352C7.47112 5.97042 7.35554 5.97344 7.27596 5.97269C7.20302 5.97202 7.18153 5.982 7.18363 6.04696Z" fill="#FEFEFE"/>
<path fill-rule="evenodd" clip-rule="evenodd" d="M6.09399 6.55503C6.09873 6.41354 6.0945 6.15709 6.08684 6.03614C6.08303 5.9759 6.08243 5.98053 6.03128 5.97655C5.94984 5.97021 5.83663 5.97201 5.78189 5.97907C5.75076 5.98309 5.72594 5.98623 5.70574 5.99056C5.57412 6.01879 5.56233 6.269 5.57439 6.37398C5.59365 6.53602 5.64041 6.59413 5.72103 6.61204C5.7991 6.62938 5.91014 6.62062 6.05773 6.62211C6.1057 6.62255 6.09213 6.61052 6.09399 6.55503Z" fill="#FEFEFE"/>
<path fill-rule="evenodd" clip-rule="evenodd" d="M16.7165 7.58077C16.7645 7.54954 16.8657 7.25698 16.8574 7.23282L16.4941 6.88112C16.4313 6.82195 16.4191 6.82863 16.4196 6.90742C16.4204 7.05835 16.4584 7.15692 16.513 7.25607C16.5421 7.30897 16.6796 7.56946 16.7165 7.58077Z" fill="#FEFEFE"/>
<path fill-rule="evenodd" clip-rule="evenodd" d="M16.5185 5.53014C16.5716 5.50787 16.7228 5.39226 16.7669 5.34866C16.8257 5.29066 16.8278 5.07713 16.8199 4.9707C16.7862 4.98823 16.7576 5.04832 16.7361 5.09424C16.6966 5.17829 16.5205 5.45296 16.5185 5.53014Z" fill="#EFF2F7"/>
</svg>
