<svg width="22" height="34" viewBox="0 0 22 34" fill="none" xmlns="http://www.w3.org/2000/svg">
<path d="M10.9503 5.20312L0.445841 7.23466L0.247643 21.2076C-0.0694745 26.3211 7.34974 30.9359 11.099 32.604C18.4323 28.9968 21.0915 24.9569 21.5044 23.3878V7.23466L10.9503 5.20312Z" fill="white"/>
<path d="M11.0065 22.6677C13.1721 22.6677 14.9276 20.9302 14.9276 18.7869C14.9276 16.6437 13.1721 14.9062 11.0065 14.9062C8.84097 14.9062 7.08545 16.6437 7.08545 18.7869C7.08545 20.9302 8.84097 22.6677 11.0065 22.6677Z" stroke="#4296CC" stroke-width="0.25" stroke-miterlimit="22.9256"/>
<path d="M11.0058 5.39473L10.969 5.19423L0.411133 7.13601V22.2155C0.411826 23.426 0.951442 24.706 1.98514 26.0269L1.98526 26.027C2.90256 27.1956 4.19179 28.3823 5.81745 29.5618L5.81773 29.5619C7.84806 31.0296 9.91121 32.1183 10.9154 32.6162L11.0058 32.6609L11.0963 32.6162C12.1021 32.1183 14.1648 31.0296 16.1952 29.5619L16.1986 29.5595L16.1953 29.5618C17.8217 28.3823 19.1093 27.1954 20.0263 26.027L20.0264 26.0269C21.0611 24.7047 21.6019 23.4263 21.6024 22.2155V7.13601L11.0058 5.1875L10.969 5.19423L11.0058 5.39473L10.969 5.59523L21.1948 7.47545V22.2155C21.1956 23.3004 20.7059 24.4976 19.7054 25.7755L19.7055 25.7753C18.8205 26.9036 17.56 28.0687 15.956 29.2317L15.9562 29.2316C13.9545 30.6788 11.9079 31.7598 10.9155 32.2508L11.0058 32.4335L11.0965 32.2508C10.1054 31.7598 8.05835 30.6788 6.0566 29.2316L6.05676 29.2317C4.4534 28.0687 3.19108 26.9035 2.30599 25.7753L2.30615 25.7755C1.30687 24.4993 0.818127 23.3006 0.818861 22.2155V7.47545L11.0428 5.59523L11.0058 5.39473L10.969 5.59523L11.0058 5.39473Z" fill="#F9CA3D"/>
<path fill-rule="evenodd" clip-rule="evenodd" d="M3.29486 8.78463H4.05251L3.67539 8.2367L3.67511 8.23711L3.29486 8.78463ZM7.80369 7.70568H10.9526V8.18562H9.76646V9.44093C9.50615 9.44492 9.24568 9.45027 8.98537 9.45716V8.18562H6.20323C6.16543 8.18562 6.1276 8.18765 6.09005 8.19136C6.06314 8.19409 6.03742 8.20103 6.01353 8.21367L5.9973 8.22402L5.99212 8.25378L6.01223 8.28917C6.03799 8.31449 6.15332 8.33968 6.18728 8.34628L7.29501 8.54993C7.38446 8.56619 7.47448 8.58503 7.56209 8.6099C7.62895 8.62902 7.69712 8.65307 7.75856 8.68658C7.81017 8.71459 7.85893 8.74998 7.89705 8.79572C7.92754 8.83213 7.954 8.87237 7.97243 8.91652C7.98796 8.9535 7.99974 8.99219 8.00578 9.0319C8.01022 9.06137 8.01353 9.09158 8.01353 9.12151C8.01353 9.1911 8.00134 9.25943 7.98005 9.32543C7.95788 9.39348 7.91703 9.44982 7.86655 9.49629C7.593 9.50836 7.31931 9.52247 7.04592 9.53857C6.26165 9.58472 5.47823 9.64775 4.69743 9.73646L4.34894 9.23696H2.99798L2.42257 10.0786C2.07595 10.1459 1.73093 10.2212 1.38818 10.3062L3.09391 7.92718C3.15576 7.84405 3.23228 7.77658 3.32662 7.73732C3.43119 7.69403 3.56365 7.68555 3.67539 7.68555C3.78702 7.68555 3.91356 7.69504 4.01842 7.73691C4.11521 7.77544 4.19402 7.84247 4.257 7.92747L5.1818 9.20231L7.03426 9.20219C7.07021 9.20219 7.12387 9.20044 7.15807 9.18751L7.20308 9.16248L7.21071 9.1527L7.21502 9.1189L7.21229 9.10222L7.20455 9.09444C7.18942 9.08123 7.16313 9.06956 7.14486 9.0621C7.10287 9.04482 7.05207 9.03446 7.00735 9.02655L5.81433 8.80808C5.79334 8.80494 5.77193 8.80033 5.75122 8.79572C5.71669 8.78838 5.68244 8.77876 5.64881 8.76812C5.60967 8.75589 5.57115 8.74179 5.53303 8.72654C5.49018 8.70929 5.44917 8.68716 5.41178 8.65939C5.37081 8.63134 5.33383 8.59726 5.30476 8.55641C5.28063 8.52232 5.26004 8.48564 5.24467 8.44654C5.22999 8.40928 5.21992 8.3703 5.21589 8.3303C5.21275 8.29997 5.21099 8.26931 5.21099 8.2387C5.21099 8.16764 5.22583 8.09805 5.25025 8.03188C5.28695 7.93248 5.37293 7.86432 5.46083 7.81674C5.55101 7.76639 5.64751 7.73516 5.74935 7.72281C5.83521 7.71229 5.92192 7.70568 6.00851 7.70568H7.80369ZM17.9424 8.78463H18.6999L18.3228 8.2367L18.3225 8.23711L17.9424 8.78463ZM11.5017 8.78463H12.2592L11.8821 8.2367L11.8818 8.23711L11.5017 8.78463ZM16.6409 9.45071L17.7413 7.92718C17.8031 7.84405 17.8797 7.77658 17.974 7.73732C18.0787 7.69403 18.211 7.68555 18.3228 7.68555C18.4344 7.68555 18.5611 7.69504 18.6658 7.73691C18.7626 7.77544 18.8414 7.84247 18.9045 7.92747L20.6245 10.3098C20.2816 10.2245 19.9365 10.149 19.5898 10.0814L18.9963 9.23696H17.6454L17.301 9.73646C16.739 9.67274 16.1754 9.62199 15.611 9.58142C15.5874 9.56491 15.5647 9.54648 15.5431 9.52634L14.3114 8.39562V9.50465C13.776 9.47934 13.2402 9.46148 12.7046 9.44969L12.5556 9.23696H11.2047L11.0702 9.43184H10.999C10.7364 9.43184 10.4738 9.43302 10.2112 9.43559L11.3006 7.92718C11.3625 7.84389 11.439 7.77658 11.5333 7.73732C11.638 7.69403 11.7705 7.68555 11.8821 7.68555C11.9936 7.68555 12.1203 7.69504 12.2251 7.73691C12.3219 7.77544 12.4006 7.84247 12.4639 7.92747L13.5476 9.42784V8.03245C13.5476 7.90533 13.6218 7.81442 13.7292 7.75962C13.8453 7.70051 13.9877 7.68555 14.1156 7.68555C14.2269 7.68555 14.3574 7.69305 14.4629 7.73214C14.5361 7.75946 14.6089 7.79717 14.6665 7.85196L15.8936 8.9778V7.70568H16.6573V9.34528C16.6573 9.3834 16.6516 9.41863 16.6409 9.45071Z" fill="#4296CC"/>
<path fill-rule="evenodd" clip-rule="evenodd" d="M0.672017 11.1761C1.74725 10.8598 2.85282 10.6539 3.96068 10.5031C4.98789 10.3635 6.02097 10.2731 7.05519 10.2122C8.37146 10.1348 9.69004 10.1056 11.0083 10.1055C12.3267 10.1056 13.6453 10.1348 14.9615 10.2122C15.9958 10.2731 17.0289 10.3635 18.0561 10.5031C19.1639 10.6539 20.2695 10.8598 21.3447 11.1761L21.3771 11.1856L21.361 11.2527L21.3282 11.2459C19.3775 10.8403 17.3947 10.6025 15.4096 10.4719C14.5224 10.4136 13.6338 10.3776 12.745 10.3609C12.1662 10.3501 11.5872 10.3494 11.0083 10.3493C10.4294 10.3494 9.85055 10.3501 9.2718 10.3609C8.38283 10.3776 7.49428 10.4136 6.60702 10.4719C4.62199 10.6025 2.63907 10.8403 0.688571 11.2459L0.65563 11.2527L0.639648 11.1856L0.672017 11.1761Z" fill="#F9CA3D"/>
<path d="M19.3923 11.8538H19.9002C19.9401 11.8538 19.9723 11.8456 19.9963 11.8295C20.0202 11.8132 20.0321 11.7905 20.0321 11.7611C20.0321 11.7319 20.0202 11.7091 19.9963 11.6927C19.9723 11.6763 19.9401 11.6681 19.9002 11.6681H19.3923V11.8538ZM19.3923 12.248H19.9352C19.9842 12.248 20.0215 12.2379 20.0475 12.2181C20.0734 12.1981 20.0863 12.1709 20.0863 12.1363C20.0863 12.1017 20.0734 12.0744 20.0475 12.0544C20.0215 12.0344 19.9842 12.0245 19.9352 12.0245H19.3923V12.248ZM19.0346 11.5537C19.0346 11.5368 19.0432 11.5223 19.061 11.5102C19.0789 11.4981 19.1 11.4921 19.1246 11.4921H19.8965C20.0856 11.4921 20.2254 11.5293 20.3152 11.6038C20.3651 11.6448 20.3902 11.6973 20.3902 11.7611C20.3902 11.825 20.3475 11.8808 20.262 11.9286C20.3833 11.9731 20.4443 12.0423 20.4443 12.1363C20.4443 12.2301 20.3957 12.3017 20.2986 12.3501C20.2014 12.399 20.0822 12.4233 19.9411 12.4233H19.1246C19.1 12.4233 19.0789 12.4173 19.061 12.4053C19.0432 12.3935 19.0346 12.3792 19.0346 12.3624V11.5537ZM17.413 12.0551V11.5537C17.413 11.5368 17.4219 11.5223 17.4393 11.5102C17.4568 11.4981 17.4784 11.4921 17.5044 11.4921H17.6819C17.7059 11.4921 17.7268 11.4981 17.7446 11.5102C17.7624 11.5223 17.7709 11.5368 17.7709 11.5537V12.0564C17.7709 12.1201 17.7915 12.1676 17.8324 12.1985C17.873 12.2297 17.9363 12.2453 18.0216 12.2453H18.1735C18.2591 12.2453 18.3222 12.2297 18.3632 12.1985C18.4036 12.1676 18.4239 12.1201 18.4239 12.0564V11.5537C18.4239 11.5368 18.4328 11.5223 18.4502 11.5102C18.4678 11.4981 18.4889 11.4921 18.5134 11.4921H18.6901C18.716 11.4921 18.7377 11.4981 18.7556 11.5102C18.7734 11.5223 18.7821 11.5368 18.7821 11.5537V12.0551C18.7821 12.1738 18.7312 12.2657 18.6291 12.3308C18.5273 12.3958 18.3786 12.4284 18.183 12.4284H18.0121C17.8161 12.4284 17.6671 12.3958 17.5657 12.3308C17.4639 12.2657 17.413 12.1738 17.413 12.0551ZM16.032 12.3635V11.555C16.032 11.5374 16.0408 11.5223 16.0586 11.5102C16.0763 11.4981 16.0974 11.4921 16.1222 11.4921H16.3007C16.3254 11.4921 16.3462 11.4981 16.3638 11.5102C16.3812 11.5223 16.3897 11.5374 16.3897 11.555V12.2395H17.2166C17.2414 12.2395 17.2622 12.2456 17.2798 12.2578C17.2972 12.2699 17.3061 12.2844 17.3061 12.3012V12.3624C17.3061 12.3792 17.2972 12.3935 17.2798 12.4053C17.2622 12.4173 17.2414 12.4233 17.2166 12.4233H16.1222C16.0974 12.4233 16.0763 12.4176 16.0586 12.4061C16.0408 12.3947 16.032 12.3806 16.032 12.3635ZM14.5421 12.3136C14.4248 12.2369 14.3661 12.1183 14.3661 11.958C14.3661 11.7975 14.4248 11.6789 14.5421 11.6019C14.6594 11.5253 14.8356 11.4867 15.0706 11.4867H15.2821C15.4258 11.4867 15.5528 11.5125 15.6632 11.5634C15.7737 11.6146 15.8288 11.6845 15.8288 11.7731C15.8288 11.7988 15.8177 11.8171 15.7957 11.8282C15.7734 11.8391 15.752 11.8447 15.7313 11.8447H15.6182C15.5598 11.8447 15.5148 11.8208 15.4823 11.7731C15.4357 11.7049 15.3576 11.6705 15.2488 11.6705H15.0799C14.9414 11.6705 14.8473 11.691 14.798 11.7317C14.7485 11.7722 14.7239 11.8477 14.7239 11.9576C14.7239 12.0675 14.7485 12.1431 14.798 12.1839C14.8473 12.225 14.9414 12.2453 15.0799 12.2453H15.2689C15.3777 12.2453 15.4553 12.2112 15.5014 12.1427C15.5336 12.0948 15.5793 12.0707 15.6379 12.0707H15.751C15.7807 12.0707 15.8046 12.0782 15.8217 12.0934C15.8393 12.1085 15.8479 12.125 15.8479 12.1427C15.8479 12.2316 15.7928 12.3014 15.6827 12.3521C15.5725 12.4032 15.4458 12.4284 15.302 12.4284H15.0706C14.8356 12.4284 14.6594 12.3902 14.5421 12.3136ZM12.3344 12.3635V11.555C12.3344 11.5374 12.3432 11.5223 12.3611 11.5102C12.3789 11.4981 12.3999 11.4921 12.4246 11.4921H12.6031C12.6277 11.4921 12.6487 11.4981 12.6663 11.5102C12.6837 11.5223 12.6923 11.5374 12.6923 11.555V12.2395H13.5191C13.5439 12.2395 13.5649 12.2456 13.5822 12.2578C13.5998 12.2699 13.6086 12.2844 13.6086 12.3012V12.3624C13.6086 12.3792 13.5998 12.3935 13.5822 12.4053C13.5649 12.4173 13.5439 12.4233 13.5191 12.4233H12.4246C12.3999 12.4233 12.3789 12.4176 12.3611 12.4061C12.3432 12.3947 12.3344 12.3806 12.3344 12.3635ZM10.9059 12.3635V11.555C10.9059 11.5374 10.9146 11.5223 10.9325 11.5102C10.9503 11.4981 10.9713 11.4921 10.9959 11.4921H11.1745C11.1991 11.4921 11.2201 11.4981 11.2377 11.5102C11.255 11.5223 11.2636 11.5374 11.2636 11.555V12.2395H12.0904C12.1151 12.2395 12.1363 12.2456 12.1538 12.2578C12.1712 12.2699 12.1798 12.2844 12.1798 12.3012V12.3624C12.1798 12.3792 12.1712 12.3935 12.1538 12.4053C12.1363 12.4173 12.1151 12.4233 12.0904 12.4233H10.9959C10.9713 12.4233 10.9503 12.4176 10.9325 12.4061C10.9146 12.3947 10.9059 12.3806 10.9059 12.3635ZM9.67158 12.0147H10.2762V11.6758H10.006C9.94509 11.6758 9.89189 11.6877 9.84688 11.7112C9.80142 11.7348 9.77093 11.7665 9.75511 11.8063L9.67158 12.0147ZM9.1722 12.3635L9.41066 11.7452C9.47523 11.5769 9.68523 11.4925 10.0409 11.4921H10.5526C10.5759 11.4921 10.5954 11.4981 10.6109 11.5102C10.6265 11.5223 10.6342 11.5363 10.6342 11.5523V12.3635C10.6342 12.3806 10.6255 12.3947 10.6077 12.4061C10.5899 12.4176 10.5687 12.4233 10.5442 12.4233H10.3657C10.3396 12.4233 10.3183 12.4176 10.3014 12.4061C10.2847 12.3947 10.2762 12.38 10.2762 12.3624V12.1985H9.60125L9.53765 12.3624C9.53162 12.38 9.51722 12.3947 9.49496 12.4061C9.47295 12.4176 9.44963 12.4233 9.42505 12.4233H9.23763C9.21293 12.4233 9.19552 12.4184 9.18459 12.4086L9.1689 12.3829L9.1722 12.3635ZM8.03773 11.8538H8.54587C8.5857 11.8538 8.61778 11.8456 8.6418 11.8295C8.66565 11.8132 8.67775 11.7905 8.67775 11.7611C8.67775 11.7319 8.66565 11.7091 8.6418 11.6927C8.61778 11.6763 8.5857 11.6681 8.54587 11.6681H8.03773V11.8538ZM8.03773 12.248H8.58081C8.62985 12.248 8.66711 12.2379 8.693 12.2181C8.71889 12.1981 8.73182 12.1709 8.73182 12.1363C8.73182 12.1017 8.71889 12.0744 8.693 12.0544C8.66711 12.0344 8.62985 12.0245 8.58081 12.0245H8.03773V12.248ZM7.68006 11.5537C7.68006 11.5368 7.68883 11.5223 7.70664 11.5102C7.72434 11.4981 7.74549 11.4921 7.77008 11.4921H8.54195C8.73112 11.4921 8.87092 11.5293 8.96065 11.6038C9.01055 11.6448 9.03587 11.6973 9.03587 11.7611C9.03587 11.825 8.99302 11.8808 8.90745 11.9286C9.02898 11.9731 9.08993 12.0423 9.08993 12.1363C9.08993 12.2301 9.04133 12.3017 8.9441 12.3501C8.84686 12.399 8.72766 12.4233 8.58672 12.4233H7.77008C7.74549 12.4233 7.72434 12.4173 7.70664 12.4053C7.68883 12.3935 7.68006 12.3792 7.68006 12.3624V11.5537ZM6.14026 11.6149V11.5537C6.14026 11.5361 6.14862 11.5213 6.16574 11.5096C6.1827 11.4978 6.20443 11.4921 6.23032 11.4921H7.43512C7.46101 11.4921 7.48241 11.4978 7.49953 11.5096C7.51678 11.5213 7.52514 11.5361 7.52514 11.5537V11.6149C7.52514 11.6326 7.51678 11.6472 7.49953 11.6586C7.48241 11.6701 7.46101 11.6758 7.43512 11.6758H7.01153V12.3635C7.01153 12.3806 7.00277 12.3947 6.98564 12.4061C6.96811 12.4176 6.94712 12.4233 6.92237 12.4233H6.74291C6.71828 12.4233 6.69717 12.4176 6.67976 12.4061C6.66219 12.3947 6.65387 12.3806 6.65387 12.3635V11.6758H6.23032C6.20443 11.6758 6.1827 11.6701 6.16574 11.6586C6.14862 11.6472 6.14026 11.6326 6.14026 11.6149ZM5.63701 11.7256C5.57317 11.6738 5.46978 11.648 5.32725 11.648C5.18428 11.648 5.08088 11.6738 5.01671 11.7256C4.9523 11.7779 4.92021 11.8552 4.92021 11.958C4.92021 12.0609 4.9523 12.138 5.01671 12.1899C5.08088 12.2415 5.18428 12.2674 5.32725 12.2674C5.46978 12.2674 5.57317 12.2415 5.63701 12.1899C5.7009 12.138 5.73282 12.0609 5.73282 11.958C5.73282 11.8552 5.7009 11.7779 5.63701 11.7256ZM5.89651 12.327C5.76719 12.4048 5.57733 12.4434 5.32725 12.4434C5.07669 12.4434 4.88686 12.4048 4.75697 12.327C4.62725 12.2491 4.56251 12.126 4.56251 11.9576C4.56251 11.7893 4.62725 11.6662 4.75697 11.5887C4.88686 11.5113 5.07669 11.4727 5.32725 11.4727C5.57733 11.4727 5.76719 11.5113 5.89651 11.5887C6.02623 11.6662 6.09093 11.7893 6.09093 11.9576C6.09093 12.126 6.02623 12.2491 5.89651 12.327ZM3.99183 11.7256C3.92798 11.6738 3.82471 11.648 3.68202 11.648C3.53921 11.648 3.43594 11.6738 3.37165 11.7256C3.30707 11.7779 3.27515 11.8552 3.27515 11.958C3.27515 12.0609 3.30707 12.138 3.37165 12.1899C3.43594 12.2415 3.53921 12.2674 3.68202 12.2674C3.82471 12.2674 3.92798 12.2415 3.99183 12.1899C4.05571 12.138 4.08776 12.0609 4.08776 11.958C4.08776 11.8552 4.05571 11.7779 3.99183 11.7256ZM4.25144 12.327C4.12212 12.4048 3.9323 12.4434 3.68202 12.4434C3.43162 12.4434 3.24164 12.4048 3.11179 12.327C2.98218 12.2491 2.91732 12.126 2.91732 11.9576C2.91732 11.7893 2.98218 11.6662 3.11179 11.5887C3.24164 11.5113 3.43162 11.4727 3.68202 11.4727C3.9323 11.4727 4.12212 11.5113 4.25144 11.5887C4.381 11.6662 4.44574 11.7893 4.44574 11.9576C4.44574 12.126 4.381 12.2491 4.25144 12.327ZM1.56641 12.3611V11.5523C1.56641 11.5355 1.57517 11.5213 1.59315 11.5096C1.61096 11.4978 1.63196 11.4921 1.65659 11.4921H2.75107C2.77581 11.4921 2.79681 11.4981 2.81434 11.5102C2.83175 11.5223 2.84051 11.5368 2.84051 11.5537V11.6149C2.84051 11.6317 2.83175 11.6461 2.81434 11.6579C2.79681 11.6698 2.77581 11.6758 2.75107 11.6758H1.92423V11.9044H2.59761C2.6222 11.9044 2.64319 11.9104 2.66048 11.9225C2.67785 11.9347 2.68665 11.949 2.68665 11.9655V12.0272C2.68665 12.0441 2.67785 12.0584 2.66048 12.0704C2.64319 12.0822 2.6222 12.0881 2.59761 12.0881H1.92423V12.3611C1.92423 12.3787 1.91575 12.3935 1.89835 12.4053C1.88077 12.4173 1.85978 12.4233 1.83519 12.4233H1.65659C1.63196 12.4233 1.61096 12.4173 1.59315 12.4053C1.57517 12.3935 1.56641 12.3787 1.56641 12.3611Z" fill="#4296CC"/>
<path fill-rule="evenodd" clip-rule="evenodd" d="M4.50586 17.9668C4.53048 18.6605 4.57635 18.7432 4.98351 19.2985C5.13798 18.8984 4.89361 18.1654 4.50586 17.9668Z" fill="#F9CA3D"/>
<path fill-rule="evenodd" clip-rule="evenodd" d="M7.05273 14.7301C7.54445 14.721 7.61147 14.7112 8.0159 14.4247C7.73533 14.2905 7.21308 14.4691 7.05273 14.7301Z" fill="#F9CA3D"/>
<path fill-rule="evenodd" clip-rule="evenodd" d="M6.02625 18.7871C5.6129 19.0904 5.46605 19.9876 5.7202 20.4234C6.08952 19.7022 6.12736 19.5976 6.02625 18.7871Z" fill="#F9CA3D"/>
<path fill-rule="evenodd" clip-rule="evenodd" d="M6.13089 19.9023C5.78729 20.2828 5.8241 21.191 6.16094 21.5668C6.37738 20.7861 6.39336 20.676 6.13089 19.9023Z" fill="#F9CA3D"/>
<path fill-rule="evenodd" clip-rule="evenodd" d="M6.86612 22.6195C6.99801 21.7057 7.00004 21.5788 6.5917 20.7422C6.25817 21.2218 6.43107 22.2433 6.86612 22.6195Z" fill="#F9CA3D"/>
<path fill-rule="evenodd" clip-rule="evenodd" d="M7.69808 23.4707C7.69739 22.5475 7.68112 22.4217 7.15675 21.6523C6.89554 22.175 7.21354 23.161 7.69808 23.4707Z" fill="#F9CA3D"/>
<path fill-rule="evenodd" clip-rule="evenodd" d="M9.10278 24.2268C8.73085 23.3221 8.66456 23.2053 7.84148 22.6621C7.79557 23.2793 8.50336 24.1178 9.10278 24.2268Z" fill="#F9CA3D"/>
<path fill-rule="evenodd" clip-rule="evenodd" d="M10.7627 24.4922C10.0662 23.8055 9.95935 23.7241 8.98926 23.5469C9.1889 24.1327 10.1686 24.6267 10.7627 24.4922Z" fill="#F9CA3D"/>
<path fill-rule="evenodd" clip-rule="evenodd" d="M8.22155 13.5449C7.86356 13.6575 7.82719 13.6934 7.59619 13.9856C7.82702 14.0085 8.17381 13.7756 8.22155 13.5449Z" fill="#F9CA3D"/>
<path fill-rule="evenodd" clip-rule="evenodd" d="M7.49625 13.6895C7.20484 13.926 7.18413 13.9728 7.07715 14.3293C7.30007 14.2658 7.53665 13.9216 7.49625 13.6895Z" fill="#F9CA3D"/>
<path fill-rule="evenodd" clip-rule="evenodd" d="M7.00002 13.9727C6.6839 14.297 6.6658 14.356 6.5874 14.7982C6.84571 14.6908 7.08115 14.2451 7.00002 13.9727Z" fill="#F9CA3D"/>
<path fill-rule="evenodd" clip-rule="evenodd" d="M6.49337 14.4492C6.21581 14.807 6.20428 14.8676 6.17627 15.3159C6.42076 15.1801 6.60471 14.7108 6.49337 14.4492Z" fill="#F9CA3D"/>
<path fill-rule="evenodd" clip-rule="evenodd" d="M5.98814 15.0059C5.75702 15.3955 5.75311 15.457 5.78087 15.9053C6.00669 15.7402 6.13096 15.2517 5.98814 15.0059Z" fill="#F9CA3D"/>
<path fill-rule="evenodd" clip-rule="evenodd" d="M5.54339 15.6387C5.35984 16.0527 5.36319 16.1143 5.44358 16.5563C5.64836 16.3657 5.71425 15.8659 5.54339 15.6387Z" fill="#F9CA3D"/>
<path fill-rule="evenodd" clip-rule="evenodd" d="M5.12255 16.2188C4.96563 16.7863 4.98157 16.8649 5.16943 17.418C5.39639 17.1336 5.38559 16.4785 5.12255 16.2188Z" fill="#F9CA3D"/>
<path fill-rule="evenodd" clip-rule="evenodd" d="M4.7655 17.1191C4.70002 17.7043 4.72823 17.7796 5.00106 18.2959C5.18028 17.9793 5.06609 17.334 4.7655 17.1191Z" fill="#F9CA3D"/>
<path fill-rule="evenodd" clip-rule="evenodd" d="M5.09883 20.3047C5.18526 19.8847 4.82327 19.2023 4.4082 19.0703C4.54682 19.7503 4.60581 19.8244 5.09883 20.3047Z" fill="#F9CA3D"/>
<path fill-rule="evenodd" clip-rule="evenodd" d="M5.41594 21.2743C5.42316 20.7756 4.86153 20.0744 4.3584 20.0137C4.66461 20.7607 4.74803 20.8326 5.41594 21.2743Z" fill="#F9CA3D"/>
<path fill-rule="evenodd" clip-rule="evenodd" d="M5.87839 22.1852C5.78389 21.6955 5.09123 21.1233 4.58643 21.1663C5.03831 21.8354 5.13452 21.8887 5.87839 22.1852Z" fill="#F9CA3D"/>
<path fill-rule="evenodd" clip-rule="evenodd" d="M4.84473 22.1445C5.46058 22.7804 5.57461 22.8195 6.43455 22.9974C6.2391 22.4869 5.38161 22.0014 4.84473 22.1445Z" fill="#F9CA3D"/>
<path fill-rule="evenodd" clip-rule="evenodd" d="M5.48926 23.211C6.20724 23.7289 6.32645 23.7474 7.2042 23.7714C6.92204 23.3029 5.99279 22.9758 5.48926 23.211Z" fill="#F9CA3D"/>
<path fill-rule="evenodd" clip-rule="evenodd" d="M6.28809 24.2485C7.18586 24.6564 7.32019 24.6503 8.2838 24.4839C7.87289 24.0344 6.78616 23.8813 6.28809 24.2485Z" fill="#F9CA3D"/>
<path fill-rule="evenodd" clip-rule="evenodd" d="M7.45166 25.0868C8.41372 25.3035 8.54402 25.2702 9.45386 24.9112C8.95982 24.5548 7.86473 24.6259 7.45166 25.0868Z" fill="#F9CA3D"/>
<path fill-rule="evenodd" clip-rule="evenodd" d="M8.76514 25.6908C9.75105 25.7056 9.87185 25.6465 10.6887 25.1084C10.1322 24.8608 9.07494 25.1547 8.76514 25.6908Z" fill="#F9CA3D"/>
<path fill-rule="evenodd" clip-rule="evenodd" d="M6.21465 17.1758C5.34954 17.4915 5.51453 18.3003 5.51453 18.3003C5.98798 17.8863 6.04925 17.8092 6.21465 17.1758Z" fill="#F9CA3D"/>
<path fill-rule="evenodd" clip-rule="evenodd" d="M5.67729 17.2695C6.15363 17.0183 6.21776 16.9696 6.47767 16.4805C5.65715 16.5566 5.67729 17.2695 5.67729 17.2695Z" fill="#F9CA3D"/>
<path fill-rule="evenodd" clip-rule="evenodd" d="M6.75856 15.7969C6.75856 15.7969 6.04303 15.8197 5.88428 16.5324C6.39385 16.3102 6.45956 16.2712 6.75856 15.7969Z" fill="#F9CA3D"/>
<path fill-rule="evenodd" clip-rule="evenodd" d="M6.229 15.8229C6.67575 15.7061 6.73556 15.6817 7.04303 15.3295C7.04303 15.3295 6.48658 15.2376 6.229 15.8229Z" fill="#F9CA3D"/>
<path fill-rule="evenodd" clip-rule="evenodd" d="M6.62891 15.2552C7.08915 15.1909 7.15083 15.1742 7.49802 14.8595C7.49802 14.8595 6.9489 14.6985 6.62891 15.2552Z" fill="#F9CA3D"/>
<path fill-rule="evenodd" clip-rule="evenodd" d="M8.44037 14.0967C8.25988 13.9751 7.93239 13.9953 7.69899 14.1039C7.63225 14.135 7.57485 14.183 7.53126 14.2423L7.52393 14.2523C7.96117 14.3084 8.03064 14.3044 8.44037 14.0967Z" fill="#F9CA3D"/>
<path fill-rule="evenodd" clip-rule="evenodd" d="M6.04413 17.9805C5.33578 18.4136 5.52894 19.2381 5.52894 19.2381C5.94315 18.7227 5.99089 18.6452 6.04413 17.9805Z" fill="#F9CA3D"/>
<path fill-rule="evenodd" clip-rule="evenodd" d="M17.0298 19.2985C17.4369 18.7432 17.4827 18.6605 17.5073 17.9668C17.1197 18.1654 16.8755 18.8984 17.0298 19.2985Z" fill="#F9CA3D"/>
<path fill-rule="evenodd" clip-rule="evenodd" d="M12.1153 24.8557C13.496 24.59 14.7067 23.8368 15.5679 22.7796C16.4144 21.7402 16.923 20.4068 16.923 18.9528C16.923 17.9801 16.6953 17.0612 16.2909 16.2483C15.8712 15.4043 15.2611 14.6746 14.5178 14.1172L14.5664 14.2138C14.8938 14.5115 15.1785 14.8244 15.4234 15.1481C15.4481 15.1804 15.4635 15.2018 15.4635 15.2018C15.5736 15.3506 15.6756 15.5018 15.7694 15.6548C15.7694 15.6548 15.815 15.7241 15.881 15.8444C15.9729 16.0077 16.0563 16.1728 16.1309 16.3397C16.1705 16.4263 16.2027 16.5069 16.2027 16.5069C16.2815 16.6984 16.3491 16.8917 16.4062 17.086C16.4062 17.086 16.4538 17.2381 16.4904 17.4055C16.5178 17.5231 16.5417 17.6408 16.5614 17.7586C16.5771 17.8499 16.5902 17.9414 16.6014 18.0326L16.637 18.4415C16.6493 18.6738 16.648 18.9052 16.6339 19.1348C16.6287 19.2324 16.6198 19.3185 16.6198 19.3185C16.5814 19.7408 16.5 20.1554 16.3806 20.5552C16.1163 21.4411 15.6648 22.2542 15.0793 22.9158C14.3274 23.7654 13.354 24.3654 12.2706 24.5491C11.7652 24.6183 11.3504 24.6413 11.0067 24.6384C10.6631 24.6413 10.2483 24.6183 9.74275 24.5491C8.65932 24.3654 7.68592 23.7654 6.93414 22.9158C6.3485 22.2542 5.89719 21.4411 5.63272 20.5552C5.51319 20.1554 5.43193 19.7408 5.39353 19.3185C5.39353 19.3185 5.3846 19.2324 5.37942 19.1348C5.36548 18.9052 5.36418 18.6738 5.37641 18.4415L5.41192 18.0326C5.42317 17.9414 5.43638 17.8499 5.45191 17.7586C5.47176 17.6408 5.49549 17.5231 5.52297 17.4055C5.5595 17.2381 5.60712 17.086 5.60712 17.086C5.66419 16.8917 5.73179 16.6984 5.81059 16.5069C5.81059 16.5069 5.84268 16.4263 5.88239 16.3397C5.95716 16.1728 6.04045 16.0077 6.13251 15.8444C6.19851 15.7241 6.24397 15.6548 6.24397 15.6548C6.33773 15.5018 6.4397 15.3506 6.54986 15.2018C6.54986 15.2018 6.56527 15.1804 6.58997 15.1481C6.83479 14.8244 7.11968 14.5115 7.44706 14.2138L7.49549 14.1172C6.75223 14.6746 6.14213 15.4043 5.72245 16.2483C5.31815 17.0612 5.09033 17.9801 5.09033 18.9528C5.09033 20.4068 5.59904 21.7402 6.44545 22.7796C7.30665 23.8368 8.51752 24.59 9.89808 24.8557C9.97329 24.8702 10.0475 24.8856 10.122 24.9012C10.2448 24.9265 10.6602 24.9526 11.0067 24.9674C11.3531 24.9526 11.7686 24.9265 11.8915 24.9012C11.9658 24.8856 12.04 24.8702 12.1153 24.8557Z" fill="#F9CA3D"/>
<path fill-rule="evenodd" clip-rule="evenodd" d="M13.9971 14.4247C14.4016 14.7112 14.4685 14.721 14.9602 14.7301C14.7999 14.4691 14.2776 14.2905 13.9971 14.4247Z" fill="#F9CA3D"/>
<path fill-rule="evenodd" clip-rule="evenodd" d="M15.9867 18.7871C15.8856 19.5976 15.9236 19.7022 16.2928 20.4234C16.5471 19.9876 16.4001 19.0904 15.9867 18.7871Z" fill="#F9CA3D"/>
<path fill-rule="evenodd" clip-rule="evenodd" d="M15.8521 21.5668C16.1889 21.191 16.2258 20.2828 15.8822 19.9023C15.6197 20.676 15.6357 20.7861 15.8521 21.5668Z" fill="#F9CA3D"/>
<path fill-rule="evenodd" clip-rule="evenodd" d="M15.1472 22.6195C15.5823 22.2433 15.7552 21.2218 15.4217 20.7422C15.0133 21.5788 15.0153 21.7057 15.1472 22.6195Z" fill="#F9CA3D"/>
<path fill-rule="evenodd" clip-rule="evenodd" d="M14.8564 21.6523C14.3319 22.4217 14.3156 22.5475 14.3149 23.4707C14.7995 23.161 15.1175 22.175 14.8564 21.6523Z" fill="#F9CA3D"/>
<path fill-rule="evenodd" clip-rule="evenodd" d="M14.172 22.6621C13.3489 23.2053 13.2826 23.3221 12.9106 24.2268C13.5099 24.1178 14.2179 23.2793 14.172 22.6621Z" fill="#F9CA3D"/>
<path fill-rule="evenodd" clip-rule="evenodd" d="M13.024 23.5469C12.0537 23.7241 11.947 23.8055 11.2505 24.4922C11.8444 24.6267 12.8243 24.1327 13.024 23.5469Z" fill="#F9CA3D"/>
<path fill-rule="evenodd" clip-rule="evenodd" d="M14.417 13.9856C14.1862 13.6934 14.1497 13.6575 13.7915 13.5449C13.8393 13.7756 14.1863 14.0085 14.417 13.9856Z" fill="#F9CA3D"/>
<path fill-rule="evenodd" clip-rule="evenodd" d="M14.9359 14.3293C14.829 13.9728 14.8083 13.926 14.5167 13.6895C14.4764 13.9216 14.713 14.2658 14.9359 14.3293Z" fill="#F9CA3D"/>
<path fill-rule="evenodd" clip-rule="evenodd" d="M15.4256 14.7982C15.3472 14.356 15.329 14.297 15.0129 13.9727C14.9317 14.2451 15.1672 14.6908 15.4256 14.7982Z" fill="#F9CA3D"/>
<path fill-rule="evenodd" clip-rule="evenodd" d="M15.8371 15.3159C15.8092 14.8676 15.7976 14.807 15.52 14.4492C15.4088 14.7108 15.5926 15.1801 15.8371 15.3159Z" fill="#F9CA3D"/>
<path fill-rule="evenodd" clip-rule="evenodd" d="M16.2319 15.9053C16.2598 15.457 16.2558 15.3955 16.0248 15.0059C15.882 15.2517 16.0061 15.7402 16.2319 15.9053Z" fill="#F9CA3D"/>
<path fill-rule="evenodd" clip-rule="evenodd" d="M16.4697 15.6387C16.299 15.8659 16.3647 16.3657 16.5695 16.5563C16.6499 16.1143 16.6532 16.0527 16.4697 15.6387Z" fill="#F9CA3D"/>
<path fill-rule="evenodd" clip-rule="evenodd" d="M16.8903 16.2188C16.6274 16.4785 16.6166 17.1336 16.8436 17.418C17.0314 16.8649 17.0473 16.7863 16.8903 16.2188Z" fill="#F9CA3D"/>
<path fill-rule="evenodd" clip-rule="evenodd" d="M17.0122 18.2959C17.2849 17.7796 17.3133 17.7043 17.2477 17.1191C16.9472 17.334 16.833 17.9793 17.0122 18.2959Z" fill="#F9CA3D"/>
<path fill-rule="evenodd" clip-rule="evenodd" d="M16.9142 20.3047C17.4073 19.8244 17.4663 19.7503 17.6049 19.0703C17.1898 19.2023 16.8281 19.8847 16.9142 20.3047Z" fill="#F9CA3D"/>
<path fill-rule="evenodd" clip-rule="evenodd" d="M16.5972 21.2743C17.2652 20.8326 17.3485 20.7607 17.6547 20.0137C17.1516 20.0744 16.59 20.7756 16.5972 21.2743Z" fill="#F9CA3D"/>
<path fill-rule="evenodd" clip-rule="evenodd" d="M16.1348 22.1852C16.8786 21.8887 16.9748 21.8354 17.4267 21.1663C16.9219 21.1233 16.2293 21.6955 16.1348 22.1852Z" fill="#F9CA3D"/>
<path fill-rule="evenodd" clip-rule="evenodd" d="M15.5786 22.9974C16.4386 22.8195 16.5527 22.7804 17.1684 22.1445C16.6316 22.0014 15.7742 22.4869 15.5786 22.9974Z" fill="#F9CA3D"/>
<path fill-rule="evenodd" clip-rule="evenodd" d="M14.8091 23.7714C15.6867 23.7474 15.8059 23.7289 16.5239 23.211C16.0205 22.9758 15.0913 23.3029 14.8091 23.7714Z" fill="#F9CA3D"/>
<path fill-rule="evenodd" clip-rule="evenodd" d="M13.729 24.4839C14.6926 24.6503 14.8271 24.6564 15.7248 24.2485C15.2266 23.8813 14.1399 24.0344 13.729 24.4839Z" fill="#F9CA3D"/>
<path fill-rule="evenodd" clip-rule="evenodd" d="M12.5591 24.9112C13.4689 25.2702 13.5994 25.3035 14.5613 25.0868C14.1482 24.6259 13.0533 24.5548 12.5591 24.9112Z" fill="#F9CA3D"/>
<path fill-rule="evenodd" clip-rule="evenodd" d="M11.3247 25.1084C12.1416 25.6465 12.2625 25.7056 13.2482 25.6908C12.9386 25.1547 11.8812 24.8608 11.3247 25.1084Z" fill="#F9CA3D"/>
<path fill-rule="evenodd" clip-rule="evenodd" d="M15.7983 17.1758C15.9637 17.8092 16.0251 17.8863 16.4985 18.3003C16.4985 18.3003 16.6635 17.4915 15.7983 17.1758Z" fill="#F9CA3D"/>
<path fill-rule="evenodd" clip-rule="evenodd" d="M15.5356 16.4805C15.7957 16.9696 15.8598 17.0183 16.3361 17.2695C16.3361 17.2695 16.3563 16.5566 15.5356 16.4805Z" fill="#F9CA3D"/>
<path fill-rule="evenodd" clip-rule="evenodd" d="M15.2549 15.7969C15.5536 16.2712 15.6193 16.3102 16.1289 16.5324C15.9703 15.8197 15.2549 15.7969 15.2549 15.7969Z" fill="#F9CA3D"/>
<path fill-rule="evenodd" clip-rule="evenodd" d="M14.9702 15.3295C15.2776 15.6817 15.3373 15.7061 15.7841 15.8229C15.5265 15.2376 14.9702 15.3295 14.9702 15.3295Z" fill="#F9CA3D"/>
<path fill-rule="evenodd" clip-rule="evenodd" d="M14.5151 14.8595C14.8624 15.1742 14.924 15.1909 15.3842 15.2552C15.0643 14.6985 14.5151 14.8595 14.5151 14.8595Z" fill="#F9CA3D"/>
<path fill-rule="evenodd" clip-rule="evenodd" d="M14.4893 14.2523L14.4819 14.2423C14.4383 14.183 14.3809 14.135 14.3143 14.1039C14.0807 13.9953 13.7532 13.9751 13.5728 14.0967C13.9826 14.3044 14.0519 14.3084 14.4893 14.2523Z" fill="#F9CA3D"/>
<path fill-rule="evenodd" clip-rule="evenodd" d="M15.9697 17.9805C16.0229 18.6452 16.0707 18.7227 16.485 19.2381C16.485 19.2381 16.678 18.4136 15.9697 17.9805Z" fill="#F9CA3D"/>
<path d="M11.6981 18.317L10.0293 19.3534L10.0107 19.3235L11.6795 18.2871L11.6981 18.317Z" fill="#4296CC"/>
<path d="M11.7884 16.8088H11.7882L11.7667 16.8366C11.7663 16.8363 11.5534 16.6708 11.2391 16.4787C10.9252 16.2867 10.5206 16.1114 10.1207 16.0076L10.1108 15.9648L10.1277 15.965C10.9534 16.1435 11.7874 16.8082 11.7884 16.8088Z" fill="#4296CC"/>
<path d="M8.86781 16.7143C8.72328 17.2501 8.69911 17.745 8.71122 18.1057C8.72312 18.4664 8.77102 18.6914 8.77102 18.6919L8.73682 18.6994C8.73653 18.6977 8.54264 17.7856 8.83401 16.7051L8.86781 16.7143Z" fill="#4296CC"/>
<path d="M13.0939 19.1254C13.2785 19.9214 13.0509 20.8381 13.0509 20.8394H13.0507L13.0168 20.8311C13.0168 20.8305 13.073 20.6034 13.1067 20.2766C13.1403 19.9503 13.1509 19.5254 13.0598 19.1334C13.0467 19.0773 13.0316 19.0222 13.0142 18.9677L13.0477 18.957C13.0655 19.0123 13.0808 19.0687 13.0939 19.1254Z" fill="#00A6AD"/>
<path d="M11.0642 21.4217C11.4056 21.5656 11.676 21.6365 11.6796 21.6377L11.6705 21.6715C11.6694 21.6709 10.5748 21.3854 10 20.792L10.0253 20.7676C10.3067 21.059 10.7207 21.2771 11.0642 21.4217Z" fill="#4296CC"/>
<path d="M13.1368 15.6684C13.2596 16.1978 13.0861 16.6872 13.0857 16.6887L13.0527 16.6769C13.0527 16.6767 13.0951 16.5571 13.1228 16.3712C13.1503 16.1856 13.1627 15.9353 13.1025 15.6763C13.0927 15.6344 13.0812 15.5923 13.0672 15.5499L13.1006 15.5391C13.1147 15.5824 13.1268 15.6255 13.1368 15.6684Z" fill="#00A6AD"/>
<path d="M7.78736 19.55C7.95048 19.6192 8.05893 19.6333 8.05905 19.6333L8.0546 19.6681C8.05228 19.6676 7.60227 19.6082 7.17139 19.163L7.1967 19.1387C7.40825 19.3573 7.62441 19.481 7.78736 19.55Z" fill="#00A6AD"/>
<path d="M8.75949 20.9316C8.75978 20.9323 8.71864 21.319 8.8334 21.8132C8.84621 21.868 8.86105 21.9244 8.87772 21.9813L8.86088 21.9862C8.84421 21.9289 8.82924 21.8723 8.81628 21.8171C8.70082 21.3199 8.74196 20.9303 8.74208 20.9297L8.75949 20.9316Z" fill="#4296CC"/>
<path d="M14.8056 18.4689L14.78 18.4929C14.7014 18.4086 14.4771 18.2898 14.2748 18.1952C14.0724 18.0998 13.8909 18.027 13.8906 18.0268L13.9037 17.9941C13.905 17.9954 14.6307 18.2853 14.8056 18.4689Z" fill="#00A6AD"/>
<path d="M14.8555 19.5695C14.4945 20.7369 13.7509 21.1899 13.7498 21.1907L13.7407 21.1756C13.741 21.175 13.925 21.0635 14.1548 20.8059C14.3843 20.5484 14.659 20.1454 14.8387 19.5645L14.8555 19.5695Z" fill="#4296CC"/>
<path d="M14.8598 25.7821C14.9759 25.9855 15.0338 26.087 15.1498 26.2904L15.1471 26.3059C15.0479 26.3624 14.9978 26.3896 14.8973 26.4425C14.8821 26.4504 14.8658 26.452 14.852 26.4453C14.7039 26.3923 14.6311 26.3643 14.4883 26.3048C14.5392 26.4109 14.5644 26.464 14.6153 26.5701L14.6064 26.589C14.5463 26.6177 14.5159 26.6318 14.4552 26.6591L14.4342 26.6542C14.3383 26.4408 14.2903 26.3341 14.1943 26.1205L14.2031 26.1013C14.2556 26.0775 14.2818 26.0654 14.334 26.0405L14.362 26.0408C14.5523 26.1258 14.6501 26.1655 14.8506 26.2387L14.8697 26.2364L14.8749 26.2337L14.8819 26.2139C14.8083 26.0772 14.7715 26.0088 14.6977 25.8721L14.7052 25.852C14.7593 25.8228 14.786 25.8078 14.8398 25.7773L14.8598 25.7821Z" fill="#4296CC"/>
<path d="M11.6448 22.377C11.6448 22.377 10.7319 22.6612 9.80371 22.5166C9.80371 22.5166 10.8659 22.7201 11.6553 22.4225L11.6448 22.377Z" fill="#00A6AD"/>
<path d="M8.19517 16.4722C8.19517 16.4722 7.88076 16.5662 7.5957 16.9416C7.5957 16.9416 7.7516 16.6502 8.19358 16.4004L8.19517 16.4722Z" fill="#4296CC"/>
<path d="M10.1637 15.3312C10.1637 15.3312 10.4948 15.101 11.1447 14.9141C11.1447 14.9141 10.5064 15.0353 10.1299 15.2759L10.1637 15.3312Z" fill="#4296CC"/>
<path d="M13.8733 21.1153C13.5917 21.7485 12.8572 22.2555 12.8572 22.2555C12.1425 22.521 11.5781 22.4532 11.5781 22.4532L11.6004 21.6193C12.2453 21.3973 13.0677 20.75 13.0677 20.75L13.8733 21.1153Z" fill="#00948E"/>
<path d="M13.092 19.1468C13.092 19.1468 11.9461 18.4523 11.624 18.3589C11.624 18.3589 11.7152 17.1488 11.676 16.7738C11.676 16.7738 12.4761 16.4438 13.1267 16.5568C13.1267 16.5568 13.7133 17.117 13.9901 18.0494C13.9901 18.0494 13.5055 18.8586 13.092 19.1468Z" fill="#4296CC"/>
<path d="M10.2412 16.0254C10.2412 16.0254 9.25976 16.3494 8.8047 16.9234C8.8047 16.9234 8.44659 16.6224 8.10254 16.4862C8.10254 16.4862 8.52682 15.6544 8.96994 15.4236C8.96994 15.4236 9.5438 15.1426 10.3173 15.2151C10.3173 15.2151 10.2152 15.5509 10.2412 16.0254Z" fill="#4296CC"/>
<path d="M10.1296 20.8686C10.1296 20.8686 10.1085 19.7444 10.1445 19.2798C10.1445 19.2798 9.17949 18.7955 8.73002 18.5156C8.73002 18.5156 7.9859 19.2409 7.9541 19.6206C7.9541 19.6206 8.11318 20.4604 8.74702 21.0696C8.74702 21.0696 9.39349 21.2677 10.1296 20.8686Z" fill="#4296CC"/>
<path d="M10.054 20.8211C10.054 20.8211 10.0342 19.7534 10.0684 19.3118C10.0684 19.3118 9.15142 18.8517 8.72457 18.5859C8.72457 18.5859 8.01768 19.275 7.9873 19.6356C7.9873 19.6356 8.13848 20.4333 8.74067 21.0123C8.74067 21.0123 9.35493 21.2002 10.054 20.8211Z" fill="#4296CC"/>
<path d="M14.8172 19.7533C14.9855 19.1617 14.995 18.5251 14.8351 17.8977L14.8303 17.8789C14.8182 18.0593 14.7889 18.3128 14.7183 18.4451C14.7183 18.4451 14.8946 19.2047 14.8172 19.7533Z" fill="#00948E"/>
<path d="M13.1097 15.7086C13.1097 15.7086 13.3656 15.7454 13.6362 15.8663C13.0364 15.3272 12.2771 14.9779 11.4619 14.8828C11.8964 14.9813 12.6643 15.2161 13.1097 15.7086Z" fill="#4296CC"/>
<path d="M7.124 18.168C7.05005 18.6309 7.05841 19.1143 7.16094 19.5988C7.16412 19.4516 7.1854 19.3037 7.24264 19.1956C7.24264 19.1956 7.14125 18.7186 7.124 18.168Z" fill="#4296CC"/>
<path d="M8.8435 21.8993C8.55991 21.8594 8.21745 21.5491 7.98242 21.2988C8.49199 21.9112 9.17805 22.3556 9.94332 22.5713C9.40081 22.3477 8.8435 21.8993 8.8435 21.8993Z" fill="#4296CC"/>
<path d="M11.3359 22.6919C11.5209 22.6761 11.7073 22.6469 11.8934 22.6036C12.2036 22.5315 12.4967 22.4244 12.7693 22.2875C12.4967 22.4244 12.2036 22.5315 11.8934 22.6036C11.7071 22.6469 11.521 22.6761 11.3359 22.6919ZM14.8227 17.9011C14.8224 17.8994 14.8219 17.8978 14.8215 17.8963C14.8219 17.8978 14.8224 17.8996 14.8227 17.9011ZM14.8214 17.8951C14.8211 17.8938 14.8207 17.8924 14.8204 17.8911C14.8207 17.8924 14.8211 17.8938 14.8214 17.8951ZM14.8202 17.8901C14.8194 17.8867 14.8185 17.8833 14.8178 17.88C14.8185 17.8833 14.8194 17.8867 14.8202 17.8901ZM14.8178 17.88C14.8173 17.8783 14.8169 17.8766 14.8165 17.8749C14.8169 17.8766 14.8173 17.8783 14.8178 17.88ZM14.8165 17.8745C14.8152 17.8692 14.8139 17.864 14.8126 17.8589C14.8139 17.864 14.8152 17.8694 14.8165 17.8745ZM14.8126 17.8589C14.8041 17.8238 14.7951 17.7888 14.7856 17.7543C14.7951 17.7888 14.8041 17.8238 14.8126 17.8589ZM14.7856 17.7537C14.7851 17.7523 14.7847 17.7507 14.7842 17.7493C14.7847 17.7507 14.7851 17.7523 14.7856 17.7537ZM14.7841 17.7487C14.7832 17.7454 14.7822 17.7421 14.7814 17.7388C14.7822 17.7421 14.7832 17.7454 14.7841 17.7487ZM14.7811 17.7376C14.7808 17.7365 14.7804 17.7353 14.7801 17.7342C14.7804 17.7353 14.7808 17.7365 14.7811 17.7376ZM14.7796 17.7326C14.7794 17.7314 14.7791 17.7303 14.7787 17.7291C14.7789 17.7303 14.7794 17.7314 14.7796 17.7326ZM14.7783 17.7277C14.7779 17.7262 14.7775 17.7248 14.7771 17.7234C14.7775 17.7248 14.7779 17.7262 14.7783 17.7277ZM14.7765 17.7212C14.7762 17.7204 14.7761 17.7198 14.7758 17.7189C14.7761 17.7196 14.7762 17.7204 14.7765 17.7212ZM14.775 17.7165C14.7749 17.7158 14.7748 17.715 14.7745 17.7143C14.7746 17.7149 14.7749 17.7158 14.775 17.7165ZM14.7738 17.7117C14.7736 17.7113 14.7735 17.7106 14.7733 17.7103C14.7735 17.7107 14.7736 17.7113 14.7738 17.7117ZM14.7717 17.7047C14.7716 17.7041 14.7716 17.704 14.7714 17.7034C14.7714 17.7038 14.7716 17.7043 14.7717 17.7047ZM14.7704 17.7002C14.7703 17.6998 14.7703 17.6995 14.7701 17.6992C14.7703 17.6995 14.7703 17.6998 14.7704 17.7002Z" fill="#00938E"/>
<path d="M13.0288 20.7803C13.0471 20.6955 13.0829 20.5121 13.107 20.2774C13.1407 19.9511 13.1513 19.5262 13.0602 19.1341C13.0596 19.1317 13.059 19.1294 13.0584 19.127C13.0801 19.14 13.0919 19.1472 13.0919 19.1472C13.094 19.1458 13.096 19.1444 13.098 19.1429C13.2424 19.7867 13.1213 20.5042 13.0708 20.7511L13.0681 20.75C13.0681 20.75 13.0542 20.7608 13.0288 20.7803Z" fill="#4296CC"/>
<path d="M11.5994 21.6516C11.4651 21.6119 11.158 21.5132 10.8267 21.3537C10.8388 21.3465 10.8507 21.3393 10.8628 21.332C10.9315 21.3646 10.999 21.3947 11.0641 21.422C11.2994 21.5213 11.5011 21.5859 11.6048 21.6168C11.6033 21.6172 11.6018 21.6178 11.6003 21.6182L11.5994 21.6516Z" fill="#4296CC"/>
<path d="M13.123 16.5556C13.1115 16.5536 13.1 16.5518 13.0884 16.5501C13.0999 16.5019 13.1123 16.4417 13.1226 16.372C13.1491 16.1936 13.1616 15.9553 13.109 15.707C13.1091 15.7072 13.1093 15.7073 13.1094 15.7074C13.1094 15.7074 13.1226 15.7093 13.1464 15.7136C13.2161 16.0589 13.1643 16.3816 13.123 16.5556Z" fill="#4296CC"/>
<path d="M14.7196 18.441C14.6159 18.3639 14.438 18.2717 14.2745 18.1952C14.1601 18.1413 14.0525 18.0947 13.9805 18.0642C13.9865 18.0543 13.9897 18.0489 13.9897 18.0489C13.9875 18.0417 13.9855 18.0346 13.9832 18.0273C14.1518 18.0982 14.5438 18.2693 14.7347 18.4089C14.7299 18.4203 14.7249 18.4309 14.7196 18.441Z" fill="#4296CC"/>
<path d="M13.8622 21.1093L13.8442 21.1012C13.9199 21.0417 14.0306 20.9452 14.1547 20.8061C14.382 20.5511 14.6534 20.1536 14.8332 19.582C14.8319 19.6052 14.8304 19.6281 14.8284 19.6506C14.8278 19.6537 14.8271 19.6567 14.8264 19.6597C14.5469 20.4904 14.0765 20.939 13.8622 21.1093Z" fill="#4296CC"/>
<path d="M10.6099 22.5835C10.2305 22.5835 9.91957 22.5356 9.8298 22.5202C9.82911 22.5199 9.82837 22.5195 9.82764 22.5192C10.0079 22.5458 10.1872 22.5566 10.3591 22.5566C10.9247 22.5566 11.4097 22.4406 11.5797 22.3945L11.5783 22.4488C11.264 22.5526 10.9148 22.5835 10.6099 22.5835Z" fill="#4296CC"/>
<path d="M11.7558 22.4609C11.6427 22.4609 11.5781 22.4532 11.5781 22.4532V22.4504L11.5796 22.3962L11.5996 21.6526L11.6004 21.6193C11.6019 21.6188 11.6034 21.6183 11.6049 21.6178C12.1654 21.4235 12.8577 20.9105 13.0285 20.7803C13.0539 20.7608 13.0677 20.75 13.0677 20.75L13.0705 20.7511L13.8441 21.1021L13.8621 21.1101L13.8733 21.1153C13.6476 21.6226 13.1316 22.0487 12.9351 22.1983C12.8804 22.2292 12.8252 22.2587 12.7689 22.287C12.3339 22.4349 11.9633 22.4609 11.7558 22.4609Z" fill="#4296CC"/>
<path d="M13.0917 19.1466C13.0917 19.1466 13.08 19.1394 13.0582 19.1263C13.006 19.0949 12.897 19.0298 12.7603 18.9498C13.0076 18.2054 13.0595 17.3855 12.869 16.5654C12.8665 16.5546 12.8639 16.5438 12.8614 16.5332C12.9379 16.5342 13.014 16.5395 13.0884 16.5504C13.1001 16.5522 13.1116 16.5539 13.1231 16.556C13.1243 16.5561 13.1254 16.5564 13.1264 16.5565C13.1264 16.5565 13.704 17.1082 13.9833 18.0276C13.9856 18.0348 13.9876 18.042 13.9898 18.0492C13.9898 18.0492 13.9866 18.0545 13.9806 18.0644C13.9121 18.1763 13.4765 18.8742 13.0978 19.1423C13.0958 19.1437 13.0938 19.1451 13.0917 19.1466Z" fill="#4296CC"/>
<path d="M14.8393 19.6406C14.8414 19.618 14.8428 19.5952 14.8441 19.572C14.8718 19.0492 14.729 18.4342 14.729 18.4342C14.7296 18.4332 14.73 18.4322 14.7306 18.4311C14.7359 18.421 14.7409 18.4104 14.7457 18.399C14.7995 18.2719 14.8255 18.0704 14.838 17.9102C14.9717 18.4992 14.9647 19.0879 14.8393 19.6406Z" fill="#4296CC"/>
<path d="M13.5977 15.8481C13.4027 15.7662 13.2213 15.727 13.146 15.7131C13.1223 15.7088 13.109 15.7069 13.109 15.7069C13.1089 15.7068 13.1087 15.7066 13.1086 15.7065C12.8793 15.4532 12.5648 15.2681 12.2543 15.1346C12.2364 15.1077 12.2185 15.081 12.2002 15.0547C12.7161 15.2204 13.1924 15.4912 13.5977 15.8481Z" fill="#4296CC"/>
<path d="M9.84412 22.527C9.44198 22.4015 9.06344 22.2122 8.72314 21.9681C8.78829 21.9658 8.85389 21.9621 8.91932 21.957C9.07421 22.0741 9.44455 22.341 9.82769 22.5195C9.82843 22.5198 9.82916 22.5203 9.82985 22.5205C9.83462 22.5227 9.83935 22.5249 9.84412 22.527Z" fill="#4296CC"/>
<path d="M7.1145 0L7.77035 1.32865L9.23676 1.54179L8.17563 2.57618L8.4262 4.03656L7.1145 3.34708L5.80297 4.03656L6.05353 2.57618L4.9924 1.54179L6.45882 1.32865L7.1145 0Z" fill="#00A6AD"/>
<path d="M7.11453 0.5L7.60771 1.49945L8.71055 1.65967L7.91262 2.43758L8.10101 3.53597L7.11453 3.01735L6.12821 3.53597L6.31648 2.43758L5.51855 1.65967L6.62139 1.49945L7.11453 0.5Z" fill="#FEFEFE"/>
<path d="M7.11452 0.808594L7.50732 1.60449L8.38577 1.73221L7.75022 2.35182L7.90025 3.22667L7.11452 2.81377L6.32882 3.22667L6.47885 2.35182L5.84326 1.73221L6.72159 1.60449L7.11452 0.808594Z" fill="#F9CA3D"/>
<path d="M14.929 0L15.5847 1.32865L17.0511 1.54179L15.9901 2.57618L16.2405 4.03656L14.929 3.34708L13.6175 4.03656L13.8679 2.57618L12.8067 1.54179L14.2732 1.32865L14.929 0Z" fill="#00A6AD"/>
<path d="M14.9287 0.5L15.4217 1.49945L16.5245 1.65967L15.7266 2.43758L15.915 3.53597L14.9287 3.01735L13.9422 3.53597L14.1306 2.43758L13.3325 1.65967L14.4354 1.49945L14.9287 0.5Z" fill="#FEFEFE"/>
<path d="M14.9286 0.808594L15.3214 1.60449L16.1999 1.73221L15.5642 2.35182L15.7143 3.22667L14.9286 2.81377L14.1429 3.22667L14.2929 2.35182L13.6572 1.73221L14.5356 1.60449L14.9286 0.808594Z" fill="#F9CA3D"/>
<path d="M7.8187 26.12C7.72277 26.3335 7.67491 26.4402 7.57898 26.6537L7.56471 26.6607C7.46189 26.6144 7.41085 26.5902 7.30929 26.5402C7.29388 26.5327 7.28296 26.5206 7.28039 26.5056C7.23595 26.3545 7.21565 26.2792 7.179 26.1284C7.12318 26.2321 7.0953 26.2839 7.03949 26.3875L7.01906 26.3914C6.95978 26.3593 6.93047 26.343 6.87176 26.3098L6.86328 26.2898C6.97923 26.0864 7.03716 25.9849 7.15323 25.7815L7.1741 25.7773C7.22486 25.8061 7.25034 25.8201 7.30138 25.848L7.31794 25.8709C7.36193 26.0751 7.38753 26.1775 7.44607 26.3824L7.459 26.3964L7.46418 26.399L7.48448 26.3931C7.5515 26.2528 7.58501 26.1828 7.65204 26.0426L7.67246 26.0368C7.72754 26.0631 7.7553 26.0759 7.81095 26.1011L7.8187 26.12Z" fill="#4296CC"/>
<path d="M8.46955 26.8224L8.46768 26.8282L8.46654 26.8318L8.46352 26.8381C8.43662 26.8984 8.37318 26.9371 8.30159 26.9378C8.27741 26.9378 8.25226 26.9346 8.2278 26.9261C8.07605 26.8727 8.00067 26.844 7.85113 26.7833C7.82594 26.773 7.80494 26.7588 7.78668 26.7423C7.73319 26.6943 7.71089 26.6232 7.73087 26.5602L7.73274 26.5534L7.73417 26.5501L7.73662 26.5444C7.80454 26.3882 7.83862 26.3101 7.9065 26.1538L7.9069 26.153L7.92488 26.1465C7.97841 26.1696 8.00516 26.1809 8.05909 26.203L8.06382 26.2057L8.06741 26.2215C8.02314 26.3303 8.00084 26.3847 7.95652 26.4932L7.95554 26.4957C7.94115 26.5308 7.93398 26.5483 7.91959 26.5836L7.91771 26.5883C7.90764 26.6205 7.9259 26.6563 7.96141 26.6704C8.06399 26.7114 8.11548 26.7308 8.21903 26.7682C8.25482 26.7812 8.29238 26.7662 8.30603 26.7357L8.30791 26.7307C8.34974 26.6104 8.39173 26.4911 8.43388 26.3707L8.43706 26.3618L8.45015 26.3523L8.45561 26.3533C8.47616 26.3605 8.48639 26.3642 8.50694 26.371L8.50881 26.3717C8.54233 26.3831 8.55916 26.3887 8.59268 26.3997L8.60161 26.4166L8.60144 26.4174C8.54865 26.5794 8.52235 26.6604 8.46955 26.8224Z" fill="#4296CC"/>
<path d="M9.07403 26.8528C9.11472 26.8629 9.15415 26.8407 9.16303 26.8029L9.16666 26.7878C9.17555 26.75 9.15096 26.7124 9.11097 26.7026C9.01651 26.6794 8.96934 26.667 8.87525 26.6405L8.85698 26.6502C8.8432 26.6988 8.83643 26.7232 8.82261 26.7718L8.83354 26.7894C8.92934 26.8163 8.97753 26.8291 9.07403 26.8528ZM9.33145 27.2161L9.3142 27.2269C9.25497 27.2148 9.22545 27.2085 9.1665 27.1951L9.15398 27.1789C9.15888 27.1544 9.1612 27.1422 9.16593 27.1176C9.17612 27.0729 9.14448 27.0281 9.0956 27.0165C8.97321 26.9871 8.91239 26.9713 8.79114 26.9374L8.77344 26.9462C8.75934 26.9965 8.75216 27.0217 8.73806 27.072L8.71894 27.0813C8.65954 27.0644 8.62974 27.0556 8.5705 27.0376L8.55957 27.0195C8.62818 26.7951 8.66255 26.6828 8.73129 26.4584L8.74943 26.4492C8.93032 26.5042 9.0214 26.5289 9.20445 26.5726C9.30254 26.596 9.36643 26.6903 9.34613 26.7849C9.34168 26.8059 9.33936 26.8163 9.33491 26.8374C9.32758 26.8717 9.30988 26.901 9.2853 26.9236L9.30344 26.9393C9.34413 26.9812 9.36496 27.0384 9.35318 27.0959C9.34453 27.1439 9.34009 27.1681 9.33145 27.2161Z" fill="#4296CC"/>
<path d="M9.52631 27.0656L9.51367 27.0495C9.52272 27.0004 9.52733 26.9762 9.53638 26.9271L9.55391 26.916C9.69057 26.9411 9.75918 26.9523 9.89653 26.9713L9.90962 26.9874C9.90285 27.0367 9.89939 27.0614 9.89262 27.1109L9.87554 27.122C9.73545 27.1024 9.66554 27.0911 9.52631 27.0656Z" fill="#4296CC"/>
<path d="M10.8042 27.1788C10.8038 27.1971 10.8035 27.2061 10.8031 27.2245L10.8029 27.2278C10.7983 27.299 10.7471 27.3576 10.6765 27.3803C10.6536 27.3883 10.6289 27.3915 10.6024 27.3902C10.4439 27.3826 10.3647 27.377 10.2065 27.3617C10.182 27.3593 10.1579 27.3527 10.1373 27.3424L10.1354 27.3413C10.0658 27.3084 10.0231 27.2395 10.0319 27.1663L10.0332 27.1551L10.0349 27.1489L10.0506 27.1392C10.1088 27.146 10.138 27.1493 10.1964 27.1551L10.2104 27.1706C10.2104 27.1706 10.212 27.2027 10.2514 27.2063C10.3805 27.2183 10.4451 27.2228 10.5744 27.2297C10.6006 27.2311 10.6226 27.2117 10.6237 27.19C10.6253 27.1549 10.5915 27.1426 10.5773 27.1418C10.4382 27.1345 10.3687 27.1293 10.2301 27.1159C10.2063 27.1136 10.1829 27.1079 10.1629 27.0978L10.1611 27.0967C10.1383 27.0855 10.1188 27.0711 10.1028 27.0524C10.0749 27.0209 10.0598 26.9803 10.0602 26.9379L10.0611 26.922L10.0615 26.9186L10.0661 26.8881C10.0745 26.8495 10.097 26.8158 10.1267 26.7908L10.1477 26.7764L10.1711 26.7639L10.1968 26.7551C10.2186 26.7495 10.2417 26.7466 10.2653 26.7488C10.4014 26.7619 10.4694 26.7669 10.6058 26.774C10.6295 26.7751 10.6511 26.7805 10.6707 26.7893L10.6735 26.7902L10.6966 26.8025L10.7179 26.8184L10.7376 26.8359C10.7667 26.8685 10.7842 26.9032 10.7829 26.9499L10.7828 26.9523L10.7814 26.9691L10.7671 26.9774C10.7105 26.9757 10.6821 26.9747 10.6255 26.9718L10.6112 26.9572L10.6115 26.9517L10.6118 26.9456L10.6119 26.944C10.6131 26.9204 10.5942 26.9087 10.5674 26.9073C10.4553 26.9009 10.3993 26.8969 10.2875 26.8865C10.281 26.886 10.242 26.8899 10.2381 26.9244C10.2345 26.9579 10.2656 26.9711 10.2796 26.9724C10.4162 26.9849 10.4845 26.9897 10.6214 26.9963C10.6411 26.9972 10.6615 26.9999 10.6791 27.0077L10.691 27.0116C10.7593 27.0409 10.8061 27.105 10.8042 27.1788Z" fill="#4296CC"/>
<path d="M11.6715 27.1973L11.672 27.2033L11.6723 27.2069L11.6718 27.2141C11.6705 27.2802 11.6274 27.3402 11.5624 27.3683C11.5405 27.3777 11.5163 27.3844 11.4908 27.386C11.3323 27.395 11.2529 27.3978 11.0942 27.3995C11.0676 27.3998 11.043 27.3947 11.0206 27.3868C10.9537 27.3631 10.9067 27.3061 10.9006 27.2403L10.8999 27.2332V27.2296L10.9001 27.2236C10.9022 27.0533 10.9034 26.968 10.9057 26.7976V26.7967L10.9194 26.7838C10.9766 26.7844 11.005 26.7844 11.0623 26.7839L11.0676 26.7846L11.077 26.7978C11.078 26.9154 11.0786 26.974 11.0796 27.0913V27.0939C11.08 27.1317 11.0801 27.1507 11.0804 27.1888L11.0806 27.1939C11.0837 27.2275 11.1138 27.2535 11.1516 27.2527C11.2601 27.2511 11.3143 27.2492 11.4226 27.2437C11.4601 27.2417 11.4886 27.2136 11.4893 27.18L11.489 27.1748C11.4813 27.0477 11.4739 26.9214 11.4663 26.7943L11.4659 26.7846L11.4742 26.7708L11.4795 26.7698C11.5011 26.7685 11.5118 26.7678 11.5332 26.7662L11.535 26.7661C11.57 26.7638 11.5874 26.7625 11.6222 26.7598L11.6369 26.7717L11.637 26.7726C11.6508 26.9426 11.6577 27.0274 11.6715 27.1973Z" fill="#4296CC"/>
<path d="M10.1239 29.6281V29.4428H9.6913V29.4095C9.6913 29.3945 9.69472 29.383 9.70165 29.3761C9.70854 29.3681 9.72118 29.3623 9.73961 29.3566L9.97664 29.2933C10.0273 29.2795 10.0664 29.2542 10.0917 29.2162C10.117 29.1794 10.1296 29.1299 10.1296 29.0678V28.9987C10.1296 28.9308 10.1055 28.8779 10.0583 28.84C10.0111 28.8008 9.94672 28.7812 9.86387 28.7812H9.74189C9.65791 28.7812 9.59349 28.8008 9.54861 28.8388C9.50372 28.8768 9.48073 28.932 9.48073 29.0045V29.0793H9.68784V29.0321C9.68784 29.0022 9.69473 28.9803 9.70855 28.9688C9.72237 28.9561 9.74768 28.9504 9.78332 28.9504H9.82017C9.8558 28.9504 9.88112 28.9562 9.89494 28.9676C9.9099 28.9803 9.91679 29.001 9.91679 29.0321V29.0654C9.91679 29.0862 9.91218 29.1 9.90415 29.1103C9.89494 29.1207 9.87769 29.1288 9.85238 29.1368L9.60846 29.2104C9.56243 29.2242 9.52904 29.2484 9.50605 29.2852C9.4842 29.3209 9.47266 29.3692 9.47266 29.4291V29.6281H10.1239ZM10.4978 28.9953C10.5128 28.9769 10.5416 28.9676 10.5864 28.9676H10.6221C10.667 28.9676 10.6957 28.9769 10.7095 28.9941C10.7245 29.0125 10.7314 29.0574 10.7314 29.1299V29.2898C10.7314 29.3623 10.7245 29.4072 10.7095 29.4256C10.6957 29.4428 10.667 29.4521 10.6221 29.4521H10.5864C10.5416 29.4521 10.5128 29.4428 10.4978 29.4245C10.4829 29.4049 10.476 29.36 10.476 29.2898V29.1299C10.476 29.0597 10.4829 29.0149 10.4978 28.9953ZM10.2608 29.2967C10.2608 29.4245 10.2827 29.5131 10.3264 29.5637C10.3701 29.6131 10.4461 29.6385 10.5542 29.6385H10.6543C10.7625 29.6385 10.8384 29.6131 10.8821 29.5625C10.9259 29.5119 10.9477 29.4233 10.9477 29.2967V29.123C10.9477 28.9964 10.9259 28.9078 10.8821 28.8572C10.8384 28.8066 10.7625 28.7812 10.6543 28.7812H10.5542C10.4461 28.7812 10.3701 28.8066 10.3264 28.8561C10.2827 28.9067 10.2608 28.9953 10.2608 29.123V29.2967ZM11.3021 28.9953C11.317 28.9769 11.3458 28.9676 11.3907 28.9676H11.4263C11.4712 28.9676 11.5 28.9769 11.5138 28.9941C11.5288 29.0125 11.5356 29.0574 11.5356 29.1299V29.2898C11.5356 29.3623 11.5288 29.4072 11.5138 29.4256C11.5 29.4428 11.4712 29.4521 11.4263 29.4521H11.3907C11.3458 29.4521 11.317 29.4428 11.3021 29.4245C11.2871 29.4049 11.2802 29.36 11.2802 29.2898V29.1299C11.2802 29.0597 11.2871 29.0149 11.3021 28.9953ZM11.065 29.2967C11.065 29.4245 11.0869 29.5131 11.1306 29.5637C11.1743 29.6131 11.2503 29.6385 11.3585 29.6385H11.4585C11.5667 29.6385 11.6427 29.6131 11.6864 29.5625C11.7301 29.5119 11.752 29.4233 11.752 29.2967V29.123C11.752 28.9964 11.7301 28.9078 11.6864 28.8572C11.6427 28.8066 11.5667 28.7812 11.4585 28.7812H11.3585C11.2503 28.7812 11.1743 28.8066 11.1306 28.8561C11.0869 28.9067 11.065 28.9953 11.065 29.123V29.2967ZM12.3123 28.9619C12.3238 28.97 12.3295 28.9872 12.3295 29.0137V29.0758C12.3295 29.1011 12.3238 29.1184 12.3134 29.1264C12.3019 29.1345 12.2755 29.1391 12.2352 29.1391H12.1892C12.1477 29.1391 12.1213 29.1357 12.1109 29.1276C12.1006 29.1195 12.0948 29.1023 12.0948 29.0758V29.0137C12.0948 28.9872 12.1006 28.9688 12.1121 28.9608C12.1236 28.9527 12.1489 28.9493 12.1892 28.9493H12.2352C12.2755 28.9493 12.3008 28.9539 12.3123 28.9619ZM11.905 29.4509C11.905 29.513 11.9268 29.5602 11.9706 29.5913C12.0143 29.6223 12.0787 29.6385 12.1638 29.6385H12.2628C12.3663 29.6385 12.4377 29.6131 12.4791 29.5625C12.5205 29.513 12.5412 29.4245 12.5412 29.2967V29.123C12.5412 28.9953 12.5205 28.9067 12.4791 28.8561C12.4377 28.8066 12.3652 28.7812 12.2628 28.7812H12.1638C12.0707 28.7812 12.0016 28.7997 11.9545 28.8365C11.9084 28.8733 11.8854 28.9285 11.8854 29.0022V29.0781C11.8854 29.1552 11.9038 29.2127 11.9406 29.2496C11.9775 29.2864 12.0338 29.3048 12.1109 29.3048H12.1926C12.2214 29.3048 12.2467 29.3002 12.2697 29.2921C12.2927 29.2829 12.3123 29.2691 12.3295 29.2518V29.398C12.3295 29.4291 12.3249 29.4486 12.3146 29.4578C12.3042 29.4659 12.2801 29.4705 12.2444 29.4705H12.1892C12.1592 29.4705 12.1397 29.4659 12.1294 29.4578C12.119 29.4498 12.1144 29.4336 12.1144 29.4095V29.3991H11.905V29.4509Z" fill="#4296CC"/>
<path d="M12.5389 27.1233C12.548 27.1708 12.5525 27.1947 12.5615 27.2424L12.5484 27.2583C12.269 27.3105 12.1282 27.3306 11.8461 27.3591L11.8292 27.3476C11.8061 27.1146 11.7946 26.9983 11.7715 26.7654L11.7829 26.75C11.8401 26.7443 11.8687 26.7413 11.926 26.7344L11.9421 26.7466C11.9632 26.9196 11.9736 27.0062 11.9946 27.1792L12.0115 27.1913C12.2161 27.1661 12.318 27.1503 12.5211 27.1123L12.5389 27.1233Z" fill="#4296CC"/>
<path d="M13.2896 26.5845L13.2794 26.6023C13.1896 26.6294 13.1444 26.642 13.0541 26.6662L13.0433 26.6836C13.0884 26.8527 13.111 26.9372 13.1558 27.1064L13.1441 27.1241C13.0841 27.1399 13.054 27.1475 12.9937 27.1624L12.976 27.1521C12.9348 26.9821 12.9142 26.897 12.8731 26.7269L12.8552 26.7168C12.7641 26.7387 12.7182 26.749 12.6267 26.7681L12.6093 26.7574C12.5995 26.7106 12.5946 26.6873 12.585 26.6404L12.5955 26.6239C12.8541 26.5698 12.9825 26.5373 13.2369 26.4609L13.255 26.4702C13.2689 26.5159 13.2756 26.5389 13.2896 26.5845Z" fill="#4296CC"/>
<path d="M14.0091 26.4979C13.9979 26.4698 13.9923 26.4559 13.9811 26.4278C13.9665 26.3919 13.9244 26.3757 13.8866 26.3904C13.7916 26.4275 13.7441 26.4453 13.6484 26.4791C13.6103 26.4927 13.5893 26.5325 13.602 26.569C13.6117 26.5978 13.6166 26.6119 13.6264 26.6405L13.6455 26.6489C13.7886 26.5992 13.8599 26.5728 14.0009 26.5162L14.0091 26.4979ZM14.1306 26.3201C14.1977 26.4764 14.2311 26.5545 14.2981 26.7108L14.2887 26.73C14.2311 26.7546 14.202 26.7666 14.1439 26.7901L14.1238 26.7832C14.1042 26.7346 14.0946 26.7103 14.075 26.6618L14.0562 26.6542C13.9123 26.7117 13.8398 26.7386 13.6942 26.7892L13.6838 26.8076C13.7011 26.8569 13.7094 26.8817 13.7264 26.9312L13.716 26.9498C13.6569 26.9699 13.6273 26.9798 13.5677 26.9989L13.5483 26.9903C13.4967 26.8284 13.4708 26.7474 13.4191 26.5854C13.3895 26.4922 13.4446 26.3928 13.5406 26.3596C13.6815 26.3109 13.7514 26.285 13.8902 26.2293C13.9847 26.1914 14.0922 26.2303 14.1306 26.3201Z" fill="#4296CC"/>
<path d="M10.999 5.06088L10.9608 4.85459L0 6.85242V22.3675C0.000733839 23.6128 0.560937 24.9298 1.63405 26.2888L1.63418 26.289C2.5865 27.4913 3.92494 28.7123 5.6126 29.9258L5.61289 29.9259C7.72072 31.436 9.86259 32.5562 10.9051 33.0684L10.999 33.1144L11.0929 33.0684C12.137 32.5562 14.2785 31.436 16.3863 29.9259L16.3899 29.9234L16.3865 29.9258C18.075 28.7123 19.4117 27.4911 20.3637 26.289L20.3639 26.2888C21.438 24.9285 21.9994 23.6131 22 22.3675V6.85242L10.999 4.84766L10.9608 4.85459L10.999 5.06088L10.9608 5.26717L21.5768 7.20165V22.3675C21.5776 23.4836 21.0692 24.7154 20.0306 26.0302L20.0307 26.03C19.1119 27.1909 17.8033 28.3896 16.138 29.5862L16.1383 29.5861C14.0602 31.0751 11.9355 32.1873 10.9053 32.6925L10.999 32.8804L11.0931 32.6925C10.0642 32.1873 7.93904 31.0751 5.86089 29.5861L5.86105 29.5862C4.1965 28.3896 2.88602 27.1907 1.96718 26.03L1.96734 26.0302C0.929895 24.7172 0.422529 23.4838 0.423303 22.3675V7.20165L11.0374 5.26717L10.999 5.06088L10.9608 5.26717L10.999 5.06088Z" fill="#4296CC"/>
</svg>
