<svg width="129" height="129" viewBox="0 0 129 129" fill="none" xmlns="http://www.w3.org/2000/svg">
<path fill-rule="evenodd" clip-rule="evenodd" d="M64.4994 15.4043C78.0141 15.4057 90.2469 20.8991 99.0981 29.7799C107.951 38.6614 113.427 50.9368 113.427 64.4982H113.432V64.5009V64.5059H113.427C113.426 78.065 107.951 90.3383 99.0998 99.2197C90.2479 108.102 78.0148 113.596 64.4994 113.597C50.984 113.596 38.7509 108.102 29.899 99.2197C21.0478 90.3383 15.5727 78.065 15.5714 64.5059H15.5663V64.5009V64.4982H15.5714C15.572 50.9368 21.0481 38.6614 29.9006 29.7799C38.7519 20.8991 50.9846 15.4057 64.4994 15.4043Z" fill="url(#paint0_linear)"/>
<path fill-rule="evenodd" clip-rule="evenodd" d="M69.4225 2.59291C35.1935 -0.125917 5.24264 25.4202 2.52396 59.6484C-0.19482 93.8784 25.3477 123.832 59.5768 126.551C93.8063 129.27 123.759 103.724 126.478 69.4941C129.196 35.2658 103.652 5.31174 69.4225 2.59291ZM60.5715 114.027C33.2592 111.857 12.8766 87.9563 15.046 60.6431C17.2154 33.3298 41.1153 12.9474 68.4278 15.1168C95.7406 17.2863 116.123 41.1861 113.954 68.4993C111.784 95.8126 87.8845 116.195 60.5715 114.027Z" fill="url(#paint1_linear)"/>
<path d="M64.4998 112.653C77.7974 112.653 89.8355 107.263 98.549 98.5499C107.262 89.835 112.652 77.7967 112.652 64.5006C112.652 51.2029 107.262 39.1645 98.549 30.4497C89.8355 21.7361 77.7974 16.3483 64.4998 16.3483C51.2026 16.3483 39.1644 21.7361 30.451 30.4497C21.7375 39.1645 16.348 51.2029 16.348 64.5006C16.348 77.7967 21.7375 89.835 30.451 98.5499C39.1644 107.263 51.2026 112.653 64.4998 112.653ZM100.093 100.094C90.9841 109.204 78.3998 114.838 64.4998 114.838C50.6002 114.838 38.0142 109.204 28.9069 100.094C19.7961 90.9849 14.1623 78.4004 14.1623 64.5006C14.1623 50.6008 19.7961 38.016 28.9069 28.9056C38.0142 19.796 50.6002 14.1621 64.4998 14.1621C78.3998 14.1621 90.9841 19.796 100.093 28.9056C109.204 38.016 114.836 50.6008 114.836 64.5006C114.836 78.4004 109.204 90.9849 100.093 100.094Z" fill="url(#paint2_linear)"/>
<path fill-rule="evenodd" clip-rule="evenodd" d="M26.4592 40.668C25.6547 41.9519 24.9151 43.2751 24.2387 44.6287C24.9039 43.2871 25.6405 41.9657 26.4523 40.6697L26.4562 40.6723L26.4592 40.668Z" fill="#FEFEFE"/>
<path fill-rule="evenodd" clip-rule="evenodd" d="M26.5429 40.5293C26.5124 40.5822 26.4849 40.6282 26.4604 40.6669L26.4565 40.6647L26.5429 40.5293Z" fill="#FEFEFE"/>
<path fill-rule="evenodd" clip-rule="evenodd" d="M13.9626 86.9766C15.0994 86.9766 16.0206 87.8978 16.0206 89.0346C16.0206 90.1712 15.0994 91.0925 13.9626 91.0925C12.8259 91.0925 11.9046 90.1712 11.9046 89.0346C11.9046 87.8978 12.8259 86.9766 13.9626 86.9766ZM110.152 98.3612C109.848 99.0069 110.022 100.036 110.826 100.418C111.413 100.698 112.077 100.533 112.442 99.9184C112.784 99.3367 112.607 98.6491 111.997 98.4319C111.349 98.1969 110.901 99.063 111.415 99.2929C111.569 99.3447 111.782 99.1748 111.744 98.9356C112.387 99.19 111.555 100.45 110.753 99.7108C110.29 99.1671 110.463 98.3966 111.025 97.9551C111.543 97.5389 112.415 97.5007 112.938 98.3484C113.002 97.453 113.875 96.5468 115.006 96.8999C113.392 98.0995 114.213 98.3608 112.876 100.291C112.509 100.763 112.14 100.951 111.681 101.048C111.814 101.316 111.793 101.541 111.704 101.743C111.535 101.886 111.325 101.97 111.031 101.917C111.066 102.385 110.991 102.792 110.641 103.278C109.166 105.104 108.684 104.39 107.989 106.278C107.331 105.291 107.954 104.199 108.795 103.884C107.978 103.489 107.707 102.703 107.961 102.088C108.226 101.425 108.834 101.113 109.486 101.404C110.421 101.965 109.447 103.119 109.021 102.574C109.262 102.543 109.422 102.283 109.328 102.149C108.916 101.699 108.202 102.403 108.61 102.958C108.99 103.483 109.7 103.458 110.161 102.967C110.648 102.443 110.619 101.759 110.185 101.275C109.53 100.543 108.337 100.768 107.874 101.365C107.534 101.795 107.308 102.317 107.18 102.904C106.628 104.76 105.984 107.322 105.045 108.966C104.379 110.019 103.183 111.444 101.618 110.824C101.93 112.478 100.304 113.381 99.1438 113.836C97.3508 114.446 94.7138 114.592 92.7867 114.781C92.1858 114.796 91.6314 114.919 91.1443 115.171C90.4706 115.512 90.0225 116.641 90.6172 117.423C91.0098 117.941 91.6759 118.099 92.2823 117.72C92.8528 117.361 93.0114 116.669 92.5687 116.195C92.101 115.689 91.2742 116.257 91.6379 116.748C91.7511 116.865 92.0369 116.757 92.1132 116.527C92.5675 117.048 91.2498 117.786 90.8766 116.761C90.7154 116.065 91.1364 115.528 91.8379 115.393C92.4894 115.261 93.2092 115.676 93.4429 116.553C93.9111 115.787 95.102 115.383 95.9453 116.216C93.9605 116.54 94.5701 117.149 92.4969 118.251C91.9536 118.502 91.5395 118.498 91.0873 118.375C91.0825 118.674 90.9605 118.865 90.7886 119.003C90.5734 119.052 90.3481 119.03 90.1108 118.849C89.9275 119.28 89.6737 119.607 89.14 119.878C86.9913 120.824 86.8908 119.969 85.4067 121.326C85.2748 120.148 86.3299 119.463 87.2216 119.57C86.6774 118.843 86.7976 118.022 87.3047 117.592C87.8448 117.124 88.5274 117.126 88.9736 117.684C89.5471 118.611 88.152 119.189 88.0243 118.51C88.2517 118.592 88.5134 118.435 88.4918 118.273C88.3318 117.684 87.3743 117.982 87.4818 118.662C87.5791 119.303 88.2209 119.607 88.8567 119.382C89.5292 119.14 89.8177 118.519 89.6542 117.89C89.4086 116.939 88.2445 116.591 87.5593 116.909C87.0598 117.135 86.62 117.495 86.2365 117.958C84.8946 119.354 83.1469 121.334 81.5573 122.364C80.5165 122.973 78.8736 123.665 77.7669 122.556C77.2551 124.037 75.4749 124.131 74.2724 124.037C72.3928 123.804 69.9563 122.784 68.1398 122.114C67.5928 121.865 67.0404 121.734 66.4921 121.748C65.7369 121.761 64.8411 122.581 65.0351 123.544C65.1623 124.181 65.6928 124.614 66.4035 124.539C67.0738 124.464 67.5185 123.91 67.3268 123.291C67.1264 122.632 66.135 122.782 66.2482 123.382C66.2992 123.537 66.6034 123.564 66.7721 123.391C66.9536 124.058 65.4459 124.147 65.5574 123.062C65.7156 122.365 66.3291 122.066 67.0191 122.251C67.6628 122.416 68.1295 123.103 67.9571 123.995C68.7126 123.51 69.9609 123.665 70.3561 124.783C68.4285 124.209 68.7114 125.023 66.3653 125.109C65.7668 125.098 65.3956 124.914 65.0427 124.606C64.9079 124.872 64.7151 124.991 64.4999 125.041C64.2848 124.991 64.0919 124.872 63.9572 124.606C63.6041 124.914 63.233 125.098 62.6346 125.109C60.2885 125.023 60.5714 124.209 58.6438 124.783C59.039 123.665 60.2872 123.51 61.0428 123.995C60.8704 123.103 61.3371 122.416 61.9808 122.251C62.6708 122.066 63.2841 122.365 63.4424 123.062C63.5538 124.147 62.0463 124.058 62.2278 123.391C62.3964 123.564 62.7006 123.537 62.7516 123.382C62.8648 122.782 61.8735 122.632 61.6731 123.291C61.4814 123.91 61.9261 124.464 62.5964 124.539C63.3072 124.614 63.8376 124.181 63.9648 123.544C64.1588 122.581 63.263 121.761 62.5078 121.748C61.9596 121.734 61.4071 121.865 60.8601 122.114C59.0435 122.784 56.6071 123.804 54.7275 124.037C53.525 124.131 51.7448 124.037 51.2329 122.556C50.1262 123.665 48.4834 122.973 47.4425 122.364C45.8528 121.334 44.1053 119.354 42.7634 117.958C42.3799 117.495 41.9401 117.135 41.4406 116.909C40.7553 116.591 39.5911 116.939 39.3456 117.89C39.1822 118.519 39.4706 119.14 40.1431 119.382C40.779 119.607 41.4207 119.303 41.5181 118.662C41.6256 117.982 40.668 117.684 40.5082 118.273C40.4865 118.435 40.7481 118.592 40.9756 118.51C40.8478 119.189 39.4528 118.611 40.0262 117.684C40.4724 117.126 41.1551 117.124 41.6952 117.592C42.2023 118.022 42.3225 118.843 41.7782 119.57C42.6699 119.463 43.725 120.148 43.5931 121.326C42.1091 119.969 42.0085 120.824 39.8599 119.878C39.3261 119.607 39.0724 119.28 38.8891 118.849C38.6517 119.03 38.4264 119.052 38.2113 119.003C38.0392 118.865 37.9173 118.674 37.9124 118.375C37.4604 118.498 37.0462 118.502 36.5029 118.251C34.4297 117.149 35.0393 116.54 33.0546 116.216C33.8979 115.383 35.0888 115.787 35.557 116.553C35.7906 115.676 36.5105 115.261 37.1619 115.393C37.8635 115.528 38.2843 116.065 38.1233 116.761C37.75 117.786 36.4324 117.048 36.8867 116.527C36.9629 116.757 37.2487 116.865 37.3619 116.748C37.7256 116.257 36.8991 115.689 36.4312 116.195C35.9885 116.669 36.147 117.361 36.7176 117.72C37.324 118.099 37.9901 117.941 38.3827 117.423C38.9774 116.641 38.5292 115.512 37.8556 115.171C37.3684 114.919 36.814 114.796 36.213 114.781C34.2859 114.592 31.6491 114.446 29.856 113.836C28.6962 113.381 27.0697 112.478 27.3817 110.824C25.8172 111.444 24.6212 110.019 23.9547 108.966C23.0154 107.322 22.3714 104.76 21.82 102.904C21.6917 102.317 21.466 101.795 21.126 101.365C20.6631 100.768 19.4694 100.543 18.8144 101.275C18.3807 101.759 18.3518 102.443 18.8384 102.967C19.3 103.458 20.01 103.483 20.3902 102.958C20.7982 102.403 20.0842 101.699 19.6716 102.149C19.5778 102.283 19.7382 102.543 19.9785 102.574C19.5527 103.119 18.5787 101.965 19.5142 101.404C20.1661 101.113 20.7736 101.425 21.0392 102.088C21.2924 102.703 21.022 103.489 20.205 103.884C21.046 104.199 21.6692 105.291 21.0112 106.278C20.3158 104.39 19.8336 105.104 18.3589 103.278C18.0092 102.792 17.9339 102.385 17.9692 101.917C17.675 101.97 17.4646 101.886 17.2961 101.743C17.2063 101.541 17.1862 101.316 17.3188 101.048C16.8603 100.951 16.4911 100.763 16.1234 100.291C14.7869 98.3608 15.6083 98.0995 13.9937 96.8999C15.1251 96.5468 15.9976 97.453 16.0623 98.3484C16.5847 97.5007 17.4565 97.5389 17.9746 97.9551C18.5365 98.3966 18.7094 99.1671 18.2469 99.7108C17.4446 100.45 16.6131 99.19 17.2554 98.9356C17.2179 99.1748 17.431 99.3447 17.5851 99.2929C18.0989 99.063 17.6507 98.1969 17.0033 98.4319C16.3927 98.6491 16.2155 99.3367 16.5576 99.9184C16.9228 100.533 17.5871 100.698 18.1734 100.418C18.9774 100.036 19.1516 99.0069 18.8475 98.3612C18.2749 97.5246 16.2259 96.6896 15.729 95.9652C15.3546 95.4232 15.5457 94.7697 15.9377 94.4327C16.1824 94.218 16.4997 94.1633 16.7683 94.1656C16.8386 93.8736 16.9659 93.538 17.2101 93.3299C17.6061 92.9918 18.2114 92.9583 18.5683 93.5051C19.0557 94.2417 19.3145 96.9199 19.8813 97.7584C20.4088 98.1658 21.2931 98.2027 21.8845 97.5853C22.7553 96.6932 21.4177 95.1131 20.4929 96.0039C20.0686 96.4299 20.5953 97.2676 21.0757 96.8445C21.1983 96.7243 21.0238 96.3682 20.8536 96.3777C21.5293 95.7725 22.0877 96.9422 21.4201 97.368C20.84 97.7382 19.9849 97.3728 19.7803 96.7081C19.6009 96.1211 19.7762 95.3975 20.6421 95.1264C20.0557 94.6149 19.0849 93.0577 20.5671 92.2305C20.5791 92.4954 20.4884 93.3766 20.8326 93.9726C21.491 95.0913 22.2192 95.2209 22.6905 95.8294C22.9874 96.2241 23.0312 96.5664 22.9617 96.9716C23.234 96.9077 23.4215 96.9536 23.5692 97.0486C23.6186 97.2167 23.6097 97.4097 23.4714 97.6532C23.88 97.7005 24.1961 97.8394 24.4908 98.2355C24.9415 98.8596 24.861 99.5945 25.7487 100.541C26.2232 101.04 27.0947 101.201 27.345 101.287C26.1338 102.477 24.8361 100.957 24.5109 100.25C24.0069 101.004 23.2317 101.113 22.7189 100.775C22.1391 100.391 22.1376 99.4728 22.6567 99.0204C23.2535 98.4997 24.2184 99.3654 23.4472 99.8432C23.5041 99.6828 23.2119 99.4144 23.0618 99.4984C22.4458 99.8456 23.0755 100.736 23.7037 100.295C24.2562 99.9797 24.2789 99.4883 23.9769 98.9985C23.6954 98.4524 23.1434 98.2141 22.5789 98.5131C21.7176 98.9603 21.558 100.006 21.9707 100.624C22.4994 101.399 25.1765 102.114 26.1085 102.432C27.1171 102.778 27.9738 102.94 28.9904 103.234C29.9385 103.524 30.8737 104.07 31.2155 104.826C31.3721 105.131 31.4786 105.628 31.3163 106.056C31.7055 105.815 32.2136 105.825 32.5423 105.922C33.3499 106.113 34.0639 106.928 34.5286 107.804C35.009 108.746 35.3312 109.557 35.862 110.481C36.3516 111.336 37.5623 113.829 38.4233 114.2C39.1077 114.489 40.1044 114.133 40.3799 113.203C40.5661 112.592 40.2281 112.095 39.638 111.922C39.1001 111.719 38.622 111.835 38.4175 112.437C38.1041 113.137 39.0969 113.587 39.3209 112.916C39.3751 112.752 39.0559 112.516 38.9095 112.603C39.2322 111.755 40.265 112.538 39.8673 113.223C39.5218 113.818 38.6192 113.991 38.1326 113.495C37.7035 113.056 37.6637 112.274 38.3082 111.635C37.5523 111.45 35.8139 110.465 36.7514 109.05C36.8838 109.279 37.2074 110.105 37.7872 110.476C38.8853 111.168 39.5916 110.949 40.2898 111.273C40.7345 111.487 40.9309 111.771 41.0553 112.163C41.2678 111.981 41.4554 111.936 41.63 111.953C41.7513 112.079 41.8317 112.255 41.8203 112.535C42.2054 112.389 42.55 112.368 42.9937 112.584C43.6806 112.931 43.9461 113.622 45.1692 114.056C45.8199 114.281 46.6679 114.024 46.9301 113.986C46.3996 115.598 44.5496 114.843 43.9363 114.364C43.834 115.266 43.1954 115.719 42.585 115.654C41.8937 115.579 41.4704 114.763 41.7241 114.123C42.0157 113.387 43.2698 113.713 42.804 114.492C42.7816 114.323 42.3983 114.218 42.3037 114.362C41.9156 114.953 42.8835 115.455 43.2391 114.775C43.5854 114.241 43.3803 113.794 42.8873 113.498C42.3865 113.142 41.7867 113.184 41.4227 113.708C40.8623 114.501 41.2005 115.504 41.8509 115.863C42.6761 116.308 45.3828 115.715 46.3573 115.57C47.4119 115.415 48.2477 115.166 49.2853 114.96C50.2606 114.782 51.3425 114.838 51.993 115.353C52.2721 115.552 52.5946 115.945 52.6469 116.399C52.8922 116.013 53.3536 115.8 53.6916 115.743C54.5017 115.564 55.4997 115.985 56.2999 116.571C57.1435 117.209 57.787 117.798 58.6679 118.398C59.4816 118.953 61.6582 120.668 62.5952 120.627C63.337 120.588 64.0787 119.833 63.9205 118.875C63.8216 118.245 63.3005 117.945 62.6943 118.047C62.1215 118.099 61.7419 118.411 61.8205 119.042C61.8442 119.809 62.9337 119.781 62.8424 119.079C62.82 118.909 62.4298 118.836 62.3357 118.978C62.2562 118.074 63.5271 118.327 63.4681 119.117C63.417 119.804 62.6804 120.353 62.0258 120.119C61.4482 119.911 61.0712 119.225 61.3726 118.369C60.6116 118.532 58.6176 118.404 58.8439 116.722C59.0629 116.871 59.7142 117.472 60.3978 117.553C61.6877 117.696 62.2278 117.191 62.9975 117.178C63.491 117.177 63.7917 117.347 64.0747 117.646C64.1866 117.389 64.3355 117.266 64.4999 117.205C64.6644 117.266 64.8133 117.389 64.9251 117.646C65.2081 117.347 65.5089 117.177 66.0023 117.178C66.7721 117.191 67.3121 117.696 68.6021 117.553C69.2857 117.472 69.9369 116.871 70.1559 116.722C70.3823 118.404 68.3883 118.532 67.6273 118.369C67.9287 119.225 67.5515 119.911 66.9741 120.119C66.3195 120.353 65.5829 119.804 65.5318 119.117C65.4728 118.327 66.7436 118.074 66.6641 118.978C66.5701 118.836 66.1799 118.909 66.1574 119.079C66.0661 119.781 67.1557 119.809 67.1792 119.042C67.258 118.411 66.8784 118.099 66.3055 118.047C65.6993 117.945 65.1782 118.245 65.0794 118.875C64.9211 119.833 65.6629 120.588 66.4046 120.627C67.3415 120.668 69.5182 118.953 70.3319 118.398C71.2128 117.798 71.8564 117.209 72.7 116.571C73.5001 115.985 74.4981 115.564 75.3082 115.743C75.6463 115.8 76.1077 116.013 76.3529 116.399C76.4052 115.945 76.7276 115.552 77.0069 115.353C77.6573 114.838 78.7393 114.782 79.7146 114.96C80.7522 115.166 81.588 115.415 82.6426 115.57C83.6171 115.715 86.3238 116.308 87.149 115.863C87.7992 115.504 88.1376 114.501 87.5771 113.708C87.213 113.184 86.6133 113.142 86.1125 113.498C85.6195 113.794 85.4144 114.241 85.7606 114.775C86.1164 115.455 87.0842 114.953 86.6961 114.362C86.6016 114.218 86.2182 114.323 86.1958 114.492C85.7301 113.713 86.9841 113.387 87.2757 114.123C87.5294 114.763 87.1062 115.579 86.4148 115.654C85.8045 115.719 85.1659 115.266 85.0636 114.364C84.4503 114.843 82.6002 115.598 82.0698 113.986C82.3319 114.024 83.18 114.281 83.8306 114.056C85.0538 113.622 85.3193 112.931 86.0062 112.584C86.4498 112.368 86.7944 112.389 87.1794 112.535C87.1681 112.255 87.2485 112.079 87.3699 111.953C87.5445 111.936 87.7321 111.981 87.9446 112.163C88.0689 111.771 88.2653 111.487 88.7099 111.273C89.4083 110.949 90.1146 111.168 91.2127 110.476C91.7924 110.105 92.1161 109.279 92.2485 109.05C93.186 110.465 91.4476 111.45 90.6916 111.635C91.3361 112.274 91.2962 113.056 90.8672 113.495C90.3807 113.991 89.4781 113.818 89.1326 113.223C88.7349 112.538 89.7676 111.755 90.0904 112.603C89.9439 112.516 89.6248 112.752 89.679 112.916C89.9028 113.587 90.8958 113.137 90.5823 112.437C90.3778 111.835 89.8998 111.719 89.3618 111.922C88.7718 112.095 88.4336 112.592 88.62 113.203C88.8954 114.133 89.8921 114.489 90.5766 114.2C91.4376 113.829 92.6481 111.336 93.1379 110.481C93.6685 109.557 93.9909 108.746 94.4713 107.804C94.9358 106.928 95.65 106.113 96.4575 105.922C96.7863 105.825 97.2943 105.815 97.6836 106.056C97.5213 105.628 97.6277 105.131 97.7844 104.826C98.1262 104.07 99.0613 103.524 100.009 103.234C101.026 102.94 101.883 102.778 102.891 102.432C103.823 102.114 106.5 101.399 107.029 100.624C107.442 100.006 107.282 98.9603 106.421 98.5131C105.856 98.2141 105.304 98.4524 105.023 98.9985C104.721 99.4883 104.744 99.9797 105.296 100.295C105.924 100.736 106.554 99.8456 105.938 99.4984C105.788 99.4144 105.496 99.6828 105.553 99.8432C104.781 99.3654 105.746 98.4997 106.343 99.0204C106.862 99.4728 106.861 100.391 106.281 100.775C105.768 101.113 104.993 101.004 104.489 100.25C104.164 100.957 102.866 102.477 101.655 101.287C101.905 101.201 102.777 101.04 103.251 100.541C104.139 99.5945 104.058 98.8596 104.509 98.2355C104.804 97.8394 105.12 97.7005 105.528 97.6532C105.39 97.4097 105.381 97.2167 105.431 97.0486C105.578 96.9536 105.766 96.9077 106.038 96.9716C105.969 96.5664 106.012 96.2241 106.309 95.8294C106.781 95.2209 107.509 95.0913 108.167 93.9726C108.511 93.3766 108.421 92.4954 108.433 92.2305C109.915 93.0577 108.944 94.6149 108.358 95.1264C109.224 95.3975 109.399 96.1211 109.22 96.7081C109.015 97.3728 108.16 97.7382 107.58 97.368C106.912 96.9422 107.471 95.7725 108.146 96.3777C107.976 96.3682 107.801 96.7243 107.924 96.8445C108.405 97.2676 108.931 96.4299 108.507 96.0039C107.582 95.1131 106.245 96.6932 107.115 97.5853C107.707 98.2027 108.591 98.1658 109.118 97.7584C109.685 96.9199 109.944 94.2417 110.432 93.5051C110.789 92.9583 111.394 92.9918 111.79 93.3299C112.034 93.538 112.161 93.8736 112.232 94.1656C112.5 94.1633 112.817 94.218 113.062 94.4327C113.454 94.7697 113.645 95.4232 113.271 95.9652C112.774 96.6896 110.725 97.5246 110.152 98.3612ZM99.9605 108.876C99.9013 108.506 100.067 108.062 100.407 107.631C100.082 107.769 99.4884 107.927 99.0497 107.711C99.1784 108.183 98.9098 108.736 98.7133 109.028C99.1515 108.802 99.5944 108.747 99.9605 108.876ZM111.706 94.9489C111.706 94.9504 111.705 94.9511 111.702 94.9508C111.702 94.9508 111.702 94.9508 111.702 94.9491C111.702 94.9491 111.702 94.9491 111.702 94.947C111.691 94.8853 111.533 93.9564 111.183 94.0763C110.747 94.222 110.458 96.0642 110.108 97.309C111.081 96.6022 112.576 95.8053 112.586 95.2918C112.593 94.8807 111.772 94.944 111.706 94.9489ZM109.409 100.003C109.078 99.6962 108.864 99.2197 109.125 98.6729C108.661 99.1112 108.242 98.9577 107.821 98.8373C108.055 99.2074 108.321 99.5663 108.031 100.135C108.482 99.7308 109.021 99.7842 109.409 100.003ZM106.36 102.389C106.175 102.551 105.973 102.594 105.759 102.708C104.507 103.258 102.461 103.585 100.933 104.007C99.291 104.458 98.3957 105.543 99.1503 106.57C99.9547 107.397 101.278 106.881 101.314 106.007C101.296 105.204 100.292 105.212 100.298 105.918C99.8074 105.545 100.289 104.502 101.141 104.492C101.556 104.487 102.441 104.959 102.315 105.625C102.612 105.076 103.119 104.396 104.41 104.509C104.181 106.106 103.499 106.371 102.952 106.531C103.631 106.769 103.886 107.432 103.658 108.13C103.324 109.154 102.27 108.985 102.164 108.391C102.859 108.436 103.01 107.448 102.311 107.305C101.48 107.141 100.356 108.435 101.575 109.535C102.67 110.262 103.633 109.545 104.388 108.098C105.147 106.417 105.359 105.098 106.041 103.09C106.111 102.85 106.239 102.608 106.36 102.389ZM77.131 119.916C77.2197 119.55 77.6015 119.224 78.0494 119.049C77.7129 119.023 77.1488 118.902 76.8462 118.547C76.7286 118.998 76.274 119.353 75.9826 119.523C76.4483 119.512 76.8934 119.669 77.131 119.916ZM89.4927 116.33C89.4468 115.877 89.4239 115.457 89.9068 115.091C89.2931 115.268 88.9912 114.939 88.6722 114.639C88.7108 115.075 88.7822 115.516 88.2634 115.888C88.8495 115.736 89.1653 116.014 89.4927 116.33ZM85.7438 117.124C85.5061 117.183 85.3064 117.128 85.0642 117.132C83.6991 117.045 81.7319 116.397 80.1804 116.071C78.5147 115.718 77.2209 116.27 77.4203 117.529C77.7552 118.634 79.1676 118.783 79.6007 118.022C79.9533 117.3 79.0583 116.847 78.7389 117.477C78.4741 116.921 79.3809 116.215 80.1427 116.597C80.5135 116.783 81.0829 117.608 80.6657 118.142C81.1816 117.791 81.9437 117.42 83.0387 118.112C82.1026 119.426 81.3751 119.349 80.8156 119.24C81.3096 119.763 81.2316 120.469 80.709 120.985C79.9425 121.741 79.0834 121.107 79.2621 120.53C79.858 120.89 80.446 120.08 79.8907 119.634C79.2281 119.106 77.6351 119.74 78.2133 121.276C78.8522 122.425 80.0376 122.23 81.3717 121.291C82.8182 120.146 83.6112 119.071 85.1395 117.601C85.3115 117.419 85.5367 117.263 85.7438 117.124ZM92.4372 113.878C92.6306 113.728 92.7112 113.537 92.8644 113.35C93.6413 112.224 94.351 110.278 95.0554 108.858C95.8098 107.331 97.0449 106.657 97.9096 107.594C98.5697 108.541 97.8119 109.742 96.9462 109.611C96.1613 109.441 96.3594 108.457 97.0519 108.596C96.7795 108.044 95.6638 108.319 95.4918 109.154C95.4083 109.56 95.7036 110.518 96.3815 110.522C95.786 110.709 95.0226 111.078 94.8879 112.366C96.4997 112.445 96.8894 111.826 97.1505 111.319C97.2554 112.031 97.858 112.407 98.5863 112.316C99.6548 112.182 99.6893 111.115 99.1256 110.898C99.0388 111.589 98.0394 111.549 98.0322 110.836C98.0286 109.99 99.5124 109.131 100.361 110.537C100.867 111.75 99.9802 112.56 98.4163 113.026C96.6217 113.452 95.2866 113.409 93.186 113.699C92.9366 113.722 92.675 113.802 92.4372 113.878ZM64.4999 122.071C64.6564 121.643 64.8191 121.255 65.4132 121.136C64.7837 121.028 64.6559 120.6 64.4999 120.191C64.344 120.6 64.216 121.028 63.5867 121.136C64.1808 121.255 64.3435 121.643 64.4999 122.071ZM68.2193 121.149C68.4589 121.098 68.6146 120.962 68.8344 120.859C70.0247 120.186 71.5123 118.744 72.7658 117.774C74.1105 116.729 75.5158 116.662 75.8855 117.882C76.0661 119.022 74.8603 119.772 74.1385 119.276C73.5065 118.781 74.1139 117.982 74.6762 118.41C74.672 117.794 73.548 117.555 73.0293 118.231C72.7768 118.56 72.6245 119.551 73.2329 119.85C72.6154 119.758 71.7678 119.757 71.0843 120.857C72.5001 121.632 73.1209 121.244 73.5769 120.903C73.3608 121.589 73.7389 122.19 74.434 122.426C75.4536 122.772 75.9502 121.827 75.5379 121.386C75.1583 121.969 74.2762 121.498 74.5809 120.853C74.9471 120.09 76.6567 119.965 76.807 121.599C76.7333 122.912 75.5817 123.254 73.9713 122.99C72.1704 122.591 70.9878 121.97 68.9712 121.314C68.7371 121.226 68.4665 121.184 68.2193 121.149ZM29.0393 108.876C29.0986 108.506 28.9329 108.062 28.5933 107.631C28.918 107.769 29.5115 107.927 29.9502 107.711C29.8215 108.183 30.0901 108.736 30.2866 109.028C29.8483 108.802 29.4054 108.747 29.0393 108.876ZM17.2942 94.9489C17.294 94.9504 17.2952 94.9511 17.2975 94.9508C17.2975 94.9508 17.2975 94.9508 17.2978 94.9491C17.2978 94.9491 17.2978 94.9491 17.2983 94.947C17.3093 94.8853 17.4672 93.9564 17.8171 94.0763C18.2528 94.222 18.5422 96.0642 18.8919 97.309C17.9188 96.6022 16.4236 95.8053 16.4141 95.2918C16.4073 94.8807 17.2277 94.944 17.2942 94.9489ZM19.5909 100.003C19.9223 99.6962 20.1359 99.2197 19.8748 98.6729C20.3389 99.1112 20.7576 98.9577 21.179 98.8373C20.9445 99.2074 20.6788 99.5663 20.9692 100.135C20.5183 99.7308 19.9785 99.7842 19.5909 100.003ZM22.6403 102.389C22.8246 102.551 23.0273 102.594 23.2403 102.708C24.4932 103.258 26.5383 103.585 28.0669 104.007C29.7089 104.458 30.6042 105.543 29.8495 106.57C29.0451 107.397 27.722 106.881 27.6862 106.007C27.7042 105.204 28.7076 105.212 28.7021 105.918C29.1924 105.545 28.7107 104.502 27.8586 104.492C27.4441 104.487 26.5591 104.959 26.6845 105.625C26.3875 105.076 25.8807 104.396 24.5904 104.509C24.8189 106.106 25.5011 106.371 26.0476 106.531C25.3685 106.769 25.1139 107.432 25.3415 108.13C25.6756 109.154 26.7295 108.985 26.8356 108.391C26.1409 108.436 25.9902 107.448 26.6887 107.305C27.5195 107.141 28.6439 108.435 27.4249 109.535C26.3303 110.262 25.3664 109.545 24.6123 108.098C23.8527 106.417 23.6413 105.098 22.9583 103.09C22.8892 102.85 22.7604 102.608 22.6403 102.389ZM51.8689 119.916C51.7801 119.55 51.3984 119.224 50.9505 119.049C51.287 119.023 51.851 118.902 52.1537 118.547C52.2711 118.998 52.7259 119.353 53.0173 119.523C52.5514 119.512 52.1065 119.669 51.8689 119.916ZM39.5072 116.33C39.5531 115.877 39.576 115.457 39.0931 115.091C39.7067 115.268 40.0087 114.939 40.3276 114.639C40.2891 115.075 40.2177 115.516 40.7364 115.888C40.1503 115.736 39.8346 116.014 39.5072 116.33ZM43.256 117.124C43.4937 117.183 43.6934 117.128 43.9357 117.132C45.3008 117.045 47.268 116.397 48.8195 116.071C50.4851 115.718 51.779 116.27 51.5796 117.529C51.2447 118.634 49.8323 118.783 49.3991 118.022C49.0466 117.3 49.9416 116.847 50.261 117.477C50.5257 116.921 49.619 116.215 48.8572 116.597C48.4864 116.783 47.9169 117.608 48.3342 118.142C47.8182 117.791 47.0562 117.42 45.961 118.112C46.8973 119.426 47.6248 119.349 48.1843 119.24C47.6903 119.763 47.7683 120.469 48.2909 120.985C49.0573 121.741 49.9165 121.107 49.7378 120.53C49.1419 120.89 48.5539 120.08 49.109 119.634C49.7718 119.106 51.3648 119.74 50.7866 121.276C50.1476 122.425 48.9623 122.23 47.6281 121.291C46.1817 120.146 45.3887 119.071 43.8604 117.601C43.6883 117.419 43.4632 117.263 43.256 117.124ZM36.5625 113.878C36.3693 113.728 36.2887 113.537 36.1355 113.35C35.3584 112.224 34.6487 110.278 33.9445 108.858C33.19 107.331 31.955 106.657 31.0901 107.594C30.4301 108.541 31.1879 109.742 32.0535 109.611C32.8385 109.441 32.6404 108.457 31.948 108.596C32.2204 108.044 33.3361 108.319 33.5081 109.154C33.5916 109.56 33.2963 110.518 32.6182 110.522C33.2139 110.709 33.9772 111.078 34.112 112.366C32.5001 112.445 32.1104 111.826 31.8493 111.319C31.7444 112.031 31.1418 112.407 30.4136 112.316C29.3451 112.182 29.3105 111.115 29.8741 110.898C29.9611 111.589 30.9605 111.549 30.9676 110.836C30.9713 109.99 29.4875 109.131 28.639 110.537C28.1324 111.75 29.0197 112.56 30.5835 113.026C32.3782 113.452 33.7133 113.409 35.8139 113.699C36.0632 113.722 36.3249 113.802 36.5625 113.878ZM60.7805 121.149C60.541 121.098 60.3852 120.962 60.1655 120.859C58.9752 120.186 57.4876 118.744 56.2341 117.774C54.8893 116.729 53.484 116.662 53.1143 117.882C52.9338 119.022 54.1395 119.772 54.8612 119.276C55.4933 118.781 54.886 117.982 54.3236 118.41C54.3279 117.794 55.4518 117.555 55.9705 118.231C56.2231 118.56 56.3754 119.551 55.7668 119.85C56.3845 119.758 57.2321 119.757 57.9155 120.857C56.4997 121.632 55.8788 121.244 55.4229 120.903C55.6391 121.589 55.2608 122.19 54.5658 122.426C53.5463 122.772 53.0496 121.827 53.462 121.386C53.8416 121.969 54.7237 121.498 54.4189 120.853C54.0528 120.09 52.343 119.965 52.1929 121.599C52.2664 122.912 53.4182 123.254 55.0285 122.99C56.8295 122.591 58.0121 121.97 60.0285 121.314C60.2628 121.226 60.5334 121.184 60.7805 121.149ZM114.893 87.1056C113.776 87.1056 112.87 88.0108 112.87 89.1276C112.87 90.2445 113.776 91.1497 114.893 91.1497C116.009 91.1497 116.914 90.2445 116.914 89.1276C116.914 88.0108 116.009 87.1056 114.893 87.1056Z" fill="url(#paint3_linear)"/>
<path fill-rule="evenodd" clip-rule="evenodd" d="M91.1488 55.364C90.8528 55.039 90.6504 55.0192 90.4596 55.3115C89.7693 55.1337 89.346 54.7919 89.1659 54.2858C89.0266 54.1505 88.8294 54.0413 88.6557 53.903C88.1626 53.5824 87.7381 53.4785 87.3949 53.6704C87.1265 53.7729 86.898 53.9123 86.6755 54.0845C86.147 54.5209 85.4884 54.4818 84.6957 53.9414C84.5287 53.7993 84.292 53.6533 83.9473 53.4665C83.7963 53.3901 83.6607 53.5113 83.5686 53.8635C83.5291 54.1568 83.3912 54.3133 83.1296 54.3622C82.7852 53.9794 82.367 53.5902 81.875 53.1601C81.4241 52.4345 80.9232 51.8348 80.455 51.3693C79.9463 50.8646 79.5322 50.4647 79.2285 50.14C78.959 49.818 78.5866 49.5877 78.12 49.4837C77.4994 48.8647 76.8763 48.3414 76.2464 47.8837C76.1361 47.8076 76.0019 47.7629 75.8308 47.6798C76.1898 47.505 76.3004 47.2106 76.1834 46.8635C75.7481 46.925 75.2878 47.0212 74.7999 47.1934C74.6777 47.7666 74.457 48.2322 74.1492 48.6649C74.0534 48.8303 73.927 49.0327 73.7299 49.196C73.3944 48.899 73.1078 48.8829 72.8898 49.1524C72.8212 49.1144 72.7568 49.1106 72.728 49.1461C72.3255 48.7767 72.3427 48.4267 72.7333 48.0995C72.5913 47.9862 72.3993 47.9757 72.1638 48.0693C71.5853 48.0048 71.2249 47.6377 71.0725 46.9634C70.841 47.3026 70.5507 47.5024 70.2085 47.5236C69.8168 47.6839 69.6394 47.4655 69.6722 46.9016C69.5764 46.5796 69.4028 46.398 69.1489 46.3164C69.1464 46.2821 69.1411 46.2456 69.1385 46.2098C69.1281 45.8196 69.0923 45.5013 69.036 45.2516C68.8347 45.0649 68.6585 45.0581 68.5824 45.1986C68.3692 45.4748 68.0618 45.4633 67.6447 45.095C67.2884 44.7637 66.8363 44.6097 66.3052 44.6716C66.2564 44.8834 66.2746 45.2408 66.3589 45.7417C66.0868 45.8077 65.7845 45.8036 65.445 45.7286C65.0861 45.9023 64.7823 46.1152 64.5393 46.294C64.2027 46.4007 63.8938 46.5769 63.6109 46.7924C63.2087 46.616 62.8983 46.7607 62.6668 47.1934C62.1987 47.1606 61.886 47.2012 61.7242 47.3119C61.2494 47.3895 60.9341 47.4316 60.7735 47.4707C60.1123 47.4853 59.6005 47.6418 59.2588 47.9362C59.1641 47.9388 59.005 47.9429 58.8473 47.9481C58.5316 47.9246 58.2163 47.9351 57.8954 47.9824C57.3274 47.969 56.9868 48.1952 56.8697 48.6213C57.0117 48.7569 56.9935 48.9329 56.8146 49.0816C57.3062 49.5534 57.7653 49.8956 58.0754 50.0965C58.0322 50.2031 57.9006 50.2072 57.6822 50.1084C57.4549 50.0797 57.1276 50.0901 56.6964 50.1412C56.2361 50.474 56.1925 50.8277 56.5883 51.2012C56.5175 51.5929 56.3163 51.9492 56.0166 52.2754C55.8179 52.2462 55.6156 52.253 55.4762 52.2936C54.9316 52.6973 54.8922 53.0499 55.3763 53.351C55.6916 53.6231 56.0046 53.9663 56.3215 54.383C56.5686 54.2712 56.7069 54.2675 56.7344 54.3737C56.8712 54.8985 56.6804 55.2574 56.2518 55.4427C55.718 55.6652 55.2276 55.6741 54.7912 55.4744C54.724 55.44 54.6189 55.4427 54.5821 55.4795C54.2127 55.7688 53.8642 55.774 53.5038 55.5045C53.0856 55.5165 52.7517 55.3506 52.5124 54.9745C52.3048 54.6343 51.9798 54.4725 51.5959 54.521C51.3119 54.5999 51.0003 54.6119 50.6992 54.5552C50.6179 54.6603 50.5482 54.6629 50.527 54.5619C50.2955 54.2265 49.8158 54.2488 49.0794 54.6223C48.99 54.7617 48.7637 54.9063 48.4011 55.0588C47.8934 55.2507 47.4227 55.1326 47.0097 54.7185C47.0783 54.512 47.107 54.3435 47.094 54.2108C46.7969 54.1583 46.6273 53.9675 46.5707 53.7386C46.3802 53.8504 46.2434 53.8571 46.1592 53.7625C45.9319 53.5429 45.8305 53.2194 45.8622 52.7893C45.8174 52.6935 45.6478 52.704 45.3557 52.8251C44.8272 52.9604 44.526 52.8195 44.4973 52.3044C44.5473 52.2358 44.5816 52.1043 44.6039 51.9071C44.4052 51.7942 44.0739 51.8243 43.6032 51.9939C43.4046 51.7875 43.1232 51.6574 42.7564 51.5981C42.3423 51.7953 41.9584 51.9913 41.6047 52.1818C41.0904 52.4818 40.5146 52.7554 40.0043 52.9261C39.3141 53.1471 38.6686 53.5165 38.086 53.9939C37.9127 54.4356 37.8311 54.7155 37.8035 54.9313C37.3671 54.9365 37.0748 54.7788 36.9448 54.4606C37.259 54.1031 37.3645 53.7927 37.2616 53.5351C36.8553 53.6652 36.4625 53.8545 36.0797 54.099C36.0365 54.2212 35.9825 54.3737 35.9206 54.5567C35.6183 54.6748 35.171 55.0103 34.5952 55.5571C34.4152 55.6044 34.3153 55.9029 34.331 56.4631C33.8394 56.6473 33.4066 56.9707 33.0544 57.4322C32.949 57.5835 32.9136 57.7333 32.9401 57.9372C33.2777 57.9753 33.4223 58.1158 33.3884 58.2946C33.3884 58.4735 33.2974 58.7747 33.2002 59.194C33.1346 59.4031 33.312 59.3964 33.7656 59.1717C33.8774 59.1374 34.0205 59.1321 34.227 59.1545C34.6083 59.4411 34.7887 59.7396 34.7216 60.046C34.9135 60.6181 34.9952 61.1086 35.0514 61.5056C34.4547 61.2674 34.3388 61.3912 34.6135 61.8749C34.7477 62.2391 35.1081 62.5469 35.6839 62.7955C35.8997 62.8268 36.2571 62.8294 36.7555 62.8019C37.1803 62.6166 37.5366 62.459 37.8233 62.2696C38.2164 62.0803 38.5754 62.0777 38.8959 62.2062C39.1799 62.3643 39.5362 62.5562 39.9704 62.8164C40.5411 62.7545 40.8974 62.7545 41.0419 62.8216C41.222 63.0162 41.2287 63.3438 41.0695 63.7974C41.2958 64.059 41.3129 64.3878 41.1273 64.7728C40.9182 64.8335 40.7169 64.9912 40.4974 65.3069C40.2794 65.6263 39.8374 65.7724 39.0852 65.684C38.7029 65.4172 38.3476 65.4079 38.023 65.6486C37.9731 65.8365 37.9902 65.9617 38.0651 65.9957C37.6496 66.043 37.3197 66.2178 37.092 66.5506C37.2433 66.6188 37.067 66.6099 36.5635 66.5241C36.2612 66.3888 36.0824 66.381 36.035 66.5018C35.9258 66.8939 35.9903 67.2003 36.2098 67.4276C36.6437 67.5129 36.8911 67.7116 36.9817 67.9628C37.0305 68.1797 37.1986 68.3139 37.4644 68.4242C37.6917 68.9606 37.8072 69.4 37.8113 69.7652C37.5143 69.8942 37.5616 70.0481 37.969 70.2967C38.2888 70.1428 38.6659 70.2941 39.096 70.7317C39.0946 70.9501 39.1564 71.1368 39.2854 71.334C40.0584 71.4984 40.32 71.8338 40.2071 72.3437C40.0859 72.4529 39.9533 72.6214 39.8191 72.8476C40.1281 73.4864 40.4948 73.6243 40.9484 73.3418C41.0721 73.0813 41.3468 72.9553 41.7545 72.9355C42.1411 72.9448 42.4724 72.9777 42.746 73.0354C43.3296 73.1551 43.7098 73.3522 43.9003 73.656C44.5052 74.1622 44.9379 74.5252 45.1954 74.7447C45.2584 75.1353 45.3717 75.4651 45.5308 75.7387C45.9211 76.0675 46.2326 76.1055 46.4801 75.8453C46.2367 73.2445 46.346 70.6005 46.7272 67.9166C48.0895 67.6289 49.4648 67.3262 50.852 67.0109C52.1456 68.2151 53.4497 69.4354 54.7371 70.6646C54.7885 70.8424 54.8754 71.0567 54.9659 71.3038C55.1985 71.5919 55.367 71.9482 55.4773 72.3727C55.9901 72.7764 56.4374 72.9329 56.9331 72.8751C57.3669 72.8539 57.8887 72.6911 58.5145 72.4555C58.7553 72.5673 59.1022 72.716 59.5469 72.8658C60.1726 72.6646 60.7079 72.5293 61.1443 72.4991C61.4548 72.716 61.7347 73.076 61.9475 73.577C62.1897 73.864 62.3973 74.224 62.6012 74.6541C63.0049 75.013 63.1364 75.3705 63.0138 75.7268C62.8666 76.5475 63.0678 76.9064 63.6016 76.8024C63.6373 77.3377 63.6411 77.8386 63.615 78.2661C63.8043 78.767 64.1081 78.9813 64.5341 78.9444C64.9903 78.9064 65.2914 79.0823 65.4319 79.4032C65.8725 79.7528 66.2798 79.9254 66.6902 79.9869C66.7219 79.9503 66.9019 79.9478 67.1963 79.9738C67.3555 79.4021 67.5646 79.0391 67.8803 78.8878C68.2272 78.3462 68.5377 77.9821 68.802 77.7953C69.0714 77.218 69.3897 76.8565 69.784 76.6999C70.2007 76.3332 70.5596 75.9661 70.8556 75.6019C71.1776 75.0261 71.3669 74.7738 71.4184 74.9116C71.91 74.5766 72.3859 74.4174 72.8384 74.4674C73.5786 74.5408 74.2204 74.858 74.7291 75.4141C74.7723 75.1696 74.7962 75.0302 74.8133 74.9262C74.8342 74.6157 74.8618 74.4398 74.9039 74.3675C75.0854 73.6325 75.3039 73.2747 75.5629 73.2986C76.1201 73.1316 76.454 73.113 76.5647 73.2456C77.1115 73.318 77.5192 73.4286 77.8573 73.5442C78.0701 73.6325 78.3015 73.6165 78.4867 73.5036C78.7145 73.3548 78.8997 73.2393 79.0958 73.0921C79.682 72.9512 80.1818 72.9184 80.5579 72.9922C81.5702 72.7171 82.4404 72.5215 83.2347 72.3597C83.7792 72.2833 84.2168 72.378 84.5537 72.6687C85.0531 72.8461 85.6752 72.9132 86.4035 72.9288C86.3379 72.8435 86.3904 72.6832 86.5521 72.482C86.5902 72.1637 86.6874 71.8416 86.8492 71.5129C86.8399 71.3261 86.8649 71.2289 86.9532 71.1592C87.2856 70.9106 87.5093 70.7041 87.6971 70.5017C87.5883 70.4149 87.425 70.2718 87.2331 70.0966C87.1504 69.7537 87.024 69.413 86.819 69.0739C86.6666 68.8279 86.6177 68.5402 86.598 68.2494C86.8716 67.8827 86.8965 67.7209 86.6915 67.697C86.0129 67.6024 86.0591 67.2699 86.8346 66.7243C86.9662 66.7832 87.1436 66.7768 87.3989 66.7019C87.8749 66.5547 88.4492 66.2099 89.0765 65.6829C89.0791 65.9669 89.0567 66.1261 89.0474 66.1902C89.4459 66.1127 89.8063 66.0679 90.085 66.059C90.2296 66.0508 90.2453 65.9248 90.1391 65.6472C90.0273 65.4 90.0627 65.0832 90.2364 64.7004C90.0638 64.6427 90.0783 64.4824 90.2729 64.2271C90.2666 63.8182 90.29 63.311 90.3336 62.8059C90.6229 62.5205 90.6255 62.2078 90.3336 61.8593C90.5121 61.7344 90.6885 61.737 90.9068 61.8619C91.154 61.7381 91.3328 61.7407 91.4052 61.8645C92.0798 61.6502 92.6146 61.6569 93.013 61.8723C93.1182 61.7501 93.2959 61.7527 93.5497 61.8749C93.6891 61.7251 93.8967 61.4213 94.0834 60.9718C94.1624 61.0941 94.341 61.0941 94.5818 60.9797C94.7118 60.7706 94.6895 60.472 94.508 60.0762C93.9768 59.762 93.5851 59.4452 93.3313 59.1321C93.5009 58.5917 93.7968 58.3066 94.2437 58.2712C94.7092 57.9659 94.7841 57.6793 94.5106 57.3968C94.3134 57.001 94.3044 56.7065 94.4882 56.5142C94.6161 56.525 94.7435 56.5355 94.871 56.5433C94.3436 56.0081 93.9019 55.6793 93.5654 55.5623C93.2631 55.5664 93.0906 55.5519 93.0119 55.5165C93.0183 55.8701 92.8751 55.9793 92.6541 55.9018C92.3503 55.7885 92.0034 55.7624 91.6143 55.8239C91.5051 55.9358 91.3668 55.774 91.1488 55.364Z" fill="url(#paint4_linear)"/>
<path fill-rule="evenodd" clip-rule="evenodd" d="M46.02 89.4482C45.8188 89.7862 45.7783 90.1005 45.6807 90.449C45.2135 92.1195 46.0137 93.9762 47.1381 95.1959C48.1266 96.2682 49.0801 97.3856 50.0225 98.499C51.3907 100.116 52.7993 101.771 54.1086 103.435C55.4832 105.183 57.835 106.018 60.0066 105.582C61.6408 105.255 63.2844 103.552 64.0616 102.155L64.4751 101.411C64.613 101.659 64.7508 101.907 64.8887 102.155C65.6659 103.552 67.3095 105.255 68.9436 105.582C71.1151 106.018 73.4671 105.183 74.8417 103.435C76.151 101.771 77.5595 100.116 78.9276 98.499C79.8701 97.3856 80.8237 96.2682 81.8122 95.1959C82.9364 93.9762 83.7367 92.1195 83.2694 90.449C83.172 90.1005 83.1314 89.7862 82.9303 89.4482C81.1421 86.6329 79.2912 83.862 77.3957 81.146C79.3611 83.8145 81.3926 86.4582 83.4865 89.057C83.7421 89.3561 84.0267 89.4953 84.3255 89.6996C85.7577 90.6782 87.773 90.5161 89.2889 89.8426C90.6218 89.2504 91.986 88.7058 93.3429 88.1706C95.3131 87.3937 97.3328 86.5907 99.3292 85.8847C101.425 85.1436 102.971 83.1838 103.256 80.9876C103.47 79.3347 102.385 77.2316 101.31 76.0469C101.12 75.8369 100.929 75.6267 100.739 75.4167L101.576 75.2637C103.149 74.976 105.289 73.9657 106.124 72.5232C107.232 70.6059 107.196 68.1105 105.983 66.2478C104.827 64.4737 103.711 62.6084 102.619 60.7938C101.867 59.544 101.114 58.2822 100.416 57.0019C99.6216 55.5457 98.12 54.1918 96.3879 54.0984C96.0266 54.0789 95.7159 54.0165 95.3313 54.0985C94.8772 54.2092 94.4236 54.3215 93.9703 54.435C94.246 54.5325 94.5151 54.686 94.7703 54.8675C97.5731 54.5385 98.5466 56.0545 100.11 58.6468C101.068 60.2439 105.481 66.972 104.827 69.6453C104.686 70.4862 104.341 71.973 102.91 72.8613C101.772 73.6311 100.067 73.7789 98.3605 72.9752C94.783 71.1667 95.9806 67.0344 98.9724 66.7802C95.9289 64.9931 93.1146 68.9894 95.3721 72.1847C93.6058 71.0234 92.5642 70.6612 91.0406 72.1306C91.3572 74.2236 92.4044 74.5692 94.5128 74.7208C90.7781 75.8857 90.5833 80.7698 94.0864 81.2006C91.8654 79.1802 93.4262 75.171 97.3664 75.9097C99.2096 76.3085 100.474 77.4623 100.909 78.7656C101.505 80.3407 100.876 81.7308 100.477 82.4845C99.371 85.0047 91.7776 87.6648 90.0457 88.3504C86.7823 89.6341 85.0253 90.2528 82.5151 86.9695L76.2457 79.0883C76.1123 78.9617 75.9321 78.9358 75.8609 78.972C75.7856 78.9753 75.7205 79.192 75.8125 79.3914L81.2649 87.8582C83.5688 91.2895 82.419 92.7549 80.1561 95.4339C78.9509 96.8541 73.9948 103.192 71.2532 103.431C70.4113 103.567 68.8926 103.717 67.5921 102.647C66.4977 101.816 65.8105 100.249 66.0243 98.3751C66.5891 94.4063 70.8871 94.2145 72.0878 96.9665C72.8038 93.5104 68.1158 92.1275 65.8141 95.2909C66.347 93.2453 66.3557 92.1424 64.4751 91.1711C62.5945 92.1424 62.6032 93.2453 63.1363 95.2909C60.8345 92.1275 56.1464 93.5104 56.8623 96.9665C58.0632 94.2145 62.3612 94.4063 62.926 98.3751C63.1396 100.249 62.4526 101.816 61.3581 102.647C60.0576 103.717 58.5389 103.567 57.697 103.431C54.9554 103.192 49.9994 96.8541 48.7941 95.4339C46.5311 92.7549 45.3815 91.2895 47.6854 87.8582L53.1378 79.3914C53.2247 79.203 53.1713 78.9994 53.1017 78.9745L53.1189 78.9506C53.0916 78.8804 52.8654 78.8882 52.7062 79.0392L46.437 86.9204C43.9265 90.2037 42.1698 89.585 38.9063 88.3013C37.1745 87.6156 29.581 84.9556 28.4753 82.4354C28.0763 81.6818 27.4466 80.2916 28.0427 78.7165C28.4784 77.4132 29.7425 76.2594 31.5857 75.8606C35.5258 75.1219 37.0865 79.1313 34.8655 81.1516C38.3686 80.7207 38.174 75.8367 34.4392 74.6717C36.5475 74.5202 37.5949 74.1745 37.9115 72.0815C36.3879 70.6121 35.3462 70.9743 33.5798 72.1356C35.8373 68.9403 33.0231 64.944 29.9795 66.7311C32.9713 66.9853 34.169 71.1176 30.5914 72.9261C28.8853 73.7298 27.1802 73.5821 26.0422 72.8122C24.6114 71.9237 24.2664 70.4372 24.125 69.5962C23.4713 66.9229 27.8837 60.195 28.8421 58.5977C30.2989 56.1822 31.2434 54.7014 33.6329 54.7767C33.7139 54.6923 33.8067 54.6175 33.9128 54.5545C34.0325 54.4433 34.1604 54.3281 34.294 54.2147C34.0697 54.1593 33.8453 54.1042 33.6209 54.0495C33.2361 53.9674 32.9256 54.0298 32.564 54.0493C30.8319 54.1427 29.3303 55.4966 28.5359 56.9528C27.8376 58.2331 27.0853 59.4949 26.3333 60.7448C25.2411 62.5593 24.1255 64.4246 22.9693 66.1987C21.7557 68.0614 21.7195 70.557 22.8284 72.474C23.6631 73.9166 25.8032 74.9269 27.3762 75.2146L28.2133 75.3676C28.0227 75.5777 27.8322 75.7878 27.6416 75.9979C26.5673 77.1825 25.4822 79.2856 25.6963 80.9385C25.9811 83.1349 27.5267 85.0944 29.6227 85.8356C31.6191 86.5416 33.6388 87.3445 35.609 88.1215C36.9659 88.6567 38.3302 89.2014 39.663 89.7935C41.179 90.4669 43.1943 90.6291 44.6265 89.6505C44.9253 89.4462 45.21 89.307 45.4655 89.008C47.8437 86.0564 50.1414 83.0468 52.3528 80.0089C50.1782 83.0873 48.0586 86.2388 46.02 89.4482ZM29.4013 93.8294C28.9501 91.8864 29.5614 90.0223 29.5614 90.0223L42.8471 94.5596L52.3082 106.094C52.3082 106.094 51.4922 107.21 49.7208 107.876C43.0513 105.59 37.0778 101.8 32.2028 96.9084C31.2235 95.9255 30.2891 94.8978 29.4013 93.8294ZM99.5992 93.8294C100.05 91.8864 99.4392 90.0223 99.4392 90.0223L86.1534 94.5596L76.6924 106.094C76.6924 106.094 77.5083 107.21 79.2796 107.876C85.9492 105.59 91.9229 101.8 96.7976 96.9084C97.777 95.9255 98.7115 94.8978 99.5992 93.8294ZM64.5003 27.3297L78.5273 23.0228C78.5273 23.0228 78.0098 21.8859 77.0219 20.4138C73.043 19.2787 68.8426 18.6704 64.5003 18.6699C60.1579 18.6704 55.9576 19.2787 51.9786 20.4138C50.9908 21.8859 50.4733 23.0228 50.4733 23.0228L64.5003 27.3297ZM102.613 39.232C107.151 46.1126 109.888 54.2957 110.15 63.1037C109.003 64.5343 108.029 65.3993 108.029 65.3993L99.9612 53.0395L98.8171 38.2373C98.8171 38.2373 100.96 38.7424 102.613 39.232ZM26.3879 39.232C21.8497 46.1126 19.1127 54.2957 18.8504 63.1037C19.9975 64.5343 20.9713 65.3993 20.9713 65.3993L29.0394 53.0395L30.1834 38.2373C30.1834 38.2373 28.0402 38.7424 26.3879 39.232ZM92.5207 53.9817C93.3373 53.6606 94.1524 53.3346 94.966 53.0034C95.3258 52.8445 95.541 52.6121 95.8226 52.3845C97.1716 51.2942 97.5958 49.3176 97.3868 47.6718C97.2029 46.2251 97.0737 44.7618 96.9512 43.3082C96.7735 41.1978 96.5853 39.0324 96.4833 36.9173C96.3761 34.6966 94.9438 32.6528 92.922 31.7486C91.4006 31.0681 89.0743 31.5026 87.6309 32.1911L86.8628 32.5573C86.8941 32.2754 86.9256 31.9935 86.957 31.7116C87.1338 30.1222 86.7817 27.782 85.64 26.5678C84.1227 24.9542 81.7223 24.2713 79.5893 24.8982C77.5576 25.4954 75.4503 26.0276 73.3984 26.5518C71.985 26.9127 70.5602 27.2704 69.1333 27.5711C67.51 27.9132 65.7817 28.9621 65.194 30.5942C65.0714 30.9347 64.9223 31.2142 64.8903 31.6063C64.6835 35.5446 64.5839 39.4828 64.5774 43.3898C64.571 39.488 64.4714 35.5555 64.2649 31.6225C64.2328 31.2305 64.0837 30.9509 63.9612 30.6103C63.3734 28.9782 61.6452 27.9294 60.0218 27.5872C58.595 27.2866 57.1701 26.9288 55.7567 26.5679C53.7047 26.0436 51.5975 25.5115 49.5658 24.9144C47.4329 24.2875 45.0324 24.9704 43.5151 26.5838C42.3735 27.7981 42.0212 30.1383 42.1982 31.7277C42.2296 32.0096 42.2609 32.2915 42.2924 32.5734L41.5242 32.2071C40.0808 31.5189 37.7545 31.0844 36.2331 31.7648C34.2114 32.669 32.7791 34.7129 32.6719 36.9335C32.5698 39.0486 32.3817 41.2138 32.2041 43.3243C32.0815 44.7779 31.9521 46.2412 31.7684 47.688C31.5594 49.3336 31.9834 51.3104 33.3326 52.4007C33.6141 52.6281 33.8294 52.8607 34.1892 53.0196C34.481 53.1383 34.7729 53.2564 35.0651 53.3739L35.0871 53.3118L35.4344 53.0898C35.4902 53.0543 35.5464 53.0196 35.603 52.9856C32.6175 51.5766 32.7125 49.7452 32.9799 46.534C33.1386 44.6782 33.5028 36.6405 35.5984 34.8568C36.2055 34.2579 37.3559 33.2551 39.036 33.3729C40.4093 33.4155 41.8779 34.2946 42.7899 35.9452C44.6303 39.5066 41.2393 42.1544 38.6656 40.608C40.0857 43.8392 44.7074 42.2484 44.7491 38.3362C45.5005 40.3121 46.1327 41.2158 48.2283 40.9171C49.1976 39.0355 48.5511 38.1419 46.9311 36.7841C50.6404 38.0274 53.6588 34.1827 51.0719 31.7817C51.6887 34.7201 48.0755 37.0556 45.3145 34.149C44.0542 32.7463 43.7054 31.0706 44.1155 29.7592C44.555 28.1334 45.8795 27.3753 46.6444 26.9982C49.0166 25.6032 56.7292 27.8948 58.5346 28.3534C61.9314 29.2244 63.7177 29.7521 63.8295 33.8835L64.2948 43.9434C64.3355 44.1591 64.5141 44.2978 64.5774 44.257L64.5776 44.222V44.2408C64.6411 44.2817 64.8197 44.1429 64.8603 43.9271L65.3256 33.8674C65.4373 29.7359 67.2236 29.2083 70.6206 28.3373C72.4259 27.8787 80.1385 25.5872 82.5107 26.9821C83.2756 27.3593 84.6002 28.1172 85.0395 29.743C85.4498 31.0544 85.101 32.73 83.8406 34.133C81.0797 37.0394 77.4664 34.704 78.0833 31.7655C75.4964 34.1667 78.5147 38.0112 82.2241 36.7679C80.604 38.1256 79.9576 39.0193 80.9269 40.901C83.0224 41.1997 83.6545 40.2959 84.4061 38.3202C84.4478 42.2323 89.0695 43.823 90.4895 40.5919C87.9158 42.1382 84.5248 39.4904 86.3651 35.9291C87.2772 34.2784 88.7459 33.3994 90.1192 33.3569C91.7992 33.239 92.9497 34.2417 93.5567 34.8406C95.6524 36.6244 96.0166 44.6621 96.1752 46.5179C96.4663 50.0128 96.5536 51.8733 92.6873 53.3336L91.8364 53.6737L92.5207 53.9817Z" fill="#FEFEFE"/>
<path fill-rule="evenodd" clip-rule="evenodd" d="M46.02 89.4482C45.8188 89.7862 45.7783 90.1005 45.6807 90.449C45.2135 92.1195 46.0137 93.9762 47.1381 95.1959C48.1266 96.2682 49.0801 97.3856 50.0225 98.499C51.3907 100.116 52.7993 101.771 54.1086 103.435C55.4832 105.183 57.835 106.018 60.0066 105.582C61.6408 105.255 63.2844 103.552 64.0616 102.155L64.4751 101.411C64.613 101.659 64.7508 101.907 64.8887 102.155C65.6659 103.552 67.3095 105.255 68.9436 105.582C71.1151 106.018 73.4671 105.183 74.8417 103.435C76.151 101.771 77.5595 100.116 78.9276 98.499C79.8701 97.3856 80.8237 96.2682 81.8122 95.1959C82.9364 93.9762 83.7367 92.1195 83.2694 90.449C83.172 90.1005 83.1314 89.7862 82.9303 89.4482C81.1421 86.6329 79.2912 83.862 77.3957 81.146C79.3611 83.8145 81.3926 86.4582 83.4865 89.057C83.7421 89.3561 84.0267 89.4953 84.3255 89.6996C85.7577 90.6782 87.773 90.5161 89.2889 89.8426C90.6218 89.2504 91.986 88.7058 93.3429 88.1706C95.3131 87.3937 97.3328 86.5907 99.3292 85.8847C101.425 85.1436 102.971 83.1838 103.256 80.9876C103.47 79.3347 102.385 77.2316 101.31 76.0469C101.12 75.8369 100.929 75.6267 100.739 75.4167L101.576 75.2637C103.149 74.976 105.289 73.9657 106.124 72.5232C107.232 70.6059 107.196 68.1105 105.983 66.2478C104.827 64.4737 103.711 62.6084 102.619 60.7938C101.867 59.544 101.114 58.2822 100.416 57.0019C99.6216 55.5457 98.12 54.1918 96.3879 54.0984C96.0266 54.0789 95.7159 54.0165 95.3313 54.0985C94.8772 54.2092 94.4236 54.3215 93.9703 54.435C94.246 54.5325 94.5151 54.686 94.7703 54.8675C97.5731 54.5385 98.5466 56.0545 100.11 58.6468C101.068 60.2439 105.481 66.972 104.827 69.6453C104.686 70.4862 104.341 71.973 102.91 72.8613C101.772 73.6311 100.067 73.7789 98.3605 72.9752C94.783 71.1667 95.9806 67.0344 98.9724 66.7802C95.9289 64.9931 93.1146 68.9894 95.3721 72.1847C93.6058 71.0234 92.5642 70.6612 91.0406 72.1306C91.3572 74.2236 92.4044 74.5692 94.5128 74.7208C90.7781 75.8857 90.5833 80.7698 94.0864 81.2006C91.8654 79.1802 93.4262 75.171 97.3664 75.9097C99.2096 76.3085 100.474 77.4623 100.909 78.7656C101.505 80.3407 100.876 81.7308 100.477 82.4845C99.371 85.0047 91.7776 87.6648 90.0457 88.3504C86.7823 89.6341 85.0253 90.2528 82.5151 86.9695L76.2457 79.0883C76.1123 78.9617 75.9321 78.9358 75.8609 78.972C75.7856 78.9753 75.7205 79.192 75.8125 79.3914L81.2649 87.8582C83.5688 91.2895 82.419 92.7549 80.1561 95.4339C78.9509 96.8541 73.9948 103.192 71.2532 103.431C70.4113 103.567 68.8926 103.717 67.5921 102.647C66.4977 101.816 65.8105 100.249 66.0243 98.3751C66.5891 94.4063 70.8871 94.2145 72.0878 96.9665C72.8038 93.5104 68.1158 92.1275 65.8141 95.2909C66.347 93.2453 66.3557 92.1424 64.4751 91.1711C62.5945 92.1424 62.6032 93.2453 63.1363 95.2909C60.8345 92.1275 56.1464 93.5104 56.8623 96.9665C58.0632 94.2145 62.3612 94.4063 62.926 98.3751C63.1396 100.249 62.4526 101.816 61.3581 102.647C60.0576 103.717 58.5389 103.567 57.697 103.431C54.9554 103.192 49.9994 96.8541 48.7941 95.4339C46.5311 92.7549 45.3815 91.2895 47.6854 87.8582L53.1378 79.3914C53.2247 79.203 53.1713 78.9994 53.1017 78.9745L53.1189 78.9506C53.0916 78.8804 52.8654 78.8882 52.7062 79.0392L46.437 86.9204C43.9265 90.2037 42.1698 89.585 38.9063 88.3013C37.1745 87.6156 29.581 84.9556 28.4753 82.4354C28.0763 81.6818 27.4466 80.2916 28.0427 78.7165C28.4784 77.4132 29.7425 76.2594 31.5857 75.8606C35.5258 75.1219 37.0865 79.1313 34.8655 81.1516C38.3686 80.7207 38.174 75.8367 34.4392 74.6717C36.5475 74.5202 37.5949 74.1745 37.9115 72.0815C36.3879 70.6121 35.3462 70.9743 33.5798 72.1356C35.8373 68.9403 33.0231 64.944 29.9795 66.7311C32.9713 66.9853 34.169 71.1176 30.5914 72.9261C28.8853 73.7298 27.1802 73.5821 26.0422 72.8122C24.6114 71.9237 24.2664 70.4372 24.125 69.5962C23.4713 66.9229 27.8837 60.195 28.8421 58.5977C30.2989 56.1822 31.2434 54.7014 33.6329 54.7767C33.7139 54.6923 33.8067 54.6175 33.9128 54.5545C34.0325 54.4433 34.1604 54.3281 34.294 54.2147C34.0697 54.1593 33.8453 54.1042 33.6209 54.0495C33.2361 53.9674 32.9256 54.0298 32.564 54.0493C30.8319 54.1427 29.3303 55.4966 28.5359 56.9528C27.8376 58.2331 27.0853 59.4949 26.3333 60.7448C25.2411 62.5593 24.1255 64.4246 22.9693 66.1987C21.7557 68.0614 21.7195 70.557 22.8284 72.474C23.6631 73.9166 25.8032 74.9269 27.3762 75.2146L28.2133 75.3676C28.0227 75.5777 27.8322 75.7878 27.6416 75.9979C26.5673 77.1825 25.4822 79.2856 25.6963 80.9385C25.9811 83.1349 27.5267 85.0944 29.6227 85.8356C31.6191 86.5416 33.6388 87.3445 35.609 88.1215C36.9659 88.6567 38.3302 89.2014 39.663 89.7935C41.179 90.4669 43.1943 90.6291 44.6265 89.6505C44.9253 89.4462 45.21 89.307 45.4655 89.008C47.8437 86.0564 50.1414 83.0468 52.3528 80.0089C50.1782 83.0873 48.0586 86.2388 46.02 89.4482ZM29.4013 93.8294C28.9501 91.8864 29.5614 90.0223 29.5614 90.0223L42.8471 94.5596L52.3082 106.094C52.3082 106.094 51.4922 107.21 49.7208 107.876C43.0513 105.59 37.0778 101.8 32.2028 96.9084C31.2235 95.9255 30.2891 94.8978 29.4013 93.8294ZM99.5992 93.8294C100.05 91.8864 99.4392 90.0223 99.4392 90.0223L86.1534 94.5596L76.6924 106.094C76.6924 106.094 77.5083 107.21 79.2796 107.876C85.9492 105.59 91.9229 101.8 96.7976 96.9084C97.777 95.9255 98.7115 94.8978 99.5992 93.8294ZM64.5003 27.3297L78.5273 23.0228C78.5273 23.0228 78.0098 21.8859 77.0219 20.4138C73.043 19.2787 68.8426 18.6704 64.5003 18.6699C60.1579 18.6704 55.9576 19.2787 51.9786 20.4138C50.9908 21.8859 50.4733 23.0228 50.4733 23.0228L64.5003 27.3297ZM102.613 39.232C107.151 46.1126 109.888 54.2957 110.15 63.1037C109.003 64.5343 108.029 65.3993 108.029 65.3993L99.9612 53.0395L98.8171 38.2373C98.8171 38.2373 100.96 38.7424 102.613 39.232ZM26.3879 39.232C21.8497 46.1126 19.1127 54.2957 18.8504 63.1037C19.9975 64.5343 20.9713 65.3993 20.9713 65.3993L29.0394 53.0395L30.1834 38.2373C30.1834 38.2373 28.0402 38.7424 26.3879 39.232ZM92.5207 53.9817C93.3373 53.6606 94.1524 53.3346 94.966 53.0034C95.3258 52.8445 95.541 52.6121 95.8226 52.3845C97.1716 51.2942 97.5958 49.3176 97.3868 47.6718C97.2029 46.2251 97.0737 44.7618 96.9512 43.3082C96.7735 41.1978 96.5853 39.0324 96.4833 36.9173C96.3761 34.6966 94.9438 32.6528 92.922 31.7486C91.4006 31.0681 89.0743 31.5026 87.6309 32.1911L86.8628 32.5573C86.8941 32.2754 86.9256 31.9935 86.957 31.7116C87.1338 30.1222 86.7817 27.782 85.64 26.5678C84.1227 24.9542 81.7223 24.2713 79.5893 24.8982C77.5576 25.4954 75.4503 26.0276 73.3984 26.5518C71.985 26.9127 70.5602 27.2704 69.1333 27.5711C67.51 27.9132 65.7817 28.9621 65.194 30.5942C65.0714 30.9347 64.9223 31.2142 64.8903 31.6063C64.6835 35.5446 64.5839 39.4828 64.5774 43.3898C64.571 39.488 64.4714 35.5555 64.2649 31.6225C64.2328 31.2305 64.0837 30.9509 63.9612 30.6103C63.3734 28.9782 61.6452 27.9294 60.0218 27.5872C58.595 27.2866 57.1701 26.9288 55.7567 26.5679C53.7047 26.0436 51.5975 25.5115 49.5658 24.9144C47.4329 24.2875 45.0324 24.9704 43.5151 26.5838C42.3735 27.7981 42.0212 30.1383 42.1982 31.7277C42.2296 32.0096 42.2609 32.2915 42.2924 32.5734L41.5242 32.2071C40.0808 31.5189 37.7545 31.0844 36.2331 31.7648C34.2114 32.669 32.7791 34.7129 32.6719 36.9335C32.5698 39.0486 32.3817 41.2138 32.2041 43.3243C32.0815 44.7779 31.9521 46.2412 31.7684 47.688C31.5594 49.3336 31.9834 51.3104 33.3326 52.4007C33.6141 52.6281 33.8294 52.8607 34.1892 53.0196C34.481 53.1383 34.7729 53.2564 35.0651 53.3739L35.0871 53.3118L35.4344 53.0898C35.4902 53.0543 35.5464 53.0196 35.603 52.9856C32.6175 51.5766 32.7125 49.7452 32.9799 46.534C33.1386 44.6782 33.5028 36.6405 35.5984 34.8568C36.2055 34.2579 37.3559 33.2551 39.036 33.3729C40.4093 33.4155 41.8779 34.2946 42.7899 35.9452C44.6303 39.5066 41.2393 42.1544 38.6656 40.608C40.0857 43.8392 44.7074 42.2484 44.7491 38.3362C45.5005 40.3121 46.1327 41.2158 48.2283 40.9171C49.1976 39.0355 48.5511 38.1419 46.9311 36.7841C50.6404 38.0274 53.6588 34.1827 51.0719 31.7817C51.6887 34.7201 48.0755 37.0556 45.3145 34.149C44.0542 32.7463 43.7054 31.0706 44.1155 29.7592C44.555 28.1334 45.8795 27.3753 46.6444 26.9982C49.0166 25.6032 56.7292 27.8948 58.5346 28.3534C61.9314 29.2244 63.7177 29.7521 63.8295 33.8835L64.2948 43.9434C64.3355 44.1591 64.5141 44.2978 64.5774 44.257L64.5776 44.222V44.2408C64.6411 44.2817 64.8197 44.1429 64.8603 43.9271L65.3256 33.8674C65.4373 29.7359 67.2236 29.2083 70.6206 28.3373C72.4259 27.8787 80.1385 25.5872 82.5107 26.9821C83.2756 27.3593 84.6002 28.1172 85.0395 29.743C85.4498 31.0544 85.101 32.73 83.8406 34.133C81.0797 37.0394 77.4664 34.704 78.0833 31.7655C75.4964 34.1667 78.5147 38.0112 82.2241 36.7679C80.604 38.1256 79.9576 39.0193 80.9269 40.901C83.0224 41.1997 83.6545 40.2959 84.4061 38.3202C84.4478 42.2323 89.0695 43.823 90.4895 40.5919C87.9158 42.1382 84.5248 39.4904 86.3651 35.9291C87.2772 34.2784 88.7459 33.3994 90.1192 33.3569C91.7992 33.239 92.9497 34.2417 93.5567 34.8406C95.6524 36.6244 96.0166 44.6621 96.1752 46.5179C96.4663 50.0128 96.5536 51.8733 92.6873 53.3336L91.8364 53.6737L92.5207 53.9817Z" fill="url(#paint5_linear)"/>
<path d="M13.6936 80.73L8.35511 82.1201L7.71766 79.6723C7.60376 79.2348 7.57123 78.8473 7.61973 78.5085C7.66657 78.1686 7.79288 77.8879 7.99831 77.6649C8.20242 77.4422 8.47907 77.2847 8.82453 77.1948C9.12335 77.117 9.41284 77.1128 9.69266 77.1809C9.97253 77.2491 10.2092 77.3812 10.4017 77.5789C10.5547 77.7399 10.6819 77.9219 10.7822 78.1265C10.8828 78.3325 10.9757 78.5961 11.0604 78.9215L11.2872 79.7926L13.3122 79.2653L13.6936 80.73ZM8.99016 80.3908L10.2308 80.0677L10.0435 79.3487C9.9716 79.0726 9.87182 78.8863 9.74551 78.7896C9.61915 78.6929 9.44879 78.6732 9.23408 78.7291C9.01795 78.7854 8.87484 78.8867 8.80241 79.0352C8.73129 79.1833 8.731 79.3956 8.80289 79.6718L8.99016 80.3908ZM12.3647 75.5077L6.9012 76.2708L6.56712 73.879C6.49659 73.3738 6.4901 72.9489 6.54749 72.6026C6.59701 72.2993 6.73876 72.0387 6.97418 71.8206C7.20955 71.6027 7.48756 71.4706 7.80973 71.4256C8.20154 71.3709 8.5454 71.4509 8.8385 71.666C9.00383 71.7835 9.1699 71.9761 9.33494 72.2411L11.7206 70.8961L11.9553 72.5766L9.79963 73.6446L9.8957 74.3326L12.1565 74.0169L12.3647 75.5077ZM7.73324 74.6347L8.87181 74.4756L8.74824 73.591C8.71849 73.378 8.64474 73.2186 8.52693 73.1125C8.40912 73.0065 8.26011 72.9661 8.07992 72.9913C7.89974 73.0164 7.76865 73.0946 7.68694 73.2271C7.60508 73.3582 7.57939 73.533 7.60967 73.75L7.73324 74.6347ZM8.8282 70.6056C8.24951 70.6488 7.73729 70.5834 7.29038 70.4109C6.84474 70.2368 6.49312 69.9715 6.2368 69.6118C5.98057 69.2537 5.83419 68.8306 5.79775 68.3426C5.76781 67.9425 5.81284 67.5826 5.93402 67.2625C6.05525 66.9424 6.23665 66.669 6.47803 66.4408C6.71824 66.2141 6.99933 66.0356 7.3215 65.9078C7.64225 65.7788 7.98888 65.7004 8.36004 65.6726C8.76143 65.6426 9.14435 65.6624 9.50638 65.7334C9.86967 65.8044 10.1942 65.9295 10.4784 66.1086C10.7628 66.2878 10.9951 66.5303 11.1741 66.8349C11.3531 67.1395 11.4575 67.5008 11.4887 67.9172C11.5145 68.2636 11.4795 68.5911 11.3825 68.9011C11.2853 69.2097 11.1263 69.4869 10.904 69.7302C10.6831 69.9748 10.398 70.1731 10.0499 70.3249C9.70048 70.4768 9.2942 70.5708 8.8282 70.6056ZM8.70985 69.022C9.87558 68.9349 10.4362 68.5944 10.3917 67.9992C10.3668 67.6665 10.1874 67.4491 9.85487 67.3454C9.52093 67.2418 9.06533 67.2123 8.48659 67.2555C7.38143 67.3381 6.85085 67.6736 6.89471 68.2606C6.91102 68.4791 6.99567 68.6498 7.14708 68.7711C7.29981 68.891 7.50749 68.9695 7.77012 69.0065C8.03279 69.0436 8.34558 69.0492 8.70985 69.022ZM11.1947 64.6686L5.68365 64.422L5.86183 60.4396L7.01857 60.4913L6.90804 62.9618L7.94082 63.008L8.01179 61.4216L9.16853 61.4733L9.09756 63.0597L11.2623 63.1566L11.1947 64.6686ZM11.4332 60.1221L5.9476 59.5388L6.3674 55.5911L7.51882 55.7136L7.25907 58.1562L8.23774 58.2602L8.40302 56.7058L9.55444 56.8282L9.38915 58.3827L10.4419 58.4946L10.7137 55.9382L11.8651 56.0607L11.4332 60.1221ZM11.0311 55.4433L10.5193 54.3682C10.7968 54.2782 11.0118 54.1459 11.1653 53.9728C11.3189 53.7998 11.4298 53.5648 11.4973 53.2663C11.5543 53.0135 11.5555 52.8018 11.4994 52.6308C11.4433 52.4599 11.3407 52.3576 11.1928 52.3242C10.9992 52.2805 10.8158 52.4101 10.6402 52.7125C10.4642 53.0161 10.2885 53.3312 10.1095 53.6609C9.93067 53.9894 9.69598 54.253 9.40556 54.4502C9.11485 54.6488 8.73163 54.6938 8.25561 54.5863C7.92348 54.5113 7.6464 54.3554 7.42294 54.1185C7.19944 53.8815 7.05062 53.5892 6.97706 53.2391C6.90213 52.8887 6.91058 52.5133 7.00045 52.1153C7.18537 51.2965 7.60859 50.7236 8.2709 50.3941L8.77818 51.4145C8.55546 51.5309 8.38715 51.6568 8.27422 51.7938C8.16027 51.9292 8.08002 52.1033 8.03235 52.3144C7.9841 52.5282 7.98737 52.714 8.0411 52.8703C8.09585 53.0282 8.18796 53.1211 8.31701 53.1502C8.50525 53.1927 8.68123 53.0643 8.84461 52.7663C9.00798 52.4683 9.1782 52.1464 9.35789 51.8011C9.53622 51.4556 9.7731 51.1827 10.0687 50.9809C10.3658 50.7795 10.7577 50.7337 11.2484 50.8445C11.6074 50.9256 11.9034 51.0857 12.1352 51.3231C12.3671 51.5606 12.5201 51.8594 12.5948 52.2168C12.6696 52.5743 12.6591 52.9648 12.5631 53.3897C12.3142 54.4922 11.8035 55.1768 11.0311 55.4433ZM12.1724 50.5135L11.7237 49.4105C12.0059 49.3368 12.2283 49.2171 12.3916 49.0533C12.5549 48.8894 12.6793 48.6613 12.7639 48.3672C12.8355 48.1181 12.849 47.9068 12.803 47.7329C12.7569 47.5591 12.6603 47.4509 12.5146 47.409C12.3238 47.3541 12.1333 47.4729 11.9404 47.7646C11.7471 48.0575 11.5534 48.3618 11.3556 48.6807C11.1581 48.9982 10.9085 49.2477 10.6071 49.4278C10.3053 49.6092 9.92017 49.6318 9.45118 49.4969C9.12399 49.4028 8.85638 49.2312 8.64704 48.9816C8.4377 48.7321 8.30607 48.4317 8.25293 48.0779C8.19847 47.7237 8.22865 47.3495 8.34148 46.9573C8.57353 46.1506 9.02928 45.6033 9.70961 45.3127L10.1569 46.3608C9.92774 46.4641 9.7524 46.5801 9.63176 46.7103C9.51014 46.8388 9.41992 47.0079 9.36009 47.216C9.29948 47.4266 9.29196 47.6123 9.33655 47.7714C9.38207 47.9323 9.46862 48.0303 9.59581 48.0669C9.78126 48.1202 9.96437 48.0022 10.1447 47.7141C10.3251 47.4261 10.5138 47.1146 10.7131 46.7804C10.9112 46.4458 11.1635 46.187 11.4704 46.0028C11.7786 45.819 12.1725 45.796 12.656 45.9351C13.0097 46.0368 13.2958 46.2138 13.5135 46.4643C13.7312 46.7148 13.8666 47.022 13.9205 47.3831C13.9744 47.7443 13.9413 48.1336 13.8209 48.5521C13.5084 49.6385 12.9589 50.2922 12.1724 50.5135ZM14.6599 45.7635L9.51702 43.7676L10.0646 42.3566L15.2074 44.3525L14.6599 45.7635ZM13.0245 42.3213C12.5047 42.0633 12.0975 41.7457 11.8011 41.3693C11.5066 40.9923 11.3395 40.5846 11.3026 40.1446C11.2649 39.7058 11.3548 39.2672 11.5724 38.8289C11.7508 38.4696 11.9731 38.1829 12.2406 37.9695C12.5082 37.756 12.8037 37.6133 13.1277 37.5403C13.4499 37.4679 13.7828 37.4577 14.125 37.5121C14.4667 37.5648 14.8049 37.6741 15.1382 37.8396C15.4988 38.0186 15.8181 38.231 16.0932 38.4767C16.3694 38.7231 16.5848 38.9962 16.7379 39.2954C16.891 39.5945 16.9671 39.9216 16.9657 40.2749C16.9643 40.6282 16.8698 40.9921 16.6841 41.3663C16.5297 41.6774 16.3325 41.9412 16.0909 42.1582C15.8499 42.3741 15.5717 42.5315 15.2563 42.6273C14.9416 42.7251 14.5952 42.7501 14.2184 42.7031C13.8404 42.6555 13.443 42.529 13.0245 42.3213ZM13.7305 40.8989C14.7776 41.4186 15.4334 41.4118 15.6988 40.8772C15.8471 40.5784 15.8038 40.2998 15.5706 40.041C15.3362 39.7815 14.9595 39.5237 14.4396 39.2656C13.447 38.7729 12.8194 38.7908 12.5577 39.318C12.4603 39.5143 12.446 39.7042 12.5144 39.8859C12.5845 40.0669 12.7231 40.2403 12.9302 40.4062C13.1371 40.572 13.4033 40.7365 13.7305 40.8989ZM17.972 38.4512L13.3432 35.4502L14.0946 34.2912L17.5101 34.1795L15.1564 32.6535L15.8043 31.6541L20.4331 34.6551L19.7852 35.6545L15.9922 35.7581L18.6154 37.4587L17.972 38.4512ZM20.6722 34.2004L17.3341 29.4775L18.3809 28.1019L23.8076 30.0804L22.8551 31.3319L21.7969 30.9198L20.745 32.3019L21.4277 33.2077L20.6722 34.2004ZM20.0339 31.3243L20.6843 30.4698L18.8842 29.7737L20.0339 31.3243ZM24.1839 29.7321L20.1261 25.9949L21.1515 24.8816L24.3576 27.8344L25.9544 26.1005L26.8062 26.8849L24.1839 29.7321ZM29.1124 24.8128L25.4466 20.6904L28.4256 18.0413L29.1951 18.9066L27.3471 20.5499L28.0341 21.3225L29.2207 20.2673L29.9902 21.1326L28.8035 22.1877L30.2434 23.807L29.1124 24.8128ZM30.6831 19.8734C30.3477 19.3999 30.1397 18.9273 30.0571 18.4553C29.9764 17.9838 30.0225 17.5457 30.1985 17.1407C30.3733 16.7365 30.6603 16.3929 31.0597 16.11C31.387 15.8781 31.7187 15.7311 32.0554 15.6699C32.3921 15.6087 32.7199 15.6232 33.0399 15.7124C33.358 15.8014 33.6559 15.9501 33.9315 16.1603C34.2074 16.3686 34.4533 16.6252 34.6685 16.9289C34.9011 17.2573 35.0817 17.5956 35.2074 17.9424C35.3338 18.2903 35.394 18.6329 35.3871 18.9688C35.3802 19.3049 35.2922 19.629 35.1235 19.9393C34.9549 20.2497 34.6991 20.5255 34.3583 20.7669C34.0748 20.9677 33.7763 21.1065 33.4606 21.1831C33.1461 21.259 32.8265 21.2657 32.5034 21.2007C32.1799 21.1376 31.8631 20.9954 31.5535 20.7755C31.2432 20.5544 30.9532 20.2547 30.6831 19.8734ZM31.9789 18.9555C32.6546 19.9094 33.2354 20.2143 33.7225 19.8693C33.9947 19.6764 34.0885 19.4106 34.0059 19.0722C33.9224 18.7327 33.7129 18.327 33.3775 17.8534C32.7368 16.9491 32.1758 16.6674 31.6955 17.0077C31.5166 17.1343 31.4141 17.2948 31.3882 17.4872C31.3642 17.6798 31.404 17.8982 31.5077 18.1424C31.6114 18.3865 31.7678 18.6574 31.9789 18.9555ZM35.4153 16.591C35.1345 16.0831 34.9803 15.5904 34.9506 15.1122C34.9228 14.6346 35.0173 14.2043 35.2372 13.8213C35.4559 13.439 35.7793 13.1295 36.2076 12.8927C36.5587 12.6987 36.9046 12.5894 37.246 12.566C37.5875 12.5426 37.9117 12.5934 38.2198 12.7176C38.526 12.8414 38.8055 13.0223 39.056 13.2618C39.3071 13.4994 39.523 13.7817 39.703 14.1075C39.8978 14.4598 40.0396 14.816 40.126 15.1747C40.2131 15.5344 40.2348 15.8815 40.1906 16.2147C40.1464 16.5478 40.0229 16.8602 39.8208 17.1499C39.6187 17.4396 39.3339 17.6852 38.9684 17.8872C38.6644 18.0553 38.3522 18.1601 38.03 18.2013C37.709 18.2416 37.3907 18.2129 37.0767 18.1123C36.7623 18.0137 36.4632 17.8372 36.18 17.5842C35.8962 17.33 35.6413 17 35.4153 16.591ZM36.805 15.8228C37.3705 16.8459 37.9139 17.2133 38.4362 16.9246C38.7282 16.7632 38.851 16.5094 38.8065 16.1639C38.7612 15.8172 38.5981 15.3908 38.3173 14.8829C37.7812 13.913 37.2549 13.5707 36.7397 13.8555C36.5479 13.9615 36.4282 14.1096 36.381 14.2978C36.3358 14.4867 36.3511 14.7081 36.427 14.9623C36.5029 15.2164 36.6283 15.5031 36.805 15.8228ZM42.5942 16.0231L40.9255 11.9966L39.5425 12.5697L39.0992 11.5L43.2633 9.77433L43.7066 10.844L42.3237 11.4172L43.9924 15.4436L42.5942 16.0231ZM46.1557 14.4909L44.4155 9.25606L47.0212 8.38983C47.4502 8.24721 47.8251 8.20389 48.1459 8.25996C48.4083 8.30207 48.634 8.39985 48.8218 8.5539C49.0095 8.70795 49.1419 8.90068 49.2188 9.1322C49.4041 9.68949 49.1983 10.2067 48.6016 10.6796C48.8684 10.6781 49.0863 10.6957 49.2554 10.7325C49.3997 10.7644 49.5308 10.8181 49.6489 10.8936C49.7688 10.97 49.8724 11.0677 49.9595 11.1855C50.0483 11.3042 50.1167 11.4354 50.1649 11.5806C50.278 11.9207 50.2834 12.2384 50.1794 12.5331C50.0754 12.8276 49.8773 13.0663 49.5843 13.2466C49.3566 13.392 49.0269 13.5364 48.5966 13.6795L46.1557 14.4909ZM47.2606 13.0167L47.8258 12.8289C48.1632 12.7167 48.383 12.6175 48.4851 12.5313C48.6521 12.3915 48.6959 12.1997 48.615 11.9564C48.5358 11.7183 48.3843 11.5857 48.1615 11.558C47.9985 11.5309 47.7718 11.5656 47.4801 11.6625L46.8771 11.863L47.2606 13.0167ZM46.5379 10.8427L47.2992 10.5896C47.553 10.5053 47.7218 10.4012 47.8047 10.2793C47.8871 10.1559 47.8956 9.99769 47.8308 9.8028C47.716 9.45749 47.4205 9.36396 46.9444 9.52225L46.1831 9.77531L46.5379 10.8427ZM50.8727 13.0086L51.3183 7.24228L53.0021 6.85178L55.9162 11.8389L54.3841 12.1942L53.8326 11.2014L52.1407 11.5938L52.0879 12.7268L50.8727 13.0086ZM52.2175 10.3874L53.2635 10.1448L52.3224 8.45988L52.2175 10.3874ZM56.4651 11.9395L55.7446 6.47022L57.2452 6.27256L57.8144 10.5938L60.1514 10.286L60.3026 11.434L56.4651 11.9395ZM60.977 11.3371L60.8731 5.82149L62.3864 5.79297L62.4685 10.1509L64.8252 10.1065L64.847 11.2641L60.977 11.3371ZM67.9395 11.3195L68.5148 5.83302L70.0201 5.99088L69.5655 10.3257L71.9098 10.5715L71.7891 11.7232L67.9395 11.3195ZM72.3516 11.8476L73.273 6.40849L77.1871 7.07153L76.9938 8.21317L74.5719 7.80295L74.4075 8.7733L75.9487 9.03436L75.7553 10.176L74.2141 9.91495L74.0373 10.9587L76.572 11.388L76.3786 12.5297L72.3516 11.8476ZM76.8844 12.661L80.096 7.85125L81.7554 8.33513L81.8548 14.1103L80.3449 13.6701L80.3501 12.5344L78.6826 12.0482L78.082 13.0103L76.8844 12.661ZM79.3403 11.0338L80.3711 11.3344L80.3754 9.40445L79.3403 11.0338ZM84.9702 13.4065L85.314 12.591L87.387 13.4648L86.3365 15.957L85.9236 15.783L85.8076 15.0789C85.508 15.2219 85.2237 15.2965 84.9535 15.3022C84.6833 15.308 84.4028 15.2496 84.1094 15.1259C83.7156 14.96 83.3892 14.7087 83.1296 14.3734C82.8688 14.0376 82.7168 13.6279 82.674 13.1477C82.6298 12.6668 82.728 12.1427 82.9674 11.575C83.204 11.0135 83.5068 10.5757 83.8774 10.2607C84.248 9.94572 84.6536 9.76066 85.0937 9.70683C85.535 9.6535 85.978 9.72051 86.4251 9.90899C87.0627 10.1778 87.4764 10.5556 87.6656 11.0437C87.8553 11.5306 87.9023 12.0082 87.8051 12.4728L86.4134 12.13C86.5695 11.5077 86.4334 11.1063 86.0054 10.9259C85.416 10.6774 84.8944 11.0918 84.4403 12.1689C84.2802 12.5487 84.1793 12.8697 84.1381 13.1306C84.0965 13.3927 84.1145 13.6053 84.1932 13.7701C84.2705 13.9343 84.4109 14.0593 84.6128 14.1444C84.8313 14.2365 85.0177 14.2627 85.1708 14.2225C85.3238 14.1823 85.4402 14.1192 85.5192 14.0313C85.5976 13.9447 85.67 13.8436 85.7388 13.7304L84.9702 13.4065ZM89.7043 11.3885L91.0489 12.0834L89.5635 14.9574C89.4508 15.1754 89.3752 15.3427 89.3379 15.4569C89.3007 15.5711 89.2837 15.6849 89.2865 15.7996C89.2952 15.9298 89.3435 16.0556 89.4301 16.1733C89.5179 16.2916 89.6288 16.3862 89.7648 16.4564C89.9252 16.5393 90.0911 16.5754 90.2633 16.5666C90.4348 16.556 90.5761 16.5018 90.6884 16.4016C90.8125 16.2935 90.9572 16.0797 91.1211 15.7625L92.6065 12.8884L93.6645 13.4352L92.0658 16.5285C91.9095 16.831 91.7591 17.0589 91.6146 17.2123C91.4702 17.3658 91.2891 17.4909 91.0695 17.5885C90.8872 17.668 90.6869 17.7135 90.4709 17.726C90.255 17.7385 90.029 17.7164 89.7955 17.6609C89.5626 17.6041 89.3252 17.514 89.0864 17.3906C88.888 17.2881 88.7101 17.1759 88.5545 17.0568C88.3983 16.9356 88.2644 16.8075 88.1522 16.6703C88.0399 16.5332 87.9512 16.3896 87.8867 16.2414C87.8227 16.092 87.7852 15.9422 87.7718 15.791C87.7506 15.5799 87.7644 15.3791 87.8144 15.1893C87.8639 14.9976 87.9607 14.7621 88.1056 14.4817L89.7043 11.3885ZM92.0354 18.9145L95.0978 14.326L98.3999 16.5298L97.7571 17.4929L95.7139 16.1293L95.1676 16.9479L96.4677 17.8157L95.825 18.7788L94.5248 17.911L93.9371 18.7916L96.0754 20.2187L95.4326 21.1818L92.0354 18.9145ZM99.5965 20.8001C99.9855 20.3694 100.401 20.0632 100.844 19.8796C101.286 19.698 101.724 19.6474 102.158 19.7308C102.59 19.8131 102.988 20.0183 103.351 20.3463C103.649 20.6151 103.865 20.9067 103.998 21.2219C104.131 21.5372 104.189 21.8603 104.172 22.192C104.154 22.5218 104.074 22.845 103.929 23.1598C103.786 23.4746 103.589 23.7705 103.34 24.0467C103.07 24.3455 102.779 24.5955 102.468 24.7939C102.156 24.9932 101.835 25.1267 101.506 25.1933C101.176 25.2599 100.841 25.2447 100.501 25.1478C100.162 25.051 99.8366 24.8615 99.5267 24.5816C99.2689 24.3488 99.0682 24.0877 98.9245 23.7964C98.7819 23.506 98.7055 23.1956 98.6985 22.8661C98.6895 22.5367 98.759 22.1964 98.9062 21.8464C99.0542 21.4953 99.2834 21.1469 99.5965 20.8001ZM100.775 21.8644C99.9916 22.732 99.8209 23.3652 100.264 23.7653C100.511 23.9889 100.791 24.0224 101.104 23.8679C101.417 23.7124 101.767 23.4194 102.156 22.9886C102.899 22.1661 103.051 21.5571 102.614 21.1627C102.451 21.0158 102.273 20.9507 102.079 20.9674C101.886 20.986 101.681 21.0726 101.466 21.227C101.25 21.3815 101.02 21.5933 100.775 21.8644ZM101.971 26.6937L105.96 22.883L108.713 25.7655L107.876 26.5654L106.168 24.7773L105.42 25.4914L106.517 26.6396L105.68 27.4395L104.583 26.2913L103.016 27.7881L101.971 26.6937ZM106.649 31.9594L111.151 28.7708L112.026 30.0058L110.136 31.3444L112.957 31.3208L113.79 32.4963L111.572 32.445L109.465 35.9346L108.533 34.6185L109.908 32.3961L108.705 32.3579L107.524 33.1944L106.649 31.9594ZM109.726 36.2955L115.395 35.147L116.231 36.6598L112.231 40.8268L111.47 39.4503L112.274 38.6483L111.434 37.1282L110.33 37.3873L109.726 36.2955ZM112.615 36.8721L113.135 37.8119L114.498 36.4458L112.615 36.8721ZM112.443 41.357L113.085 41.091L117.387 41.904L116.567 39.9252L117.637 39.4819L119.274 43.432L118.64 43.6948L114.298 42.8085L115.209 45.0077L114.139 45.451L112.443 41.357ZM114.336 45.6389L120.12 45.595L120.651 47.2398L115.928 50.5654L115.445 49.0688L116.387 48.4353L115.853 46.7826L114.72 46.8259L114.336 45.6389ZM117.062 46.7571L117.392 47.7788L118.991 46.6985L117.062 46.7571ZM116.028 51.0656L121.402 49.8194L121.744 51.2938L119.488 51.8169L122.108 52.8635L122.433 54.2668L120.401 53.3797L117.128 55.8111L116.764 54.2401L118.878 52.704L117.78 52.2131L116.37 52.5401L116.028 51.0656ZM117.101 56.2771L122.57 55.5566L122.768 57.0572L120.661 57.3348L120.862 58.86L122.969 58.5824L123.168 60.0911L117.698 60.8117L117.5 59.3029L119.714 59.0112L119.513 57.4861L117.299 57.7777L117.101 56.2771ZM118.554 61.5427L119.328 62.4476C119.083 62.6067 118.91 62.7904 118.807 62.9975C118.704 63.2045 118.658 63.4603 118.67 63.7661C118.681 64.0249 118.735 64.2297 118.833 64.3801C118.932 64.5306 119.058 64.6027 119.209 64.5964C119.408 64.5883 119.551 64.4154 119.642 64.0778C119.733 63.7388 119.82 63.3889 119.908 63.0239C119.995 62.6602 120.153 62.3447 120.382 62.0786C120.611 61.8112 120.969 61.6682 121.457 61.6481C121.797 61.6341 122.105 61.7125 122.382 61.8831C122.66 62.0538 122.88 62.2972 123.042 62.6161C123.205 62.935 123.295 63.2996 123.312 63.7073C123.346 64.5461 123.087 65.2094 122.533 65.6999L121.777 64.8466C121.962 64.6762 122.092 64.5108 122.165 64.3492C122.24 64.1888 122.272 63.9999 122.263 63.7836C122.254 63.5646 122.203 63.386 122.11 63.2491C122.016 63.1109 121.903 63.0452 121.771 63.0506C121.578 63.0586 121.442 63.2283 121.362 63.5586C121.281 63.8889 121.201 64.244 121.117 64.6241C121.035 65.0041 120.877 65.3293 120.644 65.601C120.41 65.8728 120.043 66.0189 119.541 66.0396C119.173 66.0548 118.845 65.9773 118.56 65.8083C118.274 65.6393 118.049 65.3906 117.884 65.0649C117.718 64.7392 117.627 64.3594 117.609 63.9242C117.562 62.7949 117.877 62.001 118.554 61.5427ZM117.599 67.8419L121.953 68.0502L122.024 66.5549L123.181 66.6103L122.965 71.1126L121.809 71.0573L121.88 69.562L117.527 69.3538L117.599 67.8419ZM117.469 70.4498L122.616 73.0863L122.327 74.7904L116.601 75.554L116.865 74.0034L117.993 73.8779L118.284 72.1655L117.26 71.6796L117.469 70.4498ZM119.368 72.702L119.188 73.7606L121.105 73.5426L119.368 72.702ZM116.495 76.0317L121.834 77.4218L121.485 78.7585L118.279 79.9405L120.994 80.6474L120.694 81.7999L115.355 80.4098L115.655 79.2572L119.222 77.9641L116.197 77.1762L116.495 76.0317Z" fill="#FEFEFE"/>
<defs>
<linearGradient id="paint0_linear" x1="63.2525" y1="18.083" x2="64.8431" y2="105.827" gradientUnits="userSpaceOnUse">
<stop stop-color="#718FC8"/>
<stop offset="0.309804" stop-color="#34548C"/>
<stop offset="1" stop-color="#2A365A"/>
</linearGradient>
<linearGradient id="paint1_linear" x1="64.5006" y1="4.88153" x2="64.5008" y2="124.262" gradientUnits="userSpaceOnUse">
<stop stop-color="#718FC8"/>
<stop offset="0.168627" stop-color="#34548C"/>
<stop offset="1" stop-color="#2A365A"/>
</linearGradient>
<linearGradient id="paint2_linear" x1="64.4993" y1="114.838" x2="64.4993" y2="14.1621" gradientUnits="userSpaceOnUse">
<stop stop-color="#D3AB2A"/>
<stop offset="0.2" stop-color="#FFCA31"/>
<stop offset="0.85098" stop-color="#FFD465"/>
<stop offset="1" stop-color="#FEFEFE"/>
</linearGradient>
<linearGradient id="paint3_linear" x1="64.7103" y1="121.069" x2="64.8433" y2="76.534" gradientUnits="userSpaceOnUse">
<stop stop-color="#D3AB2A"/>
<stop offset="0.141176" stop-color="#FFCA31"/>
<stop offset="0.580392" stop-color="#FFD465"/>
<stop offset="1" stop-color="#FEFEFE"/>
</linearGradient>
<linearGradient id="paint4_linear" x1="64.5151" y1="60.1653" x2="64.5814" y2="75.275" gradientUnits="userSpaceOnUse">
<stop stop-color="#FEFEFE"/>
<stop offset="0.588235" stop-color="#DEDFE0"/>
<stop offset="1" stop-color="#BDBFC1"/>
</linearGradient>
<linearGradient id="paint5_linear" x1="56.4411" y1="107.876" x2="56.4411" y2="58.6389" gradientUnits="userSpaceOnUse">
<stop stop-opacity="0.17"/>
<stop offset="1" stop-opacity="0"/>
</linearGradient>
</defs>
</svg>
