<svg width="30" height="30" viewBox="0 0 30 30" fill="none" xmlns="http://www.w3.org/2000/svg">
<path d="M27.7928 4.99992C27.7928 7.24365 25.9741 9.06258 23.7303 9.06258C21.4866 9.06258 19.6679 7.24365 19.6679 4.99992C19.6679 2.75642 21.4866 0.9375 23.7303 0.9375C25.9741 0.9375 27.7928 2.75642 27.7928 4.99992Z" fill="#1F3E7D"/>
<path d="M23.7303 10.0001C20.9728 10.0001 18.7304 7.75749 18.7304 4.99992C18.7304 2.24258 20.9728 0 23.7303 0C26.4879 0 28.7303 2.24258 28.7303 4.99992C28.7303 7.75749 26.4879 10.0001 23.7303 10.0001ZM23.7303 1.875C22.0066 1.875 20.6054 3.27759 20.6054 4.99992C20.6054 6.72249 22.0066 8.12508 23.7303 8.12508C25.454 8.12508 26.8553 6.72249 26.8553 4.99992C26.8553 3.27759 25.454 1.875 23.7303 1.875Z" fill="#1F3E7D"/>
<path d="M27.7928 25.0002C27.7928 27.2437 25.9741 29.0626 23.7303 29.0626C21.4866 29.0626 19.6679 27.2437 19.6679 25.0002C19.6679 22.7564 21.4866 20.9375 23.7303 20.9375C25.9741 20.9375 27.7928 22.7564 27.7928 25.0002Z" fill="#1F3E7D"/>
<path d="M23.7303 30.0001C20.9728 30.0001 18.7304 27.7575 18.7304 25.0002C18.7304 22.2426 20.9728 20 23.7303 20C26.4879 20 28.7303 22.2426 28.7303 25.0002C28.7303 27.7575 26.4879 30.0001 23.7303 30.0001ZM23.7303 21.875C22.0066 21.875 20.6054 23.2776 20.6054 25.0002C20.6054 26.7225 22.0066 28.1251 23.7303 28.1251C25.454 28.1251 26.8553 26.7225 26.8553 25.0002C26.8553 23.2776 25.454 21.875 23.7303 21.875Z" fill="#1F3E7D"/>
<path d="M10.293 14.9999C10.293 17.2437 8.47412 19.0623 6.23039 19.0623C3.98689 19.0623 2.16797 17.2437 2.16797 14.9999C2.16797 12.7562 3.98689 10.9375 6.23039 10.9375C8.47412 10.9375 10.293 12.7562 10.293 14.9999Z" fill="#1F3E7D"/>
<path d="M6.23039 19.9998C3.47305 19.9998 1.23047 17.7575 1.23047 14.9999C1.23047 12.2424 3.47305 10 6.23039 10C8.98796 10 11.2305 12.2424 11.2305 14.9999C11.2305 17.7575 8.98796 19.9998 6.23039 19.9998ZM6.23039 11.875C4.50668 11.875 3.10547 13.2774 3.10547 14.9999C3.10547 16.7225 4.50668 18.1248 6.23039 18.1248C7.95433 18.1248 9.35555 16.7225 9.35555 14.9999C9.35555 13.2774 7.95433 11.875 6.23039 11.875Z" fill="#1F3E7D"/>
<path d="M9.18173 14.3992C8.74662 14.3992 8.32411 14.1729 8.09408 13.768C7.75282 13.1692 7.96293 12.4055 8.56169 12.0628L20.1603 5.45042C20.759 5.10664 21.5228 5.31676 21.8654 5.9178C22.2067 6.51655 21.9966 7.28033 21.3978 7.62297L9.79902 14.2354C9.60401 14.3466 9.39161 14.3992 9.18173 14.3992Z" fill="#1F3E7D"/>
<path d="M20.7791 24.7135C20.569 24.7135 20.3566 24.6608 20.1616 24.5496L8.5628 17.9372C7.96404 17.5959 7.75416 16.8321 8.09542 16.232C8.43531 15.6321 9.20023 15.4208 9.80036 15.7646L21.3992 22.377C21.9979 22.7183 22.2078 23.4821 21.8665 24.0822C21.6354 24.4871 21.2129 24.7135 20.7791 24.7135Z" fill="#1F3E7D"/>
</svg>
