<svg width="160" height="241" viewBox="0 0 160 241" fill="none" xmlns="http://www.w3.org/2000/svg">
<path d="M79.8802 164.506C95.5969 164.506 108.338 151.896 108.338 136.341C108.338 120.786 95.5969 108.177 79.8802 108.177C64.1636 108.177 51.4228 120.786 51.4228 136.341C51.4228 151.896 64.1636 164.506 79.8802 164.506Z" stroke="#4296CC" stroke-width="0.25" stroke-miterlimit="22.9256"/>
<path d="M79.8741 39.1466L79.6069 37.6914L2.98206 51.784V161.225C2.98709 170.01 6.9034 179.3 14.4055 188.886L14.4064 188.887C21.0638 197.368 30.4205 205.98 42.2188 214.541L42.2209 214.542C56.9562 225.194 71.9296 233.095 79.2175 236.708L79.8741 237.033L80.5306 236.708C87.8301 233.095 102.8 225.194 117.536 214.542L117.561 214.524L117.537 214.541C129.341 205.98 138.685 197.367 145.341 188.887L145.342 188.886C152.851 179.29 156.776 170.012 156.78 161.225V51.784L79.8741 37.6426L79.6069 37.6914L79.8741 39.1466L79.6069 40.6017L153.821 54.2475V161.225C153.827 169.098 150.273 177.787 143.012 187.061L143.013 187.06C136.589 195.249 127.441 203.705 115.8 212.145L115.802 212.144C101.274 222.648 86.4211 230.493 79.2187 234.057L79.8741 235.382L80.5318 234.057C73.3389 230.493 58.4823 222.648 43.9545 212.144L43.9556 212.145C32.3192 203.705 23.1577 195.248 16.7341 187.06L16.7353 187.061C9.48291 177.8 5.93585 169.1 5.94117 161.225V54.2475L80.1424 40.6017L79.8741 39.1466L79.6069 40.6017L79.8741 39.1466Z" fill="#F9CA3D"/>
<path fill-rule="evenodd" clip-rule="evenodd" d="M23.9132 63.7511H29.4119L26.675 59.7744L26.6729 59.7774L23.9132 63.7511ZM56.6364 55.9206H79.4898V59.4037H70.8814V68.5142C68.9922 68.5432 67.1018 68.582 65.2126 68.632V59.4037H45.0209C44.7466 59.4037 44.4721 59.4185 44.1996 59.4454C44.0043 59.4652 43.8176 59.5156 43.6442 59.6073L43.5264 59.6824L43.4888 59.8984L43.6347 60.1552C43.8217 60.339 44.6588 60.5218 44.9052 60.5698L52.9447 62.0477C53.5938 62.1658 54.2472 62.3025 54.883 62.483C55.3683 62.6217 55.863 62.7963 56.3089 63.0395C56.6835 63.2428 57.0373 63.4996 57.314 63.8316C57.5353 64.0958 57.7273 64.3878 57.8611 64.7083C57.9738 64.9767 58.0593 65.2575 58.1031 65.5457C58.1353 65.7596 58.1593 65.9788 58.1593 66.196C58.1593 66.7011 58.0709 67.197 57.9164 67.676C57.7554 68.1699 57.459 68.5787 57.0927 68.916C55.1073 69.0036 53.121 69.106 51.1368 69.2229C45.4449 69.5578 39.7593 70.0153 34.0925 70.6591L31.5633 67.0339H21.7586L17.5825 73.1425C15.0669 73.631 12.5629 74.1769 10.0754 74.7938L22.4548 57.5281C22.9037 56.9248 23.459 56.4351 24.1437 56.1502C24.9027 55.836 25.864 55.7744 26.675 55.7744C27.4851 55.7744 28.4035 55.8433 29.1645 56.1472C29.867 56.4268 30.4389 56.9133 30.8961 57.5302L37.6079 66.7824L51.0522 66.7816C51.3132 66.7816 51.7026 66.7688 51.9508 66.675L52.2775 66.4934L52.3328 66.4224L52.3641 66.1771L52.3443 66.0561L52.2881 65.9995C52.1783 65.9037 51.9875 65.819 51.8549 65.7649C51.5502 65.6394 51.1815 65.5643 50.8569 65.5069L42.1985 63.9213C42.0461 63.8985 41.8908 63.865 41.7405 63.8316C41.4899 63.7783 41.2413 63.7085 40.9972 63.6313C40.7132 63.5425 40.4336 63.4401 40.1569 63.3295C39.8459 63.2043 39.5483 63.0437 39.277 62.8422C38.9796 62.6386 38.7112 62.3912 38.5003 62.0948C38.3251 61.8474 38.1757 61.5811 38.0641 61.2974C37.9576 61.0269 37.8845 60.744 37.8552 60.4538C37.8325 60.2337 37.8197 60.0112 37.8197 59.7889C37.8197 59.2732 37.9274 58.7682 38.1047 58.2879C38.371 57.5666 38.995 57.0719 39.6329 56.7266C40.2874 56.3611 40.9877 56.1345 41.7269 56.0448C42.35 55.9685 42.9793 55.9206 43.6078 55.9206H56.6364ZM130.219 63.7511H135.716L132.98 59.7744L132.977 59.7774L130.219 63.7511ZM83.4751 63.7511H88.9726L86.236 59.7744L86.2339 59.7774L83.4751 63.7511ZM120.773 68.5853L128.759 57.5281C129.208 56.9248 129.764 56.4351 130.448 56.1502C131.208 55.836 132.169 55.7744 132.98 55.7744C133.789 55.7744 134.709 55.8433 135.469 56.1472C136.172 56.4268 136.743 56.9133 137.202 57.5302L149.685 74.8198C147.196 74.2008 144.691 73.6529 142.175 73.1623L137.868 67.0339H128.063L125.564 70.6591C121.485 70.1966 117.395 69.8283 113.299 69.5339C113.128 69.414 112.962 69.2803 112.806 69.1341L103.867 60.9278V68.9767C99.9806 68.793 96.0924 68.6634 92.2054 68.5779L91.124 67.0339H81.3196L80.3434 68.4483H79.8268C77.9208 68.4483 76.015 68.4568 74.1089 68.4755L82.0158 57.5281C82.4646 56.9236 83.02 56.4351 83.7047 56.1502C84.4645 55.836 85.4258 55.7744 86.236 55.7744C87.0449 55.7744 87.9645 55.8433 88.7252 56.1472C89.4279 56.4268 89.9987 56.9133 90.4582 57.5302L98.3231 68.4193V58.2921C98.3231 57.3695 98.8619 56.7097 99.6415 56.312C100.484 55.883 101.517 55.7744 102.445 55.7744C103.253 55.7744 104.201 55.8288 104.966 56.1126C105.497 56.3108 106.025 56.5845 106.444 56.9822L115.35 65.153V55.9206H120.892V67.8201C120.892 68.0967 120.851 68.3524 120.773 68.5853Z" fill="#4296CC"/>
<path fill-rule="evenodd" clip-rule="evenodd" d="M4.8767 81.1081C12.6803 78.8126 20.7041 77.3181 28.7444 76.2239C36.1995 75.2105 43.6972 74.5548 51.2031 74.1125C60.756 73.5509 70.3258 73.3391 79.8931 73.3379C89.4617 73.3391 99.0314 73.5509 108.583 74.1125C116.091 74.5548 123.588 75.2105 131.043 76.2239C139.083 77.3181 147.107 78.8126 154.91 81.1081L155.145 81.177L155.028 81.6643L154.791 81.6143C140.633 78.6709 126.243 76.9453 111.836 75.9976C105.397 75.5739 98.948 75.3129 92.4972 75.1916C88.2968 75.1135 84.0947 75.1082 79.8931 75.1073C75.6919 75.1082 71.4906 75.1135 67.2903 75.1916C60.8386 75.3129 54.3898 75.5739 47.9505 75.9976C33.5439 76.9453 19.1528 78.6709 4.99684 81.6143L4.75777 81.6643L4.64178 81.177L4.8767 81.1081Z" fill="#F9CA3D"/>
<path d="M140.74 86.0276H144.426C144.716 86.0276 144.95 85.9682 145.124 85.8513C145.297 85.7332 145.384 85.5684 145.384 85.3554C145.384 85.1435 145.297 84.9775 145.124 84.8586C144.95 84.7396 144.716 84.6802 144.426 84.6802H140.74V86.0276ZM140.74 88.8888H144.68C145.036 88.8888 145.306 88.8157 145.495 88.6716C145.683 88.5267 145.777 88.3293 145.777 88.0778C145.777 87.8272 145.683 87.629 145.495 87.484C145.306 87.3387 145.036 87.2668 144.68 87.2668H140.74V88.8888ZM138.144 83.8502C138.144 83.7271 138.206 83.6218 138.336 83.5339C138.465 83.4464 138.619 83.4026 138.797 83.4026H144.399C145.772 83.4026 146.787 83.673 147.438 84.2136C147.8 84.5109 147.983 84.892 147.983 85.3554C147.983 85.819 147.673 86.2241 147.052 86.5706C147.933 86.894 148.375 87.3961 148.375 88.0778C148.375 88.7592 148.022 89.2782 147.318 89.63C146.612 89.9848 145.747 90.1611 144.723 90.1611H138.797C138.619 90.1611 138.465 90.1173 138.336 90.0307C138.206 89.9451 138.144 89.8407 138.144 89.7188V83.8502ZM126.375 87.489V83.8502C126.375 83.7271 126.44 83.6218 126.566 83.5339C126.693 83.4464 126.85 83.4026 127.039 83.4026H128.327C128.501 83.4026 128.652 83.4464 128.782 83.5339C128.911 83.6218 128.973 83.7271 128.973 83.8502V87.4985C128.973 87.9609 129.122 88.3053 129.419 88.5296C129.714 88.7563 130.173 88.869 130.792 88.869H131.895C132.516 88.869 132.974 88.7563 133.271 88.5296C133.565 88.3053 133.712 87.9609 133.712 87.4985V83.8502C133.712 83.7271 133.776 83.6218 133.903 83.5339C134.03 83.4464 134.184 83.4026 134.361 83.4026H135.644C135.832 83.4026 135.989 83.4464 136.119 83.5339C136.248 83.6218 136.312 83.7271 136.312 83.8502V87.489C136.312 88.3503 135.942 89.0172 135.201 89.4901C134.462 89.9617 133.383 90.1978 131.964 90.1978H130.724C129.301 90.1978 128.219 89.9617 127.483 89.4901C126.744 89.0172 126.375 88.3503 126.375 87.489ZM116.352 89.7271V83.8597C116.352 83.7313 116.416 83.6218 116.546 83.5339C116.674 83.4464 116.827 83.4026 117.007 83.4026H118.302C118.482 83.4026 118.633 83.4464 118.761 83.5339C118.887 83.6218 118.949 83.7313 118.949 83.8597V88.8273H124.95C125.13 88.8273 125.281 88.8711 125.408 88.9598C125.535 89.0474 125.599 89.1528 125.599 89.275V89.7188C125.599 89.8407 125.535 89.9451 125.408 90.0307C125.281 90.1173 125.13 90.1611 124.95 90.1611H117.007C116.827 90.1611 116.674 90.1194 116.546 90.036C116.416 89.9534 116.352 89.8513 116.352 89.7271ZM105.54 89.3649C104.688 88.8084 104.262 87.9473 104.262 86.7845C104.262 85.6196 104.688 84.7586 105.54 84.2C106.39 83.6437 107.669 83.3638 109.375 83.3638H110.91C111.953 83.3638 112.875 83.5508 113.676 83.9203C114.478 84.292 114.877 84.7991 114.877 85.4421C114.877 85.6291 114.797 85.7616 114.638 85.8418C114.476 85.9211 114.32 85.9619 114.17 85.9619H113.35C112.926 85.9619 112.599 85.7886 112.363 85.4421C112.025 84.9474 111.458 84.6979 110.668 84.6979H109.442C108.437 84.6979 107.755 84.8462 107.397 85.1415C107.037 85.4359 106.859 85.9838 106.859 86.7813C106.859 87.579 107.037 88.1278 107.397 88.4234C107.755 88.7217 108.437 88.869 109.442 88.869H110.814C111.604 88.869 112.167 88.6217 112.502 88.1249C112.736 87.7772 113.067 87.6017 113.492 87.6017H114.313C114.529 87.6017 114.702 87.6562 114.826 87.7668C114.954 87.8763 115.017 87.9964 115.017 88.1249C115.017 88.7699 114.617 89.2761 113.817 89.6445C113.018 90.0149 112.098 90.1978 111.054 90.1978H109.375C107.669 90.1978 106.39 89.9212 105.54 89.3649ZM89.5171 89.7271V83.8597C89.5171 83.7313 89.581 83.6218 89.7103 83.5339C89.8399 83.4464 89.9923 83.4026 90.1716 83.4026H91.4669C91.6456 83.4026 91.798 83.4464 91.9253 83.5339C92.0516 83.6218 92.1143 83.7313 92.1143 83.8597V88.8273H98.1151C98.2947 88.8273 98.4471 88.8711 98.5732 88.9598C98.7007 89.0474 98.7643 89.1528 98.7643 89.275V89.7188C98.7643 89.8407 98.7007 89.9451 98.5732 90.0307C98.4471 90.1173 98.2947 90.1611 98.1151 90.1611H90.1716C89.9923 90.1611 89.8399 90.1194 89.7103 90.036C89.581 89.9534 89.5171 89.8513 89.5171 89.7271ZM79.149 89.7271V83.8597C79.149 83.7313 79.2127 83.6218 79.3422 83.5339C79.4715 83.4464 79.6239 83.4026 79.8023 83.4026H81.0989C81.2773 83.4026 81.4297 83.4464 81.5572 83.5339C81.6833 83.6218 81.7451 83.7313 81.7451 83.8597V88.8273H87.7459C87.9255 88.8273 88.0788 88.8711 88.2063 88.9598C88.3324 89.0474 88.3951 89.1528 88.3951 89.275V89.7188C88.3951 89.8407 88.3324 89.9451 88.2063 90.0307C88.0788 90.1173 87.9255 90.1611 87.7459 90.1611H79.8023C79.6239 90.1611 79.4715 90.1194 79.3422 90.036C79.2127 89.9534 79.149 89.8513 79.149 89.7271ZM70.1912 87.1958H74.5791V84.7364H72.618C72.1762 84.7364 71.7901 84.8222 71.4635 84.9932C71.1336 85.1646 70.9122 85.3941 70.7974 85.6832L70.1912 87.1958ZM66.5669 89.7271L68.2975 85.2397C68.7662 84.0183 70.2903 83.4058 72.8716 83.4026H76.5855C76.7545 83.4026 76.8956 83.4464 77.0083 83.5339C77.1219 83.6218 77.1773 83.7239 77.1773 83.8399V89.7271C77.1773 89.8513 77.1145 89.9534 76.9852 90.036C76.8559 90.1194 76.7024 90.1611 76.524 90.1611H75.2286C75.0395 90.1611 74.885 90.1194 74.762 90.036C74.6409 89.9534 74.5791 89.8469 74.5791 89.7188V88.5296H69.6808L69.2192 89.7188C69.1754 89.8469 69.0709 89.9534 68.9094 90.036C68.7496 90.1194 68.5804 90.1611 68.402 90.1611H67.0418C66.8625 90.1611 66.7361 90.1256 66.6568 90.0546L66.5429 89.8679L66.5669 89.7271ZM58.3334 86.0276H62.0212C62.3103 86.0276 62.5432 85.9682 62.7175 85.8513C62.8906 85.7332 62.9784 85.5684 62.9784 85.3554C62.9784 85.1435 62.8906 84.9775 62.7175 84.8586C62.5432 84.7396 62.3103 84.6802 62.0212 84.6802H58.3334V86.0276ZM58.3334 88.8888H62.2748C62.6308 88.8888 62.9012 88.8157 63.0891 88.6716C63.277 88.5267 63.3708 88.3293 63.3708 88.0778C63.3708 87.8272 63.277 87.629 63.0891 87.484C62.9012 87.3387 62.6308 87.2668 62.2748 87.2668H58.3334V88.8888ZM55.7376 83.8502C55.7376 83.7271 55.8012 83.6218 55.9305 83.5339C56.0589 83.4464 56.2125 83.4026 56.3909 83.4026H61.9928C63.3657 83.4026 64.3803 83.673 65.0316 84.2136C65.3937 84.5109 65.5775 84.892 65.5775 85.3554C65.5775 85.819 65.2665 86.2241 64.6454 86.5706C65.5275 86.894 65.9698 87.3961 65.9698 88.0778C65.9698 88.7592 65.6171 89.2782 64.9114 89.63C64.2057 89.9848 63.3406 90.1611 62.3177 90.1611H56.3909C56.2125 90.1611 56.0589 90.1173 55.9305 90.0307C55.8012 89.9451 55.7376 89.8407 55.7376 89.7188V83.8502ZM44.5624 84.294V83.8502C44.5624 83.7218 44.623 83.6144 44.7473 83.5298C44.8704 83.4443 45.0281 83.4026 45.216 83.4026H53.9599C54.1478 83.4026 54.3031 83.4443 54.4274 83.5298C54.5526 83.6144 54.6132 83.7218 54.6132 83.8502V84.294C54.6132 84.4225 54.5526 84.5287 54.4274 84.6113C54.3031 84.6947 54.1478 84.7364 53.9599 84.7364H50.8857V89.7271C50.8857 89.8513 50.8221 89.9534 50.6978 90.036C50.5706 90.1194 50.4182 90.1611 50.2386 90.1611H48.9361C48.7574 90.1611 48.6041 90.1194 48.4778 90.036C48.3503 89.9534 48.2899 89.8513 48.2899 89.7271V84.7364H45.216C45.0281 84.7364 44.8704 84.6947 44.7473 84.6113C44.623 84.5287 44.5624 84.4225 44.5624 84.294ZM40.91 85.0977C40.4466 84.7219 39.6963 84.534 38.6619 84.534C37.6242 84.534 36.8738 84.7219 36.4081 85.0977C35.9406 85.4767 35.7078 86.0383 35.7078 86.7845C35.7078 87.5307 35.9406 88.0902 36.4081 88.4672C36.8738 88.8418 37.6242 89.0297 38.6619 89.0297C39.6963 89.0297 40.4466 88.8418 40.91 88.4672C41.3736 88.0902 41.6053 87.5307 41.6053 86.7845C41.6053 86.0383 41.3736 85.4767 40.91 85.0977ZM42.7933 89.4619C41.8548 90.0265 40.4768 90.3073 38.6619 90.3073C36.8434 90.3073 35.4657 90.0265 34.523 89.4619C33.5815 88.8971 33.1117 88.0035 33.1117 86.7813C33.1117 85.5601 33.5815 84.6666 34.523 84.1041C35.4657 83.5425 36.8434 83.2617 38.6619 83.2617C40.4768 83.2617 41.8548 83.5425 42.7933 84.1041C43.7348 84.6666 44.2043 85.5601 44.2043 86.7813C44.2043 88.0035 43.7348 88.8971 42.7933 89.4619ZM28.9699 85.0977C28.5066 84.7219 27.7571 84.534 26.7215 84.534C25.685 84.534 24.9356 84.7219 24.4689 85.0977C24.0003 85.4767 23.7686 86.0383 23.7686 86.7845C23.7686 87.5307 24.0003 88.0902 24.4689 88.4672C24.9356 88.8418 25.685 89.0297 26.7215 89.0297C27.7571 89.0297 28.5066 88.8418 28.9699 88.4672C29.4336 88.0902 29.6661 87.5307 29.6661 86.7845C29.6661 86.0383 29.4336 85.4767 28.9699 85.0977ZM30.8541 89.4619C29.9156 90.0265 28.5379 90.3073 26.7215 90.3073C24.9042 90.3073 23.5254 90.0265 22.583 89.4619C21.6424 88.8971 21.1716 88.0035 21.1716 86.7813C21.1716 85.5601 21.6424 84.6666 22.583 84.1041C23.5254 83.5425 24.9042 83.2617 26.7215 83.2617C28.5379 83.2617 29.9156 83.5425 30.8541 84.1041C31.7944 84.6666 32.2643 85.5601 32.2643 86.7813C32.2643 88.0035 31.7944 88.8971 30.8541 89.4619ZM11.3672 89.7093V83.8399C11.3672 83.7177 11.4309 83.6144 11.5613 83.5298C11.6906 83.4443 11.843 83.4026 12.0217 83.4026H19.965C20.1446 83.4026 20.297 83.4464 20.4242 83.5339C20.5506 83.6218 20.6142 83.7271 20.6142 83.8502V84.294C20.6142 84.4159 20.5506 84.5204 20.4242 84.6059C20.297 84.6926 20.1446 84.7364 19.965 84.7364H13.9642V86.3951H18.8513C19.0297 86.3951 19.1821 86.4389 19.3076 86.5268C19.4336 86.6152 19.4975 86.7188 19.4975 86.8386V87.2866C19.4975 87.4088 19.4336 87.513 19.3076 87.5997C19.1821 87.6852 19.0297 87.7281 18.8513 87.7281H13.9642V89.7093C13.9642 89.8377 13.9027 89.9451 13.7763 90.0307C13.6488 90.1173 13.4964 90.1611 13.318 90.1611H12.0217C11.843 90.1611 11.6906 90.1173 11.5613 90.0307C11.4309 89.9451 11.3672 89.8377 11.3672 89.7093Z" fill="#4296CC"/>
<path fill-rule="evenodd" clip-rule="evenodd" d="M32.6991 130.391C32.8778 135.425 33.2107 136.025 36.1657 140.055C37.2868 137.152 35.5132 131.832 32.6991 130.391Z" fill="#F9CA3D"/>
<path fill-rule="evenodd" clip-rule="evenodd" d="M51.1859 106.903C54.7546 106.836 55.241 106.765 58.1761 104.686C56.1399 103.712 52.3496 105.008 51.1859 106.903Z" fill="#F9CA3D"/>
<path fill-rule="evenodd" clip-rule="evenodd" d="M43.7362 136.347C40.7362 138.548 39.6704 145.059 41.515 148.222C44.1954 142.988 44.47 142.229 43.7362 136.347Z" fill="#F9CA3D"/>
<path fill-rule="evenodd" clip-rule="evenodd" d="M44.4974 144.45C42.0037 147.211 42.2709 153.803 44.7155 156.53C46.2863 150.864 46.4023 150.065 44.4974 144.45Z" fill="#F9CA3D"/>
<path fill-rule="evenodd" clip-rule="evenodd" d="M49.8311 164.169C50.7883 157.537 50.803 156.616 47.8395 150.544C45.4189 154.025 46.6737 161.438 49.8311 164.169Z" fill="#F9CA3D"/>
<path fill-rule="evenodd" clip-rule="evenodd" d="M55.867 170.337C55.862 163.637 55.7439 162.724 51.9382 157.141C50.0425 160.934 52.3504 168.09 55.867 170.337Z" fill="#F9CA3D"/>
<path fill-rule="evenodd" clip-rule="evenodd" d="M66.063 175.829C63.3637 169.264 62.8826 168.416 56.909 164.474C56.5758 168.953 61.7126 175.038 66.063 175.829Z" fill="#F9CA3D"/>
<path fill-rule="evenodd" clip-rule="evenodd" d="M78.111 177.758C73.0558 172.774 72.2803 172.184 65.2398 170.897C66.6887 175.149 73.7991 178.735 78.111 177.758Z" fill="#F9CA3D"/>
<path fill-rule="evenodd" clip-rule="evenodd" d="M59.6683 98.3047C57.0701 99.1219 56.8062 99.382 55.1297 101.503C56.805 101.669 59.3218 99.9791 59.6683 98.3047Z" fill="#F9CA3D"/>
<path fill-rule="evenodd" clip-rule="evenodd" d="M54.4054 99.3457C52.2904 101.063 52.1401 101.402 51.3637 103.99C52.9816 103.528 54.6986 101.03 54.4054 99.3457Z" fill="#F9CA3D"/>
<path fill-rule="evenodd" clip-rule="evenodd" d="M50.8026 101.4C48.5083 103.754 48.3769 104.182 47.8079 107.392C49.6826 106.612 51.3914 103.377 50.8026 101.4Z" fill="#F9CA3D"/>
<path fill-rule="evenodd" clip-rule="evenodd" d="M47.1248 104.859C45.1104 107.456 45.0267 107.896 44.8235 111.149C46.5979 110.164 47.9329 106.758 47.1248 104.859Z" fill="#F9CA3D"/>
<path fill-rule="evenodd" clip-rule="evenodd" d="M43.4602 108.906C41.7828 111.734 41.7544 112.181 41.9559 115.434C43.5948 114.236 44.4966 110.69 43.4602 108.906Z" fill="#F9CA3D"/>
<path fill-rule="evenodd" clip-rule="evenodd" d="M40.23 113.5C38.8979 116.505 38.9222 116.952 39.5057 120.159C40.9919 118.776 41.4701 115.149 40.23 113.5Z" fill="#F9CA3D"/>
<path fill-rule="evenodd" clip-rule="evenodd" d="M37.1795 117.7C36.0407 121.819 36.1564 122.39 37.5198 126.404C39.167 124.34 39.0886 119.585 37.1795 117.7Z" fill="#F9CA3D"/>
<path fill-rule="evenodd" clip-rule="evenodd" d="M34.5845 124.242C34.1093 128.489 34.314 129.035 36.294 132.783C37.5947 130.485 36.766 125.801 34.5845 124.242Z" fill="#F9CA3D"/>
<path fill-rule="evenodd" clip-rule="evenodd" d="M37.0048 147.362C37.6321 144.314 35.0049 139.361 31.9926 138.403C32.9986 143.338 33.4267 143.876 37.0048 147.362Z" fill="#F9CA3D"/>
<path fill-rule="evenodd" clip-rule="evenodd" d="M39.3066 154.396C39.359 150.777 35.2829 145.688 31.6314 145.247C33.8538 150.669 34.4591 151.19 39.3066 154.396Z" fill="#F9CA3D"/>
<path fill-rule="evenodd" clip-rule="evenodd" d="M42.6634 161.013C41.9776 157.458 36.9505 153.306 33.2869 153.618C36.5664 158.474 37.2647 158.86 42.6634 161.013Z" fill="#F9CA3D"/>
<path fill-rule="evenodd" clip-rule="evenodd" d="M35.1616 160.72C39.6312 165.334 40.4588 165.618 46.6998 166.909C45.2814 163.204 39.0581 159.681 35.1616 160.72Z" fill="#F9CA3D"/>
<path fill-rule="evenodd" clip-rule="evenodd" d="M39.8387 168.454C45.0495 172.213 45.9147 172.347 52.2851 172.522C50.2373 169.121 43.4932 166.747 39.8387 168.454Z" fill="#F9CA3D"/>
<path fill-rule="evenodd" clip-rule="evenodd" d="M45.6366 175.992C52.1522 178.952 53.1271 178.908 60.1206 177.7C57.1384 174.438 49.2514 173.327 45.6366 175.992Z" fill="#F9CA3D"/>
<path fill-rule="evenodd" clip-rule="evenodd" d="M54.0821 182.065C61.0643 183.638 62.01 183.396 68.6132 180.791C65.0277 178.204 57.0799 178.72 54.0821 182.065Z" fill="#F9CA3D"/>
<path fill-rule="evenodd" clip-rule="evenodd" d="M63.6124 186.454C70.7677 186.561 71.6444 186.132 77.5724 182.227C73.5339 180.43 65.8608 182.563 63.6124 186.454Z" fill="#F9CA3D"/>
<path fill-rule="evenodd" clip-rule="evenodd" d="M45.102 124.658C38.8233 126.95 40.0208 132.82 40.0208 132.82C43.4569 129.815 43.9016 129.255 45.102 124.658Z" fill="#F9CA3D"/>
<path fill-rule="evenodd" clip-rule="evenodd" d="M41.2016 125.335C44.6587 123.511 45.1241 123.158 47.0103 119.608C41.0554 120.161 41.2016 125.335 41.2016 125.335Z" fill="#F9CA3D"/>
<path fill-rule="evenodd" clip-rule="evenodd" d="M49.0503 114.639C49.0503 114.639 43.8572 114.805 42.7051 119.977C46.4033 118.364 46.8803 118.081 49.0503 114.639Z" fill="#F9CA3D"/>
<path fill-rule="evenodd" clip-rule="evenodd" d="M45.2059 114.831C48.4482 113.984 48.8823 113.806 51.1138 111.25C51.1138 111.25 47.0753 110.583 45.2059 114.831Z" fill="#F9CA3D"/>
<path fill-rule="evenodd" clip-rule="evenodd" d="M48.1094 110.712C51.4497 110.246 51.8974 110.125 54.4171 107.841C54.4171 107.841 50.4318 106.672 48.1094 110.712Z" fill="#F9CA3D"/>
<path fill-rule="evenodd" clip-rule="evenodd" d="M61.2571 102.314C59.9472 101.431 57.5704 101.578 55.8764 102.366C55.3921 102.591 54.9754 102.94 54.6591 103.37L54.6059 103.443C57.7792 103.85 58.2834 103.821 61.2571 102.314Z" fill="#F9CA3D"/>
<path fill-rule="evenodd" clip-rule="evenodd" d="M43.8639 130.501C38.7229 133.645 40.1248 139.628 40.1248 139.628C43.131 135.888 43.4774 135.325 43.8639 130.501Z" fill="#F9CA3D"/>
<path fill-rule="evenodd" clip-rule="evenodd" d="M123.597 140.055C126.552 136.025 126.884 135.425 127.062 130.391C124.249 131.832 122.477 137.152 123.597 140.055Z" fill="#F9CA3D"/>
<path fill-rule="evenodd" clip-rule="evenodd" d="M87.9259 180.397C97.9465 178.469 106.733 173.002 112.984 165.329C119.127 157.785 122.818 148.108 122.818 137.556C122.818 130.496 121.166 123.828 118.231 117.928C115.185 111.802 110.757 106.507 105.363 102.461L105.716 103.162C108.091 105.323 110.158 107.593 111.935 109.943C112.114 110.178 112.226 110.332 112.226 110.332C113.025 111.413 113.765 112.51 114.446 113.62C114.446 113.62 114.777 114.123 115.256 114.996C115.923 116.182 116.528 117.38 117.07 118.591C117.357 119.219 117.591 119.805 117.591 119.805C118.163 121.194 118.654 122.597 119.068 124.007C119.068 124.007 119.413 125.111 119.679 126.326C119.878 127.18 120.051 128.034 120.194 128.889C120.308 129.552 120.403 130.215 120.485 130.877L120.743 133.845C120.832 135.531 120.823 137.21 120.72 138.877C120.683 139.585 120.618 140.21 120.618 140.21C120.339 143.274 119.748 146.284 118.882 149.186C116.964 155.615 113.687 161.516 109.438 166.318C103.981 172.483 96.9163 176.838 89.0532 178.171C85.3854 178.673 82.3748 178.84 79.8802 178.819C77.3865 178.84 74.3762 178.673 70.7072 178.171C62.8441 176.838 55.7796 172.483 50.3236 166.318C46.0732 161.516 42.7978 155.615 40.8784 149.186C40.0109 146.284 39.4212 143.274 39.1424 140.21C39.1424 140.21 39.0776 139.585 39.0401 138.877C38.9389 137.21 38.9294 135.531 39.0182 133.845L39.2759 130.877C39.3575 130.215 39.4534 129.552 39.5661 128.889C39.7102 128.034 39.8824 127.18 40.0819 126.326C40.347 125.111 40.6926 124.007 40.6926 124.007C41.1068 122.597 41.5974 121.194 42.1693 119.805C42.1693 119.805 42.4022 119.219 42.6904 118.591C43.233 117.38 43.8375 116.182 44.5056 114.996C44.9846 114.123 45.3146 113.62 45.3146 113.62C45.9951 112.51 46.7351 111.413 47.5346 110.332C47.5346 110.332 47.6464 110.178 47.8257 109.943C49.6025 107.593 51.6701 105.323 54.0461 103.162L54.3976 102.461C49.0033 106.507 44.5754 111.802 41.5296 117.928C38.5953 123.828 36.942 130.496 36.942 137.556C36.942 148.108 40.634 157.785 46.7768 165.329C53.027 173.002 61.8151 178.469 71.8345 180.397C72.3804 180.502 72.919 180.614 73.4598 180.726C74.351 180.91 77.3658 181.1 79.8802 181.208C82.3946 181.1 85.4103 180.91 86.3018 180.726C86.8414 180.614 87.38 180.502 87.9259 180.397Z" fill="#F9CA3D"/>
<path fill-rule="evenodd" clip-rule="evenodd" d="M101.585 104.686C104.522 106.765 105.007 106.836 108.576 106.903C107.412 105.008 103.622 103.712 101.585 104.686Z" fill="#F9CA3D"/>
<path fill-rule="evenodd" clip-rule="evenodd" d="M116.026 136.347C115.292 142.229 115.568 142.988 118.247 148.222C120.093 145.059 119.026 138.548 116.026 136.347Z" fill="#F9CA3D"/>
<path fill-rule="evenodd" clip-rule="evenodd" d="M115.046 156.53C117.49 153.803 117.758 147.211 115.264 144.45C113.359 150.065 113.475 150.864 115.046 156.53Z" fill="#F9CA3D"/>
<path fill-rule="evenodd" clip-rule="evenodd" d="M109.93 164.169C113.088 161.438 114.343 154.025 111.922 150.544C108.958 156.616 108.973 157.537 109.93 164.169Z" fill="#F9CA3D"/>
<path fill-rule="evenodd" clip-rule="evenodd" d="M107.824 157.141C104.018 162.724 103.9 163.637 103.895 170.337C107.411 168.09 109.719 160.934 107.824 157.141Z" fill="#F9CA3D"/>
<path fill-rule="evenodd" clip-rule="evenodd" d="M102.853 164.474C96.8789 168.416 96.3978 169.264 93.6985 175.829C98.048 175.038 103.186 168.953 102.853 164.474Z" fill="#F9CA3D"/>
<path fill-rule="evenodd" clip-rule="evenodd" d="M94.5209 170.897C87.4791 172.184 86.7048 172.774 81.6497 177.758C85.9604 178.735 93.0719 175.149 94.5209 170.897Z" fill="#F9CA3D"/>
<path fill-rule="evenodd" clip-rule="evenodd" d="M104.631 101.503C102.956 99.382 102.691 99.1219 100.091 98.3047C100.438 99.9791 102.957 101.669 104.631 101.503Z" fill="#F9CA3D"/>
<path fill-rule="evenodd" clip-rule="evenodd" d="M108.399 103.99C107.622 101.402 107.472 101.063 105.356 99.3457C105.064 101.03 106.781 103.528 108.399 103.99Z" fill="#F9CA3D"/>
<path fill-rule="evenodd" clip-rule="evenodd" d="M111.955 107.392C111.386 104.182 111.253 103.754 108.959 101.4C108.37 103.377 110.079 106.612 111.955 107.392Z" fill="#F9CA3D"/>
<path fill-rule="evenodd" clip-rule="evenodd" d="M114.939 111.149C114.737 107.896 114.652 107.456 112.638 104.859C111.831 106.758 113.165 110.164 114.939 111.149Z" fill="#F9CA3D"/>
<path fill-rule="evenodd" clip-rule="evenodd" d="M117.805 115.434C118.008 112.181 117.978 111.734 116.302 108.906C115.266 110.69 116.166 114.236 117.805 115.434Z" fill="#F9CA3D"/>
<path fill-rule="evenodd" clip-rule="evenodd" d="M119.531 113.5C118.292 115.149 118.769 118.776 120.255 120.159C120.839 116.952 120.863 116.505 119.531 113.5Z" fill="#F9CA3D"/>
<path fill-rule="evenodd" clip-rule="evenodd" d="M122.582 117.7C120.674 119.585 120.596 124.34 122.243 126.404C123.606 122.39 123.722 121.819 122.582 117.7Z" fill="#F9CA3D"/>
<path fill-rule="evenodd" clip-rule="evenodd" d="M123.468 132.783C125.447 129.035 125.653 128.489 125.177 124.242C122.996 125.801 122.167 130.485 123.468 132.783Z" fill="#F9CA3D"/>
<path fill-rule="evenodd" clip-rule="evenodd" d="M122.754 147.362C126.334 143.876 126.762 143.338 127.768 138.403C124.754 139.361 122.129 144.314 122.754 147.362Z" fill="#F9CA3D"/>
<path fill-rule="evenodd" clip-rule="evenodd" d="M120.456 154.396C125.304 151.19 125.908 150.669 128.131 145.247C124.479 145.688 120.404 150.777 120.456 154.396Z" fill="#F9CA3D"/>
<path fill-rule="evenodd" clip-rule="evenodd" d="M117.099 161.013C122.498 158.86 123.196 158.474 126.476 153.618C122.812 153.306 117.785 157.458 117.099 161.013Z" fill="#F9CA3D"/>
<path fill-rule="evenodd" clip-rule="evenodd" d="M113.061 166.909C119.302 165.618 120.131 165.334 124.599 160.72C120.703 159.681 114.481 163.204 113.061 166.909Z" fill="#F9CA3D"/>
<path fill-rule="evenodd" clip-rule="evenodd" d="M107.478 172.522C113.847 172.347 114.712 172.213 119.923 168.454C116.27 166.747 109.526 169.121 107.478 172.522Z" fill="#F9CA3D"/>
<path fill-rule="evenodd" clip-rule="evenodd" d="M99.6413 177.7C106.635 178.908 107.611 178.952 114.126 175.992C110.511 173.327 102.624 174.438 99.6413 177.7Z" fill="#F9CA3D"/>
<path fill-rule="evenodd" clip-rule="evenodd" d="M91.1489 180.791C97.7521 183.396 98.6989 183.638 105.68 182.065C102.682 178.72 94.7356 178.204 91.1489 180.791Z" fill="#F9CA3D"/>
<path fill-rule="evenodd" clip-rule="evenodd" d="M82.1899 182.227C88.1188 186.132 88.9958 186.561 96.15 186.454C93.9028 182.563 86.2284 180.43 82.1899 182.227Z" fill="#F9CA3D"/>
<path fill-rule="evenodd" clip-rule="evenodd" d="M114.659 124.658C115.859 129.255 116.305 129.815 119.74 132.82C119.74 132.82 120.937 126.95 114.659 124.658Z" fill="#F9CA3D"/>
<path fill-rule="evenodd" clip-rule="evenodd" d="M112.751 119.608C114.638 123.158 115.103 123.511 118.56 125.335C118.56 125.335 118.706 120.161 112.751 119.608Z" fill="#F9CA3D"/>
<path fill-rule="evenodd" clip-rule="evenodd" d="M110.713 114.639C112.881 118.081 113.358 118.364 117.056 119.977C115.905 114.805 110.713 114.639 110.713 114.639Z" fill="#F9CA3D"/>
<path fill-rule="evenodd" clip-rule="evenodd" d="M108.649 111.25C110.88 113.806 111.313 113.984 114.556 114.831C112.687 110.583 108.649 111.25 108.649 111.25Z" fill="#F9CA3D"/>
<path fill-rule="evenodd" clip-rule="evenodd" d="M105.343 107.841C107.864 110.125 108.31 110.246 111.651 110.712C109.328 106.672 105.343 107.841 105.343 107.841Z" fill="#F9CA3D"/>
<path fill-rule="evenodd" clip-rule="evenodd" d="M105.156 103.443L105.102 103.37C104.786 102.94 104.369 102.591 103.886 102.366C102.191 101.578 99.814 101.431 98.5042 102.314C101.479 103.821 101.982 103.85 105.156 103.443Z" fill="#F9CA3D"/>
<path fill-rule="evenodd" clip-rule="evenodd" d="M115.898 130.501C116.284 135.325 116.631 135.888 119.638 139.628C119.638 139.628 121.039 133.645 115.898 130.501Z" fill="#F9CA3D"/>
<path d="M84.8989 132.934L72.7875 140.456L72.6529 140.238L84.764 132.717L84.8989 132.934Z" fill="#4296CC"/>
<path d="M85.5533 121.987H85.5522L85.3956 122.189C85.3927 122.187 83.8479 120.986 81.5669 119.592C79.2883 118.198 76.3523 116.926 73.4502 116.172L73.3784 115.862L73.5006 115.863C79.4931 117.159 85.5459 121.983 85.5533 121.987Z" fill="#4296CC"/>
<path d="M64.3586 121.304C63.3097 125.193 63.1342 128.785 63.2221 131.403C63.3085 134.02 63.6562 135.653 63.6562 135.657L63.4079 135.711C63.4058 135.699 61.9986 129.079 64.1133 121.237L64.3586 121.304Z" fill="#4296CC"/>
<path d="M95.0316 138.805C96.3716 144.582 94.7194 151.235 94.7194 151.245H94.7182L94.4721 151.184C94.4721 151.18 94.8801 149.532 95.1245 147.16C95.3686 144.792 95.4458 141.708 94.7842 138.863C94.6892 138.456 94.5795 138.056 94.4531 137.66L94.6963 137.583C94.8259 137.984 94.9366 138.393 95.0316 138.805Z" fill="#00A6AD"/>
<path d="M80.3012 155.476C82.7792 156.52 84.7415 157.035 84.7675 157.044L84.7018 157.289C84.6935 157.285 76.75 155.213 72.578 150.906L72.7617 150.729C74.8042 152.843 77.8083 154.427 80.3012 155.476Z" fill="#4296CC"/>
<path d="M95.3419 113.724C96.2325 117.566 94.9735 121.118 94.9706 121.128L94.7315 121.043C94.7315 121.042 95.0392 120.173 95.2398 118.825C95.4392 117.477 95.5298 115.661 95.0925 113.781C95.0215 113.477 94.938 113.172 94.8368 112.864L95.0789 112.785C95.1813 113.099 95.2691 113.413 95.3419 113.724Z" fill="#00A6AD"/>
<path d="M56.5188 141.881C57.7027 142.383 58.4897 142.485 58.4906 142.485L58.4583 142.738C58.4415 142.735 55.1755 142.303 52.0483 139.072L52.2321 138.896C53.7674 140.482 55.3362 141.38 56.5188 141.881Z" fill="#00A6AD"/>
<path d="M63.573 151.908C63.5751 151.913 63.2765 154.72 64.1095 158.307C64.2024 158.704 64.3101 159.114 64.4311 159.527L64.3089 159.562C64.1879 159.146 64.0793 158.736 63.9852 158.335C63.1472 154.726 63.4458 151.899 63.4467 151.895L63.573 151.908Z" fill="#4296CC"/>
<path d="M107.452 134.042L107.266 134.216C106.695 133.604 105.068 132.742 103.599 132.055C102.131 131.363 100.813 130.834 100.811 130.833L100.906 130.596C100.916 130.605 106.183 132.709 107.452 134.042Z" fill="#00A6AD"/>
<path d="M107.815 142.03C105.195 150.502 99.7987 153.79 99.7904 153.796L99.7247 153.686C99.7268 153.682 101.062 152.873 102.73 151.003C104.396 149.134 106.389 146.209 107.693 141.993L107.815 142.03Z" fill="#4296CC"/>
<path d="M107.845 187.109C108.688 188.585 109.108 189.322 109.95 190.798L109.931 190.91C109.21 191.32 108.847 191.518 108.117 191.902C108.007 191.959 107.889 191.971 107.789 191.922C106.714 191.538 106.186 191.334 105.149 190.902C105.518 191.672 105.701 192.058 106.071 192.828L106.006 192.965C105.57 193.173 105.35 193.276 104.909 193.474L104.757 193.438C104.06 191.889 103.712 191.115 103.016 189.565L103.079 189.425C103.46 189.253 103.65 189.165 104.029 188.984L104.233 188.987C105.613 189.603 106.323 189.892 107.778 190.423L107.917 190.406L107.955 190.386L108.006 190.242C107.472 189.251 107.204 188.754 106.669 187.762L106.723 187.616C107.116 187.404 107.31 187.296 107.7 187.074L107.845 187.109Z" fill="#4296CC"/>
<path d="M84.5127 162.403C84.5127 162.403 77.8876 164.466 71.1509 163.417C71.1509 163.417 78.8596 164.894 84.5891 162.734L84.5127 162.403Z" fill="#00A6AD"/>
<path d="M59.4761 119.543C59.4761 119.543 57.1942 120.225 55.1254 122.949C55.1254 122.949 56.2569 120.835 59.4645 119.021L59.4761 119.543Z" fill="#4296CC"/>
<path d="M73.7649 111.276C73.7649 111.276 76.1678 109.606 80.8848 108.249C80.8848 108.249 76.2524 109.129 73.5197 110.875L73.7649 111.276Z" fill="#4296CC"/>
<path d="M100.688 153.241C98.6439 157.837 93.3133 161.516 93.3133 161.516C88.1264 163.443 84.0305 162.951 84.0305 162.951L84.1924 156.899C88.873 155.288 94.8415 150.59 94.8415 150.59L100.688 153.241Z" fill="#00948E"/>
<path d="M95.016 138.959C95.016 138.959 86.6991 133.918 84.3619 133.241C84.3619 133.241 85.0238 124.458 84.7388 121.736C84.7388 121.736 90.5455 119.342 95.2675 120.161C95.2675 120.161 99.5253 124.227 101.534 130.994C101.534 130.994 98.0172 136.867 95.016 138.959Z" fill="#4296CC"/>
<path d="M74.3251 116.311C74.3251 116.311 67.2023 118.663 63.8996 122.829C63.8996 122.829 61.3006 120.644 58.8036 119.655C58.8036 119.655 61.8829 113.619 65.0989 111.944C65.0989 111.944 69.2637 109.904 74.8772 110.43C74.8772 110.43 74.1363 112.868 74.3251 116.311Z" fill="#4296CC"/>
<path d="M73.5148 151.45C73.5148 151.45 73.3616 143.291 73.6234 139.919C73.6234 139.919 66.6196 136.404 63.3575 134.373C63.3575 134.373 57.957 139.637 57.7262 142.393C57.7262 142.393 58.8807 148.487 63.4808 152.909C63.4808 152.909 68.1727 154.346 73.5148 151.45Z" fill="#4296CC"/>
<path d="M72.9657 151.105C72.9657 151.105 72.8219 143.355 73.0701 140.151C73.0701 140.151 66.4148 136.812 63.3169 134.883C63.3169 134.883 58.1866 139.884 57.9662 142.501C57.9662 142.501 59.0633 148.29 63.4338 152.492C63.4338 152.492 67.8919 153.856 72.9657 151.105Z" fill="#4296CC"/>
<path d="M107.537 143.356C108.758 139.062 108.827 134.442 107.666 129.889L107.632 129.752C107.544 131.061 107.331 132.901 106.819 133.861C106.819 133.861 108.098 139.374 107.537 143.356Z" fill="#00948E"/>
<path d="M95.1429 114C95.1429 114 96.9999 114.267 98.9643 115.144C94.6106 111.232 89.1004 108.697 83.1839 108.007C86.3375 108.722 91.9104 110.425 95.1429 114Z" fill="#4296CC"/>
<path d="M51.7046 131.863C51.1678 135.223 51.2285 138.731 51.9726 142.248C51.9957 141.179 52.1502 140.106 52.5656 139.321C52.5656 139.321 51.8297 135.86 51.7046 131.863Z" fill="#4296CC"/>
<path d="M64.1832 158.935C62.1251 158.646 59.6397 156.393 57.9339 154.577C61.6321 159.022 66.6113 162.247 72.1653 163.813C68.228 162.19 64.1832 158.935 64.1832 158.935Z" fill="#4296CC"/>
<path d="M82.2697 164.681C83.6121 164.566 84.9649 164.354 86.3156 164.04C88.567 163.517 90.6944 162.74 92.6724 161.746C90.6944 162.74 88.567 163.517 86.3156 164.04C84.9637 164.354 83.613 164.566 82.2697 164.681ZM107.575 129.912C107.573 129.899 107.569 129.888 107.567 129.876C107.569 129.888 107.573 129.9 107.575 129.912ZM107.565 129.868C107.563 129.859 107.56 129.848 107.558 129.839C107.56 129.848 107.563 129.859 107.565 129.868ZM107.557 129.831C107.551 129.807 107.545 129.782 107.539 129.759C107.545 129.782 107.551 129.807 107.557 129.831ZM107.539 129.759C107.536 129.746 107.533 129.733 107.53 129.721C107.533 129.733 107.536 129.746 107.539 129.759ZM107.53 129.719C107.521 129.68 107.511 129.643 107.502 129.605C107.511 129.643 107.521 129.681 107.53 129.719ZM107.502 129.605C107.44 129.35 107.375 129.097 107.306 128.846C107.375 129.097 107.44 129.35 107.502 129.605ZM107.306 128.842C107.302 128.832 107.299 128.82 107.296 128.81C107.299 128.82 107.302 128.832 107.306 128.842ZM107.295 128.805C107.289 128.781 107.282 128.757 107.275 128.733C107.282 128.757 107.289 128.781 107.295 128.805ZM107.273 128.725C107.271 128.717 107.268 128.708 107.266 128.7C107.268 128.708 107.271 128.717 107.273 128.725ZM107.263 128.689C107.261 128.68 107.259 128.672 107.256 128.663C107.258 128.672 107.261 128.68 107.263 128.689ZM107.253 128.653C107.25 128.642 107.247 128.632 107.244 128.622C107.247 128.632 107.25 128.642 107.253 128.653ZM107.24 128.606C107.238 128.6 107.237 128.596 107.235 128.589C107.237 128.595 107.238 128.6 107.24 128.606ZM107.229 128.571C107.228 128.566 107.227 128.561 107.225 128.556C107.226 128.56 107.228 128.566 107.229 128.571ZM107.22 128.537C107.219 128.534 107.218 128.529 107.217 128.527C107.218 128.53 107.219 128.534 107.22 128.537ZM107.205 128.486C107.204 128.482 107.204 128.481 107.203 128.476C107.203 128.48 107.204 128.483 107.205 128.486ZM107.196 128.454C107.195 128.45 107.195 128.448 107.194 128.446C107.195 128.448 107.195 128.45 107.196 128.454Z" fill="#00938E"/>
<path d="M94.5573 150.81C94.6898 150.194 94.9496 148.864 95.1251 147.16C95.3692 144.792 95.4464 141.708 94.7848 138.863C94.7807 138.845 94.7762 138.828 94.7721 138.811C94.9298 138.906 95.0153 138.958 95.0153 138.958C95.0301 138.947 95.0446 138.937 95.0591 138.927C96.1071 143.599 95.2283 148.806 94.862 150.598L94.8422 150.59C94.8422 150.59 94.7419 150.668 94.5573 150.81Z" fill="#4296CC"/>
<path d="M84.1865 157.14C83.2116 156.852 80.983 156.136 78.5781 154.979C78.6659 154.927 78.7523 154.874 78.8402 154.821C79.3391 155.058 79.8288 155.276 80.3016 155.475C82.0091 156.195 83.4725 156.663 84.2253 156.888C84.2146 156.891 84.2034 156.895 84.1927 156.898L84.1865 157.14Z" fill="#4296CC"/>
<path d="M95.2419 120.156C95.1584 120.141 95.075 120.128 94.9904 120.116C95.0738 119.766 95.1637 119.329 95.2389 118.823C95.4309 117.528 95.5218 115.799 95.1398 113.997C95.1407 113.998 95.1418 113.999 95.1427 114C95.1427 114 95.2389 114.014 95.4111 114.045C95.9173 116.551 95.5416 118.892 95.2419 120.156Z" fill="#4296CC"/>
<path d="M106.83 133.84C106.077 133.28 104.786 132.611 103.599 132.056C102.769 131.665 101.988 131.326 101.465 131.105C101.509 131.033 101.532 130.994 101.532 130.994C101.517 130.942 101.502 130.89 101.485 130.838C102.709 131.352 105.554 132.594 106.939 133.607C106.905 133.69 106.868 133.767 106.83 133.84Z" fill="#4296CC"/>
<path d="M100.606 153.203L100.476 153.145C101.025 152.713 101.828 152.012 102.729 151.003C104.378 149.152 106.348 146.267 107.653 142.119C107.643 142.287 107.633 142.453 107.618 142.617C107.614 142.639 107.609 142.661 107.604 142.683C105.576 148.712 102.161 151.968 100.606 153.203Z" fill="#4296CC"/>
<path d="M77.0025 163.909C74.249 163.909 71.9924 163.562 71.3408 163.45C71.3358 163.448 71.3305 163.445 71.3251 163.443C72.6332 163.636 73.9348 163.715 75.182 163.715C79.2873 163.715 82.8072 162.872 84.041 162.538L84.0304 162.932C81.7497 163.685 79.2154 163.909 77.0025 163.909Z" fill="#4296CC"/>
<path d="M85.3197 163.007C84.4992 163.007 84.0305 162.951 84.0305 162.951V162.931L84.0412 162.537L84.1862 157.141L84.1924 156.899C84.203 156.895 84.2143 156.891 84.2249 156.888C88.2924 155.478 93.3174 151.755 94.5566 150.81C94.7412 150.668 94.8415 150.59 94.8415 150.59L94.8613 150.598L100.476 153.145L100.607 153.203L100.688 153.241C99.0502 156.923 95.3049 160.015 93.879 161.101C93.4822 161.325 93.0816 161.539 92.6724 161.745C89.5159 162.818 86.826 163.007 85.3197 163.007Z" fill="#4296CC"/>
<path d="M95.0152 138.958C95.0152 138.958 94.9297 138.906 94.772 138.811C94.3933 138.583 93.6021 138.11 92.6094 137.53C94.4049 132.127 94.7815 126.177 93.3986 120.225C93.3808 120.147 93.3619 120.068 93.3432 119.991C93.8986 119.999 94.4507 120.037 94.9913 120.116C95.0759 120.129 95.1594 120.142 95.2428 120.156C95.2514 120.157 95.2596 120.159 95.2667 120.16C95.2667 120.16 99.4588 124.164 101.486 130.837C101.502 130.889 101.517 130.942 101.533 130.994C101.533 130.994 101.51 131.032 101.466 131.104C100.969 131.916 97.8075 136.981 95.0591 138.927C95.0446 138.937 95.03 138.948 95.0152 138.958Z" fill="#4296CC"/>
<path d="M107.697 142.539C107.712 142.376 107.722 142.21 107.732 142.042C107.933 138.247 106.897 133.784 106.897 133.784C106.901 133.777 106.904 133.769 106.908 133.761C106.947 133.688 106.983 133.611 107.018 133.528C107.408 132.606 107.597 131.143 107.688 129.98C108.658 134.256 108.607 138.528 107.697 142.539Z" fill="#4296CC"/>
<path d="M98.6897 115.026C97.2742 114.431 95.9579 114.147 95.4111 114.046C95.2389 114.015 95.1427 114.001 95.1427 114.001C95.1418 114 95.1406 113.999 95.1398 113.998C93.4757 112.16 91.193 110.817 88.9395 109.848C88.8099 109.653 88.6794 109.458 88.5469 109.268C92.291 110.47 95.7481 112.436 98.6897 115.026Z" fill="#4296CC"/>
<path d="M71.444 163.498C68.5254 162.587 65.7781 161.213 63.3084 159.442C63.7812 159.425 64.2573 159.398 64.7322 159.361C65.8563 160.211 68.5441 162.148 71.3248 163.444C71.3301 163.446 71.3354 163.449 71.3405 163.451C71.3751 163.467 71.4094 163.482 71.444 163.498Z" fill="#4296CC"/>
<path d="M51.6331 0L56.3929 9.64281L67.0355 11.1897L59.3343 18.6968L61.1528 29.2957L51.6331 24.2917L42.1145 29.2957L43.933 18.6968L36.2318 11.1897L46.8744 9.64281L51.6331 0Z" fill="#00A6AD"/>
<path d="M51.6324 3.63086L55.2117 10.8844L63.2156 12.0472L57.4246 17.693L58.7919 25.6647L51.6324 21.9007L44.4741 25.6647L45.8405 17.693L40.0495 12.0472L48.0534 10.8844L51.6324 3.63086Z" fill="#FEFEFE"/>
<path d="M51.6341 5.87305L54.4849 11.6493L60.8603 12.5763L56.2478 17.0731L57.3366 23.4225L51.6341 20.4258L45.9318 23.4225L47.0207 17.0731L42.4078 12.5763L48.7824 11.6493L51.6341 5.87305Z" fill="#F9CA3D"/>
<path d="M108.347 0L113.106 9.64281L123.748 11.1897L116.048 18.6968L117.866 29.2957L108.347 24.2917L98.8284 29.2957L100.646 18.6968L92.9445 11.1897L103.587 9.64281L108.347 0Z" fill="#00A6AD"/>
<path d="M108.347 3.63086L111.926 10.8844L119.93 12.0472L114.138 17.693L115.506 25.6647L108.347 21.9007L101.188 25.6647L102.555 17.693L96.7634 12.0472L104.767 10.8844L108.347 3.63086Z" fill="#FEFEFE"/>
<path d="M108.347 5.87305L111.197 11.6493L117.573 12.5763L112.959 17.0731L114.049 23.4225L108.347 20.4258L102.644 23.4225L103.733 17.0731L99.1193 12.5763L105.494 11.6493L108.347 5.87305Z" fill="#F9CA3D"/>
<path d="M56.7458 189.565C56.0496 191.115 55.7023 191.889 55.006 193.438L54.9025 193.489C54.1563 193.153 53.7858 192.978 53.0488 192.615C52.9369 192.56 52.8576 192.473 52.839 192.363C52.5165 191.267 52.3691 190.72 52.1031 189.626C51.6981 190.379 51.4957 190.754 51.0906 191.506L50.9424 191.534C50.5122 191.302 50.2994 191.183 49.8733 190.942L49.8118 190.797C50.6533 189.321 51.0737 188.584 51.9161 187.109L52.0676 187.078C52.436 187.287 52.6209 187.388 52.9914 187.591L53.1115 187.757C53.4308 189.239 53.6166 189.982 54.0415 191.47L54.1352 191.571L54.1728 191.59L54.3202 191.547C54.8066 190.529 55.0498 190.021 55.5363 189.003L55.6845 188.961C56.0842 189.152 56.2857 189.245 56.6896 189.428L56.7458 189.565Z" fill="#4296CC"/>
<path d="M61.4678 194.666L61.4542 194.708L61.4459 194.734L61.4241 194.779C61.2288 195.217 60.7684 195.498 60.2488 195.503C60.0733 195.503 59.8908 195.48 59.7133 195.418C58.612 195.03 58.0649 194.822 56.9796 194.382C56.7968 194.307 56.6444 194.203 56.5118 194.084C56.1236 193.736 55.9618 193.22 56.1068 192.763L56.1204 192.713L56.1307 192.689L56.1485 192.648C56.6414 191.514 56.8888 190.947 57.3814 189.813L57.3844 189.807L57.5149 189.76C57.9034 189.928 58.0975 190.009 58.4889 190.17L58.5232 190.19L58.5493 190.304C58.2279 191.094 58.0661 191.488 57.7445 192.276L57.7373 192.294C57.6329 192.549 57.5808 192.676 57.4764 192.932L57.4628 192.966C57.3897 193.2 57.5223 193.46 57.78 193.562C58.5244 193.86 58.8981 194.001 59.6496 194.272C59.9094 194.366 60.182 194.258 60.2811 194.036L60.2947 194C60.5983 193.127 60.903 192.261 61.2089 191.387L61.232 191.322L61.327 191.253L61.3667 191.261C61.5158 191.313 61.59 191.34 61.7392 191.389L61.7528 191.394C61.996 191.477 62.1182 191.518 62.3614 191.598L62.4262 191.72L62.425 191.726C62.0419 192.901 61.851 193.489 61.4678 194.666Z" fill="#4296CC"/>
<path d="M65.8545 194.89C66.1498 194.963 66.4359 194.802 66.5004 194.528L66.5267 194.418C66.5912 194.144 66.4128 193.871 66.1225 193.8C65.437 193.631 65.0947 193.541 64.4118 193.349L64.2792 193.419C64.1792 193.772 64.1301 193.95 64.0298 194.302L64.1091 194.43C64.8044 194.625 65.1541 194.718 65.8545 194.89ZM67.7227 197.527L67.5975 197.605C67.1676 197.517 66.9534 197.471 66.5255 197.374L66.4347 197.256C66.4702 197.079 66.4871 196.99 66.5214 196.812C66.5954 196.487 66.3658 196.162 66.011 196.078C65.1228 195.865 64.6813 195.75 63.8014 195.504L63.6729 195.567C63.5706 195.933 63.5185 196.115 63.4161 196.481L63.2774 196.549C62.8463 196.426 62.63 196.362 62.2 196.231L62.1207 196.1C62.6187 194.472 62.8681 193.656 63.367 192.028L63.4987 191.961C64.8115 192.36 65.4725 192.539 66.801 192.857C67.5129 193.026 67.9766 193.71 67.8292 194.397C67.797 194.55 67.7801 194.625 67.7479 194.778C67.6946 195.027 67.5662 195.24 67.3878 195.404L67.5194 195.517C67.8147 195.822 67.9659 196.237 67.8804 196.654C67.8177 197.003 67.7854 197.178 67.7227 197.527Z" fill="#4296CC"/>
<path d="M69.1377 196.428L69.046 196.311C69.1116 195.955 69.1451 195.778 69.2108 195.422L69.338 195.342C70.3298 195.524 70.8278 195.605 71.8246 195.743L71.9196 195.86C71.8705 196.218 71.8453 196.397 71.7962 196.756L71.6722 196.837C70.6556 196.695 70.1481 196.612 69.1377 196.428Z" fill="#4296CC"/>
<path d="M78.4113 197.253C78.4081 197.386 78.406 197.451 78.4031 197.585L78.4019 197.609C78.3685 198.126 77.9968 198.551 77.4843 198.716C77.3184 198.774 77.1391 198.797 76.9467 198.788C75.7966 198.732 75.2214 198.692 74.0731 198.581C73.8959 198.563 73.7204 198.515 73.5713 198.441L73.5577 198.433C73.0523 198.194 72.7425 197.693 72.8062 197.162L72.8153 197.081L72.8281 197.036L72.9417 196.966C73.3645 197.015 73.5763 197.039 74.0003 197.081L74.1015 197.194C74.1015 197.194 74.1131 197.427 74.3989 197.453C75.3363 197.54 75.8049 197.572 76.7435 197.623C76.9334 197.633 77.0929 197.492 77.1015 197.335C77.1127 197.08 76.8674 196.99 76.7642 196.985C75.7549 196.932 75.2507 196.894 74.2444 196.797C74.0722 196.78 73.9021 196.739 73.7571 196.665L73.7435 196.657C73.5784 196.576 73.4367 196.471 73.3207 196.336C73.1183 196.107 73.0085 195.813 73.0118 195.505L73.018 195.389L73.021 195.365L73.0544 195.143C73.115 194.863 73.279 194.619 73.4941 194.437L73.6464 194.332L73.8166 194.242L74.0033 194.178C74.161 194.138 74.3291 194.116 74.5001 194.132C75.4877 194.227 75.9813 194.264 76.971 194.315C77.1432 194.323 77.2997 194.363 77.4426 194.427L77.4625 194.433L77.6305 194.522L77.785 194.638L77.9282 194.765C78.1388 195.001 78.2664 195.253 78.2569 195.592L78.2557 195.609L78.2454 195.731L78.1421 195.792C77.7308 195.779 77.5252 195.772 77.1139 195.751L77.0106 195.645L77.0127 195.605L77.0148 195.561L77.0157 195.549C77.024 195.378 76.8873 195.293 76.6923 195.283C75.8792 195.236 75.4729 195.207 74.661 195.132C74.614 195.128 74.3311 195.156 74.303 195.407C74.2767 195.65 74.5022 195.746 74.6036 195.755C75.5951 195.846 76.091 195.881 77.0846 195.928C77.2275 195.936 77.3758 195.954 77.5033 196.011L77.59 196.039C78.0856 196.252 78.425 196.718 78.4113 197.253Z" fill="#4296CC"/>
<path d="M84.7069 197.389L84.7102 197.433L84.7123 197.459L84.709 197.511C84.6995 197.991 84.3865 198.427 83.9146 198.63C83.756 198.698 83.5805 198.747 83.395 198.759C82.2446 198.824 81.6685 198.844 80.5169 198.857C80.324 198.859 80.1456 198.822 79.9826 198.765C79.4973 198.593 79.1559 198.179 79.1121 197.701L79.1068 197.65V197.624L79.1079 197.58C79.1236 196.344 79.1319 195.725 79.1488 194.488V194.482L79.2479 194.388C79.6633 194.393 79.8698 194.393 80.2853 194.389L80.324 194.394L80.3918 194.49C80.3992 195.343 80.4033 195.769 80.4107 196.62V196.639C80.4137 196.913 80.4149 197.051 80.4169 197.327L80.4178 197.365C80.4409 197.608 80.659 197.797 80.9335 197.792C81.7206 197.78 82.1141 197.766 82.9 197.726C83.1725 197.711 83.3793 197.508 83.3843 197.264L83.3823 197.226C83.326 196.303 83.2728 195.387 83.2174 194.464L83.2142 194.394L83.2749 194.294L83.3133 194.287C83.4701 194.277 83.5474 194.272 83.7027 194.261L83.7163 194.26C83.9699 194.243 84.0962 194.234 84.3489 194.214L84.4554 194.301L84.4563 194.307C84.5566 195.541 84.6066 196.156 84.7069 197.389Z" fill="#4296CC"/>
<path d="M73.4733 215.025V213.68H70.3337V213.438C70.3337 213.33 70.3586 213.246 70.4089 213.196C70.4589 213.138 70.5506 213.096 70.6843 213.054L72.4046 212.595C72.7721 212.495 73.0558 212.311 73.2396 212.035C73.4233 211.768 73.5151 211.409 73.5151 210.958V210.457C73.5151 209.964 73.3399 209.58 72.9975 209.305C72.6549 209.021 72.1874 208.879 71.5862 208.879H70.7009C70.0914 208.879 69.6239 209.021 69.2981 209.297C68.9723 209.572 68.8055 209.973 68.8055 210.499V211.042H70.3086V210.699C70.3086 210.482 70.3586 210.324 70.4589 210.24C70.5592 210.148 70.7429 210.107 71.0015 210.107H71.269C71.5276 210.107 71.7113 210.148 71.8116 210.232C71.9202 210.324 71.9703 210.474 71.9703 210.699V210.941C71.9703 211.092 71.9368 211.192 71.8785 211.267C71.8116 211.342 71.6865 211.401 71.5027 211.459L69.7325 211.994C69.3984 212.094 69.1561 212.269 68.9892 212.537C68.8306 212.795 68.7469 213.146 68.7469 213.58V215.025H73.4733ZM76.1872 210.432C76.2958 210.299 76.5047 210.232 76.8301 210.232H77.089C77.4148 210.232 77.6234 210.299 77.7237 210.424C77.8323 210.557 77.8823 210.883 77.8823 211.409V212.57C77.8823 213.096 77.8323 213.422 77.7237 213.555C77.6234 213.68 77.4148 213.747 77.089 213.747H76.8301C76.5047 213.747 76.2958 213.68 76.1872 213.547C76.0786 213.405 76.0286 213.079 76.0286 212.57V211.409C76.0286 210.9 76.0786 210.574 76.1872 210.432ZM74.4669 212.62C74.4669 213.547 74.6258 214.19 74.943 214.557C75.2602 214.916 75.8114 215.1 76.5964 215.1H77.3228C78.1077 215.1 78.659 214.916 78.9761 214.549C79.2936 214.182 79.4522 213.538 79.4522 212.62V211.359C79.4522 210.441 79.2936 209.798 78.9761 209.43C78.659 209.063 78.1077 208.879 77.3228 208.879H76.5964C75.8114 208.879 75.2602 209.063 74.943 209.422C74.6258 209.789 74.4669 210.432 74.4669 211.359V212.62ZM82.0241 210.432C82.1327 210.299 82.3415 210.232 82.667 210.232H82.9259C83.2517 210.232 83.4603 210.299 83.5606 210.424C83.6692 210.557 83.7191 210.883 83.7191 211.409V212.57C83.7191 213.096 83.6692 213.422 83.5606 213.555C83.4603 213.68 83.2517 213.747 82.9259 213.747H82.667C82.3415 213.747 82.1327 213.68 82.0241 213.547C81.9155 213.405 81.8655 213.079 81.8655 212.57V211.409C81.8655 210.9 81.9155 210.574 82.0241 210.432ZM80.3038 212.62C80.3038 213.547 80.4627 214.19 80.7799 214.557C81.097 214.916 81.6483 215.1 82.4332 215.1H83.1597C83.9446 215.1 84.4959 214.916 84.813 214.549C85.1305 214.182 85.2891 213.538 85.2891 212.62V211.359C85.2891 210.441 85.1305 209.798 84.813 209.43C84.4959 209.063 83.9446 208.879 83.1597 208.879H82.4332C81.6483 208.879 81.097 209.063 80.7799 209.422C80.4627 209.789 80.3038 210.432 80.3038 211.359V212.62ZM89.3557 210.19C89.4392 210.249 89.4809 210.374 89.4809 210.566V211.017C89.4809 211.2 89.4392 211.326 89.364 211.384C89.2806 211.443 89.0886 211.476 88.7962 211.476H88.4622C88.1616 211.476 87.9695 211.451 87.8944 211.392C87.8192 211.334 87.7775 211.209 87.7775 211.017V210.566C87.7775 210.374 87.8192 210.24 87.9027 210.182C87.9861 210.123 88.1698 210.098 88.4622 210.098H88.7962C89.0886 210.098 89.2723 210.132 89.3557 210.19ZM86.3996 213.739C86.3996 214.19 86.5582 214.532 86.8756 214.758C87.1928 214.983 87.6606 215.1 88.2784 215.1H88.9965C89.7481 215.1 90.2659 214.916 90.5665 214.549C90.8671 214.19 91.0174 213.547 91.0174 212.62V211.359C91.0174 210.432 90.8671 209.789 90.5665 209.422C90.2659 209.063 89.7398 208.879 88.9965 208.879H88.2784C87.602 208.879 87.1011 209.013 86.7588 209.28C86.4247 209.547 86.2575 209.948 86.2575 210.482V211.034C86.2575 211.593 86.3913 212.011 86.6585 212.278C86.9257 212.545 87.3349 212.679 87.8944 212.679H88.4873C88.6959 212.679 88.8797 212.645 89.0468 212.587C89.2137 212.52 89.3557 212.42 89.4809 212.294V213.355C89.4809 213.58 89.4475 213.722 89.3723 213.789C89.2972 213.848 89.122 213.881 88.8631 213.881H88.4622C88.245 213.881 88.1033 213.848 88.0281 213.789C87.953 213.731 87.9195 213.614 87.9195 213.438V213.363H86.3996V213.739Z" fill="#4296CC"/>
<path d="M91.003 196.841C91.0689 197.186 91.1012 197.36 91.1669 197.705L91.0719 197.821C89.0439 198.2 88.0219 198.346 85.975 198.553L85.8519 198.469C85.6847 196.778 85.6013 195.934 85.4333 194.244L85.5158 194.132C85.9312 194.09 86.1389 194.069 86.5543 194.019L86.6712 194.107C86.8248 195.363 86.8999 195.991 87.0523 197.247L87.1754 197.335C88.6599 197.152 89.3999 197.037 90.8737 196.761L91.003 196.841Z" fill="#4296CC"/>
<path d="M96.4521 192.93L96.3781 193.059C95.7266 193.255 95.3987 193.347 94.7433 193.523L94.665 193.649C94.9919 194.876 95.1558 195.49 95.4813 196.718L95.3967 196.846C94.9605 196.961 94.7424 197.016 94.3048 197.124L94.1764 197.05C93.877 195.816 93.7279 195.198 93.4293 193.963L93.2997 193.89C92.6381 194.049 92.305 194.124 91.641 194.263L91.515 194.185C91.4439 193.845 91.4084 193.676 91.3383 193.336L91.4147 193.216C93.2914 192.823 94.2235 192.587 96.0701 192.033L96.2015 192.1C96.3018 192.432 96.3509 192.599 96.4521 192.93Z" fill="#4296CC"/>
<path d="M101.672 192.312C101.591 192.108 101.55 192.007 101.469 191.803C101.363 191.543 101.058 191.426 100.783 191.532C100.094 191.801 99.7486 191.931 99.0545 192.176C98.7778 192.274 98.6254 192.563 98.7171 192.828C98.7882 193.037 98.8237 193.139 98.8947 193.347L99.0335 193.408C100.072 193.048 100.589 192.856 101.613 192.445L101.672 192.312ZM102.554 191.021C103.041 192.156 103.283 192.723 103.769 193.858L103.701 193.997C103.283 194.175 103.072 194.263 102.65 194.433L102.504 194.383C102.362 194.03 102.292 193.853 102.15 193.502L102.014 193.446C100.97 193.864 100.444 194.059 99.3864 194.426L99.3113 194.56C99.4364 194.918 99.4971 195.098 99.6202 195.457L99.545 195.592C99.116 195.738 98.9009 195.81 98.4689 195.949L98.3278 195.885C97.9532 194.711 97.7653 194.123 97.3904 192.947C97.1756 192.271 97.5753 191.55 98.2716 191.309C99.2944 190.955 99.8019 190.767 100.809 190.363C101.495 190.087 102.275 190.37 102.554 191.021Z" fill="#4296CC"/>
<path d="M79.826 36.7281L79.5487 35.231L0 49.7304V162.332C0.0053259 171.37 4.07104 180.929 11.8593 190.792L11.8602 190.793C18.7717 199.519 28.4855 208.38 40.7339 217.187L40.736 217.188C56.0337 228.148 71.5785 236.278 79.1446 239.995L79.826 240.329L80.5077 239.995C88.0856 236.278 103.627 228.148 118.925 217.188L118.951 217.17L118.926 217.187C131.181 208.38 140.882 199.517 147.791 190.793L147.792 190.792C155.588 180.919 159.662 171.372 159.667 162.332V49.7304L79.826 35.1807L79.5487 35.231L79.826 36.7281L79.5487 38.2253L156.596 52.265V162.332C156.601 170.433 152.911 179.372 145.374 188.914L145.374 188.913C138.706 197.338 129.209 206.038 117.123 214.723L117.125 214.722C102.043 225.528 86.623 233.6 79.1457 237.267L79.826 238.631L80.5089 237.267C73.0417 233.6 57.6182 225.528 42.5359 214.722L42.537 214.723C30.4564 206.038 20.9455 197.337 14.2769 188.913L14.2781 188.914C6.74878 179.385 3.06653 170.434 3.07216 162.332V52.265L80.1047 38.2253L79.826 36.7281L79.5487 38.2253L79.826 36.7281Z" fill="#4296CC"/>
</svg>
