<svg width="30" height="32" viewBox="0 0 30 32" fill="none" xmlns="http://www.w3.org/2000/svg">
<g clip-path="url(#clip0)">
<path d="M30 6.078C28.8844 6.6 27.6956 6.946 26.4562 7.114C27.7312 6.302 28.7044 5.026 29.1619 3.488C27.9731 4.244 26.6606 4.778 25.2619 5.076C24.1331 3.794 22.5244 3 20.7694 3C17.3644 3 14.6231 5.948 14.6231 9.562C14.6231 10.082 14.6644 10.582 14.7656 11.058C9.6525 10.792 5.12813 8.178 2.08875 4.196C1.55812 5.178 1.24688 6.302 1.24688 7.512C1.24688 9.784 2.34375 11.798 3.97875 12.964C2.99062 12.944 2.02125 12.638 1.2 12.156C1.2 12.176 1.2 12.202 1.2 12.228C1.2 15.416 3.33187 18.064 6.1275 18.674C5.62687 18.82 5.08125 18.89 4.515 18.89C4.12125 18.89 3.72375 18.866 3.35062 18.778C4.1475 21.376 6.40875 23.286 9.0975 23.348C7.005 25.094 4.34812 26.146 1.47188 26.146C0.9675 26.146 0.48375 26.122 0 26.056C2.72438 27.93 5.95312 29 9.435 29C20.7525 29 26.94 19 26.94 10.332C26.94 10.042 26.9306 9.762 26.9175 9.484C28.1381 8.56 29.1637 7.406 30 6.078Z" fill="white"/>
</g>
<defs>
<clipPath id="clip0">
<rect width="30" height="32" fill="white"/>
</clipPath>
</defs>
</svg>
