<svg width="30" height="30" viewBox="0 0 30 30" fill="none" xmlns="http://www.w3.org/2000/svg">
<g clip-path="url(#clip0)">
<path d="M14.7862 14.4511C16.7715 14.4511 18.4907 13.739 19.8953 12.3342C21.3 10.9295 22.012 9.21086 22.012 7.22531C22.012 5.24046 21.3 3.52156 19.8951 2.11646C18.4902 0.712049 16.7713 0 14.7862 0C12.8007 0 11.082 0.712049 9.67735 2.11669C8.27271 3.52133 7.56042 5.24023 7.56042 7.22531C7.56042 9.21086 8.27271 10.9298 9.67758 12.3344C11.0825 13.7388 12.8014 14.4511 14.7862 14.4511Z" fill="#1F3E7D"/>
<path d="M27.4294 23.0675C27.3889 22.483 27.307 21.8453 27.1864 21.172C27.0646 20.4936 26.9078 19.8522 26.7201 19.2661C26.5263 18.6602 26.2626 18.0619 25.9367 17.4886C25.5984 16.8935 25.201 16.3753 24.7552 15.9489C24.2889 15.5028 23.7181 15.1441 23.058 14.8825C22.4002 14.6223 21.6712 14.4905 20.8914 14.4905C20.5852 14.4905 20.289 14.6161 19.717 14.9885C19.365 15.2181 18.9532 15.4836 18.4937 15.7772C18.1007 16.0276 17.5683 16.2622 16.9107 16.4746C16.2691 16.6822 15.6178 16.7875 14.9748 16.7875C14.3319 16.7875 13.6807 16.6822 13.0385 16.4746C12.3816 16.2625 11.8492 16.0279 11.4567 15.7775C11.0014 15.4866 10.5894 15.2211 10.2322 14.9883C9.66087 14.6159 9.36447 14.4902 9.05823 14.4902C8.2782 14.4902 7.54944 14.6223 6.89186 14.8828C6.23222 15.1439 5.66116 15.5026 5.19447 15.9491C4.74884 16.3758 4.35127 16.8937 4.01344 17.4886C3.68774 18.0619 3.42407 18.66 3.22998 19.2663C3.04253 19.8525 2.88574 20.4936 2.76398 21.172C2.64336 21.8444 2.56142 22.4823 2.5209 23.0682C2.48108 23.6423 2.46094 24.238 2.46094 24.8398C2.46094 26.4058 2.95876 27.6735 3.94043 28.6085C4.90997 29.5311 6.19286 29.9992 7.75291 29.9992H22.1981C23.7582 29.9992 25.0406 29.5314 26.0104 28.6085C26.9923 27.6742 27.4901 26.4062 27.4901 24.8395C27.4899 24.2351 27.4695 23.6388 27.4294 23.0675Z" fill="#1F3E7D"/>
</g>
<defs>
<clipPath id="clip0">
<rect width="30" height="30" fill="white"/>
</clipPath>
</defs>
</svg>
