<svg width="38" height="38" viewBox="0 0 38 38" fill="none" xmlns="http://www.w3.org/2000/svg">
<g clip-path="url(#clip0)">
<path d="M31.5321 20.627C30.9178 19.8512 31.0935 19.506 31.5321 18.8125C31.54 18.8046 36.6114 11.7968 37.1339 9.42018L37.1371 9.4186C37.3968 8.55252 37.1371 7.91602 35.8815 7.91602H31.7268C30.6692 7.91602 30.1815 8.46227 29.9203 9.07343C29.9203 9.07343 27.8049 14.1369 24.8124 17.4192C23.8466 18.3676 23.4001 18.6716 22.8728 18.6716C22.6132 18.6716 22.2094 18.3676 22.2094 17.5015V9.4186C22.2094 8.37993 21.9133 7.91602 21.0378 7.91602H14.5049C13.8415 7.91602 13.4473 8.40052 13.4473 8.85177C13.4473 9.8366 14.9435 10.063 15.0987 12.8338V18.8458C15.0987 20.1631 14.8596 20.4054 14.3292 20.4054C12.9168 20.4054 9.48892 15.3213 7.4575 9.50252C7.04742 8.3736 6.64683 7.9176 5.58125 7.9176H1.425C0.239083 7.9176 0 8.46385 0 9.07502C0 10.1548 1.41233 15.5239 6.56767 22.6173C10.0035 27.4591 14.8422 30.0827 19.2438 30.0827C21.8896 30.0827 22.2126 29.5 22.2126 28.4978C22.2126 23.8713 21.9735 23.4343 23.2988 23.4343C23.9131 23.4343 24.9708 23.7383 27.4408 26.0737C30.2638 28.8429 30.7278 30.0827 32.3079 30.0827H36.4626C37.6469 30.0827 38.247 29.5 37.9018 28.3505C37.1118 25.9328 31.7728 20.9595 31.5321 20.627Z" fill="white"/>
</g>
<defs>
<clipPath id="clip0">
<rect width="38" height="38" fill="white"/>
</clipPath>
</defs>
</svg>
