<svg width="33" height="22" viewBox="0 0 33 22" fill="none" xmlns="http://www.w3.org/2000/svg">
<path d="M32.3201 3.44247C31.9398 2.09636 30.8252 1.03524 29.4116 0.672769C26.8293 0 16.4996 0 16.4996 0C16.4996 0 6.17039 0 3.58803 0.647262C2.20168 1.00934 1.05985 2.09655 0.679579 3.44247C0 5.90111 0 11 0 11C0 11 0 16.1246 0.679579 18.5575C1.06026 19.9034 2.17449 20.9646 3.58823 21.327C6.19758 22 16.5 22 16.5 22C16.5 22 26.8293 22 29.4116 21.3527C30.8254 20.9905 31.9398 19.9293 32.3205 18.5834C32.9999 16.1246 32.9999 11.0259 32.9999 11.0259C32.9999 11.0259 33.0271 5.90111 32.3201 3.44247ZM13.2109 15.7105V6.28947L21.8005 11L13.2109 15.7105Z" fill="white"/>
</svg>
