<svg width="18" height="17" viewBox="0 0 18 17" fill="none" xmlns="http://www.w3.org/2000/svg">
<g clip-path="url(#clip0)">
<path d="M17.4833 4.99805C17.4435 4.09477 17.2974 3.47378 17.0881 2.93568C16.8723 2.3645 16.5402 1.85312 16.1051 1.42801C15.68 0.996288 15.1652 0.660819 14.6007 0.44833C14.0594 0.239083 13.4417 0.0930129 12.5384 0.0531873C11.6284 0.00998882 11.3395 0 9.03143 0C6.72336 0 6.43446 0.00998882 5.52782 0.0498144C4.62454 0.08964 4.00355 0.23584 3.46558 0.444957C2.89427 0.660819 2.38289 0.992916 1.95778 1.42801C1.52606 1.85312 1.19072 2.36787 0.9781 2.93243C0.768853 3.47378 0.622783 4.0914 0.582957 4.99467C0.539759 5.9047 0.52977 6.19359 0.52977 8.50166C0.52977 10.8097 0.539759 11.0986 0.579584 12.0053C0.61941 12.9086 0.76561 13.5295 0.974856 14.0676C1.19072 14.6388 1.52606 15.1502 1.95778 15.5753C2.38289 16.007 2.89764 16.3425 3.4622 16.555C4.00355 16.7642 4.62117 16.9103 5.52457 16.9501C6.43109 16.9901 6.72012 17 9.02819 17C11.3363 17 11.6252 16.9901 12.5318 16.9501C13.4351 16.9103 14.0561 16.7642 14.594 16.555C15.7365 16.1133 16.6398 15.21 17.0815 14.0676C17.2906 13.5263 17.4368 12.9086 17.4767 12.0053C17.5165 11.0986 17.5265 10.8097 17.5265 8.50166C17.5265 6.19359 17.5231 5.9047 17.4833 4.99805ZM15.9524 11.9389C15.9158 12.7691 15.7764 13.2174 15.6601 13.5163C15.3745 14.2569 14.7867 14.8447 14.0461 15.1304C13.7472 15.2466 13.2956 15.386 12.4686 15.4225C11.572 15.4624 11.303 15.4723 9.0348 15.4723C6.76656 15.4723 6.49427 15.4624 5.60085 15.4225C4.77061 15.386 4.32228 15.2466 4.0234 15.1304C3.65485 14.9941 3.31938 14.7783 3.04708 14.496C2.7648 14.2203 2.54894 13.8882 2.41273 13.5197C2.2965 13.2208 2.15704 12.7691 2.12059 11.9422C2.08063 11.0456 2.07077 10.7765 2.07077 8.50828C2.07077 6.24003 2.08063 5.96774 2.12059 5.07446C2.15704 4.24421 2.2965 3.79588 2.41273 3.497C2.54894 3.12832 2.7648 2.79298 3.05046 2.52056C3.32599 2.23828 3.65809 2.02241 4.02677 1.88633C4.32565 1.7701 4.77736 1.63064 5.60422 1.59406C6.50088 1.55424 6.76993 1.54425 9.03805 1.54425C11.3097 1.54425 11.5786 1.55424 12.472 1.59406C13.3022 1.63064 13.7506 1.7701 14.0495 1.88633C14.418 2.02241 14.7535 2.23828 15.0258 2.52056C15.308 2.79622 15.5239 3.12832 15.6601 3.497C15.7764 3.79588 15.9158 4.24746 15.9524 5.07446C15.9922 5.97111 16.0022 6.24003 16.0022 8.50828C16.0022 10.7765 15.9922 11.0422 15.9524 11.9389Z" fill="#1F3E7D"/>
<path d="M9.03166 4.13477C6.62072 4.13477 4.6646 6.09076 4.6646 8.50183C4.6646 10.9129 6.62072 12.8689 9.03166 12.8689C11.4427 12.8689 13.3987 10.9129 13.3987 8.50183C13.3987 6.09076 11.4427 4.13477 9.03166 4.13477ZM9.03166 11.3346C7.46756 11.3346 6.19885 10.0661 6.19885 8.50183C6.19885 6.93761 7.46756 5.66902 9.03166 5.66902C10.5959 5.66902 11.8645 6.93761 11.8645 8.50183C11.8645 10.0661 10.5959 11.3346 9.03166 11.3346Z" fill="#1F3E7D"/>
<path d="M14.5909 3.96287C14.5909 4.52588 14.1344 4.98238 13.5713 4.98238C13.0082 4.98238 12.5517 4.52588 12.5517 3.96287C12.5517 3.39973 13.0082 2.94336 13.5713 2.94336C14.1344 2.94336 14.5909 3.39973 14.5909 3.96287Z" fill="#1F3E7D"/>
</g>
<defs>
<clipPath id="clip0">
<rect width="17" height="17" fill="white" transform="translate(0.5)"/>
</clipPath>
</defs>
</svg>
