<svg width="22" height="21" viewBox="0 0 22 21" fill="none" xmlns="http://www.w3.org/2000/svg">
<g clip-path="url(#clip0)">
<path d="M21.5 3.01994C20.7191 3.3625 19.8869 3.58956 19.0194 3.69981C19.9119 3.16694 20.5931 2.32956 20.9133 1.32025C20.0812 1.81637 19.1624 2.16681 18.1833 2.36238C17.3932 1.52106 16.2671 1 15.0386 1C12.6551 1 10.7362 2.93463 10.7362 5.30631C10.7362 5.64756 10.7651 5.97569 10.8359 6.28806C7.25675 6.1135 4.08969 4.39806 1.96212 1.78488C1.59069 2.42931 1.37281 3.16694 1.37281 3.961C1.37281 5.452 2.14062 6.77369 3.28513 7.53887C2.59344 7.52575 1.91488 7.32494 1.34 7.00863C1.34 7.02175 1.34 7.03881 1.34 7.05587C1.34 9.148 2.83231 10.8857 4.78925 11.2861C4.43881 11.3819 4.05687 11.4278 3.6605 11.4278C3.38488 11.4278 3.10662 11.4121 2.84544 11.3543C3.40325 13.0592 4.98613 14.3127 6.86825 14.3534C5.4035 15.4992 3.54369 16.1896 1.53031 16.1896C1.17725 16.1896 0.838625 16.1738 0.5 16.1305C2.40706 17.3603 4.66719 18.0625 7.1045 18.0625C15.0267 18.0625 19.358 11.5 19.358 5.81163C19.358 5.62131 19.3514 5.43756 19.3423 5.25513C20.1967 4.64875 20.9146 3.89144 21.5 3.01994Z" fill="#1F3E7D"/>
</g>
<defs>
<clipPath id="clip0">
<rect width="21" height="21" fill="white" transform="translate(0.5)"/>
</clipPath>
</defs>
</svg>
