<svg width="24" height="17" viewBox="0 0 24 17" fill="none" xmlns="http://www.w3.org/2000/svg">
<path d="M23.5055 2.66009C23.229 1.61992 22.4183 0.799955 21.3903 0.519867C19.5122 0 11.9997 0 11.9997 0C11.9997 0 4.48756 0 2.60948 0.500157C1.60122 0.779948 0.770802 1.62006 0.494239 2.66009C0 4.55995 0 8.5 0 8.5C0 8.5 0 12.4599 0.494239 14.3399C0.771095 15.3799 1.58145 16.1999 2.60962 16.48C4.50733 17 12 17 12 17C12 17 19.5122 17 21.3903 16.4998C22.4185 16.2199 23.229 15.3999 23.5058 14.3599C23.9999 12.4599 23.9999 8.52001 23.9999 8.52001C23.9999 8.52001 24.0197 4.55995 23.5055 2.66009ZM9.60793 12.14V4.86004L15.8549 8.5L9.60793 12.14Z" fill="#1F3E7D"/>
</svg>
